<svg viewBox="0 0 440 393" fill="none" xmlns="http://www.w3.org/2000/svg">
    <path fill-rule="evenodd" clip-rule="evenodd" d="M304.009 73.464c.009-3.395-3.319-6.135-6.505-4.964l-5.844 2.148c-6.038 2.22-12.732-.877-14.951-6.915-2.22-6.038.876-12.732 6.915-14.951l47.234-17.36c12.014-5.616 26.333-6.093 39.313-.09 13.538 6.262 22.647 18.197 25.811 31.673l16.71 45.47c2.219 6.038-.877 12.732-6.915 14.951-6.038 2.219-12.732-.877-14.951-6.915l-2.115-5.754c-1.145-3.117-5.289-3.869-7.814-1.713a4.524 4.524 0 00-1.179 1.54l-22.34 48.301c-2.7 5.839-9.623 8.383-15.461 5.682-5.839-2.7-8.383-9.623-5.683-15.461l11.301-24.434c.973-2.103-.521-4.527-2.819-4.821-1.455-.185-2.906.546-3.521 1.877l-18.152 39.244c-2.7 5.839-9.623 8.383-15.461 5.683-5.839-2.701-8.383-9.623-5.683-15.462l18.152-39.247c.616-1.33.233-2.908-.85-3.896-1.711-1.56-4.524-1.129-5.496.972l-11.302 24.437c-2.701 5.838-9.623 8.382-15.462 5.682-5.839-2.701-8.383-9.623-5.682-15.462l22.331-48.283a4.612 4.612 0 00.419-1.932z" fill="#FD4848"/>
    <path d="M318.737 53.744s24.926-14.139 43.61-5.497c18.684 8.641 24.051 36.791 24.051 36.791s-24.926 14.139-43.61 5.497-24.051-36.791-24.051-36.791z" fill="#D5FF5C"/>
    <path d="M336.76 62.08c4.038-8.73 14.389-12.535 23.119-8.497s12.534 14.388 8.496 23.119c-4.038 8.73-14.388 12.534-23.118 8.496-8.731-4.038-12.535-14.388-8.497-23.119z" stroke="#FD4848" stroke-width="2.441"/>
    <path d="M343.104 65.012c2.417-5.227 8.615-7.504 13.841-5.087 5.227 2.418 7.505 8.615 5.087 13.842-2.417 5.227-8.614 7.505-13.841 5.087-5.227-2.418-7.505-8.615-5.087-13.842z" stroke="#FD4848" stroke-width="2.441"/>
    <path d="M330.417 59.145c5.658-12.233 20.162-17.564 32.396-11.906 12.233 5.659 17.564 20.163 11.906 32.396-5.659 12.234-20.163 17.564-32.396 11.906-12.234-5.658-17.564-20.162-11.906-32.396z" stroke="#FD4848" stroke-width="2.441"/>
    <path d="M324.074 56.212c7.279-15.737 25.936-22.593 41.673-15.315 15.737 7.279 22.594 25.936 15.315 41.673-7.278 15.737-25.936 22.593-41.673 15.315-15.736-7.279-22.593-25.936-15.315-41.673z" stroke="#FD4848" stroke-width="2.441"/>
    <path d="M349.446 67.947a3.44 3.44 0 116.243 2.888 3.44 3.44 0 01-6.243-2.888z" fill="#162BEB" stroke="#FD4848" stroke-width="2.441"/>
    <circle cx="352.567" cy="69.39" transform="rotate(-155.179 352.567 69.39)" fill="#FD4848" r="4.659"/>
    <path d="M384.942 84.088c.026.11.05.213.071.309l-.281.146c-.702.361-1.73.87-3.024 1.457a77.25 77.25 0 01-10.444 3.853c-8.473 2.428-19.022 3.709-27.963-.426-8.941-4.136-14.796-13.004-18.433-21.033a77.25 77.25 0 01-3.827-10.454 67.554 67.554 0 01-.848-3.247l-.071-.31.281-.145c.702-.362 1.731-.871 3.024-1.457a77.27 77.27 0 0110.445-3.853c8.473-2.428 19.022-3.71 27.963.426 8.941 4.135 14.796 13.004 18.432 21.032a77.113 77.113 0 013.827 10.454c.392 1.366.669 2.479.848 3.248z" stroke="#D5FF5C" stroke-width="2.441"/>
    <path fill-rule="evenodd" clip-rule="evenodd" d="M167.164 252.944c3.22-.315 5.5-3.733 4.085-6.642l-2.595-5.337c-2.681-5.514-.384-12.158 5.13-14.839 5.514-2.681 12.158-.384 14.839 5.13l20.965 43.122c6.481 10.859 8.303 24.398 3.847 37.286-4.646 13.438-15.098 23.218-27.58 27.503l-41.514 20.184c-5.514 2.681-12.158.384-14.839-5.13-2.681-5.514-.384-12.158 5.13-14.839l5.256-2.555c2.845-1.383 3.163-5.383.878-7.572a4.31 4.31 0 00-1.572-.97l-47.94-16.573c-5.795-2.004-8.868-8.326-6.865-14.12 2.004-5.795 8.325-8.869 14.12-6.865l24.252 8.384c2.086.721 4.242-.927 4.301-3.134.037-1.397-.795-2.703-2.115-3.159l-38.95-13.466c-5.795-2.003-8.869-8.325-6.865-14.12 2.003-5.795 8.325-8.868 14.12-6.865l38.95 13.466c1.32.456 2.781-.057 3.614-1.178 1.317-1.772.639-4.399-1.447-5.121l-24.252-8.384c-5.795-2.003-8.868-8.325-6.865-14.12 2.004-5.795 8.325-8.868 14.12-6.865l47.92 16.567a4.387 4.387 0 001.872.212z" fill="#4B604F"/>
    <path d="M187.27 265.03s15.788 22.287 9.377 40.831c-6.411 18.543-32.593 26.321-32.593 26.321s-15.788-22.288-9.377-40.831c6.411-18.544 32.593-26.321 32.593-26.321z" fill="#D5FF5C"/>
    <path d="M181.695 281.154c9.638 3.332 14.75 13.846 11.418 23.484-3.332 9.638-13.846 14.75-23.484 11.418-9.638-3.332-14.749-13.846-11.418-23.484 3.332-9.638 13.847-14.75 23.484-11.418z" stroke="#4B604F" stroke-width="3.038"/>
    <path d="M179.52 287.449c6.161 2.13 9.428 8.851 7.298 15.012-2.129 6.161-8.851 9.429-15.011 7.299-6.161-2.13-9.429-8.851-7.299-15.012s8.851-9.428 15.012-7.299z" stroke="#4B604F" stroke-width="3.038"/>
    <path d="M183.872 274.858c13.115 4.534 20.071 18.841 15.537 31.956-4.534 13.115-18.841 20.071-31.956 15.537-13.115-4.534-20.071-18.841-15.537-31.956 4.534-13.115 18.841-20.071 31.956-15.537z" stroke="#4B604F" stroke-width="3.038"/>
    <path d="M186.048 268.564c16.592 5.736 25.392 23.836 19.656 40.428-5.736 16.591-23.836 25.391-40.428 19.655-16.592-5.736-25.392-23.836-19.656-40.427 5.736-16.592 23.837-25.392 40.428-19.656z" stroke="#4B604F" stroke-width="3.038"/>
    <path d="M177.343 293.746a5.143 5.143 0 11-3.363 9.72 5.143 5.143 0 013.363-9.72z" stroke="#4B604F" stroke-width="3.038"/>
    <path d="M164.701 330.373l-.024.009-.014-.022a63.158 63.158 0 01-1.661-2.713 73.361 73.361 0 01-4.629-9.49c-3.101-7.777-5.286-17.559-2.26-26.31 3.026-8.752 10.785-15.096 18.027-19.297a73.29 73.29 0 019.502-4.605 64.285 64.285 0 012.982-1.108l.024-.008.014.021c.407.627.985 1.548 1.661 2.714a73.275 73.275 0 014.629 9.489c3.1 7.777 5.285 17.559 2.259 26.311-3.025 8.752-10.785 15.095-18.027 19.296a73.154 73.154 0 01-9.501 4.605 63.134 63.134 0 01-2.982 1.108z" stroke="#D5FF5C" stroke-width="3.038"/>
    <path fill-rule="evenodd" clip-rule="evenodd" d="M90.576 163.052c-1.25 2.195-.097 5.188 2.395 5.596l4.572.749a8.666 8.666 0 017.152 9.953 8.666 8.666 0 01-9.953 7.152l-36.94-6.051c-9.842-.758-19.295-5.693-25.507-14.337-6.475-9.013-8.005-20.079-5.12-29.965l5.827-35.57a8.667 8.667 0 0117.105 2.802l-.737 4.502c-.4 2.438 2.008 4.442 4.433 3.97.48-.093.93-.28 1.327-.565l32.157-23.106a8.666 8.666 0 1110.114 14.077l-16.267 11.688c-1.4 1.006-1.32 3.122.061 4.154.874.653 2.082.711 2.968.074l26.126-18.772a8.667 8.667 0 0110.114 14.076l-26.127 18.773c-.886.637-1.216 1.799-.876 2.835.537 1.638 2.517 2.389 3.916 1.383l16.268-11.688a8.666 8.666 0 1110.114 14.076l-32.144 23.096c-.404.29-.732.665-.978 1.098z" fill="#201BFF"/>
    <path d="M73.816 170.431s-21.321.031-30.259-12.408c-8.937-12.438-2.106-32.636-2.106-32.636s21.322-.031 30.26 12.408c8.936 12.439 2.105 32.636 2.105 32.636z" fill="#09FFC4"/>
    <path d="M64.89 158.009c-5.578 4.008-13.348 2.735-17.356-2.843-4.008-5.578-2.735-13.348 2.843-17.356 5.578-4.008 13.348-2.735 17.356 2.843 4.008 5.578 2.735 13.348-2.843 17.356z" stroke="#201BFF" stroke-width="2.86"/>
    <path d="M61.856 153.785a7.236 7.236 0 11-8.446-11.753 7.236 7.236 0 018.446 11.753z" stroke="#201BFF" stroke-width="2.86"/>
    <path d="M67.924 162.232c-7.91 5.683-18.93 3.878-24.613-4.032-5.684-7.91-3.879-18.93 4.031-24.613 7.91-5.684 18.93-3.879 24.614 4.031 5.684 7.91 3.879 18.93-4.032 24.614z" stroke="#201BFF" stroke-width="2.86"/>
    <path d="M70.959 166.455c-10.243 7.359-24.512 5.022-31.871-5.221-7.36-10.242-5.022-24.511 5.22-31.87 10.243-7.36 24.512-5.023 31.87 5.22 7.36 10.242 5.023 24.511-5.22 31.871z" stroke="#201BFF" stroke-width="2.86"/>
    <path d="M58.822 149.563a2.036 2.036 0 11-2.377-3.307 2.036 2.036 0 012.377 3.307z" fill="#09FFC4" stroke="#201BFF" stroke-width="2.86"/>
    <path d="M58.822 149.563a2.036 2.036 0 11-2.377-3.307 2.036 2.036 0 012.377 3.307z" fill="#09FFC4" stroke="#201BFF" stroke-width="2.86"/>
    <path d="M41.914 129.071c.221-.923.427-1.678.585-2.225.57.025 1.351.07 2.296.155 2.088.187 4.96.563 8.1 1.316 6.337 1.521 13.487 4.514 17.654 10.313 4.166 5.798 4.722 13.53 4.141 20.02a56.977 56.977 0 01-1.337 8.098 50.282 50.282 0 01-.585 2.224 48.84 48.84 0 01-2.295-.155 56.873 56.873 0 01-8.101-1.316c-6.336-1.52-13.487-4.513-17.653-10.312-4.167-5.799-4.722-13.531-4.142-20.021a56.935 56.935 0 011.337-8.097z" stroke="#09FFC4" stroke-width="2.86"/>
    <path fill-rule="evenodd" clip-rule="evenodd" d="M357.463 310.595c-.627 3.771 2.575 7.42 6.329 6.697l6.883-1.325c7.113-1.37 13.989 3.285 15.359 10.398 1.37 7.113-3.286 13.989-10.398 15.359l-55.638 10.716c-14.372 4.061-30.37 1.992-43.705-7.036-13.907-9.415-21.863-24.332-22.932-39.881l-10.316-53.561c-1.37-7.113 3.286-13.989 10.399-15.359 7.112-1.37 13.989 3.285 15.359 10.398l1.305 6.778c.707 3.672 5.175 5.26 8.373 3.323a5.092 5.092 0 001.588-1.497l33.594-49.62c4.06-5.998 12.215-7.569 18.213-3.508 5.998 4.061 7.568 12.215 3.508 18.213l-16.994 25.102c-1.463 2.16-.243 5.124 2.257 5.867 1.583.471 3.328-.079 4.253-1.446l27.294-40.315c4.061-5.998 12.216-7.569 18.214-3.508 5.998 4.061 7.568 12.215 3.507 18.213l-27.294 40.316c-.925 1.367-.787 3.191.237 4.485 1.619 2.045 4.823 2.077 6.285-.083l16.995-25.102c4.06-5.998 12.215-7.569 18.213-3.508 5.998 4.061 7.568 12.215 3.508 18.213l-33.58 49.6a5.193 5.193 0 00-.816 2.071z" fill="#BA84FF"/>
    <path d="M337.517 329.837s-30.265 11.187-49.459-1.808c-19.194-12.994-20.048-45.249-20.048-45.249s30.265-11.187 49.459 1.807c19.194 12.995 20.048 45.25 20.048 45.25z" fill="#BFFF09"/>
    <circle cx="302.764" cy="306.308" r="19.469" transform="rotate(34.099 302.764 306.308)" stroke="#BA84FF" stroke-width="3.032"/>
    <path d="M312.369 312.81c-3.592 5.305-10.804 6.694-16.108 3.103-5.305-3.592-6.694-10.804-3.103-16.108 3.592-5.305 10.803-6.694 16.108-3.103 5.305 3.592 6.694 10.804 3.103 16.108z" stroke="#BA84FF" stroke-width="3.032"/>
    <path d="M325.401 321.634c-8.464 12.502-25.462 15.776-37.964 7.311-12.503-8.464-15.776-25.461-7.312-37.964 8.465-12.502 25.462-15.776 37.964-7.312 12.503 8.465 15.776 25.462 7.312 37.965z" stroke="#BA84FF" stroke-width="3.032"/>
    <path d="M331.917 326.045c-10.901 16.101-32.79 20.317-48.892 9.416-16.101-10.901-20.317-32.79-9.416-48.892 10.901-16.101 32.79-20.317 48.892-9.416 16.101 10.901 20.317 32.79 9.416 48.892z" stroke="#BA84FF" stroke-width="3.032"/>
    <circle cx="302.764" cy="306.307" r="3.73" transform="rotate(34.099 302.764 306.307)" fill="#BA84FF" stroke="#BA84FF" stroke-width="3.032"/>
    <path d="M269.596 284.089l-.016-.247.235-.076a74.883 74.883 0 013.618-1.068 86.893 86.893 0 0112.286-2.383c9.845-1.158 21.758-.662 30.9 5.527 9.142 6.19 14.027 17.066 16.608 26.637a86.828 86.828 0 012.351 12.292c.187 1.585.293 2.871.352 3.756l.016.246-.235.077c-.843.273-2.076.652-3.617 1.068a86.767 86.767 0 01-12.286 2.382c-9.845 1.158-21.758.663-30.9-5.526-9.143-6.19-14.027-17.067-16.608-26.638a86.65 86.65 0 01-2.351-12.291 76.423 76.423 0 01-.353-3.756z" stroke="#BFFF09" stroke-width="3.032"/>
    <path fill-rule="evenodd" clip-rule="evenodd" d="M241.92 178.587c.144 2.903 3.112 5.098 5.785 3.954l4.902-2.098c5.064-2.167 10.927.182 13.095 5.247 2.167 5.065-.182 10.928-5.247 13.095l-39.615 16.952c-10.025 5.342-22.251 6.39-33.622 1.834-11.856-4.75-20.179-14.55-23.486-25.933l-16.322-38.143c-2.167-5.064.182-10.927 5.247-13.095 5.064-2.167 10.927.182 13.095 5.247l2.065 4.826c1.119 2.615 4.697 3.074 6.762 1.116.407-.386.73-.848.939-1.37l16.948-42.303c2.049-5.114 7.856-7.598 12.97-5.55 5.114 2.049 7.598 7.856 5.55 12.97l-8.575 21.402c-.738 1.841.647 3.846 2.625 3.995 1.252.094 2.46-.596 2.927-1.761l13.771-34.374c2.049-5.114 7.856-7.599 12.97-5.55 5.114 2.049 7.598 7.856 5.549 12.97l-13.771 34.373c-.467 1.165-.07 2.499.901 3.295 1.533 1.258 3.92.764 4.658-1.077l8.575-21.402c2.048-5.114 7.855-7.599 12.969-5.55 5.114 2.049 7.599 7.856 5.55 12.969l-16.943 42.29a3.954 3.954 0 00-.272 1.671z" fill="#005773"/>
    <path d="M230.206 196.109s-20.685 13.204-37.05 6.647c-16.365-6.556-22.211-30.39-22.211-30.39s20.686-13.204 37.05-6.648c16.365 6.556 22.211 30.391 22.211 30.391z" fill="#FD8FFF"/>
    <path d="M214.462 189.8c-3.073 7.67-11.781 11.396-19.451 8.323-7.669-3.072-11.395-11.781-8.323-19.45 3.073-7.67 11.781-11.396 19.451-8.324 7.669 3.073 11.396 11.782 8.323 19.451z" stroke="#005773" stroke-width="2"/>
    <path d="M208.906 187.574a8.975 8.975 0 11-16.662-6.675 8.974 8.974 0 1116.662 6.675z" stroke="#005773" stroke-width="2"/>
    <path d="M220.018 192.026c-4.302 10.738-16.494 15.955-27.232 11.653s-15.955-16.494-11.653-27.232 16.494-15.955 27.232-11.653 15.955 16.494 11.653 27.232z" stroke="#005773" stroke-width="2"/>
    <path d="M225.574 194.252c-5.532 13.806-21.208 20.514-35.014 14.983-13.806-5.531-20.515-21.208-14.983-35.014 5.531-13.806 21.208-20.514 35.014-14.983 13.806 5.532 20.514 21.208 14.983 35.014z" stroke="#005773" stroke-width="2"/>
    <path d="M203.351 185.349a2.99 2.99 0 11-5.55-2.223 2.99 2.99 0 015.55 2.223z" stroke="#005773" stroke-width="2"/>
    <path d="M203.351 185.349a2.99 2.99 0 11-5.55-2.223 2.99 2.99 0 015.55 2.223z" stroke="#005773" stroke-width="2"/>
    <path d="M172.189 173.126a22.648 22.648 0 01-.084-.294l.264-.156c.585-.34 1.442-.822 2.523-1.382a66.264 66.264 0 018.766-3.764c7.142-2.455 16.119-4.026 23.965-.883 7.846 3.144 13.255 10.479 16.726 17.186a66.14 66.14 0 013.742 8.775c.396 1.151.683 2.092.871 2.742l.084.295-.264.155a57.43 57.43 0 01-2.523 1.382 66.227 66.227 0 01-8.767 3.764c-7.141 2.456-16.118 4.026-23.964.883-7.846-3.144-13.256-10.478-16.726-17.185a66.145 66.145 0 01-3.742-8.776 56.564 56.564 0 01-.871-2.742z" stroke="#FD8FFF" stroke-width="2"/>
</svg>
