<svg width="440" height="393" viewBox="0 0 440 393" fill="none" xmlns="http://www.w3.org/2000/svg">
<path fill-rule="evenodd" clip-rule="evenodd" d="M304.009 73.4641C304.018 70.0694 300.69 67.3294 297.504 68.5004L291.66 70.648C285.622 72.8671 278.928 69.7711 276.709 63.7329C274.489 57.6947 277.585 51.0008 283.624 48.7817L330.858 31.4228C342.872 25.8056 357.191 25.3293 370.171 31.3328C383.709 37.594 392.818 49.529 395.982 63.005L412.692 108.475C414.911 114.513 411.815 121.207 405.777 123.426C399.739 125.645 393.045 122.549 390.826 116.511L388.711 110.757C387.566 107.64 383.422 106.888 380.897 109.044C380.398 109.47 379.994 109.988 379.718 110.584L357.378 158.885C354.678 164.724 347.755 167.268 341.917 164.567C336.078 161.867 333.534 154.944 336.234 149.106L347.535 124.672C348.508 122.569 347.014 120.145 344.716 119.851C343.261 119.666 341.81 120.397 341.195 121.728L323.043 160.972C320.343 166.811 313.42 169.355 307.582 166.655C301.743 163.954 299.199 157.032 301.899 151.193L320.051 111.946C320.667 110.616 320.284 109.038 319.201 108.05C317.49 106.49 314.677 106.921 313.705 109.022L302.403 133.459C299.702 139.297 292.78 141.841 286.941 139.141C281.102 136.44 278.558 129.518 281.259 123.679L303.59 75.396C303.871 74.7887 304.007 74.1331 304.009 73.4641Z" fill="#FD4848"/>
<path d="M318.737 53.7436C318.737 53.7436 343.663 39.605 362.347 48.2466C381.031 56.8883 386.398 85.038 386.398 85.038C386.398 85.038 361.472 99.1767 342.788 90.535C324.104 81.8933 318.737 53.7436 318.737 53.7436Z" fill="#D5FF5C"/>
<path d="M336.76 62.0793C340.798 53.3491 351.149 49.5452 359.879 53.583C368.609 57.6209 372.413 67.9714 368.375 76.7017C364.337 85.4319 353.987 89.2358 345.257 85.1979C336.526 81.1601 332.722 70.8095 336.76 62.0793Z" stroke="#FD4848" stroke-width="2.44129"/>
<path d="M343.104 65.0124C345.521 59.7855 351.719 57.508 356.945 59.9255C362.172 62.3431 364.45 68.5401 362.032 73.7671C359.615 78.994 353.418 81.2715 348.191 78.8539C342.964 76.4364 340.686 70.2394 343.104 65.0124Z" stroke="#FD4848" stroke-width="2.44129"/>
<path d="M330.417 59.1452C336.075 46.9117 350.579 41.5814 362.813 47.2395C375.046 52.8977 380.377 67.4018 374.719 79.6353C369.06 91.8687 354.556 97.1991 342.323 91.5409C330.089 85.8828 324.759 71.3787 330.417 59.1452Z" stroke="#FD4848" stroke-width="2.44129"/>
<path d="M324.074 56.2121C331.353 40.4754 350.01 33.6186 365.747 40.897C381.484 48.1755 388.341 66.8331 381.062 82.5698C373.784 98.3066 355.126 105.163 339.389 97.8849C323.653 90.6065 316.796 71.9489 324.074 56.2121Z" stroke="#FD4848" stroke-width="2.44129"/>
<path d="M349.446 67.9465C350.244 66.2228 352.287 65.4718 354.011 66.269C355.735 67.0662 356.486 69.1098 355.688 70.8335C354.891 72.5571 352.848 73.3081 351.124 72.5109C349.4 71.7137 348.649 69.6701 349.446 67.9465Z" fill="#162BEB" stroke="#FD4848" stroke-width="2.44129"/>
<ellipse cx="352.567" cy="69.39" rx="4.65924" ry="4.65924" transform="rotate(-155.179 352.567 69.39)" fill="#FD4848"/>
<path d="M384.942 84.088C384.968 84.1981 384.992 84.3012 385.013 84.3969C384.926 84.4424 384.833 84.4911 384.732 84.5429C384.03 84.9043 383.002 85.4138 381.708 85.9997C379.119 87.1724 375.476 88.6463 371.264 89.8532C362.791 92.2807 352.242 93.5619 343.301 89.4266C334.36 85.2913 328.505 76.4231 324.868 68.3945C323.06 64.403 321.824 60.6728 321.041 57.9402C320.65 56.575 320.372 55.4616 320.193 54.6926C320.167 54.5825 320.144 54.4794 320.122 54.3837C320.209 54.3382 320.303 54.2895 320.403 54.2377C321.105 53.8763 322.134 53.3668 323.427 52.7809C326.017 51.6083 329.659 50.1343 333.872 48.9275C342.345 46.4999 352.894 45.2188 361.835 49.354C370.776 53.4893 376.631 62.3576 380.267 70.3861C382.076 74.3776 383.311 78.1078 384.094 80.8404C384.486 82.2056 384.763 83.319 384.942 84.088Z" stroke="#D5FF5C" stroke-width="2.44129"/>
<path fill-rule="evenodd" clip-rule="evenodd" d="M167.164 252.944C170.384 252.629 172.664 249.211 171.249 246.302L168.654 240.965C165.973 235.451 168.27 228.807 173.784 226.126C179.298 223.445 185.942 225.742 188.623 231.256L209.588 274.378C216.069 285.237 217.891 298.776 213.435 311.664C208.789 325.102 198.337 334.882 185.855 339.167L144.341 359.351C138.827 362.032 132.183 359.735 129.502 354.221C126.821 348.707 129.118 342.063 134.632 339.382L139.888 336.827C142.733 335.444 143.051 331.444 140.766 329.255C140.314 328.823 139.785 328.489 139.194 328.285L91.2542 311.712C85.4594 309.708 82.3858 303.386 84.3892 297.592C86.3926 291.797 92.7143 288.723 98.5091 290.727L122.761 299.111C124.847 299.832 127.003 298.184 127.062 295.977C127.099 294.58 126.267 293.274 124.947 292.818L85.9965 279.352C80.2017 277.349 77.1281 271.027 79.1315 265.232C81.1349 259.437 87.4566 256.364 93.2514 258.367L132.202 271.833C133.522 272.289 134.983 271.776 135.816 270.655C137.133 268.883 136.455 266.256 134.369 265.534L110.117 257.15C104.322 255.147 101.249 248.825 103.252 243.03C105.256 237.235 111.577 234.162 117.372 236.165L165.292 252.732C165.895 252.94 166.529 253.007 167.164 252.944Z" fill="#4B604F"/>
<path d="M187.27 265.03C187.27 265.03 203.058 287.317 196.647 305.861C190.236 324.404 164.054 332.182 164.054 332.182C164.054 332.182 148.266 309.894 154.677 291.351C161.088 272.807 187.27 265.03 187.27 265.03Z" fill="#D5FF5C"/>
<path d="M181.695 281.154C191.333 284.486 196.445 295 193.113 304.638C189.781 314.276 179.267 319.388 169.629 316.056C159.991 312.724 154.88 302.21 158.211 292.572C161.543 282.934 172.058 277.822 181.695 281.154Z" stroke="#4B604F" stroke-width="3.03821"/>
<path d="M179.52 287.449C185.681 289.579 188.948 296.3 186.818 302.461C184.689 308.622 177.967 311.89 171.807 309.76C165.646 307.63 162.378 300.909 164.508 294.748C166.638 288.587 173.359 285.32 179.52 287.449Z" stroke="#4B604F" stroke-width="3.03821"/>
<path d="M183.872 274.858C196.987 279.392 203.943 293.699 199.409 306.814C194.875 319.929 180.568 326.885 167.453 322.351C154.338 317.817 147.382 303.51 151.916 290.395C156.45 277.28 170.757 270.324 183.872 274.858Z" stroke="#4B604F" stroke-width="3.03821"/>
<path d="M186.048 268.564C202.64 274.3 211.44 292.4 205.704 308.992C199.968 325.583 181.868 334.383 165.276 328.647C148.684 322.911 139.884 304.811 145.62 288.22C151.356 271.628 169.457 262.828 186.048 268.564Z" stroke="#4B604F" stroke-width="3.03821"/>
<path d="M177.343 293.746C180.026 294.674 181.45 297.602 180.522 300.286C179.594 302.97 176.666 304.394 173.982 303.466C171.298 302.538 169.875 299.61 170.803 296.926C171.731 294.242 174.659 292.818 177.343 293.746Z" stroke="#4B604F" stroke-width="3.03821"/>
<path d="M164.701 330.373C164.693 330.376 164.685 330.379 164.677 330.382C164.672 330.374 164.667 330.367 164.663 330.36C164.256 329.733 163.677 328.812 163.002 327.647C161.649 325.314 159.912 322.016 158.373 318.157C155.272 310.38 153.087 300.598 156.113 291.847C159.139 283.095 166.898 276.751 174.14 272.55C177.734 270.465 181.137 268.944 183.642 267.945C184.893 267.446 185.917 267.079 186.624 266.837C186.632 266.834 186.64 266.832 186.648 266.829C186.653 266.836 186.657 266.843 186.662 266.85C187.069 267.477 187.647 268.398 188.323 269.564C189.676 271.896 191.413 275.194 192.952 279.053C196.052 286.83 198.237 296.612 195.211 305.364C192.186 314.116 184.426 320.459 177.184 324.66C173.59 326.746 170.188 328.266 167.683 329.265C166.432 329.764 165.408 330.132 164.701 330.373Z" stroke="#D5FF5C" stroke-width="3.03821"/>
<path fill-rule="evenodd" clip-rule="evenodd" d="M90.5756 163.052C89.3267 165.247 90.4792 168.24 92.9714 168.648L97.5433 169.397C102.267 170.17 105.469 174.627 104.695 179.35C103.921 184.074 99.465 187.276 94.7415 186.502L57.8024 180.451C47.9599 179.693 38.5066 174.758 32.2955 166.114C25.82 157.101 24.29 146.035 27.1759 136.149L33.002 100.579C33.7757 95.8557 38.232 92.6538 42.9555 93.4275C47.679 94.2012 50.8809 98.6575 50.1072 103.381L49.3698 107.883C48.9705 110.321 51.3782 112.325 53.8031 111.853C54.2822 111.76 54.7334 111.573 55.1297 111.288L87.2871 88.1823C91.1742 85.3893 96.5894 86.2763 99.3823 90.1634C102.175 94.0505 101.288 99.4657 97.4012 102.259L81.1339 113.947C79.734 114.953 79.8142 117.069 81.1951 118.101C82.0691 118.754 83.2768 118.812 84.1628 118.175L110.289 99.403C114.176 96.6101 119.592 97.4971 122.385 101.384C125.177 105.271 124.29 110.686 120.403 113.479L94.276 132.252C93.3903 132.889 93.0598 134.051 93.3997 135.087C93.9367 136.725 95.9166 137.476 97.316 136.47L113.584 124.782C117.471 121.989 122.886 122.876 125.679 126.763C128.472 130.65 127.585 136.065 123.698 138.858L91.554 161.954C91.1498 162.244 90.8217 162.619 90.5756 163.052Z" fill="#201BFF"/>
<path d="M73.8162 170.431C73.8162 170.431 52.4947 170.462 43.5573 158.023C34.62 145.585 41.4512 125.387 41.4512 125.387C41.4512 125.387 62.7727 125.356 71.7101 137.795C80.6474 150.234 73.8162 170.431 73.8162 170.431Z" fill="#09FFC4"/>
<path d="M64.8904 158.009C59.3125 162.017 51.5417 160.744 47.5339 155.166C43.5261 149.588 44.7989 141.818 50.3768 137.81C55.9548 133.802 63.7255 135.075 67.7333 140.653C71.7411 146.231 70.4683 154.001 64.8904 158.009Z" stroke="#201BFF" stroke-width="2.86016"/>
<path d="M61.8559 153.785C58.6102 156.118 54.0886 155.377 51.7565 152.131C49.4245 148.886 50.1651 144.364 53.4108 142.032C56.6565 139.7 61.1781 140.44 63.5101 143.686C65.8422 146.932 65.1016 151.453 61.8559 153.785Z" stroke="#201BFF" stroke-width="2.86016"/>
<path d="M67.9244 162.232C60.0142 167.915 48.9943 166.11 43.3108 158.2C37.6272 150.29 39.4322 139.27 47.3424 133.587C55.2526 127.903 66.2725 129.708 71.956 137.618C77.6396 145.528 75.8345 156.548 67.9244 162.232Z" stroke="#201BFF" stroke-width="2.86016"/>
<path d="M70.9586 166.455C60.7162 173.814 46.4472 171.477 39.0879 161.234C31.7286 150.992 34.0658 136.723 44.3082 129.364C54.5506 122.004 68.8196 124.341 76.1789 134.584C83.5382 144.826 81.201 159.095 70.9586 166.455Z" stroke="#201BFF" stroke-width="2.86016"/>
<path d="M58.8222 149.563C57.9087 150.22 56.6362 150.011 55.9799 149.098C55.3236 148.184 55.532 146.912 56.4455 146.255C57.3589 145.599 58.6314 145.808 59.2877 146.721C59.944 147.634 59.7356 148.907 58.8222 149.563Z" fill="#09FFC4" stroke="#201BFF" stroke-width="2.86016"/>
<path d="M58.8222 149.563C57.9087 150.22 56.6362 150.011 55.9799 149.098C55.3236 148.184 55.532 146.912 56.4455 146.255C57.3589 145.599 58.6314 145.808 59.2877 146.721C59.944 147.634 59.7356 148.907 58.8222 149.563Z" fill="#09FFC4" stroke="#201BFF" stroke-width="2.86016"/>
<path d="M41.9141 129.071C42.1353 128.148 42.3413 127.393 42.4995 126.846C43.0689 126.871 43.8502 126.916 44.7948 127.001C46.883 127.188 49.7559 127.564 52.8954 128.317C59.2316 129.838 66.3822 132.831 70.5487 138.63C74.7152 144.428 75.2707 152.16 74.6902 158.65C74.4026 161.866 73.8423 164.709 73.3533 166.748C73.1321 167.67 72.9261 168.425 72.7679 168.972C72.1985 168.948 71.4173 168.902 70.4726 168.817C68.3844 168.63 65.5116 168.255 62.372 167.501C56.0358 165.981 48.8852 162.988 44.7187 157.189C40.5523 151.39 39.9967 143.658 40.5772 137.168C40.8648 133.952 41.4251 131.109 41.9141 129.071Z" stroke="#09FFC4" stroke-width="2.86016"/>
<path fill-rule="evenodd" clip-rule="evenodd" d="M357.463 310.595C356.836 314.366 360.038 318.015 363.792 317.292L370.675 315.967C377.788 314.597 384.664 319.252 386.034 326.365C387.404 333.478 382.748 340.354 375.636 341.724L319.998 352.44C305.626 356.501 289.628 354.432 276.293 345.404C262.386 335.989 254.43 321.072 253.361 305.523L243.045 251.962C241.675 244.849 246.331 237.973 253.444 236.603C260.556 235.233 267.433 239.888 268.803 247.001L270.108 253.779C270.815 257.451 275.283 259.039 278.481 257.102C279.113 256.719 279.655 256.216 280.069 255.605L313.663 205.985C317.723 199.987 325.878 198.416 331.876 202.477C337.874 206.538 339.444 214.692 335.384 220.69L318.39 245.792C316.927 247.952 318.147 250.916 320.647 251.659C322.23 252.13 323.975 251.58 324.9 250.213L352.194 209.898C356.255 203.9 364.41 202.329 370.408 206.39C376.406 210.451 377.976 218.605 373.915 224.603L346.621 264.919C345.696 266.286 345.834 268.11 346.858 269.404C348.477 271.449 351.681 271.481 353.143 269.321L370.138 244.219C374.198 238.221 382.353 236.65 388.351 240.711C394.349 244.772 395.919 252.926 391.859 258.924L358.279 308.524C357.857 309.148 357.586 309.852 357.463 310.595Z" fill="#BA84FF"/>
<path d="M337.517 329.837C337.517 329.837 307.252 341.024 288.058 328.029C268.864 315.035 268.01 282.78 268.01 282.78C268.01 282.78 298.275 271.593 317.469 284.587C336.663 297.582 337.517 329.837 337.517 329.837Z" fill="#BFFF09"/>
<circle cx="302.764" cy="306.308" r="19.4687" transform="rotate(34.0985 302.764 306.308)" stroke="#BA84FF" stroke-width="3.03172"/>
<path d="M312.369 312.81C308.777 318.115 301.565 319.504 296.261 315.913C290.956 312.321 289.567 305.109 293.158 299.805C296.75 294.5 303.961 293.111 309.266 296.702C314.571 300.294 315.96 307.506 312.369 312.81Z" stroke="#BA84FF" stroke-width="3.03172"/>
<path d="M325.401 321.634C316.937 334.136 299.939 337.41 287.437 328.945C274.934 320.481 271.661 303.484 280.125 290.981C288.59 278.479 305.587 275.205 318.089 283.669C330.592 292.134 333.865 309.131 325.401 321.634Z" stroke="#BA84FF" stroke-width="3.03172"/>
<path d="M331.917 326.045C321.016 342.146 299.127 346.362 283.025 335.461C266.924 324.56 262.708 302.671 273.609 286.569C284.51 270.468 306.399 266.252 322.501 277.153C338.602 288.054 342.818 309.943 331.917 326.045Z" stroke="#BA84FF" stroke-width="3.03172"/>
<circle cx="302.764" cy="306.307" r="3.73029" transform="rotate(34.0985 302.764 306.307)" fill="#BA84FF" stroke="#BA84FF" stroke-width="3.03172"/>
<path d="M269.596 284.089C269.591 284.003 269.585 283.921 269.58 283.842C269.655 283.818 269.733 283.792 269.815 283.766C270.659 283.492 271.892 283.113 273.433 282.698C276.519 281.866 280.827 280.891 285.719 280.315C295.564 279.157 307.477 279.653 316.619 285.842C325.761 292.032 330.646 302.908 333.227 312.479C334.51 317.235 335.204 321.597 335.578 324.771C335.765 326.356 335.871 327.642 335.93 328.527C335.936 328.613 335.941 328.695 335.946 328.773C335.872 328.798 335.793 328.823 335.711 328.85C334.868 329.123 333.635 329.502 332.094 329.918C329.008 330.75 324.7 331.725 319.808 332.3C309.963 333.458 298.05 332.963 288.908 326.774C279.765 320.584 274.881 309.707 272.3 300.136C271.017 295.381 270.322 291.019 269.949 287.845C269.762 286.259 269.656 284.974 269.596 284.089Z" stroke="#BFFF09" stroke-width="3.03172"/>
<path fill-rule="evenodd" clip-rule="evenodd" d="M241.92 178.587C242.064 181.49 245.032 183.685 247.705 182.541L252.607 180.443C257.671 178.276 263.534 180.625 265.702 185.69C267.869 190.755 265.52 196.618 260.455 198.785L220.84 215.737C210.815 221.079 198.589 222.127 187.218 217.571C175.362 212.821 167.039 203.021 163.732 191.638L147.41 153.495C145.243 148.431 147.592 142.568 152.657 140.4C157.721 138.233 163.584 140.582 165.752 145.647L167.817 150.473C168.936 153.088 172.514 153.547 174.579 151.589C174.986 151.203 175.309 150.741 175.518 150.219L192.466 107.916C194.515 102.802 200.322 100.318 205.436 102.366C210.55 104.415 213.034 110.222 210.986 115.336L202.411 136.738C201.673 138.579 203.058 140.584 205.036 140.733C206.288 140.827 207.496 140.137 207.963 138.972L221.734 104.598C223.783 99.4841 229.59 96.9994 234.704 99.0483C239.818 101.097 242.302 106.904 240.253 112.018L226.482 146.391C226.015 147.556 226.412 148.89 227.383 149.686C228.916 150.944 231.303 150.45 232.041 148.609L240.616 127.207C242.664 122.093 248.471 119.608 253.585 121.657C258.699 123.706 261.184 129.513 259.135 134.626L242.192 176.916C241.979 177.448 241.892 178.014 241.92 178.587Z" fill="#005773"/>
<path d="M230.206 196.109C230.206 196.109 209.521 209.313 193.156 202.756C176.791 196.2 170.945 172.366 170.945 172.366C170.945 172.366 191.631 159.162 207.995 165.718C224.36 172.274 230.206 196.109 230.206 196.109Z" fill="#FD8FFF"/>
<path d="M214.462 189.8C211.389 197.47 202.681 201.196 195.011 198.123C187.342 195.051 183.616 186.342 186.688 178.673C189.761 171.003 198.469 167.277 206.139 170.349C213.808 173.422 217.535 182.131 214.462 189.8Z" stroke="#005773" stroke-width="2.00033"/>
<path d="M208.906 187.574C207.062 192.175 201.838 194.411 197.237 192.568C192.636 190.724 190.4 185.5 192.244 180.899C194.087 176.297 199.311 174.062 203.913 175.905C208.514 177.749 210.749 182.973 208.906 187.574Z" stroke="#005773" stroke-width="2.00033"/>
<path d="M220.018 192.026C215.716 202.764 203.524 207.981 192.786 203.679C182.048 199.377 176.831 187.185 181.133 176.447C185.435 165.709 197.627 160.492 208.365 164.794C219.103 169.096 224.32 181.288 220.018 192.026Z" stroke="#005773" stroke-width="2.00033"/>
<path d="M225.574 194.252C220.042 208.058 204.366 214.766 190.56 209.235C176.754 203.704 170.045 188.027 175.577 174.221C181.108 160.415 196.785 153.707 210.591 159.238C224.397 164.77 231.105 180.446 225.574 194.252Z" stroke="#005773" stroke-width="2.00033"/>
<path d="M203.351 185.349C202.737 186.882 200.996 187.627 199.463 187.012C197.931 186.398 197.186 184.658 197.8 183.125C198.414 181.592 200.155 180.848 201.687 181.462C203.22 182.076 203.965 183.816 203.351 185.349Z" stroke="#005773" stroke-width="2.00033"/>
<path d="M203.351 185.349C202.737 186.882 200.996 187.627 199.463 187.012C197.931 186.398 197.186 184.658 197.8 183.125C198.414 181.592 200.155 180.848 201.687 181.462C203.22 182.076 203.965 183.816 203.351 185.349Z" stroke="#005773" stroke-width="2.00033"/>
<path d="M172.189 173.126C172.158 173.02 172.13 172.922 172.105 172.832C172.185 172.784 172.274 172.732 172.369 172.676C172.954 172.336 173.811 171.854 174.892 171.294C177.056 170.175 180.107 168.751 183.658 167.53C190.8 165.075 199.777 163.504 207.623 166.647C215.469 169.791 220.878 177.126 224.349 183.833C226.075 187.168 227.299 190.305 228.091 192.608C228.487 193.759 228.774 194.7 228.962 195.35C228.992 195.456 229.02 195.554 229.046 195.645C228.965 195.692 228.877 195.744 228.782 195.8C228.197 196.141 227.34 196.623 226.259 197.182C224.095 198.301 221.044 199.725 217.492 200.946C210.351 203.402 201.374 204.972 193.528 201.829C185.682 198.685 180.272 191.351 176.802 184.644C175.076 181.309 173.852 178.171 173.06 175.868C172.664 174.717 172.376 173.777 172.189 173.126Z" stroke="#FD8FFF" stroke-width="2.00033"/>
</svg>
