<svg width="168" height="168" viewBox="0 0 168 168" fill="none" xmlns="http://www.w3.org/2000/svg">
<rect width="168" height="168" rx="8" fill="#262626"/>
<path fill-rule="evenodd" clip-rule="evenodd" d="M120.791 91.2932C122.011 93.9503 125.603 94.8888 127.671 92.8213L131.463 89.0291C135.381 85.1111 141.734 85.1111 145.652 89.0291C149.57 92.9471 149.57 99.2995 145.652 103.218L115.009 133.86C107.647 142.6 96.623 148.152 84.3019 148.152C71.4502 148.152 60.0095 142.111 52.6646 132.714L23.169 103.218C19.2509 99.3002 19.2509 92.9478 23.169 89.0298C27.087 85.1118 33.4394 85.1118 37.3574 89.0298L41.0925 92.765C43.1146 94.7871 46.6251 93.8776 47.8195 91.2792C48.0555 90.7658 48.1838 90.2149 48.1838 89.6499L48.1838 43.8093C48.1838 38.2684 52.6756 33.7766 58.2165 33.7766C63.7574 33.7766 68.2492 38.2684 68.2492 43.8093L68.2492 67.0005C68.2492 68.9958 70.2932 70.3501 72.1957 69.7489C73.3999 69.3683 74.2698 68.272 74.2698 67.0092L74.2698 29.7641C74.2698 24.2232 78.7616 19.7314 84.3025 19.7314C89.8434 19.7314 94.3352 24.2232 94.3352 29.7641L94.3352 67.0103C94.3352 68.2727 95.2049 69.3687 96.4086 69.7491C98.3106 70.3502 100.354 68.9962 100.354 67.0015L100.354 43.8093C100.354 38.2684 104.846 33.7766 110.387 33.7766C115.928 33.7766 120.419 38.2684 120.419 43.8093L120.419 89.6316C120.419 90.2079 120.55 90.7695 120.791 91.2932Z" fill="black"/>
<path d="M116.408 112.03C116.408 112.03 102.034 132.096 84.3028 132.096C66.5719 132.096 52.1981 112.03 52.1981 112.03C52.1981 112.03 66.5719 91.9648 84.3028 91.9648C102.034 91.9648 116.408 112.03 116.408 112.03Z" fill="#3D3A3A"/>
<path d="M99.0424 112.029C99.0424 120.169 92.4436 126.768 84.3036 126.768C76.1635 126.768 69.5647 120.169 69.5647 112.029C69.5647 103.889 76.1635 97.2901 84.3036 97.2901C92.4436 97.2901 99.0424 103.889 99.0424 112.029Z" stroke="#121212" stroke-width="2.62704"/>
<path d="M93.0221 112.031C93.0221 116.846 89.1183 120.75 84.3029 120.75C79.4874 120.75 75.5837 116.846 75.5837 112.031C75.5837 107.215 79.4874 103.312 84.3029 103.312C89.1183 103.312 93.0221 107.215 93.0221 112.031Z" stroke="#121212" stroke-width="2.62704"/>
<path d="M105.062 112.029C105.062 123.494 95.7679 132.787 84.3033 132.787C72.8387 132.787 63.5448 123.494 63.5448 112.029C63.5448 100.564 72.8387 91.2705 84.3033 91.2705C95.7679 91.2705 105.062 100.564 105.062 112.029Z" stroke="#121212" stroke-width="2.62704"/>
<path d="M87.0032 112.031C87.0032 113.522 85.7945 114.73 84.3036 114.73C82.8127 114.73 81.604 113.522 81.604 112.031C81.604 110.54 82.8127 109.331 84.3036 109.331C85.7945 109.331 87.0032 110.54 87.0032 112.031Z" fill="#162BEB" stroke="#1F1E1E" stroke-width="2.62704"/>
<ellipse cx="84.3036" cy="112.031" rx="4.01309" ry="4.01309" fill="#121212"/>
<path d="M53.8865 112.085C53.8721 112.066 53.8579 112.048 53.8439 112.03C53.8579 112.012 53.8721 111.994 53.8865 111.976C54.3022 111.442 54.919 110.676 55.7153 109.754C57.3095 107.908 59.6152 105.448 62.4599 102.992C68.1901 98.0441 75.9132 93.2784 84.3029 93.2784C92.6927 93.2784 100.416 98.0441 106.146 102.992C108.991 105.448 111.296 107.908 112.891 109.754C113.687 110.676 114.304 111.442 114.719 111.976C114.734 111.994 114.748 112.012 114.762 112.03C114.748 112.048 114.734 112.066 114.719 112.085C114.304 112.618 113.687 113.385 112.891 114.307C111.296 116.153 108.991 118.613 106.146 121.069C100.416 126.016 92.6927 130.782 84.3029 130.782C75.9132 130.782 68.1901 126.016 62.4599 121.069C59.6152 118.613 57.3095 116.153 55.7153 114.307C54.919 113.385 54.3022 112.618 53.8865 112.085Z" stroke="#3F3F3F" stroke-width="2.62704"/>
</svg>
