<svg width="20" height="20" viewBox="0 0 20 20" fill="none" xmlns="http://www.w3.org/2000/svg">
<path fill-rule="evenodd" clip-rule="evenodd" d="M10.0002 1.69995C7.26279 1.69995 5.2128 2.84391 3.86305 3.96871C3.66018 4.13777 3.47258 4.3068 3.3002 4.47204V3.33328C3.3002 2.89146 2.94202 2.53328 2.5002 2.53328C2.05837 2.53328 1.7002 2.89146 1.7002 3.33328V6.66662C1.7002 7.10845 2.05837 7.46662 2.5002 7.46662H5.41686C5.85869 7.46662 6.21686 7.10845 6.21686 6.66662C6.21686 6.22479 5.85869 5.86662 5.41686 5.86662H4.16641C4.37435 5.6523 4.61472 5.42505 4.88734 5.19786C6.03759 4.23932 7.7376 3.29995 10.0002 3.29995C13.7233 3.29995 16.7002 6.29794 16.7002 9.99995C16.7002 13.7003 13.7005 16.7 10.0002 16.7C6.29989 16.7 3.3002 13.7003 3.3002 9.99995C3.3002 9.55812 2.94202 9.19995 2.5002 9.19995C2.05837 9.19995 1.7002 9.55812 1.7002 9.99995C1.7002 14.5839 5.41623 18.2999 10.0002 18.2999C14.5842 18.2999 18.3002 14.5839 18.3002 9.99995C18.3002 5.41769 14.6104 1.69995 10.0002 1.69995ZM10.8002 6.66662C10.8002 6.22479 10.442 5.86662 10.0002 5.86662C9.55837 5.86662 9.2002 6.22479 9.2002 6.66662V9.99995C9.2002 10.2674 9.33388 10.5172 9.55644 10.6656L12.0564 12.3323C12.4241 12.5773 12.9208 12.478 13.1658 12.1104C13.4109 11.7428 13.3116 11.2461 12.944 11.001L10.8002 9.5718V6.66662Z" fill="currentColor"/>
</svg>
