<svg width="21" height="21" viewBox="0 0 21 21" fill="none" xmlns="http://www.w3.org/2000/svg">
<g clip-path="url(#clip0_2542_2267)">
<path fill-rule="evenodd" clip-rule="evenodd" d="M4.68901 4.72987L4.59219 8.44588C6.16432 9.25436 7.64601 9.23673 9.38861 8.84526C10.0796 8.57481 10.5627 8.51684 11.2332 8.84563C12.9905 9.39181 14.523 9.22443 16.1158 8.41142L16.0219 4.69057C16.0219 2.59557 14.6635 1.78964 13.1851 2.22165C13.0338 2.26586 12.8076 2.46846 12.8076 2.64929L12.7729 6.2809C12.7711 6.46913 12.618 6.62078 12.4298 6.62078C12.2402 6.62078 12.0866 6.46714 12.0866 6.27762V1.81195C12.0866 0.865845 11.3196 0.098877 10.3735 0.098877C9.42744 0.098877 8.66047 0.865846 8.66047 1.81195V6.27762C8.66047 6.46714 8.50683 6.62078 8.31731 6.62078C8.12907 6.62078 7.97596 6.46913 7.97417 6.28089L7.9395 2.64729C7.9395 2.46807 7.72404 2.26611 7.57405 2.22165C5.86826 1.71602 4.68901 2.71443 4.68901 4.72987ZM5.16835 9.35251C4.82461 9.23512 4.49172 9.07561 4.15894 8.91615C3.24183 8.47671 1.81393 8.61306 0.849553 9.71265C0.407514 10.2167 0.749545 10.946 1.38586 11.157C1.69269 11.2588 1.97057 11.4311 2.23032 11.6236C2.25975 11.6454 2.28968 11.6672 2.32001 11.6889C3.12139 12.264 3.63708 13.1254 3.68839 14.1104L3.73697 15.0432C3.97143 17.2858 5.41821 19.2186 7.50385 20.0755C9.3255 20.8239 11.3688 20.8239 13.1904 20.0755C15.2761 19.2186 16.7229 17.2858 16.9573 15.0432C16.9656 14.8834 16.9687 14.7238 16.967 14.5649L16.9907 14.1104C17.042 13.1254 17.5577 12.264 18.3591 11.6889C18.3894 11.6672 18.4193 11.6454 18.4487 11.6236C18.7085 11.4311 18.9864 11.2588 19.2932 11.157C19.9295 10.946 20.2715 10.2167 19.8295 9.71265C18.8651 8.61306 17.4372 8.47671 16.5201 8.91615L16.5201 8.91615C16.1873 9.07561 15.8544 9.23512 15.5107 9.35251L14.8078 9.59258L14.8064 9.60148C13.5168 9.95775 12.4563 9.95894 11.239 9.45654C10.6235 9.20253 10.0023 9.15478 9.40071 9.45654C8.24389 9.81668 7.06534 9.9688 5.87127 9.59258L5.16835 9.35251ZM10.3393 18.026C12.9347 18.026 15.0387 15.0019 15.0387 15.0019C15.0387 15.0019 12.9347 11.9778 10.3393 11.9778C7.74393 11.9778 5.63996 15.0019 5.63996 15.0019C5.63996 15.0019 7.74393 18.026 10.3393 18.026ZM12.4497 15.0019C12.4497 16.1674 11.5048 17.1123 10.3393 17.1123C9.17378 17.1123 8.22894 16.1674 8.22894 15.0019C8.22894 13.8364 9.17378 12.8916 10.3393 12.8916C11.5048 12.8916 12.4497 13.8364 12.4497 15.0019ZM10.3395 15.9592C10.8682 15.9592 11.2968 15.5306 11.2968 15.0019C11.2968 14.4732 10.8682 14.0446 10.3395 14.0446C9.81081 14.0446 9.38223 14.4732 9.38223 15.0019C9.38223 15.5306 9.81081 15.9592 10.3395 15.9592Z" fill="currentColor"/>
</g>
<defs>
<clipPath id="clip0_2542_2267">
<rect width="19.4066" height="20.5379" fill="white" transform="translate(0.63623 0.098877)"/>
</clipPath>
</defs>
</svg>
