<svg width="42" height="40" viewBox="0 0 42 40" fill="none" xmlns="http://www.w3.org/2000/svg">
<path fill-rule="evenodd" clip-rule="evenodd" d="M21.8999 15.0001C21.8999 14.503 21.497 14.1001 20.9999 14.1001C20.5029 14.1001 20.0999 14.503 20.0999 15.0001V20.9755C20.0982 21.0404 20.1035 21.1049 20.1156 21.168C20.1612 21.4072 20.303 21.6255 20.5207 21.762C20.5502 21.7807 20.581 21.7976 20.6128 21.8128L24.175 23.5939C24.6196 23.8162 25.1602 23.636 25.3825 23.1915C25.6048 22.7469 25.4246 22.2063 24.98 21.984L21.8999 20.4439V15.0001Z" fill="#fafafa"/>
<path d="M15.5629 26.1117C15.4444 26.0062 15.3286 25.8971 15.2159 25.7843C15.092 25.6605 14.9725 25.5331 14.8576 25.4023C13.5483 23.9138 12.82 21.9945 12.82 20.0002C12.82 19.9171 12.8213 19.8341 12.8238 19.7513C12.8861 17.6671 13.7279 15.7788 15.0678 14.368C15.1165 14.3168 15.1658 14.2661 15.2159 14.2161C15.2577 14.1743 15.2999 14.133 15.3425 14.0922C16.6062 12.8817 18.2576 12.0726 20.0917 11.87C20.5912 11.8148 21 11.4127 21 10.9102C21 10.4076 20.5918 9.9959 20.0913 10.0416C19.7848 10.0695 19.4808 10.1115 19.18 10.1672C17.2044 10.5328 15.3695 11.4885 13.9289 12.9291C12.0536 14.8045 11 17.348 11 20.0002C11 22.6524 12.0536 25.1959 13.9289 27.0713C15.3695 28.5119 17.2045 29.4676 19.18 29.8332C19.4808 29.8889 19.7848 29.9309 20.0912 29.9589C20.5917 30.0045 21 29.5928 21 29.0902C21 28.5876 20.5913 28.1855 20.0917 28.1303C18.3857 27.9418 16.8379 27.2287 15.613 26.1559C15.5962 26.1412 15.5795 26.1265 15.5629 26.1117Z" fill="url(#paint0_linear_622_9403)">
 <animateTransform
      attributeName="transform"
      attributeType="XML"
      type="rotate"
      from="0 21 20"
      to="360 21 20"
      dur="2s"
      repeatCount="indefinite" />
</path>
<defs>
<linearGradient id="paint0_linear_622_9403" x1="16" y1="10.0381" x2="20.3565" y2="31.9747" gradientUnits="userSpaceOnUse">
<stop stop-color="#fafafa"/>
<stop offset="1" stop-color="#fafafa" stop-opacity="0"/>
</linearGradient>
</defs>
</svg>
