<svg width="42" height="40" viewBox="0 0 42 40" fill="none" xmlns="http://www.w3.org/2000/svg">
<path fill-rule="evenodd" clip-rule="evenodd" d="M24.0001 11C23.4478 11 23.0001 11.4477 23.0001 12C23.0001 12.5523 23.4478 13 24.0001 13H27.586L22.2931 18.2929C21.9025 18.6834 21.9025 19.3166 22.2931 19.7071C22.6836 20.0976 23.3167 20.0976 23.7073 19.7071L29.0001 14.4143V18C29.0001 18.5523 29.4478 19 30.0001 19C30.5523 19 31.0001 18.5523 31.0001 18V12.0148C31.0039 11.754 30.9063 11.4919 30.7073 11.2929C30.5992 11.1848 30.4724 11.1066 30.3374 11.0583C30.232 11.0206 30.1184 11 30.0001 11H24.0001ZM13 23.9999C13 23.4476 12.5523 22.9999 12 22.9999C11.4477 22.9999 11 23.4476 11 23.9999V29.9999C11 30.1183 11.0206 30.2319 11.0583 30.3373C11.1066 30.4723 11.1848 30.599 11.2929 30.7071C11.4919 30.9062 11.754 31.0038 12.0148 30.9999H18C18.5523 30.9999 19 30.5522 19 29.9999C19 29.4476 18.5523 28.9999 18 28.9999H14.4143L19.7071 23.7071C20.0976 23.3166 20.0976 22.6834 19.7071 22.2929C19.3166 21.9024 18.6834 21.9024 18.2929 22.2929L13 27.5858V23.9999Z" fill="currentColor"/>
</svg>
