<svg
   id="svg22"
   version="1.1"
   fill="none"
   viewBox="0 0 40 40"
   height="40"
   width="40">
  <path
     id="path10"
     stroke-linejoin="round"
     stroke-linecap="round"
     stroke-width="1.33333"
     stroke="#1B1B1B"
     fill="#D5FF5C"
     d="m 31.201174,14.6668 c 3.6819,0 6.6667,-2.9847 6.6667,-6.66664 0,-3.6819 -2.9848,-6.66666 -6.6667,-6.66666 -3.6819,0 -6.66667,2.98476 -6.66667,6.66666 0,3.68194 2.98477,6.66664 6.66667,6.66664 z" />
  <path
     id="path12"
     stroke-linejoin="round"
     stroke-linecap="round"
     stroke-width="1.33333"
     stroke="#1B1B1B"
     d="M 31.201174,5.3335 V 8.00016" />
  <path
     id="path14"
     stroke-linejoin="round"
     stroke-linecap="round"
     stroke-width="1.33333"
     stroke="#1B1B1B"
     d="m 31.201174,10.6665 h 0.0075" />
  <path
     id="path16"
     stroke-linejoin="round"
     stroke-linecap="round"
     stroke-width="2"
     stroke="currentColor"
     d="M20 21C20.5523 21 21 20.5523 21 20C21 19.4477 20.5523 19 20 19C19.4477 19 19 19.4477 19 20C19 20.5523 19.4477 21 20 21Z" />
  <path
     id="path18"
     stroke-linejoin="round"
     stroke-linecap="round"
     stroke-width="2"
     stroke="currentColor"
     d="M27 21C27.5523 21 28 20.5523 28 20C28 19.4477 27.5523 19 27 19C26.4477 19 26 19.4477 26 20C26 20.5523 26.4477 21 27 21Z" />
  <path
     id="path20"
     stroke-linejoin="round"
     stroke-linecap="round"
     stroke-width="2"
     stroke="currentColor"
     d="M13 21C13.5523 21 14 20.5523 14 20C14 19.4477 13.5523 19 13 19C12.4477 19 12 19.4477 12 20C12 20.5523 12.4477 21 13 21Z" />
</svg>
