<?xml version="1.0" encoding="UTF-8"?>
<!-- Generated by Pixelmator Pro 3.6.4 -->
<svg width="82" height="82" viewBox="0 0 82 82" xmlns="http://www.w3.org/2000/svg">
    <path id="Path" fill="#d5ff5c" stroke="none" visibility="hidden" d="M 12 0 L 70 0 C 76.627419 0 82 5.372581 82 12 L 82 70 C 82 76.627419 76.627419 82 70 82 L 12 82 C 5.372583 82 0 76.627419 0 70 L 0 12 C -0 5.372581 5.372583 0 12 0 Z"/>
    <path id="Rounded-Rectangle" fill="#d5ff5c" fill-rule="evenodd" stroke="none" d="M 0 62.200001 C 0 69.487572 0 73.131355 1.530048 75.863457 C 2.6114 77.79435 4.205652 79.388603 6.136545 80.469955 C 8.868642 82 12.512428 82 19.799999 82 L 62.200001 82 C 69.487572 82 73.131355 82 75.863457 80.469955 C 77.79435 79.388603 79.388603 77.79435 80.469955 75.863457 C 82 73.131355 82 69.487572 82 62.200001 L 82 19.799999 C 82 12.512428 82 8.868645 80.469955 6.136543 C 79.388603 4.20565 77.79435 2.611397 75.863457 1.530045 C 73.131363 0 69.487572 0 62.200001 0 L 19.799999 0 C 12.512427 0 8.868642 0 6.136544 1.530045 C 4.205651 2.611397 2.611399 4.20565 1.530047 6.136543 C -1e-06 8.868637 -1e-06 12.512428 -1e-06 19.799999 Z"/>
    <path id="path1" fill="#fd4848" fill-rule="evenodd" stroke="none" d="M 62.570999 45.424999 C 61.541 46.455002 59.749001 45.987999 59.139999 44.661999 C 59.01915 44.402283 58.956036 44.119457 58.955002 43.833 L 58.955002 20.988998 C 58.916328 18.253777 56.688 16.056732 53.952499 16.056732 C 51.217003 16.056732 48.988674 18.253777 48.950001 20.988998 L 48.950001 32.550999 C 48.950001 33.544998 47.932999 34.220001 46.983002 33.921001 C 46.378635 33.737801 45.961632 33.185429 45.951 32.554001 L 45.951 13.987 C 45.912327 11.251778 43.683998 9.054733 40.948502 9.054733 C 38.213001 9.054733 35.984673 11.251778 35.945999 13.987 L 35.945999 32.555 C 35.935097 33.186977 35.517155 33.739517 34.911999 33.922001 C 33.963001 34.222 32.944 33.546001 32.944 32.550999 L 32.944 20.989998 C 32.905327 18.254776 30.676998 16.057732 27.9415 16.057732 C 25.206001 16.057732 22.977673 18.254776 22.938999 20.989998 L 22.938999 43.842999 C 22.938999 44.125 22.875 44.398998 22.757 44.657001 C 22.160999 45.951 20.410999 46.403999 19.402 45.396999 L 17.541 43.535999 C 15.587569 41.582294 12.420207 41.582069 10.4665 43.5355 C 8.512793 45.48893 8.512568 48.656292 10.466 50.610001 L 25.172001 65.317001 C 28.96088 70.178917 34.782089 73.019402 40.945999 73.014 C 47.089001 73.014 52.584 70.247002 56.256001 65.889999 L 71.536003 50.610001 C 73.489433 48.65657 73.489433 45.489429 71.536003 43.535999 C 69.582565 41.582569 66.415428 41.582569 64.461998 43.535999 Z M 40.945 65.010002 C 49.785 65.010002 56.952 55.005001 56.952 55.005001 C 56.952 55.005001 49.785999 45.000999 40.945 45.000999 C 32.104 45.000999 24.938 55.005001 24.938 55.005001 C 24.938 55.005001 32.105 65.010002 40.945 65.010002 Z"/>
    <path id="path2" fill="#fd4848" stroke="none" d="M 46.949001 55.005001 C 46.949001 58.320366 44.261364 61.007999 40.945999 61.007999 C 37.630634 61.007999 34.943001 58.320366 34.943001 55.005001 C 34.943001 51.689636 37.630634 49.001999 40.945999 49.001999 C 44.261364 49.001999 46.949001 51.689636 46.949001 55.005001 Z"/>
</svg>
