<svg width="210" height="48" viewBox="0 0 210 48" fill="none" xmlns="http://www.w3.org/2000/svg">
<path fill-rule="evenodd" clip-rule="evenodd" d="M37.5869 26.7462C38.0433 27.7397 39.3867 28.0906 40.1598 27.3175L41.5761 25.9012C43.0406 24.4367 45.415 24.4367 46.8794 25.9012C48.3439 27.3657 48.3439 29.74 46.8794 31.2045L35.4275 42.6564C32.676 45.9238 28.5548 47.9999 23.9488 47.9999C19.1462 47.9999 14.8708 45.7429 12.1254 42.2318L1.09861 31.205C-0.36585 29.7405 -0.365846 27.3661 1.09862 25.9017C2.56308 24.4372 4.93745 24.4372 6.40191 25.9017L7.79794 27.2977C8.55379 28.0535 9.86597 27.7136 10.3124 26.7423C10.4006 26.5504 10.4486 26.3445 10.4486 26.1333L10.4485 8.9999C10.4485 6.92884 12.1275 5.2499 14.1985 5.2499C16.2696 5.2499 17.9485 6.92883 17.9485 8.99989L17.9485 17.6675C17.9485 18.4132 18.7124 18.9193 19.4235 18.6946C19.8735 18.5524 20.1986 18.1427 20.1986 17.6707L20.1986 3.74989C20.1986 1.67882 21.8775 -0.000103781 23.9485 -0.000104324C26.0196 -0.000104867 27.6985 1.67882 27.6985 3.74989L27.6985 17.6707C27.6985 18.1426 28.0236 18.5522 28.4735 18.6944C29.1844 18.919 29.9481 18.413 29.9481 17.6675L29.948 8.99989C29.948 6.92883 31.627 5.2499 33.698 5.2499C35.7691 5.2499 37.448 6.92883 37.448 8.99989L37.448 26.1247C37.448 26.3402 37.497 26.5503 37.5869 26.7462Z" fill="#FF3D23"/>
<path d="M35.948 34.4999C35.948 34.4999 30.5754 41.9999 23.948 41.9999C17.3206 41.9999 11.948 34.4999 11.948 34.4999C11.948 34.4999 17.3206 26.9999 23.948 26.9999C30.5754 26.9999 35.948 34.4999 35.948 34.4999Z" fill="#D5FF5C"/>
<path d="M29.5822 34.4999C29.5822 37.6113 27.0599 40.1336 23.9485 40.1336C20.8371 40.1336 18.3148 37.6113 18.3148 34.4999C18.3148 31.3885 20.8371 28.8661 23.9485 28.8661C27.0599 28.8661 29.5822 31.3884 29.5822 34.4999Z" stroke="#FF3D23" stroke-width="0.732536"/>
<path d="M27.3317 34.5001C27.3317 36.3689 25.8168 37.8838 23.948 37.8838C22.0792 37.8838 20.5643 36.3689 20.5643 34.5001C20.5643 32.6313 22.0792 31.1164 23.948 31.1164C25.8168 31.1164 27.3317 32.6313 27.3317 34.5001Z" stroke="#FF3D23" stroke-width="0.732536"/>
<path d="M31.8322 34.4999C31.8322 38.8539 28.3025 42.3836 23.9485 42.3836C19.5944 42.3836 16.0648 38.8539 16.0648 34.4999C16.0648 30.1458 19.5944 26.6161 23.9485 26.6161C28.3025 26.6161 31.8322 30.1458 31.8322 34.4999Z" stroke="#FF3D23" stroke-width="0.732536"/>
<path d="M34.0817 34.4999C34.0817 40.0966 29.5447 44.6336 23.948 44.6336C18.3513 44.6336 13.8143 40.0966 13.8143 34.4999C13.8143 28.9032 18.3513 24.3661 23.948 24.3661C29.5447 24.3661 34.0817 28.9032 34.0817 34.4999Z" stroke="#FF3D23" stroke-width="0.732536"/>
<path d="M25.0822 34.4999C25.0822 35.126 24.5746 35.6336 23.9485 35.6336C23.3223 35.6336 22.8148 35.126 22.8148 34.4999C22.8148 33.8737 23.3223 33.3661 23.9485 33.3661C24.5746 33.3661 25.0822 33.8737 25.0822 34.4999Z" fill="#162BEB" stroke="#FF3D23" stroke-width="0.732536"/>
<ellipse cx="23.9485" cy="34.4999" rx="1.5" ry="1.5" fill="#FF3D23"/>
<path d="M12.4807 34.597C12.4533 34.5619 12.4283 34.5295 12.4056 34.4999C12.4283 34.4703 12.4533 34.4379 12.4807 34.4028C12.6372 34.202 12.8691 33.9138 13.1682 33.5674C13.767 32.8741 14.6331 31.9501 15.7021 31.0271C17.8514 29.1713 20.7669 27.3661 23.948 27.3661C27.129 27.3661 30.0445 29.1713 32.1939 31.0271C33.2629 31.9501 34.129 32.8741 34.7278 33.5674C35.0269 33.9138 35.2588 34.202 35.4153 34.4028C35.4426 34.4379 35.4677 34.4703 35.4904 34.4999C35.4677 34.5295 35.4426 34.5619 35.4153 34.597C35.2588 34.7978 35.0269 35.0859 34.7278 35.4323C34.129 36.1257 33.2629 37.0496 32.1939 37.9726C30.0445 39.8285 27.129 41.6336 23.948 41.6336C20.7669 41.6336 17.8515 39.8285 15.7021 37.9726C14.6331 37.0496 13.767 36.1257 13.1682 35.4323C12.8691 35.0859 12.6372 34.7978 12.4807 34.597Z" stroke="#D5FF5C" stroke-width="0.732536"/>
<path d="M68.9508 37.988H73.7184V16.4237H82.7769V12.3162H60.0391V16.4237H68.9508V37.988Z" fill="white"/>
<path d="M79.9768 33.2937C79.9768 36.521 82.3239 38.5381 85.8446 38.5381C88.8152 38.5381 90.6856 36.7777 91.4557 34.1739H93.0327C93.1061 37.0345 93.8029 37.988 96.8101 37.988H98.7172V34.4673H96.9935C96.04 34.4673 95.8933 34.2839 95.8933 33.3671V25.9956C95.8933 21.5581 93.1427 19.1742 88.1184 19.1742C83.1674 19.1742 80.0868 21.8148 79.7201 24.5653L83.7909 25.6289C84.2677 23.7585 85.6246 22.5849 88.1184 22.5849C90.4289 22.5849 91.4557 23.5751 91.4557 25.4455V26.0689C87.9717 26.399 85.1845 27.0958 83.0941 28.196C81.0037 29.2596 79.9768 30.9833 79.9768 33.2937ZM91.4557 30.4698C91.4557 33.5871 89.5487 35.1641 87.2749 35.1641C85.5146 35.1641 84.5244 34.3206 84.5244 32.8536C84.5244 30.5065 87.0915 29.4796 91.4557 29.0029V30.4698Z" fill="white"/>
<path d="M101.634 37.988H106.109V12.3162H101.634V37.988Z" fill="white"/>
<path d="M111.408 16.8271H116.175V12.2795H111.408V16.8271ZM111.591 37.988H116.028V19.7244H111.591V37.988Z" fill="white"/>
<path d="M119.826 33.2937C120.633 36.521 124.08 38.5014 128.188 38.5014C133.212 38.5014 136.256 36.191 136.256 32.6336C136.256 30.9466 135.633 29.663 134.422 28.7828C133.212 27.9026 131.745 27.2792 130.022 26.9491L127.638 26.509C125.437 26.0689 124.851 25.5188 124.851 24.4553C124.851 23.2451 125.914 22.4016 127.858 22.4016C129.948 22.4016 131.268 23.6118 131.855 25.1888L135.633 23.5751C134.789 21.338 132.369 19.1742 128.004 19.1742C123.64 19.1742 120.596 21.4847 120.596 24.8587C120.596 28.3061 122.797 29.5896 126.501 30.3598L128.921 30.7999C130.975 31.2033 131.635 31.9368 131.635 33.0737C131.635 34.3573 130.462 35.1641 128.371 35.1641C125.474 35.1641 124.3 33.5504 123.97 31.9368L119.826 33.2937Z" fill="white"/>
<path d="M140.242 37.988H144.717V28.9662C144.717 26.9124 144.863 25.2254 146 23.9052C146.55 23.2451 147.394 22.915 148.531 22.915C150.731 22.915 151.831 24.2352 151.831 26.8391V37.988H156.232V28.9662C156.232 26.8758 156.342 25.2254 157.479 23.9052C158.029 23.2451 158.909 22.915 160.046 22.915C162.137 22.915 163.347 24.1619 163.347 26.8391V37.988H167.785V26.0689C167.785 21.6314 165.217 19.1742 161.697 19.1742C159.203 19.1742 157.186 20.9346 156.416 23.4651H154.839C154.215 20.7145 152.271 19.1742 149.814 19.1742C147.137 19.1742 145.56 20.9713 144.863 23.4651H142.773C143.543 22.4016 144.203 20.7879 144.203 19.7244H140.242V37.988Z" fill="white"/>
<path d="M171.912 33.2937C171.912 36.521 174.259 38.5381 177.78 38.5381C180.751 38.5381 182.621 36.7777 183.391 34.1739H184.968C185.042 37.0345 185.738 37.988 188.746 37.988H190.653V34.4673H188.929C187.976 34.4673 187.829 34.2839 187.829 33.3671V25.9956C187.829 21.5581 185.078 19.1742 180.054 19.1742C175.103 19.1742 172.022 21.8148 171.656 24.5653L175.726 25.6289C176.203 23.7585 177.56 22.5849 180.054 22.5849C182.364 22.5849 183.391 23.5751 183.391 25.4455V26.0689C179.907 26.399 177.12 27.0958 175.03 28.196C172.939 29.2596 171.912 30.9833 171.912 33.2937ZM183.391 30.4698C183.391 33.5871 181.484 35.1641 179.21 35.1641C177.45 35.1641 176.46 34.3206 176.46 32.8536C176.46 30.5065 179.027 29.4796 183.391 29.0029V30.4698Z" fill="white"/>
<path d="M193.57 37.988H198.044V29.6263C198.044 27.4259 198.191 25.5188 199.401 24.0519C200.025 23.2817 200.978 22.915 202.225 22.915C204.316 22.915 205.526 24.1986 205.526 26.8391V37.988H210V25.9589C210 21.7414 207.836 19.1742 203.729 19.1742C200.721 19.1742 198.814 21.4847 198.008 23.9419H195.917C196.944 22.4382 197.678 20.7879 197.714 19.7244H193.57V37.988Z" fill="white"/>
</svg>
