<svg viewBox="0 0 32 33" fill="none" xmlns="http://www.w3.org/2000/svg">
    <g clip-path="url(#clip0_1014_4691)">
        <path d="M32 16.5c0 8.837-7.163 16-16 16s-16-7.163-16-16c0 .004 16-15.998 16-16 8.837 0 16 7.163 16 16z" fill="#0052B4"/>
        <g fill="#F0F0F0">
            <path d="M16 .5h-.003H16z"/>
            <path d="M15.957 16.5H16v-.043l-.043.043z"/>
            <path d="M16 8.848V.5h-.003C7.162.502 0 7.664 0 16.5h8.348v-4.7l4.7 4.7h2.91l.042-.043V13.55l-4.7-4.7H16z"/>
        </g>
        <g fill="#D80027">
            <path d="M8.095 2.587a16.077 16.077 0 00-6.008 6.008V16.5H6.26V6.76H16V2.588H8.095z"/>
            <path d="M16 14.532l-5.685-5.684H8.348L16 16.5v-1.968z"/>
        </g>
        <g fill="#F0F0F0">
            <path d="M9.65 19.283l.878 1.836 1.983-.459-.888 1.832 1.594 1.264-1.985.448.006 2.035-1.588-1.273-1.588 1.273.006-2.035-1.986-.448 1.595-1.264-.888-1.832 1.983.459.878-1.836z"/>
            <path d="M23.955 22.76l.44.919.99-.23-.443.916.797.633-.993.223.003 1.018-.794-.637-.794.637.003-1.018-.993-.223.798-.633-.444-.915.991.229.44-.918z"/>
            <path d="M19.87 13.022l.44.918.991-.23-.444.916.798.633-.993.223.003 1.018-.794-.637-.794.637.003-1.018-.993-.223.797-.633-.444-.915.992.229.439-.918z"/>
            <path d="M23.955 7.457l.44.918.99-.23-.443.916.797.632-.993.224.003 1.018-.794-.637-.794.637.003-1.018-.993-.224.798-.632-.444-.916.991.23.44-.918z"/>
            <path d="M27.523 11.63l.44.919.99-.23-.443.916.797.632-.993.224.003 1.018-.794-.637-.794.637.003-1.018-.993-.224.798-.632-.444-.916.991.23.44-.918z"/>
            <path d="M24.972 16.5l.345 1.063h1.118l-.904.657.345 1.063-.904-.657-.904.657.345-1.063-.904-.657h1.117l.346-1.063z"/>
        </g>
    </g>
    <defs>
        <clipPath id="clip0_1014_4691">
            <path fill="#fff" transform="translate(0 .5)" d="M0 0h32v32H0z"/>
        </clipPath>
    </defs>
</svg>
