<svg viewBox="0 0 32 32" xmlns="http://www.w3.org/2000/svg">
    <path fill="red" fill-rule="evenodd" d="M4 26.582C1.511 23.762 0 20.057 0 16S1.511 8.238 4 5.418v21.164z"/>
    <path fill="red" fill-rule="evenodd" d="M28 26.582V5.418c2.489 2.82 4 6.525 4 10.582s-1.511 7.762-4 10.582z"/>
    <path fill="red" fill-rule="evenodd" d="M28 16c0-6.627-5.373-12-12-12S4 9.373 4 16s5.373 12 12 12 12-5.373 12-12z"/>
    <path fill="#fff" d="M16 32a15.96 15.96 0 01-12-5.418V5.418A15.96 15.96 0 0116 0a15.96 15.96 0 0112 5.418v21.164A15.96 15.96 0 0116 32zm-.488-5.004h.976l-.244-4.676a.512.512 0 01.602-.529l4.652.816-.629-1.732a.351.351 0 01.11-.395l5.095-4.128-1.148-.536a.352.352 0 01-.184-.427l1.008-3.1-2.936.623a.353.353 0 01-.396-.205l-.568-1.338-2.291 2.46a.351.351 0 01-.602-.31l1.105-5.699-1.771 1.024a.35.35 0 01-.492-.145L16 5.166l-1.799 3.533a.352.352 0 01-.492.145L11.938 7.82l1.105 5.7a.351.351 0 01-.602.308l-2.29-2.459-.569 1.338a.353.353 0 01-.396.205L6.25 12.29l1.008 3.1a.352.352 0 01-.184.427l-1.148.536 5.095 4.128a.351.351 0 01.11.395l-.629 1.732 4.652-.816a.514.514 0 01.602.53l-.244 4.675z"/>
</svg>
