<svg viewBox="0 0 32 32" xmlns="http://www.w3.org/2000/svg">
    <clipPath id="a">
        <path d="M0 0h32v32H0z"/>
    </clipPath>
    <g clip-path="url(#a)">
        <path fill="#dc2e27" d="M16.112 31.506c8.502 0 15.394-6.892 15.394-15.394 0-8.501-6.892-15.394-15.394-15.394C7.61.718.718 7.611.718 16.112c0 8.502 6.892 15.394 15.394 15.394z"/>
        <path fill="#f7dc15" d="M19.697 8.607l.767 1.279-.98 1.125 1.454-.334.768 1.278.131-1.486 1.453-.334-1.372-.584.13-1.485-.978 1.125-1.373-.584z"/>
        <path fill="#f7dc15" d="M10.982 9.955L9.6 14.21H5.125l3.62 2.63-1.382 4.254 3.62-2.629 3.619 2.628-1.383-4.253 3.62-2.631-4.475.001-1.382-4.255z"/>
        <path fill="#f7dc15" d="M24.447 12.217l.212 1.476-1.34.657 1.47.256.21 1.476.698-1.319 1.47.256-1.04-1.07.697-1.318-1.339.657-1.038-1.07z"/>
        <path fill="#f7dc15" d="M21.97 22.402l-.931 1.165-1.396-.527.819 1.246-.931 1.165 1.438-.395.82 1.246.068-1.49 1.438-.394-1.394-.526.069-1.49z"/>
        <path fill="#f7dc15" d="M25.277 18.166l-.41 1.434-1.49.054 1.237.832-.41 1.434L25.38 21l1.237.833-.511-1.4 1.174-.92-1.49.053-.512-1.4z"/>
    </g>
</svg>
