<svg width="32" height="32" viewBox="0 0 32 32" fill="none" xmlns="http://www.w3.org/2000/svg">
<g clip-path="url(#clip0_801_2276)">
<path d="M16.1123 31.5064C24.6141 31.5064 31.5062 24.6142 31.5062 16.1124C31.5062 7.61051 24.6141 0.718384 16.1123 0.718384C7.61039 0.718384 0.718262 7.61051 0.718262 16.1124C0.718262 24.6142 7.61039 31.5064 16.1123 31.5064Z" fill="#DC2E27" stroke="black" stroke-miterlimit="10"/>
<path d="M19.6968 8.60711L20.4643 9.88584L19.4849 11.011L20.9385 10.6765L21.7059 11.9551L21.8372 10.4695L23.2903 10.1349L21.918 9.55148L22.0485 8.06555L21.0696 9.19075L19.6968 8.60711Z" fill="#F7DC15"/>
<path d="M10.9818 9.95483L9.60044 14.2097H5.125L8.74474 16.8398L7.36257 21.0939L10.9828 18.465L14.6019 21.0935L13.2193 16.8403L16.8383 14.2089L12.3638 14.2101L10.9818 9.95483Z" fill="#F7DC15"/>
<path d="M24.4473 12.2175L24.6588 13.6933L23.3198 14.35L24.7888 14.6058L24.9997 16.0816L25.6973 14.7635L27.1662 15.0188L26.1276 13.949L26.8242 12.6305L25.4854 13.2877L24.4473 12.2175Z" fill="#F7DC15"/>
<path d="M21.97 22.4021L21.0386 23.5667L19.6428 23.0404L20.462 24.2864L19.5308 25.4506L20.9688 25.0565L21.7881 26.3016L21.8571 24.8128L23.2951 24.4177L21.9008 23.8919L21.97 22.4021Z" fill="#F7DC15"/>
<path d="M25.2773 18.1661L24.8678 19.6001L23.377 19.6536L24.6143 20.4865L24.2048 21.92L25.3791 21.0009L26.6162 21.833L26.1047 20.4328L27.2786 19.5127L25.7882 19.5665L25.2773 18.1661Z" fill="#F7DC15"/>
</g>
<defs>
<clipPath id="clip0_801_2276">
<rect width="32" height="32" fill="white"/>
</clipPath>
</defs>
</svg>
