<svg viewBox="0 0 2000 2000" xmlns="http://www.w3.org/2000/svg">
    <path fill="#e6007a" fill-rule="evenodd" d="M2000 1000C2000 447.715 1552.285 0 1000 0 447.715 0 0 447.715 0 1000c0 552.285 447.715 1000 1000 1000 552.285 0 1000-447.715 1000-1000Z"/>
    <path fill="#fff" d="M1254.27 441.78c0 81.71-113.84 147.95-254.27 147.95s-254.27-66.24-254.27-147.95S859.57 293.83 1000 293.83s254.27 66.24 254.27 147.95Z"/>
    <path fill="#fff" d="M1254.27 1556.2c0 81.71-113.84 147.95-254.27 147.95s-254.27-66.24-254.27-147.95 113.84-147.95 254.27-147.95 254.27 66.24 254.27 147.95Z"/>
    <path fill="#fff" d="M644.608 500.174c70.763 40.856 71.208 172.564.993 294.18-70.215 121.615-184.5 187.084-255.263 146.229-70.764-40.855-71.209-172.564-.994-294.18 70.215-121.615 184.5-187.084 255.264-146.229Z"/>
    <path fill="#fff" d="M1609.689 1057.413c70.763 40.855 71.208 172.564.993 294.18-70.214 121.615-184.5 187.084-255.263 146.229-70.763-40.856-71.208-172.564-.994-294.18 70.215-121.615 184.5-187.084 255.264-146.229Z"/>
    <path fill="#fff" d="M645.62 1203.614c70.215 121.615 69.77 253.324-.993 294.179-70.763 40.855-185.049-24.614-255.263-146.23-70.215-121.615-69.77-253.323.993-294.178 70.764-40.856 185.049 24.613 255.264 146.229Z"/>
    <path fill="#fff" d="M1610.631 646.423c70.215 121.615 69.77 253.324-.993 294.179-70.764 40.855-185.05-24.614-255.264-146.23-70.215-121.615-69.77-253.323.994-294.179 70.763-40.855 185.048 24.614 255.263 146.23Z"/>
</svg>
