<svg viewBox="0 0 128 128" xmlns="http://www.w3.org/2000/svg">
    <path fill="#039" fill-rule="evenodd" d="M128 64c0-35.346-28.654-64-64-64C28.654 0 0 28.654 0 64c0 35.346 28.654 64 64 64 35.346 0 64-28.654 64-64z"/>
    <path fill="#fc0" d="M63.5 14.233l-2.245 6.91 3.455 1.122z"/>
    <path fill="#fc0" d="M63.5 14.233l2.245 6.91-3.455 1.122z"/>
    <path fill="#fc0" d="M70.41 19.253h-7.266v3.633z"/>
    <path fill="#fc0" d="M70.41 19.253l-5.878 4.27-2.135-2.938z"/>
    <g fill="#fc0">
        <path d="M67.77 27.376l-2.245-6.91-3.454 1.123z"/>
        <path d="M67.77 27.376l-5.877-4.27 2.135-2.939z"/>
    </g>
    <g fill="#fc0">
        <path d="M56.59 19.253h7.266v3.633z"/>
        <path d="M56.59 19.253l5.878 4.27 2.135-2.938z"/>
        <path d="M59.23 27.376l2.245-6.91 3.454 1.123z"/>
        <path d="M59.23 27.376l5.877-4.27-2.135-2.939z"/>
    </g>
    <g fill="#fc0">
        <path d="M63.5 101.414l-2.245 6.91 3.455 1.122z"/>
        <path d="M63.5 101.414l2.245 6.91-3.455 1.122z"/>
        <path d="M70.41 106.434h-7.266v3.633z"/>
        <path d="M70.41 106.434l-5.878 4.27-2.135-2.938z"/>
        <path d="M67.77 114.557l-2.245-6.91-3.454 1.123z"/>
        <path d="M67.77 114.557l-5.877-4.27 2.135-2.94z"/>
        <g>
            <path d="M56.59 106.434h7.266v3.633z"/>
            <path d="M56.59 106.434l5.878 4.27 2.135-2.938z"/>
            <path d="M59.23 114.557l2.245-6.91 3.454 1.123z"/>
            <path d="M59.23 114.557l5.877-4.27-2.135-2.94z"/>
        </g>
    </g>
    <g fill="#fc0">
        <path d="M19.91 57.824l-2.246 6.91 3.455 1.122z"/>
        <path d="M19.91 57.824l2.245 6.91-3.455 1.122z"/>
        <path d="M26.819 62.844h-7.265v3.632z"/>
        <path d="M26.819 62.844l-5.878 4.27-2.135-2.939z"/>
        <path d="M24.18 70.967l-2.245-6.91-3.455 1.123z"/>
        <path d="M24.18 70.967l-5.878-4.27 2.135-2.94z"/>
        <path d="M13 62.844h7.265v3.632z"/>
        <path d="M13 62.844l5.878 4.27 2.135-2.939z"/>
        <path d="M15.64 70.967l2.244-6.91 3.455 1.123z"/>
        <path d="M15.64 70.967l5.877-4.27-2.135-2.94zM37.434 33.216l5.878-4.27-2.135-2.939z"/>
        <path d="M37.434 33.216l2.245-6.91 3.455 1.123z"/>
        <path d="M34.795 25.093l5.878 4.27 2.135-2.938z"/>
        <path d="M34.795 25.093h7.265v3.633z"/>
        <path d="M41.705 20.073l-2.245 6.91 3.454 1.122z"/>
        <path d="M41.705 20.073l2.245 6.91-3.455 1.122z"/>
        <g>
            <path d="M45.975 33.216l-5.878-4.27 2.136-2.939z"/>
            <path d="M45.975 33.216l-2.245-6.91-3.455 1.123z"/>
            <path d="M48.614 25.093l-5.877 4.27-2.135-2.938z"/>
            <path d="M48.614 25.093H41.35v3.633z"/>
        </g>
        <g>
            <path d="M30.02 49.171l-2.245-6.91-3.455 1.123z"/>
            <path d="M30.02 49.171l-5.878-4.27 2.135-2.939z"/>
            <path d="M21.48 49.171l5.877-4.27-2.135-2.939z"/>
            <path d="M21.48 49.171l2.244-6.91 3.455 1.123z"/>
            <path d="M18.84 41.049l5.878 4.27 2.135-2.939z"/>
            <path d="M18.84 41.049h7.265v3.632z"/>
            <g>
                <path d="M32.659 41.049l-5.878 4.27-2.135-2.939z"/>
                <path d="M32.659 41.049h-7.265v3.632z"/>
                <path d="M25.75 36.029l2.245 6.91-3.455 1.122z"/>
                <path d="M25.75 36.029l-2.246 6.91 3.455 1.122z"/>
            </g>
        </g>
        <g>
            <path d="M32.659 84.64h-7.265v3.632z"/>
            <path d="M32.659 84.64l-5.878 4.27-2.135-2.94z"/>
            <path d="M30.02 92.762l-2.245-6.91-3.455 1.123z"/>
            <path d="M30.02 92.762l-5.878-4.27 2.135-2.94z"/>
            <path d="M21.48 92.762l5.877-4.27-2.135-2.94z"/>
            <path d="M21.48 92.762l2.244-6.91 3.455 1.123z"/>
            <g>
                <path d="M25.75 79.62l2.245 6.909-3.455 1.122z"/>
                <path d="M25.75 79.62l-2.246 6.909 3.455 1.122z"/>
                <path d="M18.84 84.64h7.265v3.632z"/>
                <path d="M18.84 84.64l5.878 4.27 2.135-2.94z"/>
            </g>
        </g>
        <g>
            <path d="M48.614 100.594H41.35v3.633z"/>
            <path d="M48.614 100.594l-5.877 4.27-2.135-2.938z"/>
            <path d="M45.975 108.717l-2.245-6.91-3.455 1.123z"/>
            <path d="M45.975 108.717l-5.878-4.27 2.136-2.94z"/>
            <path d="M37.434 108.717l5.878-4.27-2.135-2.94z"/>
            <path d="M37.434 108.717l2.245-6.91 3.455 1.123z"/>
            <g>
                <path d="M41.705 95.574l2.245 6.91-3.455 1.122z"/>
                <path d="M41.705 95.574l-2.245 6.91 3.454 1.122z"/>
                <path d="M34.795 100.594h7.265v3.633z"/>
                <path d="M34.795 100.594l5.878 4.27 2.135-2.938z"/>
            </g>
        </g>
    </g>
    <g fill="#fc0">
        <path d="M107.09 57.824l2.246 6.91-3.455 1.122z"/>
        <path d="M107.09 57.824l-2.245 6.91 3.455 1.122z"/>
        <path d="M100.181 62.844h7.265v3.632z"/>
        <path d="M100.181 62.844l5.878 4.27 2.135-2.939z"/>
        <path d="M102.82 70.967l2.245-6.91 3.455 1.123z"/>
        <path d="M102.82 70.967l5.878-4.27-2.135-2.94z"/>
        <path d="M114 62.844h-7.265v3.632z"/>
        <path d="M114 62.844l-5.878 4.27-2.135-2.939z"/>
        <path d="M111.36 70.967l-2.244-6.91-3.455 1.123z"/>
        <path d="M111.36 70.967l-5.877-4.27 2.135-2.94zM89.566 33.216l-5.878-4.27 2.135-2.939z"/>
        <path d="M89.566 33.216l-2.245-6.91-3.455 1.123z"/>
        <path d="M92.205 25.093l-5.878 4.27-2.135-2.938z"/>
        <path d="M92.205 25.093H84.94v3.633z"/>
        <path d="M85.295 20.073l2.245 6.91-3.454 1.122z"/>
        <path d="M85.295 20.073l-2.245 6.91 3.455 1.122z"/>
        <g>
            <path d="M81.025 33.216l5.878-4.27-2.136-2.939z"/>
            <path d="M81.025 33.216l2.245-6.91 3.455 1.123z"/>
            <path d="M78.386 25.093l5.877 4.27 2.135-2.938z"/>
            <path d="M78.386 25.093h7.265v3.633z"/>
        </g>
        <g>
            <path d="M96.98 49.171l2.245-6.91 3.455 1.123z"/>
            <path d="M96.98 49.171l5.878-4.27-2.135-2.939z"/>
            <path d="M105.52 49.171l-5.877-4.27 2.135-2.939z"/>
            <path d="M105.52 49.171l-2.244-6.91-3.455 1.123z"/>
            <path d="M108.16 41.049l-5.878 4.27-2.135-2.939z"/>
            <path d="M108.16 41.049h-7.265v3.632z"/>
            <g>
                <path d="M94.341 41.049l5.878 4.27 2.135-2.939z"/>
                <path d="M94.341 41.049h7.265v3.632z"/>
                <path d="M101.25 36.029l-2.245 6.91 3.455 1.122z"/>
                <path d="M101.25 36.029l2.246 6.91-3.455 1.122z"/>
            </g>
        </g>
        <g>
            <path d="M94.341 84.64h7.265v3.632z"/>
            <path d="M94.341 84.64l5.878 4.27 2.135-2.94z"/>
            <path d="M96.98 92.762l2.245-6.91 3.455 1.123z"/>
            <path d="M96.98 92.762l5.878-4.27-2.135-2.94z"/>
            <path d="M105.52 92.762l-5.877-4.27 2.135-2.94z"/>
            <path d="M105.52 92.762l-2.244-6.91-3.455 1.123z"/>
            <g>
                <path d="M101.25 79.62l-2.245 6.909 3.455 1.122z"/>
                <path d="M101.25 79.62l2.246 6.909-3.455 1.122z"/>
                <path d="M108.16 84.64h-7.265v3.632z"/>
                <path d="M108.16 84.64l-5.878 4.27-2.135-2.94z"/>
            </g>
        </g>
        <g>
            <path d="M78.386 100.594h7.265v3.633z"/>
            <path d="M78.386 100.594l5.877 4.27 2.135-2.938z"/>
            <path d="M81.025 108.717l2.245-6.91 3.455 1.123z"/>
            <path d="M81.025 108.717l5.878-4.27-2.136-2.94z"/>
            <path d="M89.566 108.717l-5.878-4.27 2.135-2.94z"/>
            <path d="M89.566 108.717l-2.245-6.91-3.455 1.123z"/>
            <g>
                <path d="M85.295 95.574l-2.245 6.91 3.455 1.122z"/>
                <path d="M85.295 95.574l2.245 6.91-3.454 1.122z"/>
                <path d="M92.205 100.594H84.94v3.633z"/>
                <path d="M92.205 100.594l-5.878 4.27-2.135-2.938z"/>
            </g>
        </g>
    </g>
</svg>
