<svg viewBox="0 0 32 32" fill="none" xmlns="http://www.w3.org/2000/svg">
    <g clip-path="url(#clip0_954_3705)">
        <path d="M16 32c8.837 0 16-7.163 16-16S24.837 0 16 0 0 7.163 0 16s7.163 16 16 16z" fill="#F0F0F0"/>
        <path d="M3.308 6.259A15.942 15.942 0 00.55 11.826h8.324L3.308 6.26z" fill="#0052B4"/>
        <path d="M31.449 11.826a15.943 15.943 0 00-2.756-5.567l-5.568 5.567h8.324z" fill="#0052B4"/>
        <path d="M.551 20.174a15.943 15.943 0 002.757 5.567l5.567-5.567H.55z" fill="#0052B4"/>
        <path d="M25.741 3.308A15.942 15.942 0 0020.174.55v8.324l5.567-5.567z" fill="#0052B4"/>
        <path d="M6.259 28.692a15.942 15.942 0 005.567 2.757v-8.324l-5.567 5.567z" fill="#0052B4"/>
        <path d="M11.826.551a15.943 15.943 0 00-5.567 2.756l5.567 5.568V.55z" fill="#0052B4"/>
        <path d="M20.174 31.449a15.94 15.94 0 005.567-2.757l-5.567-5.567v8.324z" fill="#0052B4"/>
        <path d="M23.125 20.174l5.568 5.567a15.943 15.943 0 002.756-5.567h-8.324z" fill="#0052B4"/>
        <path d="M31.865 13.913H18.087V.135a16.16 16.16 0 00-4.174 0v13.778H.135a16.16 16.16 0 000 4.174h13.778v13.778a16.166 16.166 0 004.174 0V18.087h13.778a16.166 16.166 0 000-4.174z" fill="#D80027"/>
        <path d="M20.174 20.174l7.14 7.14c.328-.329.641-.672.94-1.027l-6.113-6.113h-1.967z" fill="#D80027"/>
        <path d="M11.826 20.174l-7.14 7.14c.328.328.671.641 1.027.94l6.113-6.113v-1.967z" fill="#D80027"/>
        <path d="M11.826 11.826l-7.14-7.14c-.328.329-.642.672-.94 1.027l6.112 6.113h1.968z" fill="#D80027"/>
        <path d="M20.174 11.826l7.14-7.14a16.017 16.017 0 00-1.027-.94l-6.113 6.113v1.967z" fill="#D80027"/>
    </g>
    <defs>
        <clipPath id="clip0_954_3705">
            <path fill="#fff" d="M0 0h32v32H0z"/>
        </clipPath>
    </defs>
</svg>
