<svg viewBox="0 0 900 900" xmlns="http://www.w3.org/2000/svg">
    <path fill="#ee1c25" fill-rule="evenodd" d="M900 450C900 201.472 698.528 0 450 0S0 201.472 0 450s201.472 450 450 450 450-201.472 450-450z"/>
    <path fill="#fff" d="M492.936 275.196a27.917 27.917 0 00-14.902 41.792 45.171 45.171 0 01-20.29 66.204 38.65 38.65 0 00-10.816 64.313c-30.214-21.498-37.785-63.16-17.068-93.914-.386-.33-.756-.68-1.109-1.047-21.192 31.217-13.776 73.621 16.755 95.793-42.64-17.079-65.678-63.434-53.542-107.735 12.136-44.3 55.581-72.443 100.972-65.406"/>
    <path fill="#ee1c25" d="M451.98 331.1l-27.565 12.021 29.366 6.476-19.951-22.5 2.915 29.93"/>
    <path fill="#fff" d="M629.517 436.817a27.917 27.917 0 00-44.352-1.258 45.171 45.171 0 01-69.234 1.162 38.65 38.65 0 00-64.507 9.586c11.108-35.378 48.392-55.453 84.042-45.253.196-.47.414-.93.654-1.379-36.239-10.508-74.275 9.649-85.927 45.537 3.066-45.83 40.033-82.065 85.916-84.213 45.883-2.148 86.073 30.475 93.408 75.818"/>
    <path fill="#ee1c25" d="M563.693 415.14l-19.951-22.5 2.915 29.93 15.234-25.928-27.565 12.022"/>
    <path fill="#fff" d="M312.517 566.182a27.917 27.917 0 0036.62-25.051 45.171 45.171 0 0155.329-41.634 38.65 38.65 0 0046.553-45.673c11.807 35.151-6.556 73.307-41.393 86.01.118.495.212.996.281 1.5 35.495-12.8 54.42-51.464 42.751-87.347 24.458 38.88 15.85 89.923-20.008 118.63-35.858 28.707-87.548 25.938-120.133-6.435"/>
    <path fill="#ee1c25" d="M378.51 545.03l29.367 6.476-19.951-22.501 2.915 29.93 15.234-25.927"/>
    <path fill="#fff" d="M518.011 616.657a27.917 27.917 0 00-12.509-42.57 45.171 45.171 0 01-22.499-65.486 38.65 38.65 0 00-29.051-58.388c37.08-.367 67.693 28.888 69.009 65.945.507.041 1.012.107 1.513.196-1.204-37.712-32.129-67.658-69.86-67.65 44.535-11.247 90.42 12.714 106.64 55.688 16.222 42.973-2.385 91.278-43.243 112.265"/>
    <path fill="#ee1c25" d="M518.287 547.356l15.234-25.928-27.565 12.022 29.367 6.476-19.952-22.5"/>
    <path fill="#fff" d="M297.02 355.148a27.917 27.917 0 0035.14 27.087 45.171 45.171 0 0156.695 39.755 38.65 38.65 0 0057.823 30.16c-29.782 22.092-71.745 16.42-94.592-12.788-.434.265-.88.51-1.339.731 23.141 29.802 65.762 35.852 96.282 13.668-29.419 35.275-80.624 42.86-119.006 17.629-38.383-25.232-51.723-75.247-31.004-116.242"/>
    <path fill="#ee1c25" d="M337.53 411.375l2.916 29.93 15.234-25.927-27.565 12.022 29.367 6.476"/>
</svg>
