<svg viewBox="0 0 32 32" fill="none" xmlns="http://www.w3.org/2000/svg">
    <path d="M15.9 1C9.4 1 3.85 5.2 1.8 11h28.3C28 5.2 22.45 1 15.9 1z" fill="#F2B200"/>
    <path d="M15.9 31c6.55 0 12.1-4.15 14.15-10H1.8c2.05 5.85 7.6 10 14.1 10z" fill="#83BF4F"/>
    <path d="M1.8 11c-.55 1.55-.85 3.25-.85 5s.3 3.45.85 5h28.3c.55-1.55.85-3.25.85-5s-.3-3.45-.85-5H1.8z" fill="#fff"/>
    <path d="M15.9 20a4 4 0 100-8 4 4 0 000 8z" fill="#428BC1"/>
    <path d="M15.9 19.5a3.5 3.5 0 100-7 3.5 3.5 0 000 7z" fill="#fff"/>
    <path d="M14.6 13a.25.25 0 100-.5.25.25 0 000 .5zM13.8 13.45a.25.25 0 100-.5.25.25 0 000 .5zM13.15 14.1a.25.25 0 100-.5.25.25 0 000 .5zM12.7 14.9a.25.25 0 100-.5.25.25 0 000 .5zM12.45 15.8a.25.25 0 100-.5.25.25 0 000 .5zM12.45 16.7a.25.25 0 100-.5.25.25 0 000 .5zM12.7 17.6a.25.25 0 100-.5.25.25 0 000 .5zM13.15 18.4a.25.25 0 100-.5.25.25 0 000 .5zM13.8 19.05a.25.25 0 100-.5.25.25 0 000 .5zM14.6 19.5a.25.25 0 100-.5.25.25 0 000 .5zM15.45 19.7a.25.25 0 100-.5.25.25 0 000 .5zM16.15 19.5c0-.15.1-.25.2-.3.15 0 .25.1.3.2 0 .15-.1.25-.2.3-.2.05-.3-.05-.3-.2zM17.25 19.5a.25.25 0 100-.5.25.25 0 000 .5zM18.05 19.05a.25.25 0 100-.5.25.25 0 000 .5zM18.7 18.4a.25.25 0 100-.5.25.25 0 000 .5zM19.15 17.6a.25.25 0 100-.5.25.25 0 000 .5zM19.4 16.7a.25.25 0 100-.5.25.25 0 000 .5zM19.4 15.8c-.15 0-.25-.1-.3-.2 0-.15.1-.25.2-.3.15 0 .25.1.3.2.05.15-.05.25-.2.3zM19.15 14.9a.25.25 0 100-.5.25.25 0 000 .5zM18.7 14.1a.25.25 0 100-.5.25.25 0 000 .5zM18.05 13.45a.25.25 0 100-.5.25.25 0 000 .5zM17.5 12.85c-.05.15-.2.2-.35.15-.15-.05-.2-.2-.15-.35.05-.15.2-.2.35-.15.15.1.2.25.15.35zM16.6 12.55c0 .15-.15.25-.3.2-.15 0-.25-.15-.2-.3 0-.15.15-.25.3-.2.15.05.25.2.2.3zM15.7 12.5c0 .15-.1.25-.2.3-.15 0-.25-.1-.3-.2 0-.15.1-.25.2-.3.15-.05.3.05.3.2zM15.9 16.75a.75.75 0 100-1.5.75.75 0 000 1.5z" fill="#428BC1"/>
    <path d="M15.9 12.5l-.1 2.15.1 1.35.15-1.35-.15-2.15zM15 12.6l.45 2.15.45 1.25-.2-1.35-.7-2.05z" fill="#428BC1"/>
    <path d="M14.15 12.95l1 1.95.75 1.1-.55-1.25-1.2-1.8zM13.45 13.5l1.45 1.65 1 .85-.85-1.05-1.6-1.45z" fill="#428BC1"/>
    <path d="M12.9 14.25l1.8 1.2 1.2.55-1.1-.8-1.9-.95z" fill="#428BC1"/>
    <path d="M12.55 15.1l2.05.65 1.3.25-1.25-.45-2.1-.45zM12.4 16l2.2.1 1.3-.1-1.3-.1-2.2.1z" fill="#428BC1"/>
    <path d="M12.55 16.9l2.1-.45L15.9 16l-1.3.25-2.05.65zM12.9 17.75l1.9-.95 1.1-.8-1.2.55-1.8 1.2z" fill="#428BC1"/>
    <path d="M13.45 18.45l1.6-1.4.85-1.05-1 .85-1.45 1.6zM14.15 19.05l1.2-1.85.55-1.2-.75 1.1-1 1.95z" fill="#428BC1"/>
    <path d="M15 19.4l.7-2.05.2-1.35-.45 1.25L15 19.4zM15.9 19.5l.15-2.15L15.9 16l-.1 1.35.1 2.15zM16.8 19.4l-.4-2.15-.5-1.25.25 1.35.65 2.05z" fill="#428BC1"/>
    <path d="M17.65 19.05l-.95-1.95-.8-1.1.6 1.25 1.15 1.8zM18.4 18.45l-1.45-1.6L15.9 16l.9 1.05 1.6 1.4zM18.95 17.75l-1.8-1.2L15.9 16l1.1.8 1.95.95zM19.3 16.9l-2.05-.65L15.9 16l1.3.45 2.1.45zM19.4 16l-2.15-.15-1.35.15 1.35.1 2.15-.1zM19.3 15.1l-2.1.45-1.3.45 1.35-.25 2.05-.65z" fill="#428BC1"/>
    <path d="M18.95 14.25L17 15.2l-1.1.8 1.25-.55 1.8-1.2zM18.4 13.55l-1.6 1.4-.9 1.05 1.05-.85 1.45-1.6z" fill="#428BC1"/>
    <path d="M17.65 12.95L16.5 14.8l-.6 1.2.8-1.1.95-1.95zM16.85 12.6l-.7 2.05L15.9 16l.5-1.25.45-2.15z" fill="#428BC1"/>
</svg>
