<svg viewBox="0 0 900 900" xmlns="http://www.w3.org/2000/svg">
    <path fill="#fff" fill-rule="evenodd" d="M900 450C900 201.472 698.528 0 450 0S0 201.472 0 450s201.472 450 450 450 450-201.472 450-450z"/>
    <path d="M137.981 332.126l83.205-124.807 20.801 13.867-83.205 124.808zm31.202 20.801l83.205-124.807 20.801 13.867-83.205 124.808zm31.202 20.802L283.59 248.92l20.801 13.868-83.205 124.807z"/>
    <path d="M595.609 637.211l83.205-124.807 20.801 13.867L616.41 651.08zm31.202 20.802l83.205-124.808 20.801 13.868-83.205 124.807zm31.202 20.8l83.205-124.807 20.8 13.868-83.204 124.807z"/>
    <path stroke="#fff" stroke-width="12.5" d="M626.81 567.874l104.007 69.337"/>
    <path fill="#cd2e3a" d="M325.192 366.795c45.953-68.93 139.084-87.555 208.013-41.603 68.93 45.953 87.555 139.084 41.603 208.013z"/>
    <path fill="#0047a0" d="M325.192 366.795c-45.952 68.93-27.326 162.06 41.603 208.012 68.93 45.953 162.06 27.327 208.013-41.602 22.976-34.465 13.663-81.03-20.802-104.006C519.542 406.222 472.976 415.535 450 450z"/>
    <path fill="#cd2e3a" d="M429.199 345.994C463.663 368.97 472.976 415.535 450 450c-22.976 34.465-69.542 43.778-104.006 20.801-34.465-22.976-43.778-69.541-20.802-104.006 22.977-34.465 69.542-43.778 104.007-20.801z"/>
    <path d="M221.186 692.681l-83.205-124.807 20.801-13.868 83.205 124.808zm31.202-20.8l-83.205-124.808 20.801-13.868 83.205 124.808zm31.202-20.802L200.385 526.27l20.801-13.867 83.205 124.807z"/>
    <path d="M678.814 387.596L595.609 262.79l20.801-13.868 83.205 124.808zm31.202-20.801L626.81 241.987l20.8-13.867 83.206 124.807zm31.202-20.801l-83.205-124.808 20.8-13.867 83.206 124.807z"/>
    <path stroke="#fff" stroke-width="12.5" d="M205.585 612.943l31.202-20.801m390.024-260.016l36.402-24.268m31.202-20.801l31.202-20.801"/>
</svg>
