<svg viewBox="0 0 32 33" xmlns="http://www.w3.org/2000/svg">
    <clipPath id="a">
        <path d="M0 .5h32v32H0z"/>
    </clipPath>
    <g clip-path="url(#a)">
        <path fill="#0052b4" d="M32 16.5c0 8.837-7.163 16-16 16s-16-7.163-16-16c0 .004 16-15.998 16-16 8.837 0 16 7.163 16 16z"/>
        <g fill="#f0f0f0">
            <path d="M16 .5h-.003H16z"/>
            <path d="M15.957 16.5H16v-.043l-.043.043z"/>
            <path d="M16 8.848V.5h-.003C7.162.502 0 7.664 0 16.5h8.348v-4.7l4.7 4.7h2.91l.042-.043V13.55l-4.7-4.7H16z"/>
        </g>
        <g fill="#d80027">
            <path d="M8.095 2.587a16.077 16.077 0 00-6.008 6.008V16.5H6.26V6.76H16V2.588H8.095z"/>
            <path d="M16 14.532l-5.685-5.684H8.348L16 16.5v-1.968z"/>
        </g>
        <g fill="red" stroke="#fff" stroke-width=".3">
            <path d="M24.313 23.844l.796-.188-.359.75.64.5-.812.188v.828l-.625-.516-.64.516v-.828l-.813-.188.656-.5-.36-.75.798.188.36-.735z"/>
            <path d="M20.219 14.11l.797-.188-.36.75.64.5-.796.172v.844l-.64-.516-.641.515.015-.843-.812-.172.64-.5-.359-.75.797.187.36-.734z"/>
            <path d="M24.313 8.547l.796-.188-.359.735.656.515-.828.172v.828l-.625-.5-.64.5v-.828L22.5 9.61l.656-.515-.36-.735.798.188.36-.735z"/>
            <path d="M27.875 12.719l.797-.188-.36.75.641.5-.797.172v.828l-.64-.5-.641.5v-.828l-.797-.172.64-.5-.359-.75.797.188.36-.735z"/>
        </g>
    </g>
</svg>
