<svg viewBox="0 0 32 32" fill="none" xmlns="http://www.w3.org/2000/svg">
    <g clip-path="url(#clip0_1167_1972)">
        <path d="M16 32c8.837 0 16-7.163 16-16S24.837 0 16 0 0 7.163 0 16s7.163 16 16 16z" fill="#F0F0F0"/>
        <path d="M16 0v16L4.686 27.314A15.95 15.95 0 0016 32c8.837 0 16-7.163 16-16S16 0 16 0z" fill="#D80027"/>
        <path d="M16 0A15.95 15.95 0 004.686 4.686L16 16h16c0-8.837-7.163-16-16-16z" fill="#0052B4"/>
        <path d="M10.956 16l-1.954-.92 1.04-1.892-2.122.406-.268-2.143-1.478 1.576-1.478-1.576-.27 2.143-2.121-.406 1.04 1.893L1.391 16l1.954.92-1.04 1.892 2.122-.406.269 2.143 1.478-1.576 1.478 1.576.268-2.143 2.122.406-1.04-1.893L10.956 16z" fill="#FFDA44"/>
        <path d="M4.267 6.26l.65.91 1.066-.338-.664.9.65.909-1.06-.354-.664.9.009-1.118-1.06-.353 1.065-.338.008-1.117z" fill="#FFDA44"/>
        <path d="M4.267 22.814l.65.908 1.066-.337-.664.9.65.908-1.06-.353-.664.9.009-1.118-1.06-.354 1.065-.337.008-1.117z" fill="#FFDA44"/>
        <path d="M13.542 14.537l-.65.91-1.066-.338.664.899-.65.909 1.06-.353.663.899-.008-1.118 1.06-.353-1.065-.337-.008-1.118z" fill="#FFDA44"/>
    </g>
    <defs>
        <clipPath id="clip0_1167_1972">
            <path fill="#fff" d="M0 0h32v32H0z"/>
        </clipPath>
    </defs>
</svg>
