<svg viewBox="0 0 900 900" xmlns="http://www.w3.org/2000/svg">
    <path fill="#fff" fill-rule="evenodd" d="M450 900C201.472 900 0 698.528 0 450h900c0 248.528-201.472 450-450 450z"/>
    <path fill="#ed2939" fill-rule="evenodd" d="M0 450C0 201.472 201.472 0 450 0s450 201.472 450 450H0z"/>
    <path fill="#fff" d="M300.5 300c0 60.981-49.435 110.417-110.417 110.417-60.981 0-110.416-49.436-110.416-110.417s49.435-110.417 110.416-110.417C251.065 189.583 300.5 239.02 300.5 300z"/>
    <path fill="#ed2939" d="M350.5 300c0 60.981-49.435 110.417-110.417 110.417-60.981 0-110.416-49.436-110.416-110.417s49.435-110.417 110.416-110.417C301.065 189.583 350.5 239.02 350.5 300z"/>
    <path fill="#fff" d="M250.5 207.917l-16.899 52.009 44.242-32.144h-54.686l44.242 32.144z"/>
    <path fill="#fff" d="M338.076 271.545h-54.685l44.241 32.143-16.898-52.01-16.9 52.01z"/>
    <path fill="#fff" d="M196.375 374.497l44.241-32.143h-54.685l44.241 32.143-16.898-52.01z"/>
    <g fill="#fff">
        <path d="M304.625 374.497l-16.899-52.01-16.898 52.01 44.241-32.143h-54.685z"/>
        <path d="M162.924 271.545l44.241 32.143-16.899-52.01-16.898 52.01 44.241-32.143z"/>
    </g>
</svg>
