<svg viewBox="0 0 32 33" fill="none" xmlns="http://www.w3.org/2000/svg">
    <g clip-path="url(#clip0_1167_2082)">
        <path d="M31.84 16.5c0 8.748-7.092 15.84-15.84 15.84C7.252 32.34.16 25.248.16 16.5.16 7.752 7.252.66 16 .66c8.748 0 15.84 7.092 15.84 15.84z" fill="#E30A17"/>
        <path d="M13.032 7.972a8.528 8.528 0 107.21 13.084 6.822 6.822 0 110-9.112 8.52 8.52 0 00-7.21-3.972z" fill="#fff"/>
        <path d="M27.497 13.994L19.782 16.5l7.713 2.506-4.767-6.561v8.11l4.768-6.561z" fill="#fff"/>
    </g>
    <defs>
        <clipPath id="clip0_1167_2082">
            <path fill="#fff" transform="translate(0 .5)" d="M0 0h32v32H0z"/>
        </clipPath>
    </defs>
</svg>
