<svg width="421" height="166" viewBox="0 0 421 166" fill="none" xmlns="http://www.w3.org/2000/svg">
<g filter="url(#filter0_d_395_8190)">
<g clip-path="url(#clip0_395_8190)">
<rect x="129" y="94.6016" width="64" height="64" rx="10.6667" transform="rotate(-5.02207 129 94.6016)" fill="#0052FF"/>
<path d="M166.324 153.784C182.951 152.322 195.246 137.659 193.785 121.032C192.324 104.405 177.66 92.11 161.033 93.5712C144.406 95.0323 132.111 109.696 133.572 126.323C135.034 142.95 149.697 155.245 166.324 153.784Z" fill="#0052FF"/>
<path fill-rule="evenodd" clip-rule="evenodd" d="M165.531 144.751C177.17 143.728 185.776 133.464 184.753 121.825C183.73 110.186 173.466 101.579 161.827 102.602C150.188 103.625 141.582 113.889 142.604 125.528C143.627 137.167 153.892 145.774 165.531 144.751ZM157.805 117.258C156.915 117.336 156.256 118.122 156.334 119.013L157.26 129.55C157.339 130.441 158.124 131.099 159.015 131.021L169.552 130.095C170.443 130.017 171.101 129.231 171.023 128.34L170.097 117.803C170.019 116.912 169.233 116.254 168.343 116.332L157.805 117.258Z" fill="white"/>
</g>
</g>
<g filter="url(#filter1_d_395_8190)">
<rect x="109.98" y="8.13477" width="64" height="64" rx="10.6667" transform="rotate(3.44471 109.98 8.13477)" fill="white"/>
<path d="M161.361 21.9133L142.85 34.0071L146.594 26.4399L161.361 21.9133Z" fill="#E2761B" stroke="#E2761B" stroke-width="0.971152" stroke-linecap="round" stroke-linejoin="round"/>
<path d="M120.456 19.4514L137.233 33.7945L134.591 25.7178L120.456 19.4514ZM153.15 52.0357L147.996 58.9819L157.926 62.3678L161.421 52.6945L153.15 52.0357ZM116.74 50.0049L119.032 60.0266L129.297 57.8563L125.013 50.342L116.74 50.0049Z" fill="#E4761B" stroke="#E4761B" stroke-width="0.971152" stroke-linecap="round" stroke-linejoin="round"/>
<path d="M129.898 38.3745L126.828 42.4613L136.827 43.5101L137.119 32.7145L129.898 38.3745ZM149.718 39.5676L143.146 32.9522L142.259 43.837L152.294 43.9942L149.718 39.5676ZM129.297 57.8556L135.493 55.2795L130.537 50.9062L129.297 57.8556ZM142.136 55.6793L147.996 58.9811L147.58 51.932L142.136 55.6793Z" fill="#E4761B" stroke="#E4761B" stroke-width="0.971152" stroke-linecap="round" stroke-linejoin="round"/>
<path d="M147.997 58.9819L142.136 55.6801L142.38 59.6447L142.227 61.2977L147.997 58.9819ZM129.298 57.8564L134.748 60.8475L134.812 59.1891L135.494 55.2803L129.298 57.8564Z" fill="#D7C1B3" stroke="#D7C1B3" stroke-width="0.971152" stroke-linecap="round" stroke-linejoin="round"/>
<path d="M135.573 48.6002L130.64 46.8198L134.282 45.4125L135.573 48.6002ZM142.857 49.0386L144.521 46.0289L147.986 47.8639L142.857 49.0386Z" fill="#233447" stroke="#233447" stroke-width="0.971152" stroke-linecap="round" stroke-linejoin="round"/>
<path d="M129.297 57.8555L130.587 50.6767L125.003 50.5015L129.297 57.8555ZM147.576 51.6994L147.995 58.981L153.14 52.1952L147.576 51.6994ZM152.293 43.9942L142.258 43.8369L142.874 49.0393L144.539 46.0296L148.003 47.8646L152.293 43.9942ZM130.64 46.8194L134.299 45.4132L135.573 48.5998L136.827 43.51L126.827 42.4613L130.64 46.8194Z" fill="#CD6116" stroke="#CD6116" stroke-width="0.971152" stroke-linecap="round" stroke-linejoin="round"/>
<path d="M126.828 42.4609L130.537 50.9058L130.64 46.8191L126.828 42.4609ZM148.004 47.8642L147.58 51.9316L152.294 43.9938L148.004 47.8642ZM136.827 43.5097L135.573 48.5995L136.383 54.7429L137.132 46.763L136.827 43.5097ZM142.259 43.8366L141.585 47.0132L141.316 55.0398L142.875 49.039L142.259 43.8366Z" fill="#E4751F" stroke="#E4751F" stroke-width="0.971152" stroke-linecap="round" stroke-linejoin="round"/>
<path d="M142.875 49.0392L141.316 55.0401L142.135 55.6792L147.58 51.9319L148.003 47.8645L142.875 49.0392ZM130.64 46.8193L130.537 50.906L135.493 55.2794L136.383 54.7431L135.573 48.5997L130.64 46.8193Z" fill="#F6851B" stroke="#F6851B" stroke-width="0.971152" stroke-linecap="round" stroke-linejoin="round"/>
<path d="M142.227 61.2978L142.38 59.6448L141.959 59.2262L135.245 58.8221L134.812 59.1892L134.748 60.8476L129.298 57.8564L131.16 59.5771L134.965 62.5765L141.786 62.987L145.941 60.4668L147.997 58.982L142.227 61.2978Z" fill="#C0AD9E" stroke="#C0AD9E" stroke-width="0.971152" stroke-linecap="round" stroke-linejoin="round"/>
<path d="M142.135 55.6794L141.316 55.0402L136.383 54.7433L135.493 55.2795L134.811 59.1884L135.244 58.8212L141.958 59.2254L142.379 59.644L142.135 55.6794Z" fill="#161616" stroke="#161616" stroke-width="0.971152" stroke-linecap="round" stroke-linejoin="round"/>
<path d="M161.266 35.974L163.218 28.7993L161.362 21.9138L143.465 33.5977L149.719 39.5684L158.868 42.8537L161.079 40.5739L160.227 39.8792L161.73 38.665L160.677 37.7437L162.167 36.7431L161.266 35.974ZM117.806 26.0658L118.882 33.4227L117.878 34.0772L119.237 35.2492L118.099 36.0387L119.446 37.4244L118.517 38.0119L120.42 40.5393L129.898 38.3753L136.823 33.1979L120.456 19.4515L117.806 26.0658Z" fill="#763D16" stroke="#763D16" stroke-width="0.971152" stroke-linecap="round" stroke-linejoin="round"/>
<path d="M158.868 42.8522L149.718 39.5669L152.294 43.9936L147.58 51.9314L153.14 52.1946L161.421 52.693L158.868 42.8522ZM129.898 38.3738L120.42 40.5379L116.74 50.0035L125.003 50.5009L130.537 50.9055L126.828 42.4607L129.898 38.3738ZM142.259 43.8363L143.465 33.5963L146.612 26.44L134.592 25.7164L136.822 33.1964L136.827 43.5094L136.846 46.7634L136.383 54.7426L141.316 55.0395L141.832 47.0635L142.259 43.8363Z" fill="#F6851B" stroke="#F6851B" stroke-width="0.971152" stroke-linecap="round" stroke-linejoin="round"/>
</g>
<g filter="url(#filter2_d_395_8190)">
<rect x="17.7515" y="49.8125" width="64" height="64" rx="10.6667" transform="rotate(-12.6913 17.7515 49.8125)" fill="#8697FF"/>
<path d="M80.0707 72.1264C80.9843 67.5763 69.2638 58.0785 59.4681 55.2278C53.1373 52.7361 47.5306 54.5369 46.7403 56.4349C45.0062 60.6001 56.6564 61.1751 64.7894 63.0758C63.3678 64.1179 62.1599 65.6851 61.6414 67.4583C58.2332 65.0793 51.6521 63.8518 45.0793 67.5145C40.6498 69.983 37.4499 74.171 37.0484 79.4989C36.6408 79.4171 36.2102 79.4178 35.7789 79.5149C34.1295 79.8863 33.0944 81.5292 33.4671 83.1842C33.8398 84.8392 35.4792 85.8798 37.1286 85.5084C37.4344 85.4395 38.3439 85.0183 38.3439 85.0183L53.6453 81.6892C49.726 92.7896 45.218 95.2985 45.5974 96.9831C45.9768 98.6678 50.4935 97.171 52.0868 96.1523C59.7133 91.2762 66.5217 79.8987 67.4448 76.857C74.0527 76.2143 79.4752 75.0932 80.0707 72.1264Z" fill="url(#paint0_linear_395_8190)"/>
<path fill-rule="evenodd" clip-rule="evenodd" d="M64.7888 63.0779C64.7893 63.0779 64.7897 63.078 64.7902 63.0781C65.0999 62.8672 64.9315 62.3759 64.7491 62.0014C64.3298 61.1404 59.8027 58.3068 55.9571 57.447C50.7173 56.2754 47.2559 57.176 46.9725 58.3235C48.3839 60.0902 53.2758 60.9457 58.3851 61.8393C60.5649 62.2204 62.7843 62.6085 64.7897 63.0772C64.7894 63.0774 64.7891 63.0777 64.7888 63.0779Z" fill="url(#paint1_linear_395_8190)"/>
<path fill-rule="evenodd" clip-rule="evenodd" d="M63.2755 84.3978C62.2349 84.2462 61.0772 84.1528 59.7783 84.1242C60.5595 81.4741 60.0497 77.9262 58.3147 76.0011C55.8799 73.2995 53.3269 72.1445 48.2562 73.2865C45.4673 73.9145 38.1705 76.5482 39.4536 82.8675C39.5883 83.5306 39.7381 84.1323 39.911 84.6778L53.6454 81.6896C52.4594 85.0483 51.2196 87.6206 50.0776 89.6213C52.0028 89.6793 53.593 89.7339 55.0529 89.784C56.4382 89.8318 57.7063 89.8752 59.0318 89.9138C60.6111 88.1061 62.0492 86.1986 63.2755 84.3978Z" fill="url(#paint2_linear_395_8190)"/>
<path d="M37.9678 84.4366C39.6039 89.0882 42.7317 90.3512 48.3865 89.66C54.041 88.9687 57.1294 87.8827 61.4393 87.3171C65.0388 86.8449 68.5941 87.9391 69.6221 87.0527C70.5472 86.2551 69.5026 84.3612 67.803 83.378C65.5998 82.1035 62.8119 81.5003 58.277 82.0846C58.6145 79.4537 57.5987 76.1003 55.8064 74.555C53.2148 72.3207 49.2732 71.9343 44.7494 73.5097C40.023 75.1557 35.9144 78.5987 37.9678 84.4366Z" fill="url(#paint3_linear_395_8190)"/>
</g>
<g filter="url(#filter3_d_395_8190)">
<rect x="312" y="19.1191" width="64" height="64" rx="10.6667" transform="rotate(-6.3874 312 19.1191)" fill="white" shape-rendering="crispEdges"/>
<path d="M345.142 27.9309C352.16 32.572 359.482 31.4177 361.584 31.1823C364.537 61.7147 360.356 56.0627 349.398 65.9435C336.526 58.7304 333.72 65.1644 329.848 34.735C331.929 34.5021 339.325 34.0088 345.142 27.9309Z" stroke="#3375BB" stroke-width="4.375" stroke-miterlimit="10" stroke-linecap="round" stroke-linejoin="round"/>
</g>
<g filter="url(#filter4_d_395_8190)">
<rect x="213.399" y="35" width="64" height="64" rx="10.6667" transform="rotate(8.44556 213.399 35)" fill="#D5FF5C"/>
<path fill-rule="evenodd" clip-rule="evenodd" d="M251.956 75.5463C252.227 76.4799 253.363 76.9643 254.145 76.3853L255.575 75.3255C257.054 74.2291 259.143 74.5392 260.24 76.0181C261.337 77.497 261.027 79.5847 259.547 80.6811L247.964 89.2651C245.118 91.7702 241.229 93.0519 237.184 92.4514C232.96 91.8242 229.494 89.2823 227.538 85.8377L219.276 74.7003C218.179 73.2214 218.489 71.1337 219.968 70.0374C221.448 68.941 223.536 69.2511 224.633 70.73L225.679 72.1401C226.246 72.9034 227.444 72.7757 227.963 71.9799C228.066 71.8225 228.135 71.6476 228.163 71.4618L230.399 56.3989C230.67 54.5771 232.366 53.3195 234.188 53.59C236.01 53.8605 237.267 55.5566 236.997 57.3785L235.866 64.9971C235.768 65.6532 236.374 66.1983 237.029 66.0936C237.444 66.0273 237.783 65.7093 237.845 65.294L239.662 53.0559C239.933 51.2341 241.629 49.9765 243.45 50.247C245.272 50.5175 246.53 52.2136 246.259 54.0355L244.442 66.274C244.381 66.6891 244.613 67.0919 244.99 67.2757C245.586 67.5661 246.324 67.2207 246.421 66.5649L247.553 58.9459C247.823 57.124 249.519 55.8664 251.341 56.1369C253.163 56.4075 254.421 58.1036 254.15 59.9254L251.915 74.9812C251.886 75.1709 251.902 75.3622 251.956 75.5463Z" fill="#FD4848"/>
<path d="M249.502 82.1489C249.502 82.1489 243.797 88.0416 237.967 87.176C232.137 86.3104 228.39 79.0143 228.39 79.0143C228.39 79.0143 234.096 73.1216 239.925 73.9873C245.755 74.8529 249.502 82.1489 249.502 82.1489Z" fill="#D5FF5C"/>
<path d="M243.874 81.3132C243.47 84.033 240.937 85.9106 238.216 85.5065C235.494 85.1024 233.616 82.5698 234.019 79.85C234.423 77.1302 236.957 75.2526 239.678 75.6567C242.399 76.0608 244.278 78.5934 243.874 81.3132Z" stroke="#FD4848" stroke-width="0.708884"/>
<path d="M241.895 81.0187C241.653 82.6459 240.138 83.7693 238.509 83.5275C236.881 83.2857 235.757 81.7704 235.999 80.1432C236.24 78.516 237.756 77.3926 239.384 77.6343C241.013 77.8761 242.137 79.3915 241.895 81.0187Z" stroke="#FD4848" stroke-width="0.708884"/>
<path d="M245.854 81.6058C245.288 85.4182 241.737 88.05 237.922 87.4836C234.108 86.9172 231.475 83.3673 232.041 79.5549C232.607 75.7425 236.158 73.1108 239.972 73.6772C243.787 74.2435 246.42 77.7935 245.854 81.6058Z" stroke="#FD4848" stroke-width="0.708884"/>
<path d="M247.832 81.9004C247.104 86.8054 242.536 90.1913 237.628 89.4626C232.72 88.7339 229.333 84.1667 230.061 79.2617C230.789 74.3567 235.358 70.9709 240.265 71.6995C245.173 72.4282 248.561 76.9954 247.832 81.9004Z" stroke="#FD4848" stroke-width="0.708884"/>
<path d="M239.915 80.7239C239.836 81.2587 239.338 81.6278 238.803 81.5484C238.268 81.469 237.899 80.9711 237.979 80.4364C238.058 79.9016 238.556 79.5325 239.091 79.6119C239.625 79.6913 239.994 80.1891 239.915 80.7239Z" fill="#162BEB" stroke="#FD4848" stroke-width="0.708884"/>
<ellipse cx="238.947" cy="80.5801" rx="1.33333" ry="1.33333" transform="rotate(8.44555 238.947 80.5801)" fill="#FD4848"/>
<path d="M228.871 79.1549C228.856 79.1281 228.842 79.1029 228.829 79.0794C228.848 79.0607 228.869 79.0407 228.891 79.0194C229.055 78.8636 229.296 78.6409 229.604 78.3757C230.221 77.845 231.102 77.1466 232.161 76.4756C234.292 75.1258 237.085 73.9239 239.873 74.3378C242.661 74.7518 244.985 76.7134 246.632 78.6241C247.45 79.574 248.091 80.4983 248.526 81.1852C248.744 81.5284 248.91 81.8117 249.021 82.0083C249.037 82.0351 249.051 82.0603 249.064 82.0839C249.044 82.1025 249.024 82.1226 249.001 82.1438C248.838 82.2996 248.596 82.5224 248.288 82.7875C247.672 83.3183 246.791 84.0166 245.731 84.6876C243.6 86.0374 240.807 87.2394 238.019 86.8254C235.231 86.4114 232.908 84.4498 231.261 82.5391C230.442 81.5893 229.802 80.665 229.366 79.978C229.149 79.6348 228.983 79.3516 228.871 79.1549Z" stroke="#D5FF5C" stroke-width="0.708884"/>
</g>
<g filter="url(#filter5_d_395_8190)">
<rect x="296.626" y="88.0469" width="64" height="64" rx="10.6667" transform="rotate(7.70457 296.626 88.0469)" fill="url(#paint4_linear_395_8190)" shape-rendering="crispEdges"/>
<path d="M304.48 109.56L307.651 109.989C323.996 112.201 335.455 127.244 333.243 143.59L332.814 146.761L339.156 147.619C340.908 147.856 342.52 146.628 342.756 144.877C345.679 123.277 330.537 103.398 308.938 100.476C307.186 100.239 305.575 101.467 305.338 103.218L304.48 109.56Z" fill="url(#paint5_radial_395_8190)"/>
<path d="M334.301 143.735L342.757 144.879C342.52 146.631 340.908 147.858 339.157 147.621L333.872 146.906L334.301 143.735Z" fill="url(#paint6_linear_395_8190)"/>
<path d="M308.938 100.476L307.794 108.932L304.623 108.503L305.338 103.218C305.575 101.467 307.186 100.239 308.938 100.476Z" fill="url(#paint7_linear_395_8190)"/>
<path d="M304.623 108.503L307.794 108.932C324.723 111.222 336.591 126.803 334.3 143.733L333.871 146.904L324.358 145.617L324.787 142.446C326.367 130.77 318.182 120.025 306.507 118.445L303.336 118.016L304.623 108.503Z" fill="url(#paint8_radial_395_8190)"/>
<path d="M325.844 142.591L334.3 143.735L333.871 146.906L325.415 145.762L325.844 142.591Z" fill="url(#paint9_linear_395_8190)"/>
<path d="M303.479 116.959L304.623 108.503L307.794 108.932L306.65 117.388L303.479 116.959Z" fill="url(#paint10_linear_395_8190)"/>
<path d="M302.763 122.247C302.526 123.998 303.754 125.61 305.505 125.847C313.094 126.874 318.414 133.858 317.387 141.448C317.15 143.199 318.378 144.811 320.129 145.048L325.415 145.763L325.844 142.592C327.502 130.332 318.908 119.049 306.649 117.391L303.478 116.962L302.763 122.247Z" fill="url(#paint11_radial_395_8190)"/>
<path d="M317.388 141.447L325.844 142.591L325.415 145.762L320.13 145.047C318.378 144.81 317.151 143.199 317.388 141.447Z" fill="url(#paint12_radial_395_8190)"/>
<path d="M305.505 125.847C303.754 125.61 302.526 123.998 302.763 122.247L303.478 116.962L306.649 117.391L305.505 125.847Z" fill="url(#paint13_radial_395_8190)"/>
</g>
<defs>
<filter id="filter0_d_395_8190" x="125" y="86.999" width="77.3569" height="77.3564" filterUnits="userSpaceOnUse" color-interpolation-filters="sRGB">
<feFlood flood-opacity="0" result="BackgroundImageFix"/>
<feColorMatrix in="SourceAlpha" type="matrix" values="0 0 0 0 0 0 0 0 0 0 0 0 0 0 0 0 0 0 127 0" result="hardAlpha"/>
<feOffset dy="2"/>
<feGaussianBlur stdDeviation="2"/>
<feComposite in2="hardAlpha" operator="out"/>
<feColorMatrix type="matrix" values="0 0 0 0 0 0 0 0 0 0 0 0 0 0 0 0 0 0 0.2 0"/>
<feBlend mode="normal" in2="BackgroundImageFix" result="effect1_dropShadow_395_8190"/>
<feBlend mode="normal" in="SourceGraphic" in2="effect1_dropShadow_395_8190" result="shape"/>
</filter>
<filter id="filter1_d_395_8190" x="102.135" y="6.13477" width="75.7295" height="75.7295" filterUnits="userSpaceOnUse" color-interpolation-filters="sRGB">
<feFlood flood-opacity="0" result="BackgroundImageFix"/>
<feColorMatrix in="SourceAlpha" type="matrix" values="0 0 0 0 0 0 0 0 0 0 0 0 0 0 0 0 0 0 127 0" result="hardAlpha"/>
<feOffset dy="2"/>
<feGaussianBlur stdDeviation="2"/>
<feComposite in2="hardAlpha" operator="out"/>
<feColorMatrix type="matrix" values="0 0 0 0 0 0 0 0 0 0 0 0 0 0 0 0 0 0 0.2 0"/>
<feBlend mode="normal" in2="BackgroundImageFix" result="effect1_dropShadow_395_8190"/>
<feBlend mode="normal" in="SourceGraphic" in2="effect1_dropShadow_395_8190" result="shape"/>
</filter>
<filter id="filter2_d_395_8190" x="13.7515" y="33.752" width="84.4971" height="84.4971" filterUnits="userSpaceOnUse" color-interpolation-filters="sRGB">
<feFlood flood-opacity="0" result="BackgroundImageFix"/>
<feColorMatrix in="SourceAlpha" type="matrix" values="0 0 0 0 0 0 0 0 0 0 0 0 0 0 0 0 0 0 127 0" result="hardAlpha"/>
<feOffset dy="2"/>
<feGaussianBlur stdDeviation="2"/>
<feComposite in2="hardAlpha" operator="out"/>
<feColorMatrix type="matrix" values="0 0 0 0 0 0 0 0 0 0 0 0 0 0 0 0 0 0 0.2 0"/>
<feBlend mode="normal" in2="BackgroundImageFix" result="effect1_dropShadow_395_8190"/>
<feBlend mode="normal" in="SourceGraphic" in2="effect1_dropShadow_395_8190" result="shape"/>
</filter>
<filter id="filter3_d_395_8190" x="308" y="9.99902" width="78.7227" height="78.7227" filterUnits="userSpaceOnUse" color-interpolation-filters="sRGB">
<feFlood flood-opacity="0" result="BackgroundImageFix"/>
<feColorMatrix in="SourceAlpha" type="matrix" values="0 0 0 0 0 0 0 0 0 0 0 0 0 0 0 0 0 0 127 0" result="hardAlpha"/>
<feOffset dy="2"/>
<feGaussianBlur stdDeviation="2"/>
<feComposite in2="hardAlpha" operator="out"/>
<feColorMatrix type="matrix" values="0 0 0 0 0 0 0 0 0 0 0 0 0 0 0 0 0 0 0.2 0"/>
<feBlend mode="normal" in2="BackgroundImageFix" result="effect1_dropShadow_395_8190"/>
<feBlend mode="normal" in="SourceGraphic" in2="effect1_dropShadow_395_8190" result="shape"/>
</filter>
<filter id="filter4_d_395_8190" x="200" y="33" width="80.7056" height="80.7061" filterUnits="userSpaceOnUse" color-interpolation-filters="sRGB">
<feFlood flood-opacity="0" result="BackgroundImageFix"/>
<feColorMatrix in="SourceAlpha" type="matrix" values="0 0 0 0 0 0 0 0 0 0 0 0 0 0 0 0 0 0 127 0" result="hardAlpha"/>
<feOffset dy="2"/>
<feGaussianBlur stdDeviation="2"/>
<feComposite in2="hardAlpha" operator="out"/>
<feColorMatrix type="matrix" values="0 0 0 0 0 0 0 0 0 0 0 0 0 0 0 0 0 0 0.2 0"/>
<feBlend mode="normal" in2="BackgroundImageFix" result="effect1_dropShadow_395_8190"/>
<feBlend mode="normal" in="SourceGraphic" in2="effect1_dropShadow_395_8190" result="shape"/>
</filter>
<filter id="filter5_d_395_8190" x="284.046" y="86.0469" width="80.0024" height="80.002" filterUnits="userSpaceOnUse" color-interpolation-filters="sRGB">
<feFlood flood-opacity="0" result="BackgroundImageFix"/>
<feColorMatrix in="SourceAlpha" type="matrix" values="0 0 0 0 0 0 0 0 0 0 0 0 0 0 0 0 0 0 127 0" result="hardAlpha"/>
<feOffset dy="2"/>
<feGaussianBlur stdDeviation="2"/>
<feComposite in2="hardAlpha" operator="out"/>
<feColorMatrix type="matrix" values="0 0 0 0 0 0 0 0 0 0 0 0 0 0 0 0 0 0 0.2 0"/>
<feBlend mode="normal" in2="BackgroundImageFix" result="effect1_dropShadow_395_8190"/>
<feBlend mode="normal" in="SourceGraphic" in2="effect1_dropShadow_395_8190" result="shape"/>
</filter>
<linearGradient id="paint0_linear_395_8190" x1="46.3796" y1="75.8664" x2="80.9328" y2="77.732" gradientUnits="userSpaceOnUse">
<stop stop-color="white"/>
<stop offset="1" stop-color="white"/>
</linearGradient>
<linearGradient id="paint1_linear_395_8190" x1="73.2421" y1="69.1677" x2="44.446" y2="50.976" gradientUnits="userSpaceOnUse">
<stop stop-color="#8697FF"/>
<stop offset="1" stop-color="#8697FF" stop-opacity="0"/>
</linearGradient>
<linearGradient id="paint2_linear_395_8190" x1="64.1121" y1="85.0718" x2="38.6603" y2="77.2314" gradientUnits="userSpaceOnUse">
<stop stop-color="#8697FF"/>
<stop offset="1" stop-color="#8697FF" stop-opacity="0"/>
</linearGradient>
<linearGradient id="paint3_linear_395_8190" x1="48.263" y1="75.1874" x2="67.8945" y2="91.091" gradientUnits="userSpaceOnUse">
<stop stop-color="white"/>
<stop offset="0.983895" stop-color="#D1D8FF"/>
</linearGradient>
<linearGradient id="paint4_linear_395_8190" x1="328.626" y1="88.0469" x2="328.626" y2="152.047" gradientUnits="userSpaceOnUse">
<stop stop-color="#174299"/>
<stop offset="1" stop-color="#001E59"/>
</linearGradient>
<radialGradient id="paint5_radial_395_8190" cx="0" cy="0" r="1" gradientUnits="userSpaceOnUse" gradientTransform="translate(303.647 139.586) rotate(-82.2954) scale(39.4664 39.4661)">
<stop offset="0.770277" stop-color="#FF4000"/>
<stop offset="1" stop-color="#8754C9"/>
</radialGradient>
<linearGradient id="paint6_linear_395_8190" x1="333.558" y1="145.249" x2="342.542" y2="146.465" gradientUnits="userSpaceOnUse">
<stop stop-color="#FF4000"/>
<stop offset="1" stop-color="#8754C9"/>
</linearGradient>
<linearGradient id="paint7_linear_395_8190" x1="307.352" y1="100.261" x2="306.137" y2="109.246" gradientUnits="userSpaceOnUse">
<stop stop-color="#8754C9"/>
<stop offset="1" stop-color="#FF4000"/>
</linearGradient>
<radialGradient id="paint8_radial_395_8190" cx="0" cy="0" r="1" gradientUnits="userSpaceOnUse" gradientTransform="translate(303.647 139.586) rotate(-82.2954) scale(30.9331 30.9329)">
<stop offset="0.723929" stop-color="#FFF700"/>
<stop offset="1" stop-color="#FF9901"/>
</radialGradient>
<linearGradient id="paint9_linear_395_8190" x1="325.63" y1="144.176" x2="334.086" y2="145.32" gradientUnits="userSpaceOnUse">
<stop stop-color="#FFF700"/>
<stop offset="1" stop-color="#FF9901"/>
</linearGradient>
<linearGradient id="paint10_linear_395_8190" x1="305.064" y1="117.174" x2="306.208" y2="108.717" gradientUnits="userSpaceOnUse">
<stop stop-color="#FFF700"/>
<stop offset="1" stop-color="#FF9901"/>
</linearGradient>
<radialGradient id="paint11_radial_395_8190" cx="0" cy="0" r="1" gradientUnits="userSpaceOnUse" gradientTransform="translate(303.646 139.589) rotate(-82.2954) scale(22.3998 22.3997)">
<stop offset="0.59513" stop-color="#00AAFF"/>
<stop offset="1" stop-color="#01DA40"/>
</radialGradient>
<radialGradient id="paint12_radial_395_8190" cx="0" cy="0" r="1" gradientUnits="userSpaceOnUse" gradientTransform="translate(316.645 142.961) rotate(7.70457) scale(9.06654 24.1776)">
<stop stop-color="#00AAFF"/>
<stop offset="1" stop-color="#01DA40"/>
</radialGradient>
<radialGradient id="paint13_radial_395_8190" cx="0" cy="0" r="1" gradientUnits="userSpaceOnUse" gradientTransform="translate(303.848 126.161) rotate(-82.2954) scale(9.06661 171.928)">
<stop stop-color="#00AAFF"/>
<stop offset="1" stop-color="#01DA40"/>
</radialGradient>
<clipPath id="clip0_395_8190">
<rect x="129" y="94.6016" width="64" height="64" rx="10.6667" transform="rotate(-5.02207 129 94.6016)" fill="white"/>
</clipPath>
</defs>
</svg>
