<svg viewBox="0 0 421 166" fill="none" xmlns="http://www.w3.org/2000/svg">
    <g filter="url(#filter0_d_405_7519)">
        <g clip-path="url(#clip0_405_7519)">
            <rect x="129" y="94.602" width="64" height="64" rx="10.667" transform="rotate(-5.022 129 94.602)" fill="#0052FF"/>
            <path d="M166.324 153.783c16.627-1.462 28.921-16.125 27.46-32.752-1.461-16.627-16.124-28.922-32.752-27.46-16.627 1.46-28.921 16.124-27.46 32.751 1.461 16.627 16.125 28.922 32.752 27.461z" fill="#0052FF"/>
            <path fill-rule="evenodd" clip-rule="evenodd" d="M165.53 144.751c11.639-1.023 20.245-11.287 19.223-22.926-1.023-11.639-11.288-20.246-22.927-19.223-11.639 1.023-20.245 11.287-19.222 22.926 1.023 11.639 11.287 20.246 22.926 19.223zm-7.725-27.493a1.62 1.62 0 00-1.471 1.755l.926 10.537a1.619 1.619 0 001.754 1.471l10.537-.926a1.62 1.62 0 001.472-1.755l-.926-10.537a1.62 1.62 0 00-1.755-1.471l-10.537.926z" fill="#fff"/>
        </g>
    </g>
    <g filter="url(#filter1_d_405_7519)">
        <rect x="109.98" y="8.135" width="64" height="64" rx="10.667" transform="rotate(3.445 109.98 8.135)" fill="#fff"/>
        <path d="M161.361 21.914l-18.512 12.094 3.745-7.567 14.767-4.527z" fill="#E2761B" stroke="#E2761B" stroke-width=".971" stroke-linecap="round" stroke-linejoin="round"/>
        <path d="M120.456 19.451l16.777 14.343-2.642-8.076-14.135-6.267zm32.694 32.585l-5.154 6.946 9.93 3.386 3.495-9.674-8.271-.658zm-36.41-2.031l2.292 10.022 10.265-2.17-4.284-7.515-8.273-.337z" fill="#E4761B" stroke="#E4761B" stroke-width=".971" stroke-linecap="round" stroke-linejoin="round"/>
        <path d="M129.897 38.376l-3.07 4.086 10 1.049.292-10.796-7.222 5.66zm19.821 1.193l-6.572-6.616-.888 10.885 10.035.157-2.575-4.426zm-20.421 18.287l6.196-2.575-4.956-4.374-1.24 6.95zm12.838-2.176l5.86 3.302-.415-7.049-5.445 3.747z" fill="#E4761B" stroke="#E4761B" stroke-width=".971" stroke-linecap="round" stroke-linejoin="round"/>
        <path d="M147.997 58.982l-5.861-3.302.244 3.965-.153 1.653 5.77-2.316zm-18.699-1.126l5.45 2.991.064-1.658.682-3.909-6.196 2.576z" fill="#D7C1B3" stroke="#D7C1B3" stroke-width=".971" stroke-linecap="round" stroke-linejoin="round"/>
        <path d="M135.573 48.601l-4.933-1.78 3.641-1.407 1.292 3.187zm7.283.439l1.665-3.01 3.464 1.835-5.129 1.175z" fill="#233447" stroke="#233447" stroke-width=".971" stroke-linecap="round" stroke-linejoin="round"/>
        <path d="M129.297 57.856l1.29-7.178-5.584-.175 4.294 7.353zm18.279-6.156l.419 7.282 5.145-6.786-5.564-.496zm4.717-7.705l-10.035-.157.616 5.202 1.665-3.01 3.464 1.835 4.29-3.87zM130.64 46.82l3.659-1.406 1.274 3.187 1.254-5.09-10-1.049 3.813 4.358z" fill="#CD6116" stroke="#CD6116" stroke-width=".971" stroke-linecap="round" stroke-linejoin="round"/>
        <path d="M126.828 42.46l3.709 8.446.103-4.087-3.812-4.358zm21.176 5.404l-.424 4.068 4.714-7.938-4.29 3.87zm-11.177-4.354l-1.254 5.09.81 6.143.749-7.98-.305-3.253zm5.432.327l-.674 3.176-.269 8.027 1.559-6.001-.616-5.202z" fill="#E4751F" stroke="#E4751F" stroke-width=".971" stroke-linecap="round" stroke-linejoin="round"/>
        <path d="M142.874 49.04l-1.559 6.001.82.64 5.444-3.748.424-4.068-5.129 1.175zm-12.234-2.22l-.103 4.087 4.955 4.373.89-.536-.809-6.143-4.933-1.78z" fill="#F6851B" stroke="#F6851B" stroke-width=".971" stroke-linecap="round" stroke-linejoin="round"/>
        <path d="M142.227 61.298l.153-1.653-.422-.419-6.713-.404-.434.367-.064 1.659-5.45-2.992 1.863 1.721 3.805 3 6.821.41 4.155-2.52 2.055-1.485-5.769 2.316z" fill="#C0AD9E" stroke="#C0AD9E" stroke-width=".971" stroke-linecap="round" stroke-linejoin="round"/>
        <path d="M142.135 55.68l-.819-.64-4.933-.297-.89.536-.682 3.91.433-.368 6.714.404.421.419-.244-3.965z" fill="#161616" stroke="#161616" stroke-width=".971" stroke-linecap="round" stroke-linejoin="round"/>
        <path d="M161.266 35.975l1.951-7.175-1.855-6.885-17.897 11.684 6.253 5.97 9.15 3.286 2.21-2.28-.851-.695 1.503-1.214-1.053-.921 1.49-1-.901-.77zm-43.46-9.908l1.076 7.357-1.005.654 1.36 1.172-1.138.79 1.346 1.385-.929.588 1.904 2.527 9.477-2.164 6.925-5.177-16.366-13.747-2.65 6.615z" fill="#763D16" stroke="#763D16" stroke-width=".971" stroke-linecap="round" stroke-linejoin="round"/>
        <path d="M158.868 42.853l-9.15-3.285 2.576 4.427-4.714 7.937 5.56.264 8.281.498-2.553-9.84zm-28.97-4.478l-9.478 2.164-3.68 9.465 8.263.498 5.534.404-3.709-8.444 3.07-4.087zm12.361 5.462l1.206-10.24 3.147-7.156-12.02-.724 2.23 7.48.005 10.313.019 3.254-.463 7.98 4.933.297.516-7.976.427-3.228z" fill="#F6851B" stroke="#F6851B" stroke-width=".971" stroke-linecap="round" stroke-linejoin="round"/>
    </g>
    <g filter="url(#filter2_d_405_7519)">
        <rect x="17.752" y="49.813" width="64" height="64" rx="10.667" transform="rotate(-12.691 17.752 49.813)" fill="#8697FF"/>
        <path d="M80.07 72.125c.914-4.55-10.806-14.047-20.602-16.898-6.33-2.492-11.937-.691-12.728 1.207-1.734 4.165 9.916 4.74 18.05 6.64-1.422 1.043-2.63 2.61-3.149 4.383-3.408-2.379-9.989-3.606-16.562.057-4.43 2.468-7.63 6.656-8.03 11.984a3.043 3.043 0 00-1.27.016 3.067 3.067 0 00-2.312 3.67 3.067 3.067 0 003.662 2.323c.305-.069 1.215-.49 1.215-.49l15.301-3.329c-3.919 11.1-8.427 13.61-8.048 15.294.38 1.685 4.896.188 6.49-.83 7.626-4.877 14.435-16.254 15.358-19.296 6.608-.643 12.03-1.764 12.626-4.73z" fill="url(#paint0_linear_405_7519)"/>
        <path fill-rule="evenodd" clip-rule="evenodd" d="M64.789 63.077h.001c.31-.21.141-.702-.04-1.077-.42-.86-4.947-3.694-8.793-4.554-5.24-1.172-8.701-.271-8.985.877 1.412 1.766 6.304 2.622 11.413 3.515 2.18.381 4.4.77 6.405 1.238h-.001z" fill="url(#paint1_linear_405_7519)"/>
        <path fill-rule="evenodd" clip-rule="evenodd" d="M63.276 84.399a28.676 28.676 0 00-3.497-.274c.781-2.65.271-6.198-1.464-8.123-2.435-2.702-4.988-3.856-10.058-2.715-2.79.628-10.086 3.262-8.803 9.581.135.664.285 1.265.457 1.81l13.735-2.987c-1.186 3.358-2.426 5.93-3.568 7.931 1.925.058 3.515.113 4.975.163 1.386.048 2.654.091 3.98.13a58.606 58.606 0 004.243-5.516z" fill="url(#paint2_linear_405_7519)"/>
        <path d="M37.968 84.436c1.636 4.651 4.764 5.914 10.418 5.223 5.655-.691 8.743-1.777 13.053-2.343 3.6-.472 7.155.622 8.183-.264.925-.798-.12-2.692-1.819-3.675-2.203-1.274-4.991-1.878-9.526-1.293.337-2.631-.678-5.985-2.47-7.53-2.592-2.234-6.534-2.62-11.058-1.045-4.726 1.646-8.835 5.089-6.781 10.927z" fill="url(#paint3_linear_405_7519)"/>
    </g>
    <g filter="url(#filter3_d_405_7519)">
        <rect x="312" y="19.119" width="64" height="64" rx="10.667" transform="rotate(-6.387 312 19.12)" fill="#fff"/>
        <path d="M345.142 27.93c7.018 4.642 14.34 3.488 16.442 3.252 2.953 30.533-1.228 24.88-12.186 34.762-12.872-7.214-15.678-.78-19.55-31.209 2.081-.233 9.477-.726 15.294-6.804z" stroke="#3375BB" stroke-width="4.375" stroke-miterlimit="10" stroke-linecap="round" stroke-linejoin="round"/>
    </g>
    <g filter="url(#filter4_d_405_7519)">
        <rect x="213.399" y="35" width="64" height="64" rx="10.667" transform="rotate(8.446 213.399 35)" fill="#D5FF5C"/>
        <path fill-rule="evenodd" clip-rule="evenodd" d="M251.955 75.547c.272.933 1.407 1.417 2.188.838l1.431-1.06a3.336 3.336 0 014.665.692 3.33 3.33 0 01-.692 4.663l-11.579 8.581a13.313 13.313 0 01-10.785 3.19 13.32 13.32 0 01-9.647-6.614L219.275 74.7a3.332 3.332 0 01.693-4.663 3.336 3.336 0 014.665.693l1.045 1.41c.567.763 1.765.635 2.285-.16.103-.158.172-.333.2-.519l2.236-15.062a3.335 3.335 0 116.597.98l-1.131 7.618c-.097.656.509 1.201 1.163 1.097a.969.969 0 00.816-.8l1.817-12.239a3.336 3.336 0 016.598.98l-1.817 12.239a.968.968 0 00.548 1.002c.596.29 1.334-.055 1.431-.711l1.131-7.62a3.336 3.336 0 016.598.98l-2.236 15.057c-.028.19-.012.38.041.565z" fill="#FD4848"/>
        <path d="M249.502 82.148s-5.705 5.893-11.535 5.027c-5.83-.866-9.577-8.162-9.577-8.162s5.705-5.892 11.535-5.027c5.83.866 9.577 8.162 9.577 8.162z" fill="#D5FF5C"/>
        <path d="M243.874 81.313a4.98 4.98 0 01-5.659 4.194 4.98 4.98 0 01-4.196-5.657 4.98 4.98 0 015.659-4.193 4.981 4.981 0 014.196 5.656z" stroke="#FD4848" stroke-width=".709"/>
        <path d="M241.895 81.018A2.98 2.98 0 11236 80.14a2.98 2.98 0 015.895.877z" stroke="#FD4848" stroke-width=".709"/>
        <path d="M245.853 81.606a6.98 6.98 0 01-7.931 5.878 6.98 6.98 0 01-5.882-7.93 6.98 6.98 0 017.932-5.877 6.98 6.98 0 015.881 7.929z" stroke="#FD4848" stroke-width=".709"/>
        <path d="M247.832 81.9c-.728 4.904-5.296 8.29-10.204 7.562-4.908-.73-8.295-5.296-7.567-10.201.728-4.905 5.297-8.291 10.204-7.562 4.908.728 8.296 5.296 7.567 10.2z" stroke="#FD4848" stroke-width=".709"/>
        <path d="M239.915 80.723a.98.98 0 11-1.938-.29.98.98 0 011.938.29z" fill="#162BEB" stroke="#FD4848" stroke-width=".709"/>
        <circle cx="238.946" cy="80.579" transform="rotate(8.446 238.946 80.58)" fill="#FD4848" r="1.333"/>
        <path d="M228.871 79.155l-.043-.076.063-.06a22.103 22.103 0 013.27-2.544c2.131-1.35 4.924-2.551 7.712-2.137 2.788.414 5.111 2.375 6.758 4.286a22.13 22.13 0 012.39 3.384l.042.076-.062.06a22.179 22.179 0 01-3.27 2.544c-2.131 1.35-4.924 2.551-7.712 2.137-2.788-.414-5.111-2.375-6.758-4.286a22.113 22.113 0 01-2.39-3.384z" stroke="#D5FF5C" stroke-width=".709"/>
    </g>
    <g filter="url(#filter5_d_405_7519)">
        <rect x="296.626" y="88.047" width="64" height="64" rx="10.667" transform="rotate(7.705 296.626 88.047)" fill="url(#paint4_linear_405_7519)"/>
        <path d="M304.479 109.561l3.171.429c16.345 2.211 27.804 17.255 25.592 33.601l-.429 3.171 6.342.858a3.2 3.2 0 003.6-2.742c2.923-21.6-12.219-41.479-33.818-44.401a3.2 3.2 0 00-3.6 2.742l-.858 6.342z" fill="url(#paint5_radial_405_7519)"/>
        <path d="M334.299 143.736l8.456 1.144a3.198 3.198 0 01-3.6 2.742l-5.285-.715.429-3.171z" fill="url(#paint6_linear_405_7519)"/>
        <path d="M308.937 100.477l-1.144 8.456-3.171-.429.715-5.285a3.2 3.2 0 013.6-2.742z" fill="url(#paint7_linear_405_7519)"/>
        <path d="M304.622 108.504l3.171.429c16.93 2.29 28.797 17.871 26.507 34.801l-.429 3.171-9.513-1.287.429-3.171c1.579-11.676-6.605-22.421-18.281-24.001l-3.171-.429 1.287-9.513z" fill="url(#paint8_radial_405_7519)"/>
        <path d="M325.843 142.593l8.456 1.144-.429 3.171-8.456-1.144.429-3.171z" fill="url(#paint9_linear_405_7519)"/>
        <path d="M303.478 116.96l1.144-8.456 3.171.429-1.144 8.456-3.171-.429z" fill="url(#paint10_linear_405_7519)"/>
        <path d="M302.762 122.248a3.2 3.2 0 002.742 3.6c7.589 1.027 12.909 8.011 11.882 15.601a3.2 3.2 0 002.742 3.6l5.286.715.429-3.171c1.658-12.26-6.936-23.543-19.195-25.201l-3.171-.429-.715 5.285z" fill="url(#paint11_radial_405_7519)"/>
        <path d="M317.387 141.449l8.456 1.144-.429 3.171-5.285-.715a3.199 3.199 0 01-2.742-3.6z" fill="url(#paint12_radial_405_7519)"/>
        <path d="M305.504 125.848a3.2 3.2 0 01-2.742-3.6l.715-5.285 3.171.429-1.144 8.456z" fill="url(#paint13_radial_405_7519)"/>
    </g>
    <defs>
        <linearGradient id="paint0_linear_405_7519" x1="46.38" y1="75.865" x2="80.933" y2="77.731" gradientUnits="userSpaceOnUse">
            <stop stop-color="#fff"/>
            <stop offset="1" stop-color="#fff"/>
        </linearGradient>
        <linearGradient id="paint1_linear_405_7519" x1="73.242" y1="69.167" x2="44.446" y2="50.975" gradientUnits="userSpaceOnUse">
            <stop stop-color="#8697FF"/>
            <stop offset="1" stop-color="#8697FF" stop-opacity="0"/>
        </linearGradient>
        <linearGradient id="paint2_linear_405_7519" x1="64.113" y1="85.073" x2="38.661" y2="77.232" gradientUnits="userSpaceOnUse">
            <stop stop-color="#8697FF"/>
            <stop offset="1" stop-color="#8697FF" stop-opacity="0"/>
        </linearGradient>
        <linearGradient id="paint3_linear_405_7519" x1="48.263" y1="75.186" x2="67.894" y2="91.09" gradientUnits="userSpaceOnUse">
            <stop stop-color="#fff"/>
            <stop offset=".984" stop-color="#D1D8FF"/>
        </linearGradient>
        <linearGradient id="paint4_linear_405_7519" x1="328.626" y1="88.047" x2="328.626" y2="152.047" gradientUnits="userSpaceOnUse">
            <stop stop-color="#174299"/>
            <stop offset="1" stop-color="#001E59"/>
        </linearGradient>
        <linearGradient id="paint6_linear_405_7519" x1="333.556" y1="145.25" x2="342.541" y2="146.466" gradientUnits="userSpaceOnUse">
            <stop stop-color="#FF4000"/>
            <stop offset="1" stop-color="#8754C9"/>
        </linearGradient>
        <linearGradient id="paint7_linear_405_7519" x1="307.351" y1="100.262" x2="306.136" y2="109.247" gradientUnits="userSpaceOnUse">
            <stop stop-color="#8754C9"/>
            <stop offset="1" stop-color="#FF4000"/>
        </linearGradient>
        <linearGradient id="paint9_linear_405_7519" x1="325.629" y1="144.178" x2="334.085" y2="145.322" gradientUnits="userSpaceOnUse">
            <stop stop-color="#FFF700"/>
            <stop offset="1" stop-color="#FF9901"/>
        </linearGradient>
        <linearGradient id="paint10_linear_405_7519" x1="305.064" y1="117.175" x2="306.208" y2="108.718" gradientUnits="userSpaceOnUse">
            <stop stop-color="#FFF700"/>
            <stop offset="1" stop-color="#FF9901"/>
        </linearGradient>
        <filter id="filter0_d_405_7519" x="125" y="86.999" width="77.357" height="77.356" filterUnits="userSpaceOnUse" color-interpolation-filters="sRGB">
            <feFlood flood-opacity="0" result="BackgroundImageFix"/>
            <feColorMatrix in="SourceAlpha" values="0 0 0 0 0 0 0 0 0 0 0 0 0 0 0 0 0 0 127 0" result="hardAlpha"/>
            <feOffset dy="2"/>
            <feGaussianBlur stdDeviation="2"/>
            <feComposite in2="hardAlpha" operator="out"/>
            <feColorMatrix values="0 0 0 0 0 0 0 0 0 0 0 0 0 0 0 0 0 0 0.2 0"/>
            <feBlend in2="BackgroundImageFix" result="effect1_dropShadow_405_7519"/>
            <feBlend in="SourceGraphic" in2="effect1_dropShadow_405_7519" result="shape"/>
        </filter>
        <filter id="filter1_d_405_7519" x="102.135" y="6.135" width="75.73" height="75.73" filterUnits="userSpaceOnUse" color-interpolation-filters="sRGB">
            <feFlood flood-opacity="0" result="BackgroundImageFix"/>
            <feColorMatrix in="SourceAlpha" values="0 0 0 0 0 0 0 0 0 0 0 0 0 0 0 0 0 0 127 0" result="hardAlpha"/>
            <feOffset dy="2"/>
            <feGaussianBlur stdDeviation="2"/>
            <feComposite in2="hardAlpha" operator="out"/>
            <feColorMatrix values="0 0 0 0 0 0 0 0 0 0 0 0 0 0 0 0 0 0 0.2 0"/>
            <feBlend in2="BackgroundImageFix" result="effect1_dropShadow_405_7519"/>
            <feBlend in="SourceGraphic" in2="effect1_dropShadow_405_7519" result="shape"/>
        </filter>
        <filter id="filter2_d_405_7519" x="13.752" y="33.752" width="84.497" height="84.497" filterUnits="userSpaceOnUse" color-interpolation-filters="sRGB">
            <feFlood flood-opacity="0" result="BackgroundImageFix"/>
            <feColorMatrix in="SourceAlpha" values="0 0 0 0 0 0 0 0 0 0 0 0 0 0 0 0 0 0 127 0" result="hardAlpha"/>
            <feOffset dy="2"/>
            <feGaussianBlur stdDeviation="2"/>
            <feComposite in2="hardAlpha" operator="out"/>
            <feColorMatrix values="0 0 0 0 0 0 0 0 0 0 0 0 0 0 0 0 0 0 0.2 0"/>
            <feBlend in2="BackgroundImageFix" result="effect1_dropShadow_405_7519"/>
            <feBlend in="SourceGraphic" in2="effect1_dropShadow_405_7519" result="shape"/>
        </filter>
        <filter id="filter3_d_405_7519" x="308" y="9.999" width="78.723" height="78.723" filterUnits="userSpaceOnUse" color-interpolation-filters="sRGB">
            <feFlood flood-opacity="0" result="BackgroundImageFix"/>
            <feColorMatrix in="SourceAlpha" values="0 0 0 0 0 0 0 0 0 0 0 0 0 0 0 0 0 0 127 0" result="hardAlpha"/>
            <feOffset dy="2"/>
            <feGaussianBlur stdDeviation="2"/>
            <feComposite in2="hardAlpha" operator="out"/>
            <feColorMatrix values="0 0 0 0 0 0 0 0 0 0 0 0 0 0 0 0 0 0 0.2 0"/>
            <feBlend in2="BackgroundImageFix" result="effect1_dropShadow_405_7519"/>
            <feBlend in="SourceGraphic" in2="effect1_dropShadow_405_7519" result="shape"/>
        </filter>
        <filter id="filter4_d_405_7519" x="200" y="33" width="80.706" height="80.706" filterUnits="userSpaceOnUse" color-interpolation-filters="sRGB">
            <feFlood flood-opacity="0" result="BackgroundImageFix"/>
            <feColorMatrix in="SourceAlpha" values="0 0 0 0 0 0 0 0 0 0 0 0 0 0 0 0 0 0 127 0" result="hardAlpha"/>
            <feOffset dy="2"/>
            <feGaussianBlur stdDeviation="2"/>
            <feComposite in2="hardAlpha" operator="out"/>
            <feColorMatrix values="0 0 0 0 0 0 0 0 0 0 0 0 0 0 0 0 0 0 0.2 0"/>
            <feBlend in2="BackgroundImageFix" result="effect1_dropShadow_405_7519"/>
            <feBlend in="SourceGraphic" in2="effect1_dropShadow_405_7519" result="shape"/>
        </filter>
        <filter id="filter5_d_405_7519" x="284.046" y="86.047" width="80.002" height="80.002" filterUnits="userSpaceOnUse" color-interpolation-filters="sRGB">
            <feFlood flood-opacity="0" result="BackgroundImageFix"/>
            <feColorMatrix in="SourceAlpha" values="0 0 0 0 0 0 0 0 0 0 0 0 0 0 0 0 0 0 127 0" result="hardAlpha"/>
            <feOffset dy="2"/>
            <feGaussianBlur stdDeviation="2"/>
            <feComposite in2="hardAlpha" operator="out"/>
            <feColorMatrix values="0 0 0 0 0 0 0 0 0 0 0 0 0 0 0 0 0 0 0.2 0"/>
            <feBlend in2="BackgroundImageFix" result="effect1_dropShadow_405_7519"/>
            <feBlend in="SourceGraphic" in2="effect1_dropShadow_405_7519" result="shape"/>
        </filter>
        <radialGradient id="paint5_radial_405_7519" cx="0" cy="0" r="1" gradientUnits="userSpaceOnUse" gradientTransform="matrix(5.2911 -39.11011 39.10982 5.29105 303.646 139.587)">
            <stop offset=".77" stop-color="#FF4000"/>
            <stop offset="1" stop-color="#8754C9"/>
        </radialGradient>
        <radialGradient id="paint8_radial_405_7519" cx="0" cy="0" r="1" gradientUnits="userSpaceOnUse" gradientTransform="rotate(-82.295 231.694 -103.952) scale(30.9331 30.9329)">
            <stop offset=".724" stop-color="#FFF700"/>
            <stop offset="1" stop-color="#FF9901"/>
        </radialGradient>
        <radialGradient id="paint11_radial_405_7519" cx="0" cy="0" r="1" gradientUnits="userSpaceOnUse" gradientTransform="matrix(3.00305 -22.19758 22.19749 3.00303 303.645 139.59)">
            <stop offset=".595" stop-color="#0AF"/>
            <stop offset="1" stop-color="#01DA40"/>
        </radialGradient>
        <radialGradient id="paint12_radial_405_7519" cx="0" cy="0" r="1" gradientUnits="userSpaceOnUse" gradientTransform="matrix(8.9847 1.2155 -3.24138 23.95934 316.644 142.963)">
            <stop stop-color="#0AF"/>
            <stop offset="1" stop-color="#01DA40"/>
        </radialGradient>
        <radialGradient id="paint13_radial_405_7519" cx="0" cy="0" r="1" gradientUnits="userSpaceOnUse" gradientTransform="matrix(1.21552 -8.98476 170.37591 23.04966 303.847 126.162)">
            <stop stop-color="#0AF"/>
            <stop offset="1" stop-color="#01DA40"/>
        </radialGradient>
        <clipPath id="clip0_405_7519">
            <rect x="129" y="94.602" width="64" height="64" rx="10.667" transform="rotate(-5.022 129 94.602)" fill="#fff"/>
        </clipPath>
    </defs>
</svg>
