<svg width="263" height="24" viewBox="0 0 263 24" fill="none" xmlns="http://www.w3.org/2000/svg">
<rect width="24" height="24" rx="4" fill="#FF8C00"/>
<path d="M12.0021 3.66797C8.5161 3.66797 5.66699 6.50031 5.66699 10.003C5.66699 10.7069 5.78431 11.3941 6.00218 12.0645C6.15302 12.517 6.6558 12.7683 7.12506 12.6175C7.57757 12.4667 7.82896 11.9639 7.67812 11.4946C7.49377 10.9751 7.40997 10.422 7.42673 9.86896C7.49377 7.50588 9.40435 5.56179 11.7674 5.44447C14.3987 5.31039 16.5774 7.40532 16.5774 10.003C16.5774 12.4332 14.6668 14.4275 12.2702 14.5616C12.2702 14.5616 11.382 14.6119 10.9462 14.6789C10.7283 14.7124 10.5607 14.746 10.4434 14.7627C10.3932 14.7795 10.3429 14.7292 10.3596 14.6789L10.5105 13.9415L11.3317 10.1539C11.4322 9.68461 11.1306 9.21534 10.6613 9.11479C10.192 9.01423 9.72278 9.3159 9.62222 9.78516C9.62222 9.78516 7.64461 19.0029 7.62785 19.1034C7.52729 19.5727 7.82896 20.0419 8.29822 20.1425C8.76749 20.2431 9.23675 19.9414 9.33731 19.4721C9.35407 19.3716 9.62222 18.1481 9.62222 18.1481C9.82333 17.2096 10.5943 16.5225 11.4993 16.4051C11.7004 16.3716 12.4881 16.3213 12.4881 16.3213C15.7562 16.07 18.3371 13.3382 18.3371 10.003C18.3371 6.50031 15.488 3.66797 12.0021 3.66797ZM12.4546 18.2487C11.8847 18.1314 11.3149 18.4833 11.1976 19.0699C11.0803 19.6397 11.4322 20.2095 12.0188 20.3269C12.5886 20.4442 13.1585 20.0922 13.2758 19.5056C13.3931 18.9191 13.0411 18.366 12.4546 18.2487Z" fill="white"/>
<g clip-path="url(#clip0_1148_25988)">
<g clip-path="url(#clip1_1148_25988)">
<path d="M57.4074 0H46.6667C42.9848 0 40 2.98477 40 6.66667V17.4074C40 21.0893 42.9848 24.0741 46.6667 24.0741H57.4074C61.0893 24.0741 64.0741 21.0893 64.0741 17.4074V6.66667C64.0741 2.98477 61.0893 0 57.4074 0Z" fill="#265AEA"/>
<g filter="url(#filter0_f_1148_25988)">
<ellipse cx="46.9639" cy="24.243" rx="17.4708" ry="11.9098" transform="rotate(41.7655 46.9639 24.243)" fill="#5063EB"/>
</g>
<g filter="url(#filter1_f_1148_25988)">
<ellipse cx="64.3935" cy="-4.45278" rx="17.4708" ry="11.053" transform="rotate(41.7655 64.3935 -4.45278)" fill="#696FEB"/>
</g>
<g filter="url(#filter2_f_1148_25988)">
<ellipse cx="67.0024" cy="4.21519" rx="17.4708" ry="11.053" transform="rotate(41.7655 67.0024 4.21519)" fill="#0D80D3"/>
</g>
<g filter="url(#filter3_f_1148_25988)">
<ellipse rx="17.4708" ry="11.053" transform="matrix(-0.745878 0.666083 0.666083 0.745878 64.3311 25.7171)" fill="#5378FB"/>
</g>
<g filter="url(#filter4_f_1148_25988)">
<ellipse cx="39.2116" cy="27.0495" rx="17.4708" ry="11.053" transform="rotate(48.3336 39.2116 27.0495)" fill="#CCCAE9"/>
</g>
<path d="M60.3701 11.9993V12.2215C59.0042 12.4393 56.0738 12.9452 54.6279 13.4971C54.3732 13.5947 54.1416 13.7443 53.9479 13.9364C53.7542 14.1285 53.6026 14.3588 53.5027 14.6126C52.9509 16.0474 52.4383 18.9971 52.222 20.3696H51.7775C51.5598 18.9971 51.0472 16.0474 50.4953 14.6111C50.3953 14.3573 50.2437 14.1271 50.05 13.9351C49.8563 13.743 49.6248 13.5934 49.3701 13.4956C47.9257 12.9437 44.9953 12.4378 43.6294 12.2215V11.7771C44.9953 11.5593 47.9257 11.0534 49.3716 10.5015C49.6263 10.4038 49.8579 10.2542 50.0516 10.0621C50.2453 9.87009 50.3969 9.6398 50.4968 9.38594C51.0487 7.95113 51.5612 5.0015 51.7775 3.62891H52.222C52.4398 5.0015 52.9524 7.95113 53.5042 9.38743C53.6042 9.64121 53.7558 9.87144 53.9495 10.0635C54.1432 10.2555 54.3748 10.4052 54.6294 10.503C56.0738 11.0548 59.0042 11.5608 60.3701 11.7771V11.9993Z" fill="white"/>
</g>
</g>
<rect x="80" width="24" height="24" rx="4" fill="#FF009A"/>
<path d="M93.5879 10.2976L100.175 9.43216C100.339 9.41107 100.437 9.60994 100.321 9.72625L98.884 11.1545C98.7743 11.2636 98.8515 11.4504 99.0057 11.4504C99.16 11.4504 99.2372 11.6373 99.1275 11.7463L97.7811 13.0848C97.7589 13.1071 97.7311 13.1222 97.701 13.13L93.1179 14.2787C93.0805 14.2883 93.0473 14.3094 93.0238 14.3395L92.3145 15.2405C92.1512 15.4388 91.9746 15.6171 91.9746 15.6171C91.9071 15.684 91.7981 15.684 91.7306 15.6171C91.7306 15.6171 91.5172 15.4153 91.3907 15.2405L90.6813 14.3395C90.6572 14.3094 90.6247 14.2877 90.5873 14.2787L86.0048 13.13C85.9741 13.1222 85.9469 13.1065 85.9246 13.0848L84.5783 11.7463C84.4686 11.6373 84.5458 11.4504 84.7001 11.4504C84.8543 11.4504 84.9315 11.2636 84.8218 11.1545L83.3851 9.72625C83.2676 9.60994 83.3658 9.41047 83.5297 9.43216L90.1167 10.2982C90.154 10.303 90.189 10.3205 90.2161 10.347L90.7585 10.8858C90.826 10.9526 90.9351 10.9526 91.0026 10.8858L91.0978 10.7911C91.1659 10.7236 91.1659 10.6134 91.0978 10.5459L90.4505 9.90223C90.3824 9.83473 90.3824 9.72445 90.4505 9.65695L91.7306 8.38415C91.7981 8.31726 91.9071 8.31726 91.9746 8.38415L93.2547 9.65695C93.3228 9.72445 93.3228 9.83473 93.2547 9.90223L92.6068 10.5453C92.5387 10.6128 92.5387 10.723 92.6068 10.7905L92.702 10.8851C92.7695 10.952 92.8786 10.952 92.9461 10.8851L93.4885 10.3464C93.5156 10.3199 93.5506 10.3024 93.5879 10.2976Z" fill="white"/>
<rect x="120" width="24" height="24" rx="4" fill="white"/>
<path d="M139.544 4L132.887 8.94408L134.118 6.02714L139.544 4Z" fill="#E2761B" stroke="#E2761B" stroke-width="0.364182" stroke-linecap="round" stroke-linejoin="round"/>
<path d="M124.176 4L130.779 8.99091L129.609 6.02714L124.176 4ZM137.148 15.4604L135.376 18.1766L139.169 19.2203L140.259 15.5206L137.148 15.4604ZM123.474 15.5206L124.557 19.2203L128.351 18.1766L126.578 15.4604L123.474 15.5206Z" fill="#E4761B" stroke="#E4761B" stroke-width="0.364182" stroke-linecap="round" stroke-linejoin="round"/>
<path d="M128.137 10.8712L127.08 12.4701L130.846 12.6374L130.712 8.5898L128.137 10.8712ZM135.583 10.8712L132.974 8.54297L132.887 12.6374L136.647 12.4701L135.583 10.8712ZM128.351 18.1769L130.612 17.073L128.658 15.5476L128.351 18.1769ZM133.107 17.073L135.375 18.1769L135.061 15.5476L133.107 17.073Z" fill="#E4761B" stroke="#E4761B" stroke-width="0.364182" stroke-linecap="round" stroke-linejoin="round"/>
<path d="M135.376 18.1762L133.108 17.0723L133.288 18.5508L133.268 19.173L135.376 18.1762ZM128.351 18.1762L130.458 19.173L130.445 18.5508L130.612 17.0723L128.351 18.1762Z" fill="#D7C1B3" stroke="#D7C1B3" stroke-width="0.364182" stroke-linecap="round" stroke-linejoin="round"/>
<path d="M130.492 14.5704L128.605 14.0151L129.936 13.4062L130.492 14.5704ZM133.228 14.5704L133.783 13.4062L135.121 14.0151L133.228 14.5704Z" fill="#233447" stroke="#233447" stroke-width="0.364182" stroke-linecap="round" stroke-linejoin="round"/>
<path d="M128.351 18.1755L128.672 15.4593L126.578 15.5195L128.351 18.1755ZM135.054 15.4593L135.375 18.1755L137.148 15.5195L135.054 15.4593ZM136.646 12.4688L132.887 12.636L133.234 14.5695L133.79 13.4054L135.128 14.0142L136.646 12.4688ZM128.605 14.0142L129.943 13.4054L130.491 14.5695L130.846 12.636L127.079 12.4688L128.605 14.0142Z" fill="#CD6116" stroke="#CD6116" stroke-width="0.364182" stroke-linecap="round" stroke-linejoin="round"/>
<path d="M127.08 12.4688L128.658 15.5463L128.605 14.0142L127.08 12.4688ZM135.128 14.0142L135.061 15.5463L136.647 12.4688L135.128 14.0142ZM130.846 12.636L130.492 14.5695L130.933 16.8509L131.034 13.8469L130.846 12.636ZM132.887 12.636L132.706 13.8402L132.786 16.8509L133.235 14.5695L132.887 12.636Z" fill="#E4751F" stroke="#E4751F" stroke-width="0.364182" stroke-linecap="round" stroke-linejoin="round"/>
<path d="M133.235 14.5709L132.786 16.8523L133.108 17.0731L135.061 15.5477L135.128 14.0156L133.235 14.5709ZM128.605 14.0156L128.659 15.5477L130.612 17.0731L130.933 16.8523L130.492 14.5709L128.605 14.0156Z" fill="#F6851B" stroke="#F6851B" stroke-width="0.364182" stroke-linecap="round" stroke-linejoin="round"/>
<path d="M133.268 19.1726L133.288 18.5504L133.121 18.4032H130.599L130.445 18.5504L130.458 19.1726L128.351 18.1758L129.087 18.7779L130.579 19.8149H133.141L134.64 18.7779L135.376 18.1758L133.268 19.1726Z" fill="#C0AD9E" stroke="#C0AD9E" stroke-width="0.364182" stroke-linecap="round" stroke-linejoin="round"/>
<path d="M133.108 17.0723L132.786 16.8516H130.933L130.612 17.0723L130.445 18.5509L130.599 18.4037H133.121L133.288 18.5509L133.108 17.0723Z" fill="#161616" stroke="#161616" stroke-width="0.364182" stroke-linecap="round" stroke-linejoin="round"/>
<path d="M139.825 9.26521L140.394 6.5356L139.544 4L133.108 8.77683L135.583 10.8709L139.082 11.8945L139.858 10.9913L139.524 10.7504L140.059 10.2621L139.644 9.94093L140.18 9.53282L139.825 9.26521ZM123.333 6.5356L123.902 9.26521L123.541 9.53282L124.076 9.94093L123.668 10.2621L124.203 10.7504L123.869 10.9913L124.638 11.8945L128.137 10.8709L130.612 8.77683L124.176 4L123.333 6.5356Z" fill="#763D16" stroke="#763D16" stroke-width="0.364182" stroke-linecap="round" stroke-linejoin="round"/>
<path d="M139.082 11.8947L135.583 10.8711L136.647 12.47L135.061 15.5475L137.148 15.5208H140.259L139.082 11.8947ZM128.137 10.8711L124.638 11.8947L123.474 15.5208H126.578L128.659 15.5475L127.08 12.47L128.137 10.8711ZM132.887 12.6373L133.108 8.77703L134.124 6.02734H129.609L130.612 8.77703L130.846 12.6373L130.927 13.8549L130.933 16.8521H132.786L132.8 13.8549L132.887 12.6373Z" fill="#F6851B" stroke="#F6851B" stroke-width="0.364182" stroke-linecap="round" stroke-linejoin="round"/>
<g clip-path="url(#clip2_1148_25988)">
<rect x="160" width="24" height="24" rx="4" fill="#0052FF"/>
<path d="M172 23.3346C178.26 23.3346 183.334 18.2605 183.334 12.0013C183.334 5.74208 178.26 0.667969 172 0.667969C165.741 0.667969 160.667 5.74208 160.667 12.0013C160.667 18.2605 165.741 23.3346 172 23.3346Z" fill="#0052FF"/>
<path fill-rule="evenodd" clip-rule="evenodd" d="M172 19.935C176.382 19.935 179.934 16.3832 179.934 12.0017C179.934 7.62024 176.382 4.06836 172 4.06836C167.619 4.06836 164.067 7.62024 164.067 12.0017C164.067 16.3832 167.619 19.935 172 19.935ZM170.017 9.41122C169.682 9.41122 169.41 9.68305 169.41 10.0184V13.985C169.41 14.3204 169.682 14.5922 170.017 14.5922H173.984C174.319 14.5922 174.591 14.3204 174.591 13.985V10.0184C174.591 9.68305 174.319 9.41122 173.984 9.41122H170.017Z" fill="white"/>
</g>
<rect x="200" width="24" height="24" rx="4" fill="#D5FF5C"/>
<path fill-rule="evenodd" clip-rule="evenodd" d="M216.535 12.9177C216.687 13.249 217.135 13.3661 217.393 13.1083L217.865 12.6363C218.354 12.1482 219.145 12.1482 219.634 12.6363C220.122 13.1245 220.122 13.9159 219.634 14.4041L215.81 18.2257C214.893 19.312 213.52 20.002 211.986 20.002C210.386 20.002 208.961 19.2506 208.045 18.0814L204.366 14.4041C203.878 13.9159 203.878 13.1245 204.366 12.6363C204.855 12.1482 205.646 12.1482 206.135 12.6363L206.6 13.1015C206.852 13.3535 207.29 13.2401 207.439 12.9162C207.468 12.8521 207.484 12.7834 207.484 12.7129L207.484 7.00253C207.484 6.31186 208.044 5.75196 208.735 5.75196C209.426 5.75196 209.985 6.31186 209.985 7.00253L209.985 9.89089C209.985 10.1396 210.24 10.3084 210.477 10.2335C210.627 10.1861 210.736 10.0494 210.736 9.89198L210.736 5.25253C210.736 4.56186 211.296 4.00196 211.987 4.00196C212.677 4.00196 213.237 4.56186 213.237 5.25253L213.237 9.89213C213.237 10.0495 213.346 10.1861 213.496 10.2335C213.733 10.3084 213.987 10.1396 213.987 9.89104L213.987 7.00253C213.987 6.31186 214.547 5.75196 215.238 5.75196C215.928 5.75196 216.488 6.31186 216.488 7.00253L216.488 12.7104C216.488 12.7823 216.505 12.8524 216.535 12.9177Z" fill="#FD4848"/>
<path d="M215.989 15.502C215.989 15.502 214.197 18.0019 211.987 18.0019C209.777 18.0019 207.985 15.502 207.985 15.502C207.985 15.502 209.777 13.002 211.987 13.002C214.197 13.002 215.989 15.502 215.989 15.502Z" fill="#D5FF5C"/>
<path d="M213.855 15.502C213.855 16.5331 213.018 17.369 211.987 17.369C210.955 17.369 210.119 16.5331 210.119 15.502C210.119 14.4708 210.955 13.6349 211.987 13.6349C213.018 13.6349 213.855 14.4708 213.855 15.502Z" stroke="#FD4848" stroke-width="0.265831"/>
<path d="M213.105 15.502C213.105 16.1188 212.604 16.619 211.987 16.619C211.37 16.619 210.869 16.1188 210.869 15.502C210.869 14.8851 211.37 14.3849 211.987 14.3849C212.604 14.3849 213.105 14.8851 213.105 15.502Z" stroke="#FD4848" stroke-width="0.265831"/>
<path d="M214.605 15.502C214.605 16.9473 213.433 18.119 211.987 18.119C210.541 18.119 209.369 16.9473 209.369 15.502C209.369 14.0566 210.541 12.8849 211.987 12.8849C213.433 12.8849 214.605 14.0566 214.605 15.502Z" stroke="#FD4848" stroke-width="0.265831"/>
<path d="M215.356 15.502C215.356 17.3615 213.847 18.869 211.987 18.869C210.126 18.869 208.618 17.3615 208.618 15.502C208.618 13.6424 210.126 12.1349 211.987 12.1349C213.847 12.1349 215.356 13.6424 215.356 15.502Z" stroke="#FD4848" stroke-width="0.265831"/>
<path d="M212.354 15.502C212.354 15.7047 212.19 15.869 211.987 15.869C211.784 15.869 211.62 15.7047 211.62 15.502C211.62 15.2992 211.784 15.1349 211.987 15.1349C212.19 15.1349 212.354 15.2992 212.354 15.502Z" fill="#162BEB" stroke="#FD4848" stroke-width="0.265831"/>
<ellipse cx="211.987" cy="15.502" rx="0.5" ry="0.5" fill="#FD4848"/>
<path d="M208.171 15.5257C208.164 15.5166 208.157 15.508 208.151 15.5C208.157 15.492 208.164 15.4834 208.171 15.4743C208.223 15.4075 208.3 15.3116 208.4 15.1963C208.599 14.9655 208.888 14.6579 209.244 14.3506C209.96 13.7326 210.93 13.1329 211.987 13.1329C213.044 13.1329 214.013 13.7326 214.73 14.3506C215.086 14.6579 215.374 14.9655 215.573 15.1963C215.673 15.3116 215.75 15.4075 215.802 15.4743C215.81 15.4834 215.816 15.492 215.822 15.5C215.816 15.508 215.81 15.5166 215.802 15.5257C215.75 15.5925 215.673 15.6884 215.573 15.8037C215.374 16.0345 215.086 16.3421 214.73 16.6494C214.013 17.2674 213.044 17.8671 211.987 17.8671C210.93 17.8671 209.96 17.2674 209.244 16.6494C208.888 16.3421 208.599 16.0345 208.4 15.8037C208.3 15.6884 208.223 15.5925 208.171 15.5257Z" stroke="#D5FF5C" stroke-width="0.265831"/>
<g clip-path="url(#clip3_1148_25988)">
<path d="M240 16.3211V22H248.642V20.7406H241.259V16.3211H240ZM261.716 16.3211V20.7406H254.333V21.9997H262.975V16.3211H261.716ZM248.654 7.67894V16.3208H254.333V15.185H249.914V7.67894H248.654ZM240 2V7.67894H241.259V3.25913H248.642V2H240ZM254.333 2V3.25913H261.716V7.67894H262.975V2H254.333Z" fill="currentColor"/>
</g>
<defs>
<filter id="filter0_f_1148_25988" x="21.0394" y="-1.0651" width="51.8494" height="50.6165" filterUnits="userSpaceOnUse" color-interpolation-filters="sRGB">
<feFlood flood-opacity="0" result="BackgroundImageFix"/>
<feBlend mode="normal" in="SourceGraphic" in2="BackgroundImageFix" result="shape"/>
<feGaussianBlur stdDeviation="5.33333" result="effect1_foregroundBlur_1148_25988"/>
</filter>
<filter id="filter1_f_1148_25988" x="33.4238" y="-34.7148" width="61.9395" height="60.5254" filterUnits="userSpaceOnUse" color-interpolation-filters="sRGB">
<feFlood flood-opacity="0" result="BackgroundImageFix"/>
<feBlend mode="normal" in="SourceGraphic" in2="BackgroundImageFix" result="shape"/>
<feGaussianBlur stdDeviation="8" result="effect1_foregroundBlur_1148_25988"/>
</filter>
<filter id="filter2_f_1148_25988" x="44.0327" y="-18.0469" width="45.9395" height="44.5254" filterUnits="userSpaceOnUse" color-interpolation-filters="sRGB">
<feFlood flood-opacity="0" result="BackgroundImageFix"/>
<feBlend mode="normal" in="SourceGraphic" in2="BackgroundImageFix" result="shape"/>
<feGaussianBlur stdDeviation="4" result="effect1_foregroundBlur_1148_25988"/>
</filter>
<filter id="filter3_f_1148_25988" x="41.3613" y="3.45508" width="45.9395" height="44.5254" filterUnits="userSpaceOnUse" color-interpolation-filters="sRGB">
<feFlood flood-opacity="0" result="BackgroundImageFix"/>
<feBlend mode="normal" in="SourceGraphic" in2="BackgroundImageFix" result="shape"/>
<feGaussianBlur stdDeviation="4" result="effect1_foregroundBlur_1148_25988"/>
</filter>
<filter id="filter4_f_1148_25988" x="15.6266" y="2.73698" width="47.1696" height="48.6257" filterUnits="userSpaceOnUse" color-interpolation-filters="sRGB">
<feFlood flood-opacity="0" result="BackgroundImageFix"/>
<feBlend mode="normal" in="SourceGraphic" in2="BackgroundImageFix" result="shape"/>
<feGaussianBlur stdDeviation="4.66667" result="effect1_foregroundBlur_1148_25988"/>
</filter>
<clipPath id="clip0_1148_25988">
<rect x="40" width="24" height="24" rx="6.66667" fill="white"/>
</clipPath>
<clipPath id="clip1_1148_25988">
<rect x="40" width="24" height="24" rx="6.66667" fill="white"/>
</clipPath>
<clipPath id="clip2_1148_25988">
<rect x="160" width="24" height="24" rx="4" fill="white"/>
</clipPath>
<clipPath id="clip3_1148_25988">
<rect width="22.9748" height="20" fill="white" transform="translate(240 2)"/>
</clipPath>
</defs>
</svg>
