<svg width="263" height="24" viewBox="0 0 263 24" fill="none" xmlns="http://www.w3.org/2000/svg">
<rect width="24" height="24" rx="4" fill="#FF8C00"/>
<path d="M12.0021 3.66602C8.5161 3.66602 5.66699 6.49836 5.66699 10.0011C5.66699 10.705 5.78431 11.3921 6.00218 12.0625C6.15302 12.515 6.6558 12.7664 7.12506 12.6156C7.57757 12.4647 7.82896 11.9619 7.67812 11.4927C7.49377 10.9731 7.40997 10.4201 7.42673 9.86701C7.49377 7.50393 9.40435 5.55983 11.7674 5.44252C14.3987 5.30844 16.5774 7.40337 16.5774 10.0011C16.5774 12.4312 14.6668 14.4256 12.2702 14.5597C12.2702 14.5597 11.382 14.6099 10.9462 14.677C10.7283 14.7105 10.5607 14.744 10.4434 14.7608C10.3932 14.7775 10.3429 14.7272 10.3596 14.677L10.5105 13.9396L11.3317 10.1519C11.4322 9.68266 11.1306 9.21339 10.6613 9.11283C10.192 9.01228 9.72278 9.31395 9.62222 9.78321C9.62222 9.78321 7.64461 19.0009 7.62785 19.1015C7.52729 19.5707 7.82896 20.04 8.29822 20.1405C8.76749 20.2411 9.23675 19.9394 9.33731 19.4702C9.35407 19.3696 9.62222 18.1462 9.62222 18.1462C9.82333 17.2076 10.5943 16.5205 11.4993 16.4032C11.7004 16.3697 12.4881 16.3194 12.4881 16.3194C15.7562 16.068 18.3371 13.3362 18.3371 10.0011C18.3371 6.49836 15.488 3.66602 12.0021 3.66602ZM12.4546 18.2467C11.8847 18.1294 11.3149 18.4814 11.1976 19.0679C11.0803 19.6378 11.4322 20.2076 12.0188 20.3249C12.5886 20.4422 13.1585 20.0903 13.2758 19.5037C13.3931 18.9171 13.0411 18.364 12.4546 18.2467Z" fill="white"/>
<rect x="40" width="24" height="24" rx="4" fill="url(#paint0_linear_411_8057)"/>
<path d="M51.8366 4.07544C51.8686 3.89282 52.1306 3.89282 52.1626 4.07544L53.1193 9.53569C53.2396 10.2224 53.7773 10.7601 54.464 10.8804L59.9242 11.8371C60.1068 11.869 60.1068 12.1311 59.9242 12.1631L54.464 13.1198C53.7773 13.2401 53.2396 13.7778 53.1193 14.4645L52.1626 19.9247C52.1306 20.1073 51.8686 20.1073 51.8366 19.9247L50.8799 14.4645C50.7596 13.7778 50.2219 13.2401 49.5352 13.1198L44.0749 12.1631C43.8923 12.1311 43.8923 11.869 44.0749 11.8371L49.5352 10.8804C50.2219 10.7601 50.7596 10.2224 50.8799 9.53569L51.8366 4.07544Z" fill="white"/>
<rect x="80" width="24" height="24" rx="4" fill="#FF009A"/>
<path d="M93.5879 10.2966L100.175 9.43118C100.339 9.41009 100.437 9.60897 100.321 9.72528L98.884 11.1536C98.7743 11.2626 98.8515 11.4495 99.0057 11.4495C99.16 11.4495 99.2372 11.6363 99.1275 11.7454L97.7811 13.0838C97.7589 13.1061 97.7311 13.1212 97.701 13.129L93.1179 14.2777C93.0805 14.2873 93.0473 14.3084 93.0238 14.3386L92.3145 15.2395C92.1512 15.4378 91.9746 15.6162 91.9746 15.6162C91.9071 15.6831 91.7981 15.6831 91.7306 15.6162C91.7306 15.6162 91.5172 15.4143 91.3907 15.2395L90.6813 14.3386C90.6572 14.3084 90.6247 14.2867 90.5873 14.2777L86.0048 13.129C85.9741 13.1212 85.9469 13.1055 85.9246 13.0838L84.5783 11.7454C84.4686 11.6363 84.5458 11.4495 84.7001 11.4495C84.8543 11.4495 84.9315 11.2626 84.8218 11.1536L83.3851 9.72528C83.2676 9.60897 83.3658 9.40949 83.5297 9.43118L90.1167 10.2972C90.154 10.302 90.189 10.3195 90.2161 10.346L90.7585 10.8848C90.826 10.9517 90.9351 10.9517 91.0026 10.8848L91.0978 10.7902C91.1659 10.7227 91.1659 10.6124 91.0978 10.5449L90.4505 9.90125C90.3824 9.83375 90.3824 9.72347 90.4505 9.65597L91.7306 8.38318C91.7981 8.31628 91.9071 8.31628 91.9746 8.38318L93.2547 9.65597C93.3228 9.72347 93.3228 9.83375 93.2547 9.90125L92.6068 10.5443C92.5387 10.6118 92.5387 10.7221 92.6068 10.7896L92.702 10.8842C92.7695 10.9511 92.8786 10.9511 92.9461 10.8842L93.4885 10.3454C93.5156 10.3189 93.5506 10.3014 93.5879 10.2966Z" fill="white"/>
<rect x="120" width="24" height="24" rx="4" fill="white"/>
<path d="M139.544 4L132.887 8.94408L134.118 6.02714L139.544 4Z" fill="#E2761B" stroke="#E2761B" stroke-width="0.364182" stroke-linecap="round" stroke-linejoin="round"/>
<path d="M124.176 4L130.779 8.99091L129.609 6.02714L124.176 4ZM137.148 15.4604L135.376 18.1766L139.169 19.2203L140.259 15.5206L137.148 15.4604ZM123.474 15.5206L124.557 19.2203L128.351 18.1766L126.578 15.4604L123.474 15.5206Z" fill="#E4761B" stroke="#E4761B" stroke-width="0.364182" stroke-linecap="round" stroke-linejoin="round"/>
<path d="M128.137 10.8702L127.08 12.4692L130.846 12.6364L130.712 8.58882L128.137 10.8702ZM135.583 10.8702L132.974 8.54199L132.887 12.6364L136.647 12.4692L135.583 10.8702ZM128.351 18.1759L130.612 17.072L128.658 15.5467L128.351 18.1759ZM133.107 17.072L135.375 18.1759L135.061 15.5467L133.107 17.072Z" fill="#E4761B" stroke="#E4761B" stroke-width="0.364182" stroke-linecap="round" stroke-linejoin="round"/>
<path d="M135.376 18.1762L133.108 17.0723L133.288 18.5508L133.268 19.173L135.376 18.1762ZM128.351 18.1762L130.458 19.173L130.445 18.5508L130.612 17.0723L128.351 18.1762Z" fill="#D7C1B3" stroke="#D7C1B3" stroke-width="0.364182" stroke-linecap="round" stroke-linejoin="round"/>
<path d="M130.492 14.5704L128.605 14.0151L129.936 13.4062L130.492 14.5704ZM133.228 14.5704L133.783 13.4062L135.121 14.0151L133.228 14.5704Z" fill="#233447" stroke="#233447" stroke-width="0.364182" stroke-linecap="round" stroke-linejoin="round"/>
<path d="M128.351 18.1765L128.672 15.4603L126.578 15.5205L128.351 18.1765ZM135.054 15.4603L135.375 18.1765L137.148 15.5205L135.054 15.4603ZM136.646 12.4697L132.887 12.637L133.234 14.5705L133.79 13.4064L135.128 14.0152L136.646 12.4697ZM128.605 14.0152L129.943 13.4064L130.491 14.5705L130.846 12.637L127.079 12.4697L128.605 14.0152Z" fill="#CD6116" stroke="#CD6116" stroke-width="0.364182" stroke-linecap="round" stroke-linejoin="round"/>
<path d="M127.08 12.4697L128.658 15.5472L128.605 14.0152L127.08 12.4697ZM135.128 14.0152L135.061 15.5472L136.647 12.4697L135.128 14.0152ZM130.846 12.637L130.492 14.5705L130.933 16.8518L131.034 13.8479L130.846 12.637ZM132.887 12.637L132.706 13.8412L132.786 16.8518L133.235 14.5705L132.887 12.637Z" fill="#E4751F" stroke="#E4751F" stroke-width="0.364182" stroke-linecap="round" stroke-linejoin="round"/>
<path d="M133.235 14.5709L132.786 16.8523L133.108 17.0731L135.061 15.5477L135.128 14.0156L133.235 14.5709ZM128.605 14.0156L128.659 15.5477L130.612 17.0731L130.933 16.8523L130.492 14.5709L128.605 14.0156Z" fill="#F6851B" stroke="#F6851B" stroke-width="0.364182" stroke-linecap="round" stroke-linejoin="round"/>
<path d="M133.268 19.1736L133.288 18.5514L133.121 18.4042H130.599L130.445 18.5514L130.458 19.1736L128.351 18.1768L129.087 18.7789L130.579 19.8159H133.141L134.64 18.7789L135.376 18.1768L133.268 19.1736Z" fill="#C0AD9E" stroke="#C0AD9E" stroke-width="0.364182" stroke-linecap="round" stroke-linejoin="round"/>
<path d="M133.108 17.0723L132.786 16.8516H130.933L130.612 17.0723L130.445 18.5509L130.599 18.4037H133.121L133.288 18.5509L133.108 17.0723Z" fill="#161616" stroke="#161616" stroke-width="0.364182" stroke-linecap="round" stroke-linejoin="round"/>
<path d="M139.825 9.26521L140.394 6.5356L139.544 4L133.108 8.77683L135.583 10.8709L139.082 11.8945L139.858 10.9913L139.524 10.7504L140.059 10.2621L139.644 9.94093L140.18 9.53282L139.825 9.26521ZM123.333 6.5356L123.902 9.26521L123.541 9.53282L124.076 9.94093L123.668 10.2621L124.203 10.7504L123.869 10.9913L124.638 11.8945L128.137 10.8709L130.612 8.77683L124.176 4L123.333 6.5356Z" fill="#763D16" stroke="#763D16" stroke-width="0.364182" stroke-linecap="round" stroke-linejoin="round"/>
<path d="M139.082 11.8937L135.583 10.8701L136.647 12.4691L135.061 15.5466L137.148 15.5198H140.259L139.082 11.8937ZM128.137 10.8701L124.638 11.8937L123.474 15.5198H126.578L128.659 15.5466L127.08 12.4691L128.137 10.8701ZM132.887 12.6363L133.108 8.77605L134.124 6.02637H129.609L130.612 8.77605L130.846 12.6363L130.927 13.8539L130.933 16.8512H132.786L132.8 13.8539L132.887 12.6363Z" fill="#F6851B" stroke="#F6851B" stroke-width="0.364182" stroke-linecap="round" stroke-linejoin="round"/>
<g clip-path="url(#clip0_411_8057)">
<rect x="160" width="24" height="24" rx="4" fill="#0052FF"/>
<path d="M172 23.3327C178.26 23.3327 183.334 18.2586 183.334 11.9993C183.334 5.74012 178.26 0.666016 172 0.666016C165.741 0.666016 160.667 5.74012 160.667 11.9993C160.667 18.2586 165.741 23.3327 172 23.3327Z" fill="#0052FF"/>
<path fill-rule="evenodd" clip-rule="evenodd" d="M172 19.9321C176.382 19.9321 179.934 16.3802 179.934 11.9988C179.934 7.61731 176.382 4.06543 172 4.06543C167.619 4.06543 164.067 7.61731 164.067 11.9988C164.067 16.3802 167.619 19.9321 172 19.9321ZM170.017 9.40829C169.682 9.40829 169.41 9.68012 169.41 10.0154V13.9821C169.41 14.3174 169.682 14.5892 170.017 14.5892H173.984C174.319 14.5892 174.591 14.3174 174.591 13.9821V10.0154C174.591 9.68012 174.319 9.40829 173.984 9.40829H170.017Z" fill="white"/>
</g>
<rect x="200" width="24" height="24" rx="4" fill="#D5FF5C"/>
<path fill-rule="evenodd" clip-rule="evenodd" d="M216.535 12.9168C216.687 13.2482 217.135 13.3653 217.393 13.1075L217.865 12.6357C218.354 12.1475 219.145 12.1475 219.634 12.6357C220.122 13.1238 220.122 13.9153 219.634 14.4034L215.809 18.2268C214.891 19.3119 213.519 20.001 211.986 20.001C210.385 20.001 208.96 19.249 208.044 18.079L204.366 14.4028C203.878 13.9146 203.878 13.1232 204.366 12.635C204.855 12.1468 205.646 12.1468 206.135 12.635L206.6 13.1004C206.852 13.3524 207.29 13.239 207.439 12.9152V12.9152C207.468 12.8511 207.484 12.7824 207.484 12.712L207.484 7.00156C207.484 6.31088 208.044 5.75098 208.735 5.75098C209.426 5.75098 209.985 6.31088 209.985 7.00156L209.985 9.88992C209.985 10.1386 210.24 10.3074 210.477 10.2325V10.2325C210.627 10.1851 210.736 10.0484 210.736 9.89101L210.736 5.25156C210.736 4.56088 211.296 4.00098 211.987 4.00098C212.677 4.00098 213.237 4.56088 213.237 5.25156L213.237 9.89115C213.237 10.0485 213.346 10.1851 213.496 10.2325V10.2325C213.733 10.3074 213.987 10.1387 213.987 9.89006L213.987 7.00156C213.987 6.31088 214.547 5.75098 215.238 5.75098C215.928 5.75098 216.488 6.31088 216.488 7.00156L216.488 12.7094C216.488 12.7813 216.505 12.8514 216.535 12.9168V12.9168Z" fill="#FD4848"/>
<path d="M215.989 15.501C215.989 15.501 214.197 18.001 211.987 18.001C209.777 18.001 207.985 15.501 207.985 15.501C207.985 15.501 209.777 13.001 211.987 13.001C214.197 13.001 215.989 15.501 215.989 15.501Z" fill="#D5FF5C"/>
<path d="M213.855 15.501C213.855 16.5321 213.018 17.3681 211.987 17.3681C210.955 17.3681 210.119 16.5321 210.119 15.501C210.119 14.4699 210.955 13.6339 211.987 13.6339C213.018 13.6339 213.855 14.4699 213.855 15.501Z" stroke="#FD4848" stroke-width="0.265831"/>
<path d="M213.105 15.501C213.105 16.1179 212.604 16.6181 211.987 16.6181C211.37 16.6181 210.869 16.1179 210.869 15.501C210.869 14.8841 211.37 14.3839 211.987 14.3839C212.604 14.3839 213.105 14.8841 213.105 15.501Z" stroke="#FD4848" stroke-width="0.265831"/>
<path d="M214.605 15.501C214.605 16.9463 213.433 18.1181 211.987 18.1181C210.541 18.1181 209.369 16.9463 209.369 15.501C209.369 14.0557 210.541 12.8839 211.987 12.8839C213.433 12.8839 214.605 14.0557 214.605 15.501Z" stroke="#FD4848" stroke-width="0.265831"/>
<path d="M215.356 15.501C215.356 17.3605 213.847 18.8681 211.987 18.8681C210.126 18.8681 208.618 17.3605 208.618 15.501C208.618 13.6414 210.126 12.1339 211.987 12.1339C213.847 12.1339 215.356 13.6414 215.356 15.501Z" stroke="#FD4848" stroke-width="0.265831"/>
<path d="M212.354 15.501C212.354 15.7037 212.19 15.8681 211.987 15.8681C211.784 15.8681 211.62 15.7037 211.62 15.501C211.62 15.2982 211.784 15.1339 211.987 15.1339C212.19 15.1339 212.354 15.2982 212.354 15.501Z" fill="#162BEB" stroke="#FD4848" stroke-width="0.265831"/>
<ellipse cx="211.987" cy="15.501" rx="0.5" ry="0.5" fill="#FD4848"/>
<path d="M208.171 15.5267C208.164 15.5175 208.157 15.509 208.151 15.501C208.157 15.493 208.164 15.4844 208.171 15.4753C208.223 15.4085 208.3 15.3126 208.4 15.1972C208.599 14.9664 208.888 14.6588 209.244 14.3516C209.96 13.7336 210.93 13.1339 211.987 13.1339C213.044 13.1339 214.013 13.7336 214.73 14.3516C215.086 14.6588 215.374 14.9664 215.573 15.1972C215.673 15.3126 215.75 15.4085 215.802 15.4753C215.81 15.4844 215.816 15.493 215.822 15.501C215.816 15.509 215.81 15.5175 215.802 15.5267C215.75 15.5935 215.673 15.6894 215.573 15.8047C215.374 16.0355 215.086 16.3431 214.73 16.6503C214.013 17.2684 213.044 17.8681 211.987 17.8681C210.93 17.8681 209.96 17.2684 209.244 16.6504C208.888 16.3431 208.599 16.0355 208.4 15.8047C208.3 15.6894 208.223 15.5935 208.171 15.5267Z" stroke="#D5FF5C" stroke-width="0.265831"/>
<g clip-path="url(#clip1_411_8057)">
<path d="M240 16.3211V22H248.642V20.7406H241.259V16.3211H240ZM261.716 16.3211V20.7406H254.333V21.9997H262.975V16.3211H261.716ZM248.654 7.67894V16.3208H254.333V15.185H249.914V7.67894H248.654ZM240 2V7.67894H241.259V3.25913H248.642V2H240ZM254.333 2V3.25913H261.716V7.67894H262.975V2H254.333Z" fill="currentColor"/>
</g>
<defs>
<linearGradient id="paint0_linear_411_8057" x1="62.8914" y1="-10.5832" x2="40" y2="33.9688" gradientUnits="userSpaceOnUse">
<stop offset="0.205836"/>
<stop offset="0.369792" stop-color="#541E7E"/>
<stop offset="0.47142" stop-color="#3F51D1"/>
<stop offset="0.609119" stop-color="#73AFE3"/>
<stop offset="0.801091" stop-color="#90D7FF"/>
</linearGradient>
<clipPath id="clip0_411_8057">
<rect x="160" width="24" height="24" rx="4" fill="white"/>
</clipPath>
<clipPath id="clip1_411_8057">
<rect width="22.9748" height="20" fill="white" transform="translate(240 2)"/>
</clipPath>
</defs>
</svg>
