<svg viewBox="0 0 421 166" fill="none" xmlns="http://www.w3.org/2000/svg">
    <g filter="url(#filter0_d_1541_8393)">
        <g clip-path="url(#clip0_1541_8393)">
            <g clip-path="url(#clip1_1541_8393)">
                <path d="M246.825 90.05l-28.532-2.5c-9.781-.856-18.405 6.379-19.261 16.16l-2.499 28.533c-.856 9.781 6.379 18.404 16.16 19.261l28.532 2.498c9.781.856 18.405-6.378 19.261-16.159l2.499-28.533c.856-9.781-6.379-18.404-16.16-19.26z" fill="#265AEA"/>
                <g filter="url(#filter1_f_1541_8393)">
                    <ellipse cx="213.443" cy="152.019" rx="46.589" ry="31.76" transform="rotate(46.77 213.443 152.019)" fill="#5063EB"/>
                </g>
                <g filter="url(#filter2_f_1541_8393)">
                    <ellipse cx="266.419" cy="79.847" rx="46.589" ry="29.475" transform="rotate(46.77 266.419 79.847)" fill="#696FEB"/>
                </g>
                <g filter="url(#filter3_f_1541_8393)">
                    <ellipse cx="271.334" cy="103.477" rx="46.589" ry="29.475" transform="rotate(46.77 271.334 103.477)" fill="#0D80D3"/>
                </g>
                <g filter="url(#filter4_f_1541_8393)">
                    <ellipse rx="46.589" ry="29.475" transform="scale(-1 1) rotate(36.761 -370.343 -310.1)" fill="#5378FB"/>
                </g>
                <g filter="url(#filter5_f_1541_8393)">
                    <ellipse cx="192.196" cy="157.675" rx="46.589" ry="29.475" transform="rotate(53.338 192.196 157.675)" fill="#CCCAE9"/>
                </g>
                <path d="M251.905 122.616l-.052.591c-3.679.26-11.581.923-15.55 2.052a5.249 5.249 0 00-3.249 2.702c-1.8 3.683-3.848 11.4-4.741 14.996l-1.181-.104c-.259-3.696-.935-11.651-2.067-15.595a5.233 5.233 0 00-2.729-3.225c-3.709-1.802-11.376-3.828-14.954-4.72l.103-1.181c3.679-.261 11.581-.923 15.551-2.053a5.238 5.238 0 003.248-2.702c1.8-3.683 3.848-11.399 4.742-14.995l1.181.103c.259 3.697.934 11.652 2.066 15.596a5.252 5.252 0 002.73 3.225c3.709 1.802 11.376 3.828 14.954 4.72l-.052.59z" fill="#fff"/>
            </g>
        </g>
    </g>
    <g filter="url(#filter6_d_1541_8393)">
        <rect x="93" y="75.564" width="64" height="64" rx="12" transform="rotate(-15 93 75.564)" fill="#fff"/>
        <path d="M122.626 104.215l5.103 1.214-4.379 3.513-5.148-1.14 4.424-3.587z" fill="url(#paint0_linear_1541_8393)"/>
        <path d="M124.002 90.947l.562 2.114-4.499 3.654-1.898-7.06 5.835 1.292z" fill="url(#paint1_linear_1541_8393)"/>
        <path d="M128.267 108.928l10.023-8.055-18.225-4.157 4.499-3.654 23.598 5.352-18.661 14.936-1.234-4.422z" fill="url(#paint2_linear_1541_8393)"/>
        <path d="M148.162 98.413l1.843 6.879-22.759 18.151-3.896-14.501 4.378-3.513.859 3.243 1.183 4.465 18.392-14.724z" fill="url(#paint3_linear_1541_8393)"/>
        <path d="M118.203 107.803l5.147 1.14 3.894 14.501-5.131-1.046-3.91-14.595z" fill="url(#paint4_linear_1541_8393)"/>
        <path d="M146.195 91.097l-1.696-6.364-4.672 3.726 1.711 6.392 4.657-3.754z" fill="url(#paint5_linear_1541_8393)"/>
        <path d="M111.393 82.39l4.671-3.803 28.435 6.145-4.678 3.728-28.428-6.07z" fill="url(#paint6_linear_1541_8393)"/>
        <path d="M141.539 94.85l-1.712-6.392-28.434-6.068 4.919 18.359 17.161 4.002 4.835-3.889-18.236-4.147-1.91-7.078 23.377 5.212z" fill="url(#paint7_linear_1541_8393)"/>
    </g>
    <g filter="url(#filter7_d_1541_8393)">
        <rect x="28.01" y="20.439" width="64" height="64" rx="12" transform="rotate(6.794 28.01 20.44)" fill="#FF8C00"/>
        <path d="M58.633 33.935c-9.23-1.1-17.668 5.501-18.773 14.776a17.702 17.702 0 00.237 5.565c.257 1.245 1.509 2.07 2.8 1.818 1.245-.256 2.07-1.508 1.818-2.799a11.9 11.9 0 01-.153-4.384c.923-6.236 6.595-10.78 12.89-10.346 7.01.475 12.118 6.71 11.298 13.588-.767 6.435-6.455 11.113-12.843 10.712 0 0-2.368-.147-3.543-.107-.587.02-1.042.056-1.358.064-.138.028-.255-.12-.195-.249l.632-1.905 3.37-9.77a2.342 2.342 0 00-1.448-2.963 2.342 2.342 0 00-2.963 1.447s-8.145 23.784-8.22 24.045a2.342 2.342 0 001.447 2.963 2.342 2.342 0 002.963-1.447c.076-.261 1.172-3.416 1.172-3.416.828-2.422 3.086-3.998 5.52-4.023.543-.026 2.645.09 2.645.09 8.733.365 16.429-6.054 17.48-14.886 1.106-9.275-5.545-17.673-14.776-18.773zm-3.401 38.752c-1.472-.49-3.092.261-3.587 1.778-.49 1.471.261 3.091 1.777 3.587 1.472.49 3.092-.262 3.588-1.778s-.262-3.092-1.778-3.587z" fill="#fff"/>
    </g>
    <g filter="url(#filter8_d_1541_8393)">
        <rect x="171" y="10.529" width="64" height="64" rx="12" transform="rotate(-4.956 171 10.53)" fill="#D5FF5C"/>
        <path fill-rule="evenodd" clip-rule="evenodd" d="M217.904 41.035c.48.845 1.698 1.053 2.323.308l1.146-1.362a3.337 3.337 0 014.699-.408 3.332 3.332 0 01.407 4.697L217.2 55.305a13.311 13.311 0 01-9.748 5.598 13.319 13.319 0 01-10.917-4.199l-10.617-8.918a3.335 3.335 0 014.291-5.104l1.344 1.129c.728.611 1.864.21 2.185-.685.064-.177.09-.363.074-.55l-1.315-15.172a3.334 3.334 0 116.644-.576l.666 7.674c.057.66.773 1.05 1.386.797a.971.971 0 00.608-.967l-1.069-12.326a3.335 3.335 0 116.645-.576l1.069 12.326a.968.968 0 00.765.847c.647.145 1.285-.362 1.227-1.023l-.665-7.674a3.335 3.335 0 116.645-.576l1.315 15.164c.016.191.076.374.171.54z" fill="#FD4848"/>
        <path d="M217.047 48.026s-4.184 7.055-10.055 7.564c-5.872.51-11.208-5.72-11.208-5.72s4.184-7.054 10.056-7.563c5.871-.51 11.207 5.72 11.207 5.72z" fill="#D5FF5C"/>
        <path d="M211.378 48.518a4.98 4.98 0 01-4.532 5.39 4.98 4.98 0 01-5.393-4.53 4.98 4.98 0 014.533-5.39 4.98 4.98 0 015.392 4.53z" stroke="#FD4848" stroke-width=".709"/>
        <path d="M209.385 48.69a2.98 2.98 0 11-5.938.513 2.98 2.98 0 015.938-.513z" stroke="#FD4848" stroke-width=".709"/>
        <path d="M213.372 48.343a6.98 6.98 0 01-6.353 7.556 6.98 6.98 0 01-7.559-6.35 6.98 6.98 0 016.353-7.555 6.98 6.98 0 017.559 6.35z" stroke="#FD4848" stroke-width=".709"/>
        <path d="M215.365 48.172c.429 4.94-3.231 9.293-8.174 9.721-4.942.429-9.297-3.229-9.725-8.17-.428-4.94 3.231-9.292 8.174-9.72 4.943-.43 9.297 3.228 9.725 8.169z" stroke="#FD4848" stroke-width=".709"/>
        <path d="M207.39 48.862a.979.979 0 11-1.95.17.979.979 0 011.95-.17z" fill="#162BEB" stroke="#FD4848" stroke-width=".709"/>
        <circle cx="206.415" cy="48.947" transform="rotate(-4.956 206.415 48.947)" fill="#FD4848" r="1.333"/>
        <path d="M196.284 49.896l-.058-.064.046-.073a22.033 22.033 0 012.592-3.232c1.76-1.807 4.198-3.624 7.006-3.867 2.808-.244 5.523 1.126 7.568 2.603A22.161 22.161 0 01216.547 48l.059.064-.047.073a22.17 22.17 0 01-2.592 3.232c-1.76 1.807-4.198 3.623-7.006 3.867-2.808.243-5.523-1.126-7.568-2.603a22.148 22.148 0 01-3.109-2.738z" stroke="#D5FF5C" stroke-width=".709"/>
    </g>
    <g filter="url(#filter9_d_1541_8393)">
        <rect x="282.256" y="19" width="64" height="64" rx="12" transform="rotate(7.412 282.256 19)" fill="#fff"/>
        <path fill-rule="evenodd" clip-rule="evenodd" d="M291.928 41.12a7.354 7.354 0 018.242-6.344l30.61 3.982-.729 5.596a5.285 5.285 0 01-5.924 4.56l-14.391-1.872a7.355 7.355 0 00-8.242 6.346l-.242 1.855a7.354 7.354 0 006.345 8.243l14.391 1.872a5.286 5.286 0 014.56 5.924l-.699 5.379-30.609-3.982a7.355 7.355 0 01-6.345-8.243l3.033-23.315zm17.726 9.014l14.76 1.92a4.597 4.597 0 013.966 5.151l-.16 1.226a4.597 4.597 0 01-5.152 3.966l-14.759-1.92a4.597 4.597 0 01-3.966-5.152l.159-1.226a4.598 4.598 0 015.152-3.965z" fill="url(#paint8_radial_1541_8393)"/>
    </g>
    <g filter="url(#filter10_d_1541_8393)">
        <rect x="337" y="95.43" width="64" height="64" rx="12" transform="rotate(-10.289 337 95.43)" fill="#FF009A"/>
        <path d="M377.555 115.975l16.871-5.408c.42-.133.773.342.523.702l-3.09 4.432a.462.462 0 00.461.719.461.461 0 01.46.718l-2.895 4.153a.465.465 0 01-.189.157l-11.478 5.197a.462.462 0 00-.217.204l-1.432 2.702c-.335.598-.713 1.15-.713 1.15a.461.461 0 01-.64.116s-.656-.428-1.071-.826l-2.291-2.026a.456.456 0 00-.275-.115l-12.571-.831a.48.48 0 01-.232-.081l-4.17-2.871a.461.461 0 01.179-.834.461.461 0 00.178-.834l-4.45-3.064a.461.461 0 01.24-.84l17.695-.865c.1-.005.2.024.284.081l1.68 1.155a.463.463 0 00.64-.116l.205-.294a.46.46 0 00-.117-.643l-2.005-1.381a.46.46 0 01-.116-.643l2.752-3.95a.463.463 0 01.64-.116l3.965 2.73a.462.462 0 01.117.644l-1.394 1.995a.462.462 0 00.117.644l.295.203a.462.462 0 00.64-.117l1.167-1.671a.467.467 0 01.237-.176z" fill="#fff"/>
    </g>
    <defs>
        <filter id="filter0_d_1541_8393" x="191" y="84" width="77.339" height="77.338" filterUnits="userSpaceOnUse" color-interpolation-filters="sRGB">
            <feFlood flood-opacity="0" result="BackgroundImageFix"/>
            <feColorMatrix in="SourceAlpha" values="0 0 0 0 0 0 0 0 0 0 0 0 0 0 0 0 0 0 127 0" result="hardAlpha"/>
            <feOffset dy="2"/>
            <feGaussianBlur stdDeviation="2"/>
            <feComposite in2="hardAlpha" operator="out"/>
            <feColorMatrix values="0 0 0 0 0 0 0 0 0 0 0 0 0 0 0 0 0 0 0.2 0"/>
            <feBlend in2="BackgroundImageFix" result="effect1_dropShadow_1541_8393"/>
            <feBlend in="SourceGraphic" in2="effect1_dropShadow_1541_8393" result="shape"/>
        </filter>
        <filter id="filter1_f_1541_8393" x="145.579" y="83.253" width="135.729" height="137.533" filterUnits="userSpaceOnUse" color-interpolation-filters="sRGB">
            <feFlood flood-opacity="0" result="BackgroundImageFix"/>
            <feBlend in="SourceGraphic" in2="BackgroundImageFix" result="shape"/>
            <feGaussianBlur stdDeviation="14.222" result="effect1_foregroundBlur_1541_8393"/>
        </filter>
        <filter id="filter2_f_1541_8393" x="185.285" y="-2.32" width="162.269" height="164.334" filterUnits="userSpaceOnUse" color-interpolation-filters="sRGB">
            <feFlood flood-opacity="0" result="BackgroundImageFix"/>
            <feBlend in="SourceGraphic" in2="BackgroundImageFix" result="shape"/>
            <feGaussianBlur stdDeviation="21.333" result="effect1_foregroundBlur_1541_8393"/>
        </filter>
        <filter id="filter3_f_1541_8393" x="211.533" y="42.643" width="119.602" height="121.668" filterUnits="userSpaceOnUse" color-interpolation-filters="sRGB">
            <feFlood flood-opacity="0" result="BackgroundImageFix"/>
            <feBlend in="SourceGraphic" in2="BackgroundImageFix" result="shape"/>
            <feGaussianBlur stdDeviation="10.667" result="effect1_foregroundBlur_1541_8393"/>
        </filter>
        <filter id="filter4_f_1541_8393" x="196.611" y="102.104" width="125.251" height="115.745" filterUnits="userSpaceOnUse" color-interpolation-filters="sRGB">
            <feFlood flood-opacity="0" result="BackgroundImageFix"/>
            <feBlend in="SourceGraphic" in2="BackgroundImageFix" result="shape"/>
            <feGaussianBlur stdDeviation="10.667" result="effect1_foregroundBlur_1541_8393"/>
        </filter>
        <filter id="filter5_f_1541_8393" x="130.798" y="91.468" width="122.796" height="132.414" filterUnits="userSpaceOnUse" color-interpolation-filters="sRGB">
            <feFlood flood-opacity="0" result="BackgroundImageFix"/>
            <feBlend in="SourceGraphic" in2="BackgroundImageFix" result="shape"/>
            <feGaussianBlur stdDeviation="12.444" result="effect1_foregroundBlur_1541_8393"/>
        </filter>
        <filter id="filter6_d_1541_8393" x="89" y="57" width="86.384" height="86.384" filterUnits="userSpaceOnUse" color-interpolation-filters="sRGB">
            <feFlood flood-opacity="0" result="BackgroundImageFix"/>
            <feColorMatrix in="SourceAlpha" values="0 0 0 0 0 0 0 0 0 0 0 0 0 0 0 0 0 0 127 0" result="hardAlpha"/>
            <feOffset dy="2"/>
            <feGaussianBlur stdDeviation="2"/>
            <feComposite in2="hardAlpha" operator="out"/>
            <feColorMatrix values="0 0 0 0 0 0 0 0 0 0 0 0 0 0 0 0 0 0 0.2 0"/>
            <feBlend in2="BackgroundImageFix" result="effect1_dropShadow_1541_8393"/>
            <feBlend in="SourceGraphic" in2="effect1_dropShadow_1541_8393" result="shape"/>
        </filter>
        <filter id="filter7_d_1541_8393" x="16.439" y="18.439" width="79.122" height="79.122" filterUnits="userSpaceOnUse" color-interpolation-filters="sRGB">
            <feFlood flood-opacity="0" result="BackgroundImageFix"/>
            <feColorMatrix in="SourceAlpha" values="0 0 0 0 0 0 0 0 0 0 0 0 0 0 0 0 0 0 127 0" result="hardAlpha"/>
            <feOffset dy="2"/>
            <feGaussianBlur stdDeviation="2"/>
            <feComposite in2="hardAlpha" operator="out"/>
            <feColorMatrix values="0 0 0 0 0 0 0 0 0 0 0 0 0 0 0 0 0 0 0.2 0"/>
            <feBlend in2="BackgroundImageFix" result="effect1_dropShadow_1541_8393"/>
            <feBlend in="SourceGraphic" in2="effect1_dropShadow_1541_8393" result="shape"/>
        </filter>
        <filter id="filter8_d_1541_8393" x="167" y="3" width="77.29" height="77.29" filterUnits="userSpaceOnUse" color-interpolation-filters="sRGB">
            <feFlood flood-opacity="0" result="BackgroundImageFix"/>
            <feColorMatrix in="SourceAlpha" values="0 0 0 0 0 0 0 0 0 0 0 0 0 0 0 0 0 0 127 0" result="hardAlpha"/>
            <feOffset dy="2"/>
            <feGaussianBlur stdDeviation="2"/>
            <feComposite in2="hardAlpha" operator="out"/>
            <feColorMatrix values="0 0 0 0 0 0 0 0 0 0 0 0 0 0 0 0 0 0 0.2 0"/>
            <feBlend in2="BackgroundImageFix" result="effect1_dropShadow_1541_8393"/>
            <feBlend in="SourceGraphic" in2="effect1_dropShadow_1541_8393" result="shape"/>
        </filter>
        <filter id="filter9_d_1541_8393" x="270" y="17" width="79.722" height="79.722" filterUnits="userSpaceOnUse" color-interpolation-filters="sRGB">
            <feFlood flood-opacity="0" result="BackgroundImageFix"/>
            <feColorMatrix in="SourceAlpha" values="0 0 0 0 0 0 0 0 0 0 0 0 0 0 0 0 0 0 127 0" result="hardAlpha"/>
            <feOffset dy="2"/>
            <feGaussianBlur stdDeviation="2"/>
            <feComposite in2="hardAlpha" operator="out"/>
            <feColorMatrix values="0 0 0 0 0 0 0 0 0 0 0 0 0 0 0 0 0 0 0.2 0"/>
            <feBlend in2="BackgroundImageFix" result="effect1_dropShadow_1541_8393"/>
            <feBlend in="SourceGraphic" in2="effect1_dropShadow_1541_8393" result="shape"/>
        </filter>
        <filter id="filter10_d_1541_8393" x="333" y="81.999" width="82.402" height="82.401" filterUnits="userSpaceOnUse" color-interpolation-filters="sRGB">
            <feFlood flood-opacity="0" result="BackgroundImageFix"/>
            <feColorMatrix in="SourceAlpha" values="0 0 0 0 0 0 0 0 0 0 0 0 0 0 0 0 0 0 127 0" result="hardAlpha"/>
            <feOffset dy="2"/>
            <feGaussianBlur stdDeviation="2"/>
            <feComposite in2="hardAlpha" operator="out"/>
            <feColorMatrix values="0 0 0 0 0 0 0 0 0 0 0 0 0 0 0 0 0 0 0.2 0"/>
            <feBlend in2="BackgroundImageFix" result="effect1_dropShadow_1541_8393"/>
            <feBlend in="SourceGraphic" in2="effect1_dropShadow_1541_8393" result="shape"/>
        </filter>
        <linearGradient id="paint0_linear_1541_8393" x1="117.196" y1="108.13" x2="136.545" y2="102.946" gradientUnits="userSpaceOnUse">
            <stop stop-color="#00FECF"/>
            <stop offset=".08" stop-color="#00E5D0"/>
            <stop offset=".25" stop-color="#00A5D1"/>
            <stop offset=".494" stop-color="#0040D4"/>
            <stop offset=".557" stop-color="#0025D5"/>
        </linearGradient>
        <linearGradient id="paint1_linear_1541_8393" x1="123.294" y1="98.548" x2="119.052" y2="82.715" gradientUnits="userSpaceOnUse">
            <stop stop-color="#00FECF"/>
            <stop offset=".078" stop-color="#00E5D0"/>
            <stop offset=".244" stop-color="#00A5D1"/>
            <stop offset=".482" stop-color="#0040D4"/>
            <stop offset=".544" stop-color="#0025D5"/>
            <stop offset="1"/>
        </linearGradient>
        <linearGradient id="paint2_linear_1541_8393" x1="122.154" y1="104.514" x2="163.474" y2="93.442" gradientUnits="userSpaceOnUse">
            <stop stop-color="#FDEC9F"/>
            <stop offset=".076" stop-color="#E4D8A4"/>
            <stop offset=".238" stop-color="#A4A6B2"/>
            <stop offset=".47" stop-color="#3F57C7"/>
            <stop offset=".608" stop-color="#0025D5"/>
            <stop offset="1"/>
        </linearGradient>
        <linearGradient id="paint3_linear_1541_8393" x1="116.393" y1="116.638" x2="169.16" y2="102.499" gradientUnits="userSpaceOnUse">
            <stop offset=".054" stop-color="#62A5FF"/>
            <stop offset=".449" stop-color="#1032D1"/>
            <stop offset="1"/>
        </linearGradient>
        <linearGradient id="paint4_linear_1541_8393" x1="118.76" y1="116.45" x2="130.108" y2="114.08" gradientUnits="userSpaceOnUse">
            <stop stop-color="#FFD4B2"/>
            <stop offset=".356" stop-color="#9ACEB7"/>
            <stop offset=".671" stop-color="#47C8BB"/>
            <stop offset=".892" stop-color="#14C5BE"/>
            <stop offset="1" stop-color="#00C4BF"/>
        </linearGradient>
        <linearGradient id="paint5_linear_1541_8393" x1="135.296" y1="92.012" x2="170.539" y2="81.883" gradientUnits="userSpaceOnUse">
            <stop stop-color="#00FECF"/>
            <stop offset=".047" stop-color="#00E5D0"/>
            <stop offset=".147" stop-color="#00A5D1"/>
            <stop offset=".291" stop-color="#0040D4"/>
            <stop offset=".328" stop-color="#0025D5"/>
        </linearGradient>
        <linearGradient id="paint6_linear_1541_8393" x1="112.785" y1="87.585" x2="169.268" y2="72.45" gradientUnits="userSpaceOnUse">
            <stop stop-color="#FFD4AF"/>
            <stop offset=".1" stop-color="#E6D5BA"/>
            <stop offset=".312" stop-color="#A7D6D5"/>
            <stop offset=".612" stop-color="#43D9FF"/>
            <stop offset=".63" stop-color="#37B1D0"/>
            <stop offset=".65" stop-color="#2B8CA5"/>
            <stop offset=".672" stop-color="#216B7D"/>
            <stop offset=".696" stop-color="#184E5B"/>
            <stop offset=".722" stop-color="#10353F"/>
            <stop offset=".751" stop-color="#0A2228"/>
            <stop offset=".784" stop-color="#061316"/>
            <stop offset=".823" stop-color="#020809"/>
            <stop offset=".876" stop-color="#010202"/>
            <stop offset="1"/>
        </linearGradient>
        <linearGradient id="paint7_linear_1541_8393" x1="108.671" y1="97.258" x2="152.847" y2="85.421" gradientUnits="userSpaceOnUse">
            <stop stop-color="#FFD4B2"/>
            <stop offset=".356" stop-color="#9ACEB7"/>
            <stop offset=".671" stop-color="#47C8BB"/>
            <stop offset=".892" stop-color="#14C5BE"/>
            <stop offset="1" stop-color="#00C4BF"/>
        </linearGradient>
        <clipPath id="clip0_1541_8393">
            <rect x="200.583" y="86" width="64" height="64" rx="12" transform="rotate(5.004 200.583 86)" fill="#fff"/>
        </clipPath>
        <clipPath id="clip1_1541_8393">
            <rect x="200.583" y="86" width="64" height="64" rx="17.778" transform="rotate(5.004 200.583 86)" fill="#fff"/>
        </clipPath>
        <radialGradient id="paint8_radial_1541_8393" cx="0" cy="0" r="1" gradientUnits="userSpaceOnUse" gradientTransform="rotate(62.79 120.069 257.382) scale(54.1542 216.394)">
            <stop offset=".051" stop-color="#C549FF"/>
            <stop offset=".816" stop-color="#704BFF"/>
        </radialGradient>
    </defs>
</svg>
