<svg width="82" height="82" xmlns="http://www.w3.org/2000/svg">
    <rect width="82" height="82" rx="12" fill="#d5ff5c"/>
    <path d="M62.571 45.425c-1.03 1.03-2.822.563-3.431-.763a1.982 1.982 0 0 1-.185-.829V20.989a5.003 5.003 0 0 0-10.005 0v11.562c0 .994-1.017 1.669-1.967 1.37a1.454 1.454 0 0 1-1.032-1.367V13.987a5.003 5.003 0 0 0-10.005 0v18.568a1.454 1.454 0 0 1-1.034 1.367c-.949.3-1.968-.376-1.968-1.371V20.99a5.003 5.003 0 0 0-10.005 0v22.853c0 .282-.064.556-.182.814-.596 1.294-2.346 1.747-3.355.74l-1.861-1.861a5.002 5.002 0 0 0-7.075 7.074l14.706 14.707a19.976 19.976 0 0 0 15.774 7.697c6.143 0 11.638-2.767 15.31-7.124l15.28-15.28a5.002 5.002 0 0 0-7.074-7.074zM40.945 65.01c8.84 0 16.007-10.005 16.007-10.005s-7.166-10.004-16.007-10.004-16.007 10.004-16.007 10.004S32.105 65.01 40.945 65.01z" clip-rule="evenodd" fill="#fd4848" fill-rule="evenodd"/>
    <path d="M46.949 55.005a6.003 6.003 0 1 1-12.006 0 6.003 6.003 0 0 1 12.006 0z" fill="#fd4848"/>
</svg>
