<svg width="40" height="40" viewBox="0 0 40 40" fill="none" xmlns="http://www.w3.org/2000/svg">
<circle cx="20" cy="20" r="20" fill="#383838"/>
<path d="M24.1668 27.5V25.8333C24.1668 24.9493 23.8156 24.1014 23.1905 23.4763C22.5654 22.8512 21.7176 22.5 20.8335 22.5H14.1668C13.2828 22.5 12.4349 22.8512 11.8098 23.4763C11.1847 24.1014 10.8335 24.9493 10.8335 25.8333V27.5" stroke="#D5FF5C" stroke-width="1.66667" stroke-linecap="round" stroke-linejoin="round"/>
<path d="M17.4998 19.1667C19.3408 19.1667 20.8332 17.6743 20.8332 15.8333C20.8332 13.9924 19.3408 12.5 17.4998 12.5C15.6589 12.5 14.1665 13.9924 14.1665 15.8333C14.1665 17.6743 15.6589 19.1667 17.4998 19.1667Z" stroke="#D5FF5C" stroke-width="1.66667" stroke-linecap="round" stroke-linejoin="round"/>
<path d="M29.1665 27.5001V25.8334C29.166 25.0948 28.9201 24.3774 28.4676 23.7937C28.0152 23.2099 27.3816 22.793 26.6665 22.6084" stroke="#D5FF5C" stroke-width="1.66667" stroke-linecap="round" stroke-linejoin="round"/>
<path d="M23.3335 12.6084C24.0505 12.792 24.686 13.209 25.1399 13.7937C25.5937 14.3783 25.84 15.0974 25.84 15.8376C25.84 16.5777 25.5937 17.2968 25.1399 17.8815C24.686 18.4661 24.0505 18.8831 23.3335 19.0667" stroke="#D5FF5C" stroke-width="1.66667" stroke-linecap="round" stroke-linejoin="round"/>
</svg>
