<svg width="62" height="70" viewBox="0 0 62 70" fill="none" xmlns="http://www.w3.org/2000/svg">
<path d="M31.8718 13.2204L37.1522 10.2081V3.01224L31.8718 0V13.2204Z" fill="currentColor"/>
<path d="M12.4239 44.5338V24.3046L30.1183 14.2343V0L0.896668 16.6657C0.624552 16.8221 0.398602 17.0461 0.241292 17.3155C0.0839832 17.5849 0.000802113 17.8904 0 18.2014V51.6707L12.4239 44.5338Z" fill="currentColor"/>
<path d="M48.6295 45.9611L30.9651 56.0314L13.4102 46.0202L0.936462 53.1373L30.1182 69.7637C30.3911 69.9184 30.7002 69.9998 31.0149 70C31.3297 70.0012 31.6392 69.9197 31.9116 69.7637L61.1431 53.0881L48.6295 45.9611Z" fill="currentColor"/>
<path d="M61.0934 16.6657L49.5064 10.0604V17.2563L37.0924 24.3538L49.5462 31.4512V44.4157L62 51.5722V18.2014C61.9982 17.8894 61.9135 17.5833 61.7544 17.3138C61.5953 17.0443 61.3673 16.8208 61.0934 16.6657V16.6657Z" fill="currentColor"/>
<path d="M24.7879 31.3627L24.7979 45.4591L36.913 38.5487V24.4424L24.7879 31.3627Z" fill="currentColor"/>
</svg>
