<svg width="1em" height="1em" viewBox="0 0 15 14" stroke="currentColor" fill="none" xmlns="http://www.w3.org/2000/svg">
<g clip-path="url(#clip0_6982_29309)">
<path d="M6.27492 2.47351C6.67645 2.37952 7.08754 2.33254 7.49992 2.33351C11.5833 2.33351 13.9166 7.00018 13.9166 7.00018C13.5625 7.66261 13.1402 8.28627 12.6566 8.86101M8.73658 8.23684C8.57637 8.40878 8.38317 8.54668 8.16851 8.64233C7.95384 8.73798 7.72211 8.78941 7.48714 8.79356C7.25216 8.7977 7.01876 8.75448 6.80086 8.66646C6.58295 8.57845 6.38501 8.44744 6.21883 8.28127C6.05265 8.11509 5.92165 7.91714 5.83363 7.69924C5.74562 7.48133 5.70239 7.24793 5.70654 7.01296C5.71068 6.77798 5.76212 6.54625 5.85776 6.33159C5.95341 6.11692 6.09132 5.92372 6.26325 5.76351M10.9649 10.4652C9.96776 11.2253 8.75356 11.6463 7.49992 11.6668C3.41659 11.6668 1.08325 7.00018 1.08325 7.00018C1.80885 5.64795 2.81525 4.46653 4.03492 3.53518L10.9649 10.4652Z" stroke-width="1.08333" stroke-linecap="round" stroke-linejoin="round"/>
<path d="M1.08325 0.583496L13.9166 13.4168"  stroke-width="1.08333" stroke-linecap="round" stroke-linejoin="round"/>
</g>
<defs>
<clipPath id="clip0_6982_29309">
<rect width="14" height="14" fill="white" transform="translate(0.5)"/>
</clipPath>
</defs>
</svg>
