<svg viewBox="0 0 16 16" fill="none" xmlns="http://www.w3.org/2000/svg">
    <g clip-path="url(#clip0_678_11637)">
        <path fill-rule="evenodd" clip-rule="evenodd" d="M13.3 3.83C11.993 2.687 10.21 1.666 8 1.666c-2.733 0-4.812 1.56-6.146 2.983A14.116 14.116 0 00-.081 7.28a8.578 8.578 0 00-.134.247l-.008.017-.003.005v.002h-.001c0 .001 0 .002.894.449l-.895-.447a1 1 0 000 .894L.667 8c-.895.447-.895.447-.894.448l.001.002.003.006.008.016a5.332 5.332 0 00.134.247 14.116 14.116 0 001.935 2.631C3.188 12.773 5.267 14.333 8 14.333s4.812-1.56 6.146-2.983c.401-.428.746-.854 1.032-1.242a5.68 5.68 0 01-1.363-1.534c-.286.418-.665.914-1.128 1.408-1.166 1.244-2.753 2.351-4.687 2.351-1.934 0-3.521-1.107-4.687-2.35A12.117 12.117 0 011.815 8a12.117 12.117 0 011.498-1.983C4.479 4.773 6.066 3.667 8 3.667c1.934 0 3.521 1.106 4.687 2.35.129.137.25.275.366.41A5.694 5.694 0 0113.3 3.83z" fill="currentColor"/>
        <path d="M8 10a2 2 0 100-4 2 2 0 000 4z" stroke="currentColor" stroke-width="2" stroke-linecap="round" stroke-linejoin="round"/>
        <path fill-rule="evenodd" clip-rule="evenodd" d="M13.567 2.267a1 1 0 00-2 0v.5h-.5a1 1 0 100 2h.5v.5a1 1 0 102 0v-.5h.5a1 1 0 100-2h-.5v-.5z" fill="currentColor"/>
    </g>
    <defs>
        <clipPath id="clip0_678_11637">
            <path fill="#fff" d="M0 0h16v16H0z"/>
        </clipPath>
    </defs>
</svg>
