<svg width="1em" height="1em" viewBox="0 0 40 40" fill="none" xmlns="http://www.w3.org/2000/svg">
<path d="M23.3334 3.33301H10.0001C9.11603 3.33301 8.26818 3.6842 7.64306 4.30932C7.01794 4.93444 6.66675 5.78229 6.66675 6.66634V33.333C6.66675 34.2171 7.01794 35.0649 7.64306 35.69C8.26818 36.3152 9.11603 36.6663 10.0001 36.6663H30.0001C30.8841 36.6663 31.732 36.3152 32.3571 35.69C32.9822 35.0649 33.3334 34.2171 33.3334 33.333V13.333L23.3334 3.33301Z" stroke="currentColor" stroke-width="3.33333" stroke-linecap="round" stroke-linejoin="round"/>
<path d="M23.3333 3.33301V13.333H33.3333" stroke="currentColor" stroke-width="3.33333" stroke-linecap="round" stroke-linejoin="round"/>
<path d="M26.6666 21.667H13.3333" stroke="currentColor" stroke-width="3.33333" stroke-linecap="round" stroke-linejoin="round"/>
<path d="M26.6666 28.333H13.3333" stroke="currentColor" stroke-width="3.33333" stroke-linecap="round" stroke-linejoin="round"/>
<path d="M16.6666 15H14.9999H13.3333" stroke="currentColor" stroke-width="3.33333" stroke-linecap="round" stroke-linejoin="round"/>
</svg>
