<svg viewBox="0 0 16 17" xmlns="http://www.w3.org/2000/svg">
    <path d="m9.848.5-9.85 6.155 1.294 2.068 2.73-1.689v-1.33H6.16l5.005-3.102L9.848.5Zm1.662 2.66L7.397 5.711h4.606l.792-.484-1.285-2.069Zm1.637 2.61-1.05.64v1.195H10.17L7.494 9.268h4.364l2.5-1.55-1.211-1.948ZM4.329 7.61 1.638 9.284l1.285 2.058 1.11-.687V9.268H6.26l2.676-1.657H4.329Zm10.373.66-2.59 1.61v1.288h-2.086l-5.194 3.22 1.32 2.112 9.85-6.155-1.3-2.075ZM4.43 11.168l-1.16.72 1.22 1.95 4.301-2.67H4.43Z" fill="currentColor"/>
</svg>
