<svg width="1em" height="1em" viewBox="0 0 28 29" fill="none" xmlns="http://www.w3.org/2000/svg">
<path d="M26.8335 4.82288V11.8229H19.8335" stroke="currentColor" stroke-width="2.33" stroke-linecap="round" stroke-linejoin="round"/>
<path d="M1.1665 23.4896V16.4896H8.1665" stroke="currentColor" stroke-width="2.33" stroke-linecap="round" stroke-linejoin="round"/>
<path d="M4.09484 10.6563C4.68653 8.98421 5.69216 7.48927 7.01788 6.31095C8.34361 5.13264 9.94622 4.30936 11.6762 3.91793C13.4061 3.52651 15.2071 3.5797 16.9109 4.07253C18.6147 4.56537 20.166 5.4818 21.4198 6.7363L26.8332 11.823M1.1665 16.4896L6.57984 21.5763C7.83371 22.8308 9.38494 23.7472 11.0888 24.2401C12.7926 24.7329 14.5935 24.7861 16.3235 24.3947C18.0535 24.0032 19.6561 23.18 20.9818 22.0016C22.3075 20.8233 23.3131 19.3284 23.9048 17.6563" stroke="currentColor" stroke-width="2.33" stroke-linecap="round" stroke-linejoin="round"/>
</svg>
