<svg viewBox="0 0 19 19" fill="none" xmlns="http://www.w3.org/2000/svg">
    <path fill-rule="evenodd" clip-rule="evenodd" d="M9.349 4.303c.755-.756 2.092-1.288 3.43-1.48.659-.093 1.278-.099 1.781-.023.524.078.828.23.961.363.134.133.285.437.364.961.075.503.07 1.123-.024 1.781-.192 1.338-.724 2.675-1.48 3.43l-.96.96-3.6 3.6-.716.717-1.316-1.316a.684.684 0 00-.968.967l1.8 1.8c.268.267.7.267.968 0l.58-.58 1.35 2.248a.684.684 0 001.07.132l2.4-2.4a.684.684 0 00.193-.58l-.551-3.862.718-.718C16.393 9.259 17 7.595 17.215 6.098c.108-.759.122-1.515.023-2.177-.096-.64-.313-1.289-.75-1.725-.436-.437-1.084-.653-1.725-.75-.661-.098-1.418-.085-2.177.024-1.497.213-3.16.821-4.205 1.866l-.718.718-3.861-.552a.684.684 0 00-.58.194l-2.4 2.4a.684.684 0 00.131 1.07l2.249 1.35-.58.58a.684.684 0 000 .967l1.8 1.8a.684.684 0 10.967-.967L4.072 9.579l.717-.716 3.6-3.6.96-.96zm2.892 11.973l-1.075-1.79 2.255-2.256.359 2.508-1.54 1.538zM4.199 7.518l2.255-2.255-2.507-.358-1.539 1.538L4.2 7.518zm-1.21 5.545a.684.684 0 10-.968-.967l-1.2 1.2a.684.684 0 10.968.967l1.2-1.2zm1.8 1.8a.684.684 0 00-.968-.967l-2.4 2.4a.684.684 0 10.968.967l2.4-2.4zm1.8 1.8a.684.684 0 00-.968-.967l-1.2 1.2a.684.684 0 10.968.967l1.2-1.2zm3.92-9.544a.936.936 0 111.872 0 .936.936 0 01-1.872 0zm.936-2.304a2.304 2.304 0 100 4.608 2.304 2.304 0 000-4.608z" fill="currentColor"/>
</svg>
