<svg width="1em" height="1em" viewBox="0 0 16 16" fill="none" xmlns="http://www.w3.org/2000/svg">
<path d="M2 4H3.33333H14" stroke="#A5A5A5" stroke-width="1.33333" stroke-linecap="round" stroke-linejoin="round"/>
<path d="M5.33325 4.00065V2.66732C5.33325 2.3137 5.47373 1.97456 5.72378 1.72451C5.97383 1.47446 6.31296 1.33398 6.66659 1.33398H9.33325C9.68687 1.33398 10.026 1.47446 10.2761 1.72451C10.5261 1.97456 10.6666 2.3137 10.6666 2.66732V4.00065M12.6666 4.00065V13.334C12.6666 13.6876 12.5261 14.0267 12.2761 14.2768C12.026 14.5268 11.6869 14.6673 11.3333 14.6673H4.66659C4.31296 14.6673 3.97382 14.5268 3.72378 14.2768C3.47373 14.0267 3.33325 13.6876 3.33325 13.334V4.00065H12.6666Z" stroke="#A5A5A5" stroke-width="1.33333" stroke-linecap="round" stroke-linejoin="round"/>
<path d="M6.66675 7.33398V11.334" stroke="#A5A5A5" stroke-width="1.33333" stroke-linecap="round" stroke-linejoin="round"/>
<path d="M9.33325 7.33398V11.334" stroke="#A5A5A5" stroke-width="1.33333" stroke-linecap="round" stroke-linejoin="round"/>
</svg>
