<svg width="24" height="24" viewBox="0 0 24 24" stroke="currentColor" fill="none" xmlns="http://www.w3.org/2000/svg">
<g clip-path="url(#clip0_317_2150)">
<path d="M16.1668 19.5V17.8333C16.1668 16.9493 15.8156 16.1014 15.1905 15.4763C14.5654 14.8512 13.7176 14.5 12.8335 14.5H6.16683C5.28277 14.5 4.43493 14.8512 3.80981 15.4763C3.18469 16.1014 2.8335 16.9493 2.8335 17.8333V19.5" stroke-width="2" stroke-linecap="round" stroke-linejoin="round"/>
<path d="M9.49984 11.1667C11.3408 11.1667 12.8332 9.67428 12.8332 7.83333C12.8332 5.99238 11.3408 4.5 9.49984 4.5C7.65889 4.5 6.1665 5.99238 6.1665 7.83333C6.1665 9.67428 7.65889 11.1667 9.49984 11.1667Z" stroke-width="2" stroke-linecap="round" stroke-linejoin="round"/>
<path d="M21.1665 19.5001V17.8334C21.166 17.0948 20.9201 16.3774 20.4676 15.7937C20.0152 15.2099 19.3816 14.793 18.6665 14.6084" stroke-width="2" stroke-linecap="round" stroke-linejoin="round"/>
<path d="M15.3335 4.6084C16.0505 4.79198 16.686 5.20898 17.1399 5.79366C17.5937 6.37833 17.84 7.09742 17.84 7.83757C17.84 8.57771 17.5937 9.2968 17.1399 9.88147C16.686 10.4661 16.0505 10.8831 15.3335 11.0667" stroke-width="2" stroke-linecap="round" stroke-linejoin="round"/>
</g>
<defs>
<clipPath id="clip0_317_2150">
<rect width="20" height="20" fill="white" transform="translate(2 2)"/>
</clipPath>
</defs>
</svg>
