<svg viewBox="0 0 237 58" fill="none" xmlns="http://www.w3.org/2000/svg">
    <g filter="url(#a)">
        <rect x="163.598" y="23.465" width="70.401" height="62.906" rx="6.424" fill="#B1AEFF"/>
        <rect x="163.865" y="23.733" width="69.866" height="62.371" rx="6.157" stroke="#000" stroke-width=".535"/>
        <path d="M211.169 56.168c0 .324-.265.698-.912 1.084-.632.377-1.562.725-2.732 1.02-2.335.59-5.574.958-9.16.958-3.585 0-6.824-.367-9.159-.957-1.17-.296-2.1-.644-2.732-1.02-.647-.387-.912-.76-.912-1.085 0-.324.265-.697.912-1.084.632-.377 1.562-.725 2.732-1.02 2.335-.59 5.574-.957 9.159-.957 3.586 0 6.825.367 9.16.957 1.17.295 2.1.643 2.732 1.02.647.386.912.76.912 1.084z" fill="#000" stroke="#000" stroke-width=".459"/>
        <g filter="url(#b)">
            <ellipse cx="198.89" cy="45.372" rx="11.98" ry="12.243" fill="#B1AEFF"/>
        </g>
        <path d="M210.647 45.372c0 6.643-5.268 12.02-11.757 12.02-6.488 0-11.756-5.377-11.756-12.02 0-6.642 5.268-12.02 11.756-12.02 6.489 0 11.757 5.378 11.757 12.02z" stroke="#000" stroke-width=".448"/>
        <g filter="url(#c)">
            <circle cx="199.026" cy="44.846" r="9.479" fill="#B1AEFF"/>
        </g>
        <circle cx="199.026" cy="44.846" r="9.255" stroke="#000" stroke-width=".448"/>
        <path d="M202.319 50.12c0 .521-1.438 1.68-3.212 1.68-1.774 0-3.212-1.159-3.212-1.68 0-.52 1.438.17 3.212.17 1.774 0 3.212-.69 3.212-.17z" fill="#8582BF"/>
        <path fill-rule="evenodd" clip-rule="evenodd" d="M202.764 44.802c-.173.174-.475.095-.577-.128a.338.338 0 01-.031-.14v-3.852a.843.843 0 00-.841-.843.843.843 0 00-.841.843v1.95c0 .167-.171.281-.331.23a.245.245 0 01-.173-.23v-3.13a.842.842 0 10-1.682 0v3.13a.245.245 0 01-.174.23c-.16.051-.331-.063-.331-.23v-1.95a.843.843 0 00-.841-.843.843.843 0 00-.841.843v3.853a.325.325 0 01-.031.137c-.1.219-.394.295-.564.125l-.313-.313a.839.839 0 00-1.189 0 .846.846 0 000 1.192l2.472 2.48a3.356 3.356 0 005.226.097l2.569-2.577a.846.846 0 000-1.193.839.839 0 00-1.189 0l-.318.32z" fill="#000"/>
        <path d="M187.617 36.784a14.08 14.08 0 011.711-1.757m1.039-.813c.295-.209.596-.405.904-.59M212.574 42.102a14.329 14.329 0 01-3.415 12.51" stroke="#000" stroke-width=".395"/>
        <path fill-rule="evenodd" clip-rule="evenodd" d="M212.586 36.025l-.185.837a1.6 1.6 0 01-1.216 1.216l-.837.185.837.186a1.6 1.6 0 011.216 1.215l.185.837.185-.837a1.597 1.597 0 011.216-1.215l.837-.186-.837-.185a1.597 1.597 0 01-1.216-1.216l-.185-.837zm0 1.287a1.92 1.92 0 01-.951.951c.421.192.759.53.951.952.191-.422.53-.76.951-.952a1.917 1.917 0 01-.951-.95zM184.147 50.508l-.119.541c-.087.394-.394.7-.787.787l-.542.12.542.12c.393.087.7.393.787.786l.119.542.12-.542c.087-.393.394-.7.787-.786l.542-.12-.542-.12a1.035 1.035 0 01-.787-.786l-.12-.542z" fill="#000"/>
        <path d="M175.257 77.522l1.612-4.07h.749l1.607 4.07h-.782l-.386-1.028h-1.632l-.386 1.028h-.782zm1.403-1.698h1.162l-.578-1.541-.584 1.541zm4.01 1.783c-.873 0-1.36-.637-1.36-1.493 0-.873.498-1.489 1.36-1.489.744 0 1.269.46 1.317 1.135h-.696c-.059-.38-.279-.562-.611-.562-.428 0-.679.343-.679.916 0 .572.251.92.679.92.332 0 .557-.22.616-.53h.691c-.048.578-.52 1.103-1.317 1.103zm3.032 0c-.873 0-1.36-.637-1.36-1.493 0-.873.498-1.489 1.36-1.489.744 0 1.269.46 1.317 1.135h-.696c-.059-.38-.278-.562-.61-.562-.428 0-.68.343-.68.916 0 .572.252.92.68.92.332 0 .557-.22.616-.53h.69c-.048.578-.519 1.103-1.317 1.103zm2.786 0c-.642 0-1.012-.401-1.012-1.204V74.71h.707v1.526c0 .642.262.797.541.797.412 0 .712-.337.712-.888V74.71h.707v2.81h-.707v-.46c-.225.407-.562.546-.948.546zm5.866-2.982c.642 0 1.011.396 1.011 1.2v1.697h-.706v-1.526c0-.643-.263-.798-.541-.798-.412 0-.712.337-.712.883v1.44h-.707v-1.525c0-.643-.262-.798-.54-.798-.413 0-.713.337-.713.883v1.44h-.706v-2.81h.706v.423c.225-.37.563-.509.948-.509.444 0 .755.188.91.568.3-.44.68-.568 1.05-.568zm2.625 2.982c-.643 0-1.012-.401-1.012-1.204V74.71h.707v1.526c0 .642.262.797.54.797.413 0 .712-.337.712-.888V74.71h.707v2.81h-.707v-.46c-.224.407-.562.546-.947.546zm2.251-.085v-4.07h.707v4.07h-.707zm2.059.058c-.686 0-.948-.417-.948-.84 0-.262.102-.487.321-.643.247-.182.637-.283 1.381-.283h.161v-.145c0-.305-.134-.498-.508-.498-.407 0-.525.214-.536.396h-.68c.011-.455.268-.936 1.232-.936.749 0 1.204.294 1.204 1.22v1.67h-.68v-.385h-.01c-.172.278-.504.444-.937.444zm.241-.498c.465 0 .679-.31.679-.487v-.374h-.133c-.568 0-1.028.112-1.028.492 0 .236.182.37.482.37zm2.959.493c-.685 0-.92-.31-.92-.878v-1.365h-.348v-.557c.305 0 .385-.14.385-.455v-.332h.669v.723h.579v.62h-.579v1.173c0 .343.14.429.461.429h.171v.62a2.83 2.83 0 01-.418.022zm2.048.032c-.873 0-1.36-.637-1.36-1.493 0-.873.503-1.489 1.344-1.489.76 0 1.333.493 1.333 1.323v.369h-1.976c.048.439.278.717.68.717.332 0 .546-.209.605-.401h.691c-.049.45-.52.974-1.317.974zm-.648-1.75h1.269c-.006-.44-.279-.659-.627-.659-.358 0-.642.22-.642.659zm3.674 1.665l1.611-4.07h.75l1.606 4.07h-.782l-.385-1.028h-1.633l-.386 1.028h-.781zm1.402-1.698h1.162l-.578-1.541-.584 1.541zm4.074 1.783c-.916 0-1.339-.417-1.392-1.006h.664c.075.337.305.465.728.465.267 0 .444-.101.444-.31 0-.23-.321-.305-.578-.375-.653-.171-1.124-.353-1.13-.915-.01-.605.525-.84 1.184-.84.744 0 1.129.374 1.156.941h-.675c-.032-.32-.283-.406-.514-.406-.246 0-.508.058-.508.289 0 .23.342.305.846.428.444.118.904.257.904.846 0 .594-.417.883-1.129.883zm2.854 0c-.915 0-1.338-.417-1.392-1.006h.664c.075.337.305.465.728.465.268 0 .445-.101.445-.31 0-.23-.321-.305-.578-.375-.654-.171-1.125-.353-1.13-.915-.011-.605.525-.84 1.183-.84.744 0 1.13.374 1.157.941h-.675c-.032-.32-.284-.406-.514-.406-.246 0-.509.058-.509.289 0 .23.343.305.846.428.445.118.905.257.905.846 0 .594-.418.883-1.13.883zm2.843 0c-.872 0-1.359-.637-1.359-1.493 0-.873.503-1.489 1.343-1.489.761 0 1.333.493 1.333 1.323v.369h-1.975c.048.439.278.717.68.717.332 0 .546-.209.605-.401h.69c-.048.45-.519.974-1.317.974zm-.647-1.75h1.268c-.005-.44-.278-.659-.626-.659-.359 0-.642.22-.642.659zm3.557 1.718c-.686 0-.921-.31-.921-.878v-1.365h-.348v-.557c.305 0 .385-.14.385-.455v-.332h.67v.723h.578v.62h-.578v1.173c0 .343.139.429.46.429h.171v.62c-.123.017-.23.022-.417.022zm2.116.032c-.916 0-1.339-.417-1.392-1.006h.664c.075.337.305.465.728.465.268 0 .444-.101.444-.31 0-.23-.321-.305-.578-.375-.653-.171-1.124-.353-1.13-.915-.01-.605.525-.84 1.184-.84.744 0 1.129.374 1.156.941h-.675c-.032-.32-.283-.406-.514-.406-.246 0-.508.058-.508.289 0 .23.343.305.846.428.444.118.905.257.905.846 0 .594-.418.883-1.13.883zM187.865 68.753h1.439l2.082 2.384h-1.478l-2.043-2.384zm.803 2.114c-.578 0-1.085-.105-1.522-.315a2.452 2.452 0 01-1.015-.88c-.24-.377-.36-.818-.36-1.323 0-.506.12-.947.36-1.324.244-.377.582-.67 1.015-.88.437-.21.944-.315 1.522-.315.578 0 1.084.105 1.516.315.437.21.776.503 1.015.88.245.377.367.818.367 1.324 0 .505-.122.946-.367 1.323-.239.377-.578.67-1.015.88-.432.21-.938.315-1.516.315zm0-1.33c.287 0 .533-.047.739-.141a1.11 1.11 0 00.482-.411c.111-.18.167-.392.167-.636 0-.245-.056-.454-.167-.63a1.057 1.057 0 00-.482-.411 1.698 1.698 0 00-.739-.148c-.287 0-.535.05-.745.148a1.06 1.06 0 00-.475.411 1.145 1.145 0 00-.167.63c0 .244.055.456.167.636.111.175.269.312.475.41.21.095.458.142.745.142zm5.105-.964c0 .202.036.373.109.515a.794.794 0 00.328.334c.145.077.327.115.546.115.227 0 .413-.038.559-.116a.725.725 0 00.321-.327 1.15 1.15 0 00.109-.52v-2.635h1.497v2.718c0 .441-.103.829-.308 1.163-.206.33-.495.587-.868.77-.372.185-.809.277-1.31.277-.493 0-.925-.092-1.298-.276a2.126 2.126 0 01-.874-.771 2.178 2.178 0 01-.308-1.163v-2.718h1.497v2.635zm8.587-.751v1.053h-3.579v-1.053h3.579zm-2.557.527l-.302 1.863-.585-.65h3.669v1.196h-4.568l.36-2.41-.36-2.409h4.536v1.195h-3.637l.585-.648.302 1.863zm3.453.828h1.517c.017.112.07.21.16.296.094.081.221.145.379.193.159.043.345.064.559.064.296 0 .525-.034.688-.103.167-.068.25-.173.25-.315 0-.098-.047-.177-.141-.237-.094-.065-.281-.108-.559-.129l-.848-.07c-.694-.052-1.197-.202-1.51-.45-.308-.253-.462-.591-.462-1.015 0-.347.1-.636.301-.868.202-.235.482-.413.842-.533.36-.12.784-.18 1.272-.18.471 0 .889.067 1.253.2.368.132.659.32.874.565.218.24.338.52.359.841h-1.516a.407.407 0 00-.148-.244.762.762 0 00-.334-.167 2.05 2.05 0 00-.52-.058c-.266 0-.478.032-.636.097-.154.064-.231.16-.231.289 0 .094.045.171.135.231.094.06.265.1.514.122l.931.077c.463.035.835.107 1.118.219.287.107.495.255.623.443.129.184.193.418.193.7 0 .343-.103.645-.309.906-.205.257-.494.458-.867.604-.368.141-.801.212-1.298.212-.509 0-.957-.07-1.342-.212-.386-.141-.688-.338-.906-.591a1.387 1.387 0 01-.341-.887zm7.163-2.589h1.497v4.17h-1.497v-4.17zm-1.786-.648h5.069v1.33h-5.069v-1.33zm8.202 0h1.169l-.565 4.818h-1.17l.566-4.819zm2.229 0h1.163l-.566 4.818h-1.162l.565-4.819zm-3.193 1.072h4.908v.996h-4.908v-.996zm-.154 1.684h4.908v.995h-4.908v-.995zm5.653-.996a1.75 1.75 0 01.386-.996 2.19 2.19 0 01.919-.649 3.48 3.48 0 011.284-.225c.454 0 .851.069 1.189.206.343.137.608.328.797.572.188.24.282.52.282.841 0 .253-.07.486-.212.7-.137.215-.351.424-.642.63-.291.201-.67.407-1.137.617l-1.227.565-.032-.372h3.379v1.169h-4.864V69.73l2.076-1.137c.312-.172.552-.313.719-.424.167-.116.285-.22.353-.315a.539.539 0 00.103-.315.49.49 0 00-.096-.302.614.614 0 00-.289-.199 1.288 1.288 0 00-.456-.07 1.41 1.41 0 00-.579.102.775.775 0 00-.334.264.885.885 0 00-.135.366h-1.484z" fill="#000"/>
        <path d="M221.387 66.16l2.108 2.108-2.108 2.108" stroke="#000" stroke-width=".803" stroke-linecap="round" stroke-linejoin="round"/>
    </g>
    <path d="M163.867 30.157a6.425 6.425 0 016.425-6.425h15.258v3.48a4.283 4.283 0 01-4.283 4.283h-17.4v-1.338z" fill="#B1AEFF" stroke="#000" stroke-width=".402"/>
    <path d="M167.712 27.525v.404h-.821v.82h-.403v-.82h-.816v-.404h.816v-.816h.403v.816h.821zm.566 1.353v-.586c.679-.434 1.086-.705 1.375-.944.376-.31.541-.563.541-.834 0-.35-.267-.558-.674-.558-.448 0-.781.248-.781.731 0 .093.014.147.045.266h-.612a.964.964 0 01-.04-.279c0-.732.465-1.241 1.396-1.241.852 0 1.282.43 1.282 1.055 0 .43-.195.767-.612 1.13-.231.2-.523.4-.971.674h1.627v.585h-2.576zm4.473.066c-.967 0-1.45-.78-1.45-1.756 0-.975.483-1.755 1.45-1.755.966 0 1.441.78 1.441 1.755 0 .976-.475 1.756-1.441 1.756zm-.004-.528c.558 0 .833-.54.833-1.228 0-.691-.275-1.228-.833-1.228-.555 0-.83.537-.83 1.228 0 .688.275 1.228.83 1.228zm3.342.528c-.966 0-1.45-.78-1.45-1.756 0-.975.484-1.755 1.45-1.755.967 0 1.441.78 1.441 1.755 0 .976-.474 1.756-1.441 1.756zm-.004-.528c.558 0 .833-.54.833-1.228 0-.691-.275-1.228-.833-1.228-.555 0-.829.537-.829 1.228 0 .688.274 1.228.829 1.228zm4.765.457h-.7l-.798-1.25-.794 1.25h-.7l1.135-1.698-1.06-1.671h.696l.723 1.197.723-1.197h.7l-1.064 1.671 1.139 1.698zm.482 0v-3.37h1.291c.66 0 1.103.333 1.103.998 0 .634-.43.993-1.139.993h-.665v1.379h-.59zm.59-1.898h.572c.363 0 .621-.137.621-.47 0-.305-.231-.478-.621-.478h-.572v.948z" fill="#000"/>
    <g filter="url(#d)">
        <rect y="23.133" width="88.169" height="78.782" rx="8.046" fill="#FFD88C"/>
        <rect x=".335" y="23.468" width="87.499" height="78.112" rx="7.711" stroke="#000" stroke-width=".67"/>
        <path d="M60.548 63.24c0 .424-.346.908-1.178 1.405-.813.487-2.01.935-3.514 1.315-3.003.76-7.167 1.233-11.777 1.233-4.61 0-8.775-.473-11.778-1.233-1.503-.38-2.7-.828-3.514-1.315-.832-.497-1.178-.98-1.178-1.404 0-.424.346-.907 1.178-1.405.814-.486 2.01-.935 3.514-1.315 3.003-.76 7.168-1.232 11.778-1.232s8.774.473 11.777 1.232c1.504.38 2.7.828 3.514 1.315.833.498 1.178.981 1.178 1.405z" fill="#000" stroke="#000" stroke-width=".57"/>
        <g filter="url(#e)">
            <circle cx="33.946" cy="42.509" r="3.141" fill="#FFD88C"/>
        </g>
        <circle cx="33.946" cy="42.509" r="3.426" stroke="#000" stroke-width=".57"/>
        <g filter="url(#f)">
            <circle cx="54.298" cy="42.509" r="3.141" fill="#FFD88C"/>
        </g>
        <circle cx="54.298" cy="42.509" r="3.426" stroke="#000" stroke-width=".57"/>
        <g filter="url(#g)">
            <path fill-rule="evenodd" clip-rule="evenodd" d="M43.116 42.44a.432.432 0 00-.75-.291l-4.334 4.384c-.748.756-1.93.813-2.993.813-2.134 0-3.863 2.02-3.863 4.513v10.018s.6 1.54 3.863 1.54c3.262 0 3.863-.842 3.863-.842V51.938l3.82-6.642a2.97 2.97 0 00.394-1.477V42.44z" fill="#FFD88C"/>
        </g>
        <path d="M30.89 61.877v.054l.02.05.266-.104-.265.104v.002l.001.003.003.007a.743.743 0 00.042.086c.03.053.073.125.135.209.125.168.324.383.63.594.614.424 1.64.82 3.317.82 1.654 0 2.656-.212 3.255-.439.3-.113.501-.23.632-.326a1.233 1.233 0 00.2-.185l.004-.006.002-.003v-.001h.001l-.231-.167.232.166.053-.074V52.015l3.781-6.577c.284-.492.433-1.05.433-1.619V42.44c0-.652-.8-.964-1.242-.488l-4.33 4.38c-.322.326-.745.51-1.233.612-.491.102-1.027.117-1.557.117-2.331 0-4.148 2.191-4.148 4.798v10.018z" stroke="#000" stroke-width=".57"/>
        <g filter="url(#h)">
            <path fill-rule="evenodd" clip-rule="evenodd" d="M45.04 42.44c0-.394.485-.582.751-.291l4.334 4.384c.747.756 1.929.813 2.992.813 2.134 0 3.864 2.02 3.864 4.513v10.018s-.6 1.54-3.864 1.54c-3.262 0-3.862-.842-3.862-.842V51.938l-3.82-6.642a2.964 2.964 0 01-.395-1.477V42.44z" fill="#FFD88C"/>
        </g>
        <path d="M57.265 61.877v.054l-.019.05-.266-.104.266.104v.002l-.002.003-.003.007a.702.702 0 01-.042.086 1.737 1.737 0 01-.135.209 2.653 2.653 0 01-.63.594c-.614.424-1.64.82-3.316.82-1.654 0-2.657-.212-3.256-.439a2.64 2.64 0 01-.632-.326 1.235 1.235 0 01-.199-.185l-.005-.006-.002-.003v-.001h-.001l.232-.167-.233.166-.052-.074V52.015l-3.782-6.577a3.248 3.248 0 01-.433-1.619V42.44c0-.652.8-.964 1.242-.488l4.33 4.38c.322.326.746.51 1.234.612.49.102 1.026.117 1.556.117 2.331 0 4.148 2.191 4.148 4.798v10.018z" stroke="#000" stroke-width=".57"/>
        <path d="M43.96 38.22v-4.36M41.988 38.393l-2.601-2.602M46.32 38.354l2.602-2.602" stroke="#000" stroke-width=".57" stroke-linecap="round"/>
        <path fill-rule="evenodd" clip-rule="evenodd" d="M43.909 49.617l-.208.94a1.796 1.796 0 01-1.366 1.367l-.94.208.94.207a1.797 1.797 0 011.366 1.366l.208.94.208-.94a1.796 1.796 0 011.366-1.366l.94-.207-.94-.208a1.796 1.796 0 01-1.366-1.366l-.208-.94z" fill="#000"/>
        <path d="M28.652 55.986v5.7M28.652 52.969v1.34M59.5 55.986v5.7M59.5 52.969v1.34" stroke="#000" stroke-width=".67" stroke-linecap="round"/>
        <path d="M20.354 90.824v-5.096h1.864c1.073 0 1.757.483 1.757 1.442 0 .945-.711 1.348-1.703 1.408l1.964 2.246h-1.093l-1.897-2.199v2.2h-.892zm.892-2.957h.932c.435 0 .865-.194.865-.663 0-.443-.342-.684-.932-.684h-.865v1.347zm4.783 3.064c-1.093 0-1.703-.797-1.703-1.87 0-1.093.63-1.864 1.683-1.864.952 0 1.67.617 1.67 1.656v.463h-2.475c.06.55.349.898.852.898.416 0 .684-.261.758-.503h.864c-.06.563-.65 1.22-1.649 1.22zm-.811-2.192h1.589c-.007-.55-.349-.825-.785-.825-.449 0-.804.275-.804.825zm4.609 2.192c-1.093 0-1.703-.797-1.703-1.87 0-1.093.623-1.864 1.703-1.864.932 0 1.589.576 1.65 1.421h-.872c-.074-.476-.35-.704-.765-.704-.536 0-.851.43-.851 1.147 0 .717.315 1.153.851 1.153.416 0 .698-.275.771-.664h.865c-.06.724-.65 1.382-1.65 1.382zm2.275-.107v-3.52h.852v.664c.14-.275.355-.516.61-.637.194-.087.396-.114.664-.114v.898h-.114c-.704 0-1.127.477-1.127 1.207v1.502h-.885zm3.761.108c-.804 0-1.267-.503-1.267-1.51v-2.118h.885v1.911c0 .805.328 1 .677 1 .516 0 .892-.423.892-1.114v-1.797h.885v3.52h-.885v-.576c-.282.51-.704.683-1.187.683zm2.82-4.339v-.865h.939v.865h-.94zm.027 4.231v-3.52h.885v3.52h-.885zm3.036.067c-.858 0-1.153-.389-1.153-1.1v-1.71h-.436v-.696c.383 0 .483-.175.483-.57v-.416h.838v.905h.724v.778h-.724v1.468c0 .43.175.537.577.537h.215v.777c-.155.02-.289.027-.524.027zm2.648-.067l2.018-5.096h.939l2.011 5.096h-.979l-.482-1.287h-2.045l-.483 1.287h-.979zm1.757-2.125h1.455l-.724-1.931-.731 1.93zm9.158-2.092H52.72v1.166h2.306v.839H52.72v2.212h-.892v-5.096h3.48v.879zm.378 4.217v-3.52h.852v.664c.14-.275.355-.516.61-.637.194-.087.396-.114.664-.114v.898h-.114c-.704 0-1.127.477-1.127 1.207v1.502h-.885zm2.547-4.23v-.865h.94v.864h-.94zm.027 4.23v-3.52h.885v3.52h-.885zm3.06.108c-1.093 0-1.703-.798-1.703-1.871 0-1.093.63-1.864 1.683-1.864.952 0 1.67.617 1.67 1.656v.463h-2.474c.06.55.348.898.851.898.416 0 .684-.261.758-.503h.865c-.06.563-.65 1.22-1.65 1.22zm-.811-2.193h1.59c-.008-.55-.35-.825-.785-.825-.45 0-.805.275-.805.825zm3.087 2.085v-3.52h.885v.53c.288-.476.738-.637 1.167-.637.811 0 1.287.576 1.287 1.462v2.165h-.885v-1.87c0-.704-.261-1.04-.704-1.04-.476 0-.865.423-.865 1.107v1.803h-.885zm6.68-5.096h.884v5.096h-.865v-.415c-.234.315-.69.522-1.106.522-.925 0-1.549-.75-1.549-1.877 0-1.113.624-1.857 1.562-1.857.41 0 .812.214 1.073.556v-2.025zm0 3.467v-.315c0-.584-.35-.966-.88-.966-.536 0-.884.456-.884 1.14 0 .697.355 1.16.891 1.16.523 0 .872-.409.872-1.02zM22.674 80.591h1.802l2.607 2.985h-1.85l-2.56-2.985zm1.006 2.647c-.724 0-1.36-.131-1.907-.394a3.076 3.076 0 01-1.271-1.102c-.3-.472-.451-1.025-.451-1.658s.15-1.185.45-1.657c.306-.472.73-.84 1.272-1.102.547-.263 1.183-.395 1.907-.395s1.357.132 1.898.395c.547.263.971.63 1.272 1.102.305.472.458 1.024.458 1.657s-.153 1.186-.458 1.658c-.3.472-.725.84-1.272 1.102-.541.263-1.174.394-1.898.394zm0-1.665c.359 0 .667-.06.925-.177.263-.124.464-.295.603-.515.14-.225.21-.49.21-.797 0-.305-.07-.568-.21-.788a1.327 1.327 0 00-.603-.515 2.131 2.131 0 00-.925-.185c-.36 0-.67.062-.934.185-.257.118-.456.29-.595.515-.14.22-.21.483-.21.788 0 .306.07.572.21.797.14.22.338.391.595.515.263.118.574.177.934.177zm6.392-1.207c0 .252.046.467.137.644a.994.994 0 00.41.418c.183.097.41.145.684.145.285 0 .518-.048.7-.145a.902.902 0 00.403-.41c.09-.183.136-.4.136-.652v-3.299h1.875v3.404c0 .552-.129 1.037-.386 1.456a2.61 2.61 0 01-1.086.965c-.467.231-1.014.346-1.642.346-.617 0-1.158-.115-1.625-.346a2.664 2.664 0 01-1.094-.965c-.258-.419-.386-.904-.386-1.456v-3.404h1.874v3.299zm10.755-.941v1.32h-4.482v-1.32h4.482zm-3.203.66l-.378 2.333-.732-.813h4.594v1.497h-5.72l.45-3.018-.45-3.017h5.68v1.497h-4.554l.732-.813.378 2.333zm4.325 1.037h1.9c.02.14.088.263.2.37.118.102.277.183.475.242.199.053.432.08.7.08.37 0 .657-.043.861-.128.21-.086.314-.218.314-.395 0-.123-.06-.222-.177-.297-.118-.08-.352-.135-.7-.161l-1.062-.089c-.87-.064-1.5-.252-1.891-.563-.386-.317-.58-.74-.58-1.271 0-.435.127-.797.379-1.087.252-.294.603-.517 1.054-.667.45-.15.982-.226 1.593-.226.59 0 1.113.083 1.569.25.461.166.826.402 1.094.708.274.3.424.652.45 1.054H46.23a.514.514 0 00-.185-.306.957.957 0 00-.419-.21 2.57 2.57 0 00-.651-.072c-.333 0-.598.04-.797.121-.193.08-.29.201-.29.362 0 .118.057.215.17.29.117.075.332.126.643.153l1.167.096c.58.043 1.046.134 1.4.274.36.134.62.319.78.555.161.23.242.523.242.877 0 .43-.13.807-.387 1.135-.257.321-.62.573-1.086.756-.461.177-1.003.265-1.625.265-.638 0-1.199-.088-1.682-.265-.482-.177-.86-.424-1.134-.74a1.737 1.737 0 01-.426-1.11zm8.97-3.242h1.875v5.222H50.92V77.88zm-2.236-.813h6.348v1.666h-6.348v-1.666zm10.272 0h1.464l-.708 6.035h-1.464l.708-6.035zm2.791 0h1.457l-.708 6.035h-1.456l.707-6.035zm-3.998 1.344h6.147v1.247h-6.147V78.41zm-.193 2.108h6.147v1.247h-6.147v-1.247zm10.588-3.452v6.035h-1.85v-5.367l.844.78-2.63.459v-1.432l2.268-.475h1.368z" fill="#000"/>
        <g clip-path="url(#i)">
            <path d="M72.371 76.603l2.64 2.64-2.64 2.64" stroke="#000" stroke-width="1.006" stroke-linecap="round" stroke-linejoin="round"/>
        </g>
    </g>
    <path d="M.336 31.515a8.046 8.046 0 018.046-8.046H27.49v4.358a5.364 5.364 0 01-5.364 5.364H.336v-1.676z" fill="#FFD88C" stroke="#000" stroke-width=".503"/>
    <path d="M5.152 28.462v.506H4.124v1.027H3.62v-1.027H2.598v-.506h1.021v-1.021h.505v1.021h1.028zm.71 1.694v-.733c.849-.544 1.36-.883 1.72-1.183.473-.388.678-.705.678-1.043 0-.44-.333-.7-.844-.7-.56 0-.977.31-.977.916 0 .117.016.183.055.333h-.766a1.205 1.205 0 01-.05-.35c0-.916.583-1.554 1.75-1.554 1.065 0 1.604.538 1.604 1.321 0 .539-.245.96-.766 1.416-.29.25-.656.5-1.216.844h2.037v.733H5.861zm5.6.083c-1.21 0-1.815-.977-1.815-2.199 0-1.221.605-2.198 1.816-2.198 1.21 0 1.804.977 1.804 2.198 0 1.222-.594 2.2-1.804 2.2zm-.005-.66c.7 0 1.044-.678 1.044-1.539 0-.866-.344-1.538-1.044-1.538-.694 0-1.038.672-1.038 1.538 0 .861.344 1.538 1.038 1.538zm4.186.66c-1.21 0-1.815-.977-1.815-2.199 0-1.221.605-2.198 1.816-2.198 1.21 0 1.804.977 1.804 2.198 0 1.222-.594 2.2-1.805 2.2zm-.005-.66c.7 0 1.044-.678 1.044-1.539 0-.866-.344-1.538-1.044-1.538-.694 0-1.038.672-1.038 1.538 0 .861.344 1.538 1.038 1.538zm5.969.571h-.878l-1-1.565-.993 1.565h-.877l1.421-2.126-1.327-2.094h.872l.905 1.5.905-1.5h.877l-1.332 2.094 1.427 2.126zm.603 0v-4.22h1.616c.827 0 1.382.417 1.382 1.25 0 .794-.538 1.244-1.427 1.244h-.832v1.726h-.739zm.738-2.376h.717c.455 0 .777-.172.777-.589 0-.383-.289-.6-.777-.6h-.716v1.189z" fill="#000"/>
    <mask id="a" fill="#fff">
        <path d="M56.656 9.252A9.252 9.252 0 0165.908 0h99.702c5.925 0 10.728 4.803 10.728 10.728v130.428a6.685 6.685 0 01-6.686 6.686H67.384c-5.925 0-10.728-4.803-10.728-10.727V9.251z"/>
    </mask>
    <path d="M56.656 9.252A9.252 9.252 0 0165.908 0h99.702c5.925 0 10.728 4.803 10.728 10.728v130.428a6.685 6.685 0 01-6.686 6.686H67.384c-5.925 0-10.728-4.803-10.728-10.727V9.251z" fill="#fff"/>
    <path d="M56.656 137.115h.503-.503zm0-127.864h-.503.503zM169.652 147.34H67.384v1.005h102.268v-1.005zM57.159 137.115V9.251h-1.006v127.864h1.006zM65.908.503h99.702V-.503H65.908V.503zm109.927 10.225v130.428h1.006V10.728h-1.006zM67.385 147.34c-5.648 0-10.226-4.578-10.226-10.225h-1.006c0 6.202 5.029 11.23 11.231 11.23v-1.005zm102.267 1.005a7.189 7.189 0 007.189-7.189h-1.006a6.184 6.184 0 01-6.183 6.184v1.005zM165.61.503c5.648 0 10.225 4.578 10.225 10.225h1.006c0-6.203-5.028-11.23-11.231-11.23V.502zM57.16 9.25A8.749 8.749 0 0165.907.504V-.503c-5.387 0-9.755 4.367-9.755 9.755h1.006z" fill="#fff" mask="url(#a)"/>
    <g filter="url(#k)">
        <path fill-rule="evenodd" clip-rule="evenodd" d="M70.465 123.629c1.552-.621 2.667-2.343 2.663-4.369-.003-2.026-1.125-3.744-2.68-4.358v-.244l-1.202.002v.001l-.067-.001c-2.176.004-3.937 2.071-3.932 4.616.004 2.545 1.772 4.604 3.949 4.6l.067-.001v.001l1.203-.002v-.245z" fill="#D5FF5C"/>
    </g>
    <path d="M70.465 123.629l-.036-.091-.062.025v.066h.098zm-.017-8.727h-.097v.066l.061.024.036-.09zm0-.244h.097v-.098h-.097v.098zm-1.202.002v-.098l-.098.001v.097h.098zm0 .001l-.002.097.1.002v-.1l-.098.001zm.017 9.214h.098v-.1l-.1.003.002.097zm0 .001h-.097v.098h.097v-.098zm1.203-.002v.097h.097v-.097h-.097zm2.565-4.614c.003 1.992-1.093 3.674-2.602 4.278l.072.182c1.595-.638 2.729-2.401 2.725-4.46h-.195zm-2.619-4.268c1.513.598 2.615 2.276 2.619 4.268h.195c-.004-2.06-1.144-3.818-2.742-4.449l-.072.181zm-.062-.334v.244l.196-.001v-.243h-.196zm-1.104.1l1.202-.003v-.195l-1.203.002v.196zm.097-.098h-.195v.001l.195-.001zm-.164.098h.065l.003-.195-.068-.001v.196zm-3.835 4.518c-.004-2.506 1.727-4.514 3.835-4.518v-.196c-2.244.005-4.035 2.13-4.03 4.714h.195zm3.852 4.502c-2.11.005-3.847-1.996-3.852-4.502h-.195c.005 2.584 1.803 4.702 4.047 4.698v-.196zm.065 0h-.065v.196l.07-.001-.005-.195zm.1.098v-.001h-.195v.001h.195zm1.104-.1l-1.202.002v.196l1.203-.003v-.195zm-.097-.147v.245h.195v-.245h-.195z" fill="#000"/>
    <g filter="url(#l)">
        <ellipse cx="3.941" cy="4.608" rx="3.941" ry="4.608" transform="matrix(1 0 .00005 1 66.574 114.666)" fill="#D5FF5C"/>
    </g>
    <ellipse cx="3.941" cy="4.608" rx="3.941" ry="4.608" transform="matrix(1 0 .00005 1 66.574 114.666)" stroke="#000" stroke-width=".195"/>
    <path fill-rule="evenodd" clip-rule="evenodd" d="M70.822 116.402a.493.493 0 00-.405.487l.007 1.115v.001l.006.849a.19.19 0 01-.163.188.144.144 0 01-.166-.145l-.002-.424-.006-1.023c-.001-.237-.184-.404-.409-.371a.5.5 0 00-.407.49l.008 2.262-.21-.119c-.278-.156-.655-.077-.912.189-.13.135-.19.352-.037.405l.187.07a.93.93 0 01.453.359c.078.097.153.2.23.305.24.332.493.678.854.873.56.311 1.288.251 1.875-.161.397-.281.643-.709.882-1.123.057-.098.113-.196.17-.291.116-.237.296-.436.516-.57l.213-.133c.142-.087.084-.283-.036-.386-.237-.21-.592-.21-.859 0l-.205.16a408.83 408.83 0 01-.031-2.245c-.002-.239-.185-.409-.41-.384a.48.48 0 00-.403.479c.001.201.003.401.006.6v.001c.002.284.005.569.009.853a.191.191 0 01-.163.189.147.147 0 01-.165-.15l-.005-.426c-.005-.512-.01-1.027-.013-1.543-.001-.24-.184-.411-.409-.381zm1.23 3.899s-.348.817-1.15.845c-.77.026-1.179-.613-1.179-.613s.576-.875 1.282-.873c.745 0 1.048.641 1.048.641z" fill="#000" fill-opacity=".47"/>
    <path d="M70.417 116.889h-.097.097zm.405-.487l.013.096-.013-.096zm-.398 1.602h.097v-.001l-.097.001zm0 .001h-.097.097zm.006.849h-.097v.001l.097-.001zm-.163.188l-.013-.096.013.096zm-.166-.145h-.097v.001l.097-.001zm-.002-.424h-.097.097zm-.006-1.023l-.097.001.097-.001zm-.409-.371l-.014-.096.014.096zm-.407.49h.097-.097zm.008 2.262l-.049.084.146.085v-.169h-.097zm-.21-.119l-.047.085.047-.085zm-.912.189l-.07-.068v.001l.07.067zm-.037.405l.033-.091h-.001l-.032.091zm.187.07l-.034.091.034-.091zm.453.359l-.08.054.004.007.076-.061zm.23.305l.078-.057-.078.057zm.854.873l.047-.085-.001-.001-.046.086zm1.875-.161l.056.079-.056-.079zm.882-1.123l-.084-.048.084.048zm.17-.291l.084.051.004-.009-.087-.042zm.516-.57l.05.083.001-.001-.051-.082zm.213-.133l-.051-.082.05.082zm-.036-.386l-.065.072.001.001.064-.073zm-.859 0l-.06-.077v.001l.06.076zm-.205.16l-.097.002.004.194.153-.119-.06-.077zm-.031-2.245l-.097.001.097-.001zm-.41-.384l-.011-.096.01.096zm-.403.479l.097-.001-.097.001zm.006.6h.097v-.001l-.097.001zm0 .001h-.097v.001l.097-.001zm.009.853l.097-.001-.097.001zm-.163.189l-.011-.097.01.097zm-.165-.15l-.098.002.098-.002zm-.005-.426l-.097.001.097-.001zm-.013-1.543h-.097v.001l.097-.001zm-.329 4.363l.004.097-.004-.097zm1.15-.845l.09.038.017-.04-.018-.04-.088.042zm-2.329.232l-.08-.053-.035.053.033.053.082-.053zm1.282-.873v.097-.097zm-.491-2.772c-.001-.193.147-.367.321-.39l-.026-.192c-.278.037-.49.301-.49.583l.195-.001zm.007 1.115l-.007-1.115-.194.001.007 1.115.194-.001zm0 .002v-.001h-.194v.001h.194zm.006.848l-.006-.849-.194.001.006.849.194-.001zm-.248.286a.289.289 0 00.248-.286l-.194.002a.094.094 0 01-.079.091l.025.193zm-.275-.241c.002.149.127.26.275.241l-.025-.193c-.03.004-.055-.015-.056-.05l-.194.002zm-.002-.425l.002.424.194-.001-.002-.424-.194.001zm-.006-1.022l.006 1.022.194-.001-.006-1.022-.194.001zm-.298-.276c.161-.024.297.092.298.276l.194-.001c-.001-.291-.231-.509-.52-.467l.028.192zm-.324.394a.404.404 0 01.325-.394l-.03-.192a.598.598 0 00-.49.587l.195-.001zm.008 2.262l-.008-2.262h-.195l.009 2.262h.194zm-.354-.034l.208.118.097-.168-.21-.12-.095.17zm-.795.172c.233-.242.563-.302.794-.172l.096-.169c-.326-.183-.749-.084-1.03.205l.14.136zm-.075.246c-.015-.005-.019-.012-.021-.016a.091.091 0 01-.003-.05.368.368 0 01.099-.181l-.14-.134a.553.553 0 00-.15.285.279.279 0 00.018.161.226.226 0 00.133.118l.064-.183zm.19.07l-.189-.07-.067.182.187.07.068-.182zm.5.396a1.03 1.03 0 00-.5-.396l-.069.182a.834.834 0 01.407.322l.161-.108zm.226.302a8.519 8.519 0 00-.232-.309l-.151.122c.075.094.15.196.226.301l.157-.114zm.822.844c-.338-.182-.578-.509-.822-.844l-.157.114c.238.328.503.694.886.901l.093-.171zm1.773-.155c-.56.394-1.249.446-1.772.156l-.095.169c.597.332 1.365.265 1.979-.166l-.112-.159zm.854-1.091c-.24.417-.478.825-.854 1.092l.112.158c.417-.296.673-.743.91-1.153l-.168-.097zm.172-.294a9.423 9.423 0 00-.172.294l.168.097c.057-.099.113-.196.17-.29l-.166-.101zm.547-.602a1.47 1.47 0 00-.551.61l.174.085c.108-.22.274-.405.478-.529l-.1-.166zm.213-.132l-.214.133.103.164.213-.132-.102-.165zm-.049-.231a.254.254 0 01.084.142c.007.043-.004.07-.035.089l.102.165a.271.271 0 00.125-.285.45.45 0 00-.149-.258l-.127.147zm-.735.003c.234-.184.537-.179.734-.004l.13-.145c-.276-.244-.684-.239-.984-.004l.12.153zm-.205.161l.206-.161-.121-.152-.204.16.119.153zm-.188-2.321c.008.752.019 1.501.031 2.246l.194-.003c-.012-.745-.023-1.493-.031-2.245l-.194.002zm-.302-.288c.162-.019.3.101.302.288l.194-.002c-.003-.291-.231-.512-.518-.479l.022.193zm-.317.381c-.002-.192.145-.361.317-.381l-.023-.193a.577.577 0 00-.488.576l.194-.002zm.006.6a59.71 59.71 0 01-.006-.6l-.194.002c.001.2.003.401.006.6l.194-.002zm0 .002v-.001h-.194v.001h.194zm.009.852l-.01-.853-.193.002c.002.284.005.569.009.853l.194-.002zm-.249.286a.286.286 0 00.249-.286l-.194.002c0 .046-.037.087-.077.091l.022.193zm-.274-.244a.244.244 0 00.274.244l-.022-.193c-.03.004-.057-.016-.058-.054l-.194.003zm-.004-.427l.004.427.195-.003-.005-.426-.194.002zm-.013-1.543l.013 1.543.194-.002-.013-1.543-.194.002zm-.299-.286c.16-.021.298.097.299.285l.194-.001c-.001-.291-.23-.515-.519-.476l.026.192zm.07 4.745c.437-.015.747-.246.945-.465a1.87 1.87 0 00.273-.399l.014-.029a.111.111 0 00.005-.01v-.001l-.09-.038-.088-.039v.002l-.003.005-.012.024c-.01.02-.025.05-.047.087-.043.072-.108.17-.196.268-.177.196-.442.388-.807.401l.007.194zm-1.182-.71l-.081.053v.001l.002.002a.034.034 0 01.004.006l.016.023a1.502 1.502 0 00.3.308c.21.166.527.331.942.317l-.007-.194a1.231 1.231 0 01-.815-.276 1.432 1.432 0 01-.276-.287l-.002-.004v-.001l-.083.052zm1.282-.97c-.391-.001-.735.239-.972.462a3.075 3.075 0 00-.383.444l-.006.008-.001.002v.001l.08.053.081.054.002-.002.004-.007a.48.48 0 00.018-.026l.072-.095a2.76 2.76 0 01.266-.29c.227-.214.524-.411.838-.41v-.194zm1.048.738l.088-.042v-.001l-.002-.002-.003-.007-.013-.023a1.384 1.384 0 00-.248-.316 1.238 1.238 0 00-.87-.347v.194c.342 0 .581.146.737.294a1.214 1.214 0 01.22.287l.003.003v.001l.088-.041z" fill="#000"/>
    <path fill-rule="evenodd" clip-rule="evenodd" d="M71.006 120.826a.416.416 0 100-.832.416.416 0 000 .832zm.225-.416a.13.13 0 100-.26.13.13 0 000 .26z" fill="#000"/>
    <path d="M80.825 123.147c-.6 0-1.135-.09-1.603-.27-.462-.186-.835-.435-1.117-.748a1.995 1.995 0 01-.513-1.044h1.91a.982.982 0 00.432.405c.204.108.483.162.837.162.42 0 .763-.075 1.027-.225.27-.15.471-.369.603-.658.139-.294.208-.648.208-1.062 0-.475-.072-.868-.216-1.18a1.492 1.492 0 00-.64-.703c-.276-.156-.61-.234-1-.234a1.8 1.8 0 00-.666.108.99.99 0 00-.406.288.624.624 0 00-.135.397c0 .162.045.3.135.414.09.114.223.204.397.27.174.06.387.09.64.09.341 0 .672-.069.99-.207.318-.144.615-.366.892-.666l.684.45c-.18.372-.414.702-.702.991a3.18 3.18 0 01-1.036.684c-.397.162-.853.243-1.37.243-.564 0-1.05-.093-1.458-.279a2.152 2.152 0 01-.937-.774 2.1 2.1 0 01-.333-1.144c.006-.457.135-.862.387-1.216.258-.361.634-.643 1.126-.847.498-.204 1.108-.306 1.828-.306.847 0 1.546.15 2.099.45.558.3.976.718 1.252 1.252.282.529.42 1.135.414 1.82.006.684-.132 1.294-.414 1.828-.276.534-.69.955-1.243 1.261-.553.3-1.243.45-2.072.45zm8.146 0c-.6 0-1.135-.09-1.603-.27-.462-.186-.835-.435-1.117-.748a1.995 1.995 0 01-.513-1.044h1.91a.981.981 0 00.431.405c.205.108.484.162.838.162.42 0 .763-.075 1.027-.225.27-.15.471-.369.603-.658.139-.294.207-.648.207-1.062 0-.475-.072-.868-.216-1.18a1.492 1.492 0 00-.64-.703c-.275-.156-.609-.234-.999-.234a1.8 1.8 0 00-.666.108.99.99 0 00-.406.288.623.623 0 00-.135.397c0 .162.045.3.135.414a.89.89 0 00.397.27c.174.06.387.09.64.09.341 0 .672-.069.99-.207.318-.144.615-.366.892-.666l.684.45a3.62 3.62 0 01-.703.991 3.18 3.18 0 01-1.035.684c-.397.162-.853.243-1.37.243-.564 0-1.05-.093-1.458-.279-.409-.186-.721-.444-.937-.774a2.1 2.1 0 01-.333-1.144c.006-.457.135-.862.387-1.216.258-.361.633-.643 1.126-.847.498-.204 1.108-.306 1.828-.306.847 0 1.546.15 2.099.45.558.3.975.718 1.252 1.252.282.529.42 1.135.414 1.82.006.684-.132 1.294-.414 1.828-.276.534-.69.955-1.243 1.261-.553.3-1.243.45-2.072.45zm8.146 0c-.6 0-1.135-.09-1.603-.27-.462-.186-.835-.435-1.117-.748a1.994 1.994 0 01-.513-1.044h1.909a.982.982 0 00.432.405c.205.108.484.162.838.162.42 0 .763-.075 1.027-.225.27-.15.471-.369.603-.658.138-.294.207-.648.207-1.062 0-.475-.072-.868-.216-1.18a1.491 1.491 0 00-.64-.703c-.275-.156-.609-.234-.999-.234a1.8 1.8 0 00-.666.108.99.99 0 00-.406.288.623.623 0 00-.135.397c0 .162.045.3.135.414a.89.89 0 00.397.27c.174.06.387.09.639.09.342 0 .672-.069.99-.207.319-.144.616-.366.892-.666l.685.45a3.62 3.62 0 01-.703.991 3.181 3.181 0 01-1.035.684c-.397.162-.853.243-1.37.243-.564 0-1.05-.093-1.459-.279-.408-.186-.72-.444-.936-.774a2.1 2.1 0 01-.333-1.144c.006-.457.135-.862.387-1.216.258-.361.633-.643 1.126-.847.498-.204 1.108-.306 1.828-.306.847 0 1.546.15 2.099.45.558.3.975.718 1.252 1.252.282.529.42 1.135.414 1.82.006.684-.132 1.294-.414 1.828a3.001 3.001 0 01-1.243 1.261c-.553.3-1.243.45-2.072.45zm4.768-.153v-3.94h1.213v2.979l-.315-.258 2.096-2.721h1.282l-3.168 3.94h-1.108zm1.886-1.844l.898-.725 1.55 2.569h-1.387l-1.061-1.844z" fill="#000"/>
    <path fill-rule="evenodd" clip-rule="evenodd" d="M107.277 122.698l2.576-4.358h.442l-2.541 4.358h-.477z" fill="#000"/>
    <mask id="b" maskUnits="userSpaceOnUse" x="110.301" y="118.012" width="20" height="5" fill="#000">
        <path fill="#fff" d="M110.301 118.012h20v5h-20z"/>
        <path d="M112.822 122.012h-.41v-2.898l-1.089.191v-.333l1.187-.229h.312v3.269zm2.54.056c-.344 0-.643-.069-.895-.209a1.435 1.435 0 01-.58-.593c-.134-.254-.2-.55-.2-.889 0-.338.066-.634.2-.889.135-.254.328-.451.58-.59.252-.141.551-.212.895-.212a1.8 1.8 0 01.894.212c.252.139.446.337.579.593.134.254.201.549.201.886 0 .339-.067.636-.201.892a1.407 1.407 0 01-.579.59 1.81 1.81 0 01-.894.209zm-1.259-1.691c0 .281.049.522.148.724.1.202.245.356.434.462.188.106.414.159.677.159.263 0 .488-.053.676-.159.189-.106.332-.26.431-.462.101-.202.151-.443.151-.724a1.6 1.6 0 00-.151-.723 1.038 1.038 0 00-.431-.462 1.355 1.355 0 00-.676-.159c-.263 0-.489.053-.677.159a1.05 1.05 0 00-.434.462 1.628 1.628 0 00-.148.723zm5.299 1.691c-.344 0-.642-.069-.895-.209a1.435 1.435 0 01-.58-.593 1.89 1.89 0 01-.2-.889c0-.338.067-.634.2-.889.135-.254.328-.451.58-.59.253-.141.551-.212.895-.212.345 0 .643.071.894.212.253.139.446.337.579.593.134.254.201.549.201.886 0 .339-.067.636-.201.892a1.402 1.402 0 01-.579.59c-.251.14-.549.209-.894.209zm-1.259-1.691c0 .281.049.522.148.724.1.202.245.356.434.462.189.106.414.159.677.159.263 0 .489-.053.676-.159.189-.106.333-.26.431-.462.101-.202.151-.443.151-.724a1.6 1.6 0 00-.151-.723 1.033 1.033 0 00-.431-.462 1.352 1.352 0 00-.676-.159c-.263 0-.488.053-.677.159a1.05 1.05 0 00-.434.462 1.628 1.628 0 00-.148.723zm5.3 1.691a1.82 1.82 0 01-.896-.209 1.44 1.44 0 01-.58-.593 1.89 1.89 0 01-.2-.889c0-.338.067-.634.2-.889.135-.254.329-.451.58-.59a1.81 1.81 0 01.896-.212c.344 0 .642.071.893.212.253.139.446.337.58.593.133.254.2.549.2.886 0 .339-.067.636-.2.892a1.41 1.41 0 01-.58.59c-.251.14-.549.209-.893.209zm-1.26-1.691c0 .281.049.522.148.724.1.202.245.356.434.462.189.106.415.159.678.159.262 0 .488-.053.675-.159a1.04 1.04 0 00.432-.462c.1-.202.15-.443.15-.724 0-.28-.05-.521-.15-.723a1.04 1.04 0 00-.432-.462 1.35 1.35 0 00-.675-.159c-.263 0-.489.053-.678.159a1.05 1.05 0 00-.434.462 1.628 1.628 0 00-.148.723zm3.783-1.634h.41v2.667l2.218-2.667h.455l-1.165 1.399 1.216 1.87h-.473l-1.014-1.545-1.287 1.545h-.36v-3.269z"/>
    </mask>
    <path d="M112.822 122.012h-.41v-2.898l-1.089.191v-.333l1.187-.229h.312v3.269zm2.54.056c-.344 0-.643-.069-.895-.209a1.435 1.435 0 01-.58-.593c-.134-.254-.2-.55-.2-.889 0-.338.066-.634.2-.889.135-.254.328-.451.58-.59.252-.141.551-.212.895-.212a1.8 1.8 0 01.894.212c.252.139.446.337.579.593.134.254.201.549.201.886 0 .339-.067.636-.201.892a1.407 1.407 0 01-.579.59 1.81 1.81 0 01-.894.209zm-1.259-1.691c0 .281.049.522.148.724.1.202.245.356.434.462.188.106.414.159.677.159.263 0 .488-.053.676-.159.189-.106.332-.26.431-.462.101-.202.151-.443.151-.724a1.6 1.6 0 00-.151-.723 1.038 1.038 0 00-.431-.462 1.355 1.355 0 00-.676-.159c-.263 0-.489.053-.677.159a1.05 1.05 0 00-.434.462 1.628 1.628 0 00-.148.723zm5.299 1.691c-.344 0-.642-.069-.895-.209a1.435 1.435 0 01-.58-.593 1.89 1.89 0 01-.2-.889c0-.338.067-.634.2-.889.135-.254.328-.451.58-.59.253-.141.551-.212.895-.212.345 0 .643.071.894.212.253.139.446.337.579.593.134.254.201.549.201.886 0 .339-.067.636-.201.892a1.402 1.402 0 01-.579.59c-.251.14-.549.209-.894.209zm-1.259-1.691c0 .281.049.522.148.724.1.202.245.356.434.462.189.106.414.159.677.159.263 0 .489-.053.676-.159.189-.106.333-.26.431-.462.101-.202.151-.443.151-.724a1.6 1.6 0 00-.151-.723 1.033 1.033 0 00-.431-.462 1.352 1.352 0 00-.676-.159c-.263 0-.488.053-.677.159a1.05 1.05 0 00-.434.462 1.628 1.628 0 00-.148.723zm5.3 1.691a1.82 1.82 0 01-.896-.209 1.44 1.44 0 01-.58-.593 1.89 1.89 0 01-.2-.889c0-.338.067-.634.2-.889.135-.254.329-.451.58-.59a1.81 1.81 0 01.896-.212c.344 0 .642.071.893.212.253.139.446.337.58.593.133.254.2.549.2.886 0 .339-.067.636-.2.892a1.41 1.41 0 01-.58.59c-.251.14-.549.209-.893.209zm-1.26-1.691c0 .281.049.522.148.724.1.202.245.356.434.462.189.106.415.159.678.159.262 0 .488-.053.675-.159a1.04 1.04 0 00.432-.462c.1-.202.15-.443.15-.724 0-.28-.05-.521-.15-.723a1.04 1.04 0 00-.432-.462 1.35 1.35 0 00-.675-.159c-.263 0-.489.053-.678.159a1.05 1.05 0 00-.434.462 1.628 1.628 0 00-.148.723zm3.783-1.634h.41v2.667l2.218-2.667h.455l-1.165 1.399 1.216 1.87h-.473l-1.014-1.545-1.287 1.545h-.36v-3.269z" fill="#000"/>
    <path d="M112.822 122.012v.189h.19v-.189h-.19zm-.41 0h-.19v.189h.19v-.189zm0-2.898h.19v-.227l-.223.04.033.187zm-1.089.191h-.19v.226l.222-.039-.032-.187zm0-.333l-.036-.186-.154.029v.157h.19zm1.187-.229v-.19h-.018l-.018.004.036.186zm.312 0h.19v-.19h-.19v.19zm0 3.079h-.41v.379h.41v-.379zm-.22.19v-2.898h-.38v2.898h.38zm-.223-3.085l-1.089.191.065.374 1.09-.192-.066-.373zm-.867.378v-.333h-.379v.333h.379zm-.154-.147l1.188-.229-.072-.372-1.187.229.071.372zm1.152-.225h.312v-.38h-.312v.38zm.122-.19v3.269h.38v-3.269h-.38zm1.835 3.116l-.093.166h.001l.092-.166zm-.58-.593l-.168.089v.001l.168-.09zm0-1.778l-.168-.089v.001l.168.088zm.58-.59l.092.166-.092-.166zm1.789 0l-.093.165.001.001.092-.166zm.579.593l-.168.087v.001l.168-.088zm0 1.778l.168.088h.001l-.169-.088zm-.579.59l-.092-.166.092.166zm-2.005-.758l-.17.083v.001l.17-.084zm.434.462l.093-.166-.093.166zm1.353 0l-.093-.166-.001.001.094.165zm.431-.462l-.17-.085v.001l.17.084zm0-1.447l-.17.083v.001l.17-.084zm-.431-.462l-.094.165h.001l.093-.165zm-1.353 0l.093.165-.093-.165zm-.434.462l-.17-.084v.001l.17.083zm1.111 2.225c-.318 0-.584-.065-.804-.186l-.183.332c.286.158.617.233.987.233v-.379zm-.803-.185a1.255 1.255 0 01-.504-.517l-.336.179c.153.286.372.51.655.669l.185-.331zm-.504-.516a1.692 1.692 0 01-.179-.801h-.379c0 .364.072.692.222.978l.336-.177zm-.179-.801c0-.313.062-.578.179-.8l-.336-.177c-.15.286-.222.614-.222.977h.379zm.179-.8c.118-.222.285-.392.504-.513l-.184-.332a1.621 1.621 0 00-.656.667l.336.178zm.504-.513c.22-.123.485-.188.803-.188v-.379c-.37 0-.702.076-.988.235l.185.332zm.803-.188c.318 0 .583.065.801.187l.186-.331a1.996 1.996 0 00-.987-.235v.379zm.802.188c.22.121.387.292.503.514l.337-.175a1.592 1.592 0 00-.657-.671l-.183.332zm.503.515c.117.222.179.487.179.798h.38a2.06 2.06 0 00-.223-.975l-.336.177zm.179.798c0 .314-.062.58-.179.804l.337.176c.15-.288.222-.616.222-.98h-.38zm-.179.803a1.214 1.214 0 01-.503.513l.183.332a1.6 1.6 0 00.656-.668l-.336-.177zm-.503.513a1.626 1.626 0 01-.802.186v.379c.37 0 .701-.075.986-.233l-.184-.332zm-2.251-1.316c0 .303.053.574.168.807l.34-.167a1.446 1.446 0 01-.128-.64h-.38zm.168.808c.116.235.287.418.511.543l.186-.331a.852.852 0 01-.357-.381l-.34.169zm.511.543c.222.125.482.184.77.184v-.38a1.17 1.17 0 01-.584-.135l-.186.331zm.77.184c.289 0 .548-.059.769-.184l-.187-.33a1.168 1.168 0 01-.582.134v.38zm.769-.184a1.23 1.23 0 00.509-.544l-.341-.167a.849.849 0 01-.354.38l.186.331zm.508-.543a1.8 1.8 0 00.17-.808h-.379c0 .258-.046.469-.131.639l.34.169zm.17-.808c0-.302-.054-.574-.17-.807l-.34.168c.085.17.131.381.131.639h.379zm-.169-.806a1.225 1.225 0 00-.509-.544l-.186.33a.859.859 0 01.354.38l.341-.166zm-.509-.544a1.53 1.53 0 00-.769-.184v.38c.238 0 .429.047.582.134l.187-.33zm-.769-.184a1.54 1.54 0 00-.77.184l.186.33a1.17 1.17 0 01.584-.134v-.38zm-.77.184a1.232 1.232 0 00-.511.543l.34.168a.862.862 0 01.357-.381l-.186-.33zm-.511.544a1.805 1.805 0 00-.168.806h.38c0-.258.045-.469.128-.64l-.34-.166zm4.426 2.288l-.093.166h.001l.092-.166zm-.58-.593l-.168.089.001.001.167-.09zm0-1.778l-.167-.089-.001.001.168.088zm.58-.59l.092.166-.092-.166zm1.789 0l-.093.165.001.001.092-.166zm.579.593l-.168.087.001.001.167-.088zm0 1.778l.168.088h.001l-.169-.088zm-.579.59l-.092-.166.092.166zm-2.005-.758l-.17.083v.001l.17-.084zm.434.462l.093-.166-.093.166zm1.353 0l-.093-.166-.001.001.094.165zm.431-.462l-.17-.085v.001l.17.084zm0-1.447l-.17.083v.001l.17-.084zm-.431-.462l-.094.165h.001l.093-.165zm-1.353 0l.093.165-.093-.165zm-.434.462l-.17-.084v.001l.17.083zm1.111 2.225c-.318 0-.584-.065-.804-.186l-.183.332c.286.158.617.233.987.233v-.379zm-.802-.185a1.252 1.252 0 01-.505-.517l-.335.179c.152.286.371.51.654.669l.186-.331zm-.505-.516a1.692 1.692 0 01-.179-.801h-.379c0 .364.072.692.222.978l.336-.177zm-.179-.801c0-.313.062-.578.179-.8l-.336-.177c-.15.286-.222.614-.222.977h.379zm.179-.8c.118-.222.285-.392.504-.513l-.184-.332a1.613 1.613 0 00-.655.667l.335.178zm.504-.513c.22-.123.485-.188.803-.188v-.379c-.37 0-.702.076-.988.235l.185.332zm.803-.188c.319 0 .583.065.801.187l.186-.331a1.996 1.996 0 00-.987-.235v.379zm.802.188c.22.121.387.292.503.514l.337-.175a1.596 1.596 0 00-.656-.671l-.184.332zm.504.515c.117.222.178.487.178.798h.38a2.06 2.06 0 00-.223-.975l-.335.177zm.178.798c0 .314-.061.58-.179.804l.337.176c.15-.288.222-.616.222-.98h-.38zm-.178.803a1.222 1.222 0 01-.504.513l.184.332c.285-.157.504-.381.655-.668l-.335-.177zm-.504.513a1.626 1.626 0 01-.802.186v.379c.371 0 .701-.075.986-.233l-.184-.332zm-2.251-1.316c0 .303.053.574.168.807l.341-.167a1.431 1.431 0 01-.129-.64h-.38zm.168.808c.117.235.287.418.511.543l.186-.331a.852.852 0 01-.357-.381l-.34.169zm.511.543c.223.125.482.184.77.184v-.38c-.237 0-.429-.048-.584-.135l-.186.331zm.77.184c.289 0 .548-.059.769-.184l-.187-.33a1.168 1.168 0 01-.582.134v.38zm.769-.184c.224-.125.394-.309.509-.544l-.341-.167a.849.849 0 01-.354.38l.186.331zm.508-.543a1.8 1.8 0 00.171-.808h-.38c0 .258-.046.469-.131.639l.34.169zm.171-.808c0-.302-.055-.574-.171-.807l-.34.168c.085.17.131.381.131.639h.38zm-.17-.806a1.22 1.22 0 00-.509-.544l-.186.33a.859.859 0 01.354.38l.341-.166zm-.509-.544a1.53 1.53 0 00-.769-.184v.38c.238 0 .429.047.582.134l.187-.33zm-.769-.184c-.288 0-.547.058-.77.184l.186.33c.155-.087.347-.134.584-.134v-.38zm-.77.184a1.238 1.238 0 00-.511.543l.34.168a.862.862 0 01.357-.381l-.186-.33zm-.511.544a1.805 1.805 0 00-.168.806h.38c0-.258.045-.469.129-.64l-.341-.166zm4.426 2.288l-.093.166h.001l.092-.166zm-.58-.593l-.168.089.001.001.167-.09zm0-1.778l-.167-.089-.001.001.168.088zm.58-.59l.092.166-.092-.166zm1.789 0l-.093.165.001.001.092-.166zm.58.593l-.169.087.001.001.168-.088zm0 1.778l.168.088-.168-.088zm-.58.59l-.092-.166.092.166zm-2.005-.758l-.17.083v.001l.17-.084zm.434.462l.093-.166-.093.166zm1.353 0l-.093-.166v.001l.093.165zm.432-.462l-.17-.085-.001.001.171.084zm0-1.447l-.171.083.001.001.17-.084zm-.432-.462l-.093.165.093-.165zm-1.353 0l.093.165-.093-.165zm-.434.462l-.17-.084v.001l.17.083zm1.112 2.225c-.319 0-.585-.065-.804-.186l-.184.332c.286.158.617.233.988.233v-.379zm-.803-.185a1.252 1.252 0 01-.505-.517l-.335.179c.152.286.371.51.654.669l.186-.331zm-.505-.516a1.692 1.692 0 01-.178-.801h-.38c0 .364.072.692.222.978l.336-.177zm-.178-.801c0-.313.061-.578.178-.8l-.336-.177c-.15.286-.222.614-.222.977h.38zm.178-.8c.118-.222.285-.392.504-.513l-.184-.332a1.613 1.613 0 00-.655.667l.335.178zm.504-.513c.22-.123.485-.188.804-.188v-.379a2 2 0 00-.988.235l.184.332zm.804-.188c.318 0 .582.065.8.187l.186-.331a1.995 1.995 0 00-.986-.235v.379zm.801.188c.22.121.387.292.503.514l.337-.175a1.596 1.596 0 00-.656-.671l-.184.332zm.504.515c.117.222.178.487.178.798h.38c0-.362-.072-.689-.222-.975l-.336.177zm.178.798c0 .314-.061.58-.179.804l.337.176c.15-.288.222-.616.222-.98h-.38zm-.178.803a1.222 1.222 0 01-.504.513l.184.332a1.6 1.6 0 00.656-.668l-.336-.177zm-.504.513a1.624 1.624 0 01-.801.186v.379a2 2 0 00.985-.233l-.184-.332zm-2.251-1.316c0 .303.054.574.168.807l.341-.167a1.431 1.431 0 01-.129-.64h-.38zm.168.808c.117.235.287.418.511.543l.186-.331a.857.857 0 01-.357-.381l-.34.169zm.511.543c.223.125.482.184.771.184v-.38c-.238 0-.43-.048-.585-.135l-.186.331zm.771.184c.288 0 .547-.059.769-.184l-.187-.33a1.173 1.173 0 01-.582.134v.38zm.768-.184c.224-.125.394-.309.509-.544l-.341-.167a.843.843 0 01-.354.38l.186.331zm.508-.543c.117-.234.171-.505.171-.808h-.38c0 .258-.046.469-.13.639l.339.169zm.171-.808c0-.302-.054-.574-.171-.807l-.339.168c.084.17.13.381.13.639h.38zm-.17-.806a1.22 1.22 0 00-.509-.544l-.186.33a.853.853 0 01.354.38l.341-.166zm-.508-.544a1.536 1.536 0 00-.769-.184v.38c.237 0 .428.047.582.134l.187-.33zm-.769-.184c-.289 0-.548.058-.771.184l.186.33c.155-.087.347-.134.585-.134v-.38zm-.771.184a1.238 1.238 0 00-.511.543l.34.168a.868.868 0 01.357-.381l-.186-.33zm-.511.544a1.819 1.819 0 00-.168.806h.38c0-.258.045-.469.129-.64l-.341-.166zm3.805-.828v-.19h-.19v.19h.19zm.41 0h.189v-.19h-.189v.19zm0 2.667h-.19v.525l.336-.403-.146-.122zm2.218-2.667v-.19h-.089l-.057.069.146.121zm.455 0l.146.122.26-.312h-.406v.19zm-1.165 1.399l-.146-.121-.09.107.077.118.159-.104zm1.216 1.87v.189h.349l-.19-.293-.159.104zm-.473 0l-.159.104.056.085h.103v-.189zm-1.014-1.545l.159-.104-.14-.214-.164.196.145.122zm-1.287 1.545v.189h.088l.057-.068-.145-.121zm-.36 0h-.19v.189h.19v-.189zm0-3.079h.41v-.38h-.41v.38zm.22-.19v2.667h.379v-2.667h-.379zm.336 2.789l2.218-2.668-.292-.242-2.218 2.667.292.243zm2.072-2.599h.455v-.38h-.455v.38zm.31-.311l-1.166 1.399.291.243 1.166-1.399-.291-.243zm-1.179 1.624l1.215 1.869.319-.207-1.216-1.869-.318.207zm1.375 1.576h-.473v.379h.473v-.379zm-.315.086l-1.013-1.545-.317.208 1.013 1.545.317-.208zm-1.317-1.563l-1.288 1.545.291.243 1.288-1.545-.291-.243zm-1.142 1.477h-.36v.379h.36v-.379zm-.17.19v-3.269h-.38v3.269h.38z" fill="#000" mask="url(#b)"/>
    <g clip-path="url(#n)">
        <rect x="65.375" y="127.057" width="68.39" height="4.023" rx="2.011" fill="#000"/>
        <path d="M65.71 129.069c0-.926.751-1.676 1.677-1.676h46.599a1.676 1.676 0 110 3.352H67.387c-.926 0-1.676-.75-1.676-1.676z" fill="#D5FF5C" stroke="#000" stroke-width=".661"/>
    </g>
    <rect x="65.71" y="127.392" width="67.719" height="3.352" rx="1.676" stroke="#000" stroke-width=".67"/>
    <rect x="65.375" y="133.426" width="41.235" height="7.711" rx="2.347" fill="#000" fill-opacity=".05"/>
    <rect x="94.632" y="134.521" width="5.185" height="5.185" rx=".626" fill="url(#o)" stroke="#415800" stroke-width=".179"/>
    <rect x="95.065" y="136.276" width="3.857" height="2.648" rx=".295" transform="rotate(-12.802 95.065 136.276)" fill="url(#p)" stroke="#D5FF5C" stroke-width=".147"/>
    <g opacity=".2">
        <g filter="url(#q)">
            <path fill-rule="evenodd" clip-rule="evenodd" d="M97.873 137.262c-.023.037-.077.035-.103.001a.065.065 0 01-.01-.023l-.15-.665a.147.147 0 00-.175-.113.15.15 0 00-.11.179l.076.336a.045.045 0 01-.047.053.044.044 0 01-.039-.033l-.121-.54a.147.147 0 00-.175-.113.148.148 0 00-.11.178l.121.54a.045.045 0 01-.02.047.044.044 0 01-.065-.027l-.076-.337a.146.146 0 10-.284.066l.149.664a.059.059 0 010 .025c-.008.042-.055.067-.09.044l-.066-.042a.144.144 0 00-.201.046.151.151 0 00.046.206l.515.331a.574.574 0 00.888-.186l.336-.544a.152.152 0 00-.047-.206.144.144 0 00-.201.046l-.041.067z" fill="#D5FF5C"/>
        </g>
        <path clip-rule="evenodd" d="M97.873 137.262c-.023.037-.077.035-.103.001a.065.065 0 01-.01-.023l-.15-.665a.147.147 0 00-.175-.113.15.15 0 00-.11.179l.076.336a.045.045 0 01-.047.053.044.044 0 01-.039-.033l-.121-.54a.147.147 0 00-.175-.113.148.148 0 00-.11.178l.121.54a.045.045 0 01-.02.047.044.044 0 01-.065-.027l-.076-.337a.146.146 0 10-.284.066l.149.664a.059.059 0 010 .025c-.008.042-.055.067-.09.044l-.066-.042a.144.144 0 00-.201.046.151.151 0 00.046.206l.515.331a.574.574 0 00.888-.186l.336-.544a.152.152 0 00-.047-.206.144.144 0 00-.201.046l-.041.067z" stroke="#A1A1A1" stroke-width=".074"/>
    </g>
    <path d="M96.954 137.676l-.112.025.152-.813.28-.063-.2.952-.304.069-.591-.772.286-.065.489.667zm.394-.868l.268-.061.196.862-.268.061-.196-.862zm.91-.207a.464.464 0 01.201-.006.284.284 0 01.228.23.309.309 0 01-.006.171.29.29 0 01-.1.135.467.467 0 01-.184.082l-.37.084-.047-.212.351-.08a.112.112 0 00.073-.043.088.088 0 00.013-.075c-.007-.031-.022-.052-.045-.064-.022-.012-.05-.014-.084-.006l-.328.074.093-.149.175.773-.268.06-.195-.862.493-.112z" fill="#D5FF5C"/>
    <mask id="c" style="mask-type:alpha" maskUnits="userSpaceOnUse" x="94" y="134" width="6" height="6">
        <rect x="94.543" y="134.432" width="5.364" height="5.364" rx=".715" fill="#D9D9D9"/>
    </mask>
    <g mask="url(#c)">
        <path d="M98.868 134.877l.04.18c.028.13.13.232.261.261l.18.04-.18.04a.344.344 0 00-.261.261l-.04.18-.04-.18a.344.344 0 00-.261-.261l-.18-.04.18-.04a.344.344 0 00.261-.261l.04-.18zM95.33 138.771l.02.09a.17.17 0 00.131.131l.09.02-.09.02a.17.17 0 00-.13.131l-.02.09-.02-.09a.17.17 0 00-.131-.131l-.09-.02.09-.02a.17.17 0 00.13-.131l.02-.09z" fill="#fff"/>
        <path d="M100.41 138.327c-.211.49-.741.796-1.443.885-.7.09-1.562-.038-2.42-.407-.856-.369-1.542-.908-1.958-1.478-.417-.572-.559-1.167-.348-1.657.211-.49.742-.796 1.443-.886.7-.089 1.563.039 2.42.408s1.542.908 1.958 1.478c.417.571.559 1.167.348 1.657z" stroke="url(#s)" stroke-opacity=".4" stroke-width=".089"/>
    </g>
    <path d="M67.858 139.102v-2.599h.462l1.247 1.834v-1.834h.471v2.599h-.479l-1.227-1.767v1.767h-.474zm3.691.064c-.66 0-1.017-.483-1.017-1.126 0-.652.374-1.115 1.001-1.115.564 0 .982.37.982.966v.297l-1.505.004c.033.354.222.58.547.58.27 0 .447-.169.491-.318h.471c-.04.318-.374.712-.97.712zm-.535-1.308h1.034c0-.366-.229-.539-.51-.539-.29 0-.524.173-.524.539zm3.544-.868l-.652 1.054.652 1.058h-.503l-.439-.741-.442.741h-.503l.652-1.058-.652-1.054h.503l.43.756.45-.756h.504zm1.075 2.152c-.503 0-.672-.221-.672-.636v-1.102h-.27v-.37c.238 0 .294-.105.294-.346v-.242h.45v.544h.447v.414h-.446v.981c0 .266.1.334.345.334.045 0 .085 0 .137-.004v.411a2.116 2.116 0 01-.285.016zm1.818-.04v-2.599h1.006c.58 0 .946.249.946.744 0 .378-.294.668-.769.712-.06.008-.117.008-.165.008l1.074 1.135h-.583l-1.034-1.107v1.107h-.475zm.475-1.505h.515c.241 0 .47-.097.47-.334 0-.225-.18-.346-.506-.346h-.479v.68zm2.848 1.569c-.66 0-1.018-.483-1.018-1.126 0-.652.374-1.115 1.002-1.115.563 0 .981.37.981.966v.297l-1.504.004c.032.354.221.58.547.58.27 0 .447-.169.49-.318h.471c-.04.318-.374.712-.97.712zm-.535-1.308h1.034c0-.366-.23-.539-.511-.539-.29 0-.523.173-.523.539zm2.496 1.244l-.8-2.112h.507l.527 1.581h.008l.474-1.581h.471l.479 1.581h.008l.523-1.581h.507l-.805 2.112h-.463l-.478-1.61h-.008l-.483 1.61h-.467zm3.481.044c-.527 0-.72-.326-.72-.636a.58.58 0 01.242-.483c.18-.132.47-.213 1.062-.213h.116v-.112c0-.238-.108-.395-.414-.395-.33 0-.43.169-.439.31h-.458c.008-.318.193-.688.905-.688.543 0 .885.217.885.913v1.26h-.455v-.294h-.008c-.136.217-.394.338-.716.338zm.145-.354c.378 0 .56-.246.56-.386v-.294h-.113c-.459 0-.837.076-.837.386 0 .185.14.294.39.294zm1.412.31v-2.112h.455v.398a.83.83 0 01.37-.382.9.9 0 01.394-.069v.487h-.076c-.403 0-.668.282-.668.72v.958h-.475zm2.971-3.058h.475v3.058h-.463v-.258c-.14.193-.422.322-.684.322-.563 0-.937-.451-.937-1.126 0-.668.378-1.115.95-1.115a.86.86 0 01.66.338v-1.219zm0 2.084v-.205c0-.362-.225-.604-.571-.604-.342 0-.567.286-.567.716 0 .443.229.737.575.737.338 0 .563-.258.563-.644zm1.868 1.038c-.692 0-1.002-.326-1.038-.756h.454c.06.285.254.382.592.382.217 0 .358-.081.358-.258 0-.185-.234-.249-.43-.301-.504-.129-.87-.25-.874-.68-.008-.455.399-.628.881-.628.54 0 .821.286.841.708h-.459c-.028-.269-.229-.338-.41-.338-.193 0-.41.045-.41.246 0 .181.221.237.615.33.334.08.704.181.704.635 0 .451-.297.66-.824.66z" fill="#000"/>
    <path d="M102.168 138.623l1.509-1.509-1.509-1.508" stroke="#000" stroke-width=".503" stroke-linecap="round" stroke-linejoin="round"/>
    <path d="M144.618 136.201c-.449 0-.854-.07-1.214-.208a2.264 2.264 0 01-.865-.567 1.506 1.506 0 01-.388-.801h1.562c.06.114.162.205.305.272.143.064.327.097.553.097.42 0 .736-.111.949-.332.214-.221.325-.55.332-.986a2.306 2.306 0 01-.765.5 2.674 2.674 0 01-.992.174c-.42 0-.785-.069-1.093-.208a1.628 1.628 0 01-.704-.583 1.534 1.534 0 01-.248-.851c.002-.345.101-.651.295-.919.197-.268.486-.478.868-.63.382-.152.844-.228 1.385-.228.626 0 1.152.11 1.579.332.427.221.744.529.952.925.21.393.314.85.312 1.371.002.519-.103.977-.315 1.375a2.259 2.259 0 01-.956.932c-.422.223-.94.335-1.552.335zm-.838-3.554c0 .159.067.281.201.366.134.082.324.124.57.124.199 0 .39-.032.573-.094.186-.065.366-.169.54-.312a1.025 1.025 0 00-.436-.436 1.427 1.427 0 00-.664-.144c-.165 0-.307.022-.425.067a.614.614 0 00-.269.178.387.387 0 00-.09.251zm6.975 3.554c-.449 0-.854-.07-1.214-.208a2.272 2.272 0 01-.865-.567 1.506 1.506 0 01-.388-.801h1.562c.06.114.162.205.305.272.143.064.327.097.553.097.42 0 .736-.111.949-.332.214-.221.325-.55.332-.986a2.306 2.306 0 01-.765.5 2.67 2.67 0 01-.992.174c-.42 0-.784-.069-1.093-.208a1.628 1.628 0 01-.704-.583 1.534 1.534 0 01-.248-.851c.002-.345.101-.651.295-.919.197-.268.486-.478.868-.63.383-.152.844-.228 1.385-.228.626 0 1.152.11 1.579.332.427.221.744.529.952.925.21.393.314.85.312 1.371.002.519-.103.977-.315 1.375a2.259 2.259 0 01-.956.932c-.422.223-.94.335-1.552.335zm-.838-3.554c0 .159.067.281.201.366.134.082.324.124.57.124.199 0 .39-.032.573-.094.186-.065.366-.169.54-.312a1.025 1.025 0 00-.436-.436 1.427 1.427 0 00-.664-.144c-.165 0-.307.022-.425.067a.614.614 0 00-.269.178.387.387 0 00-.09.251zm6.975 3.554c-.449 0-.854-.07-1.214-.208a2.26 2.26 0 01-.864-.567 1.5 1.5 0 01-.389-.801h1.562c.06.114.162.205.305.272.143.064.327.097.553.097.42 0 .737-.111.949-.332.214-.221.325-.55.332-.986a2.306 2.306 0 01-.765.5 2.67 2.67 0 01-.992.174c-.42 0-.784-.069-1.093-.208a1.628 1.628 0 01-.704-.583 1.534 1.534 0 01-.248-.851c.002-.345.101-.651.295-.919.197-.268.486-.478.868-.63.383-.152.844-.228 1.385-.228.626 0 1.152.11 1.579.332.427.221.744.529.952.925.21.393.314.85.312 1.371.002.519-.103.977-.315 1.375a2.259 2.259 0 01-.956.932c-.422.223-.94.335-1.552.335zm-.838-3.554c0 .159.067.281.201.366.134.082.324.124.57.124.199 0 .39-.032.573-.094.186-.065.366-.169.54-.312a1.025 1.025 0 00-.436-.436 1.427 1.427 0 00-.664-.144c-.165 0-.307.022-.425.067a.614.614 0 00-.269.178.387.387 0 00-.09.251zm6.975 3.554c-.449 0-.854-.07-1.213-.208a2.257 2.257 0 01-.865-.567 1.5 1.5 0 01-.389-.801h1.562c.06.114.162.205.305.272.143.064.327.097.553.097.42 0 .737-.111.949-.332.214-.221.325-.55.332-.986a2.306 2.306 0 01-.765.5 2.67 2.67 0 01-.992.174c-.42 0-.784-.069-1.093-.208a1.628 1.628 0 01-.704-.583 1.534 1.534 0 01-.248-.851c.002-.345.101-.651.295-.919.197-.268.486-.478.868-.63.383-.152.844-.228 1.385-.228.626 0 1.152.11 1.579.332.427.221.744.529.952.925.21.393.314.85.312 1.371.002.519-.103.977-.315 1.375a2.259 2.259 0 01-.956.932c-.422.223-.939.335-1.552.335zm-.838-3.554c0 .159.067.281.201.366.134.082.324.124.57.124.199 0 .39-.032.573-.094.186-.065.366-.169.54-.312a1.025 1.025 0 00-.436-.436 1.424 1.424 0 00-.664-.144c-.165 0-.307.022-.425.067a.61.61 0 00-.268.178.382.382 0 00-.091.251zm4.407.416h1.03v1.641l1.239-1.641h1.086l-1.005 1.259 1.046 1.758h-1.175l-.525-.943-.754.943h-.942v-3.017z" fill="#D3961F"/>
    <path d="M151.711 125.693v-3.465h1.341c.773 0 1.261.333 1.261.993 0 .504-.392.89-1.025.949-.08.011-.155.011-.22.011l1.433 1.512h-.778l-1.379-1.475v1.475h-.633zm.633-2.006h.687c.322 0 .627-.128.627-.445 0-.3-.241-.461-.675-.461h-.639v.906zm3.797 2.092c-.879 0-1.357-.643-1.357-1.502 0-.869.499-1.486 1.336-1.486.751 0 1.309.494 1.309 1.288v.397l-2.006.005c.042.472.295.773.729.773.359 0 .595-.226.654-.424h.628c-.054.424-.499.949-1.293.949zm-.713-1.743h1.378c0-.488-.305-.719-.681-.719-.386 0-.697.231-.697.719zm2.69 1.657v-2.263h-.359v-.553h.359v-.391c0-.574.215-.955.858-.955.22 0 .344.027.376.032v.515c-.027-.005-.059-.016-.166-.016-.312 0-.435.129-.435.381v.434h.569v.553h-.569v2.263h-.633zm2.706.086c-.879 0-1.357-.643-1.357-1.502 0-.869.499-1.486 1.336-1.486.751 0 1.309.494 1.309 1.288v.397l-2.007.005c.043.472.295.773.73.773.359 0 .595-.226.654-.424h.628c-.054.424-.499.949-1.293.949zm-.713-1.743h1.378c0-.488-.305-.719-.681-.719-.386 0-.697.231-.697.719zm2.518 1.657v-2.816h.607v.531c.112-.22.284-.413.493-.509.156-.07.311-.091.526-.091v.649h-.102c-.537 0-.891.375-.891.96v1.276h-.633zm1.975 0v-2.816h.606v.531c.113-.22.285-.413.494-.509.155-.07.311-.091.525-.091v.649h-.101c-.537 0-.891.375-.891.96v1.276h-.633zm2.801.059c-.703 0-.96-.434-.96-.847a.77.77 0 01.322-.644c.241-.177.627-.284 1.416-.284h.155v-.15c0-.317-.144-.526-.552-.526-.44 0-.574.225-.585.413h-.611c.01-.424.257-.917 1.207-.917.724 0 1.18.29 1.18 1.217v1.679h-.606v-.391h-.011c-.183.289-.526.45-.955.45zm.193-.472c.504 0 .746-.327.746-.515v-.391h-.15c-.612 0-1.116.102-1.116.515 0 .247.188.391.52.391zm1.93.413v-4.076h.633v4.076h-.633z" fill="#000"/>
    <g clip-path="url(#t)">
        <g filter="url(#u)">
            <path fill-rule="evenodd" clip-rule="evenodd" d="M147.71 125.247c0-.007 0-.011.002-.017.186-.8 1.395-1.73 1.525-2.541 0-.54-.911-1.239-1.721-1.05-.217.05-.803.168-1.022.219-.342.08-.594-.199-.529-.562.15-.838 1.133-.884 1.048-1.232-.101-.945-.911-1.05-1.316-1.05-.304 0-.819.362-.89.546a.877.877 0 00-.058.292c-.057 1.017-.851 1.947-1.276 2.461-.179.216-.295.48-.291.733.008.546.019 1.09.031 1.633.015.543.035 1.461.054 1.999.021.432 1.098.955 1.54.84 1.055-.262 1.396-1.156 2.414-1.396.266-.063.462-.782.489-.875zm-6.047-2.106c-.323.178-.524.369-.522.665.009 1.113.024 2.148.042 3.255.013.646.97.966 1.312.877.3-.08.322-.948.308-1.237-.038-1.093.691-2.069.67-3.172-.004-.294-.674-.63-.978-.63-.304 0-.508.064-.832.242z" fill="#FFD88C"/>
        </g>
        <path clip-rule="evenodd" d="M147.71 125.247c0-.007 0-.011.002-.017.186-.8 1.395-1.73 1.525-2.541 0-.54-.911-1.239-1.721-1.05-.217.05-.803.168-1.022.219-.342.08-.594-.199-.529-.562.15-.838 1.133-.884 1.048-1.232-.101-.945-.911-1.05-1.316-1.05-.304 0-.819.362-.89.546a.877.877 0 00-.058.292c-.057 1.017-.851 1.947-1.276 2.461-.179.216-.295.48-.291.733.008.546.019 1.09.031 1.633.015.543.035 1.461.054 1.999.021.432 1.098.955 1.54.84 1.055-.262 1.396-1.156 2.414-1.396.266-.063.462-.782.489-.875zm-6.047-2.106c-.323.178-.524.369-.522.665.009 1.113.024 2.148.042 3.255.013.646.97.966 1.312.877.3-.08.322-.948.308-1.237-.038-1.093.691-2.069.67-3.172-.004-.294-.674-.63-.978-.63-.304 0-.508.064-.832.242z" stroke="#000" stroke-width=".201"/>
        <g filter="url(#v)">
            <path fill-rule="evenodd" clip-rule="evenodd" d="M148.735 125.812c0-.006 0-.011.002-.018.188-.807.379-1.617.573-2.431l.013-.078c.111-.761-.445-1.312-1.172-1.149a98.11 98.11 0 01-.679.157c-.355.083-.616-.206-.549-.583.452-2.516-.526-2.449-.576-2.442 0 0-.002 0-.002-.002h-.002a.805.805 0 00-.681.545.94.94 0 00-.061.302c-.058 1.057-.824 2.12-1.265 2.654-.186.224-.307.498-.303.76.009.567.02 1.132.033 1.695.016.564.034 1.126.054 1.685.022.448.42.715.878.596a279.26 279.26 0 013.229-.782c.277-.065.48-.812.508-.909zm-6.278-2.411a.743.743 0 00-.543.691c.01 1.156.025 2.309.043 3.459.007.305.266.486.58.403.268-.07.295-.095.567-.166.311-.083.551-.39.536-.691a225.354 225.354 0 01-.091-3.42c-.004-.305-.253-.493-.554-.421-.261.064-.279.083-.538.145z" fill="#FFD88C"/>
        </g>
        <path clip-rule="evenodd" d="M148.735 125.812c0-.006 0-.011.002-.018.188-.807.379-1.617.573-2.431l.013-.078c.111-.761-.445-1.312-1.172-1.149a98.11 98.11 0 01-.679.157c-.355.083-.616-.206-.549-.583.452-2.516-.526-2.449-.576-2.442 0 0-.002 0-.002-.002h-.002a.805.805 0 00-.681.545.94.94 0 00-.061.302c-.058 1.057-.824 2.12-1.265 2.654-.186.224-.307.498-.303.76.009.567.02 1.132.033 1.695.016.564.034 1.126.054 1.685.022.448.42.715.878.596a279.26 279.26 0 013.229-.782c.277-.065.48-.812.508-.909zm-6.278-2.411a.743.743 0 00-.543.691c.01 1.156.025 2.309.043 3.459.007.305.266.486.58.403.268-.07.295-.095.567-.166.311-.083.551-.39.536-.691a225.354 225.354 0 01-.091-3.42c-.004-.305-.253-.493-.554-.421-.261.064-.279.083-.538.145z" stroke="#000" stroke-width=".201"/>
    </g>
    <path opacity=".1" d="M137.113 120.352v15.421" stroke="#202B02" stroke-width=".335"/>
    <path d="M169.652 147.34H67.384c-5.647 0-10.225-4.578-10.225-10.225V9.251A8.749 8.749 0 0165.908.503h99.702c5.648 0 10.225 4.578 10.225 10.225v130.428a6.184 6.184 0 01-6.183 6.184z" stroke="#000" stroke-width="1.006"/>
    <mask id="d" style="mask-type:alpha" maskUnits="userSpaceOnUse" x="62" y="6" width="108" height="104">
        <path d="M62.691 15.962c0-2.14 1.021-4.15 2.748-5.413l3.493-2.554a6.705 6.705 0 013.957-1.292h90.376a6.704 6.704 0 016.704 6.705v87.001a6.704 6.704 0 01-2.521 5.239l-3.143 2.51a6.708 6.708 0 01-4.184 1.465H69.396a6.705 6.705 0 01-6.705-6.705V15.962z" fill="#DB3D3E"/>
    </mask>
    <g mask="url(#d)">
        <path fill="#D7F793" d="M62.691 6.703H169.97v103.255H62.691z"/>
        <mask id="e" style="mask-type:alpha" maskUnits="userSpaceOnUse" x="62" y="6" width="109" height="104">
            <path d="M62.772 109.706V6.956h107.123v102.75H62.772z" fill="#DB3D3E" stroke="#D5FF5C" stroke-width=".505"/>
        </mask>
        <g mask="url(#e)">
            <path fill="#D0EC80" d="M62.695 6.703h107.278v103.255H62.695z"/>
            <path d="M146.163 46.926h-15.421M101.577 46.926h-15.42" stroke="#768F2E" stroke-width=".58" stroke-linecap="round"/>
            <path d="M89.51 34.145l13.088 7.48M95.206 24.871l10.896 11.13M104.762 17.963l5.699 13.433M143.314 34.338l-13.087 7.48M137.618 25.063l-10.895 11.13M128.062 18.154l-5.699 13.433M116.449 15.084v13.625M89.506 59.719l13.088-7.48M95.206 68.994l10.896-11.13M104.762 75.902l5.699-13.433M143.314 59.527l-13.087-7.48M137.614 68.803l-10.895-11.13M128.062 75.71l-5.699-13.432" stroke="#768F2E" stroke-width=".503" stroke-linecap="round"/>
            <path d="M116.166 103.841c30.965 0 56.069-25.027 56.069-55.901 0-30.875-25.104-55.902-56.069-55.902-30.966 0-56.07 25.027-56.07 55.901 0 30.875 25.104 55.902 56.07 55.902z" stroke="#768F2E" stroke-width=".503"/>
            <circle cx="116.165" cy="46.408" r="33.585" stroke="#768F2E" stroke-width=".503"/>
            <g filter="url(#y)">
                <rect x="114.117" y="65.744" width="4.693" height="66.378" rx="2.011" fill="#D2FF56"/>
            </g>
            <rect x="114.369" y="65.996" width="4.191" height="65.875" rx="1.76" stroke="#768F2E" stroke-width=".503"/>
            <g filter="url(#z)">
                <path d="M115.225 65.945c.685-.316 1.795-.316 2.479 0 .685.315.685.827 0 1.143-.684.316-1.794.316-2.479 0-.684-.316-.684-.828 0-1.143z" fill="#D2FF56"/>
            </g>
            <path d="M115.454 66.983c-.559-.258-.559-.675 0-.933.558-.258 1.464-.258 2.022 0 .558.258.558.675 0 .933-.558.257-1.464.257-2.022 0z" stroke="#768F2E" stroke-width=".503"/>
            <path d="M116.408 89.174c-8.471 0-14.754 11.398-24.213 11.398h48.275c-9.394 0-15.592-11.398-24.062-11.398z" fill="url(#A)" stroke="#768F2E" stroke-width=".503"/>
        </g>
        <path fill="url(#B)" d="M62.691 76.434h107.278v33.524H62.691z"/>
        <path d="M82.664 93.898h2.103v.627h-2.741V90.45h.638v3.449zm3.702.713c-.88 0-1.357-.644-1.357-1.502 0-.869.499-1.485 1.336-1.485.75 0 1.309.493 1.309 1.287v.397l-2.007.005c.043.472.295.773.73.773.36 0 .595-.226.654-.424h.628c-.054.424-.499.95-1.293.95zm-.713-1.743h1.378c0-.488-.305-.719-.68-.719-.387 0-.698.23-.698.719zm3.328 1.657l-1.067-2.816h.676l.595 1.808.108.3h.01l.102-.3.59-1.808h.676l-1.067 2.816h-.623zm3.126.086c-.88 0-1.357-.644-1.357-1.502 0-.869.5-1.485 1.336-1.485.75 0 1.309.493 1.309 1.287v.397l-2.007.005c.043.472.295.773.73.773.36 0 .595-.226.654-.424h.628c-.054.424-.499.95-1.293.95zm-.713-1.743h1.378c0-.488-.305-.719-.68-.719-.387 0-.698.23-.698.719zm2.518 1.657V90.45h.633v4.076h-.633zm3.3 0v-3.443h-.81v-.633h1.443v4.076h-.633z" fill="url(#C)"/>
        <g filter="url(#D)">
            <path fill-rule="evenodd" clip-rule="evenodd" d="M77.033 89.812c0-.248.2-.449.446-.449s.446.201.446.449v2.063a.179.179 0 10.357 0V90.35a.446.446 0 11.891 0v2.36l.226-.147a.757.757 0 01.94.091c.127.123.183.335.025.413l-.24.118c-.243.12-.443.313-.574.552-.335.49-.624 1.072-1.145 1.387a1.9 1.9 0 01-2.004-.025c-.517-.33-.83-.936-1.18-1.426a1.288 1.288 0 00-.493-.47l-.203-.11c-.167-.09-.103-.32.04-.444a.804.804 0 01.992-.05l.228.16V90.35a.447.447 0 11.892 0v1.525a.178.178 0 10.356 0v-2.062z" fill="#D4FD5E"/>
        </g>
        <path clip-rule="evenodd" d="M77.033 89.812c0-.248.2-.449.446-.449s.446.201.446.449v2.063a.179.179 0 10.357 0V90.35a.446.446 0 11.891 0v2.36l.226-.147a.757.757 0 01.94.091c.127.123.183.335.025.413l-.24.118c-.243.12-.443.313-.574.552-.335.49-.624 1.072-1.145 1.387a1.9 1.9 0 01-2.004-.025c-.517-.33-.83-.936-1.18-1.426a1.288 1.288 0 00-.493-.47l-.203-.11c-.167-.09-.103-.32.04-.444a.804.804 0 01.992-.05l.228.16V90.35a.447.447 0 11.892 0v1.525a.178.178 0 10.356 0v-2.062z" stroke="#000" stroke-width=".205"/>
        <g filter="url(#E)">
            <path fill-rule="evenodd" clip-rule="evenodd" d="M77.444 94.344c.787 0 1.425-.907 1.425-.907s-.638-.908-1.425-.908-1.425.908-1.425.908.638.907 1.425.907z" fill="#9FBE46"/>
        </g>
        <path d="M78.679 93.361l.062.076-.062.075c-.07.082-.17.192-.295.301-.252.222-.584.428-.94.428-.355 0-.688-.206-.94-.428a2.935 2.935 0 01-.356-.376 2.935 2.935 0 01.356-.377c.252-.222.585-.428.94-.428.356 0 .688.206.94.428.124.11.225.219.295.301z" stroke="#000" stroke-width=".205"/>
        <ellipse cx="77.443" cy="93.468" rx=".47" ry=".474" fill="#2A2A2A"/>
        <ellipse cx="77.193" cy="93.406" rx=".103" ry=".104" fill="#fff"/>
        <path d="M73.464 41.375l3.061 20.728-3.061 1.928-3.062-1.928 3.062-20.728z" fill="url(#F)" stroke="#768F2E" stroke-width=".503"/>
        <path d="M72.469 38.453l1.081-1.577 1.08 1.577-1.08 1.577-1.081-1.577z" fill="url(#G)" stroke="#768F2E" stroke-width=".503"/>
        <path d="M160.838 38.195l2.268 15.354-2.268 1.428-2.268-1.428 2.268-15.354z" fill="url(#H)" stroke="#768F2E" stroke-width=".503"/>
        <path d="M160.102 36.031l.801-1.168.8 1.168-.801 1.168-.8-1.168z" fill="url(#I)" stroke="#768F2E" stroke-width=".503"/>
        <path d="M150.723 69.96l2.211 14.97-2.211 1.393-2.211-1.392 2.211-14.97z" fill="url(#J)" stroke="#768F2E" stroke-width=".503"/>
        <path d="M150.003 67.852l.781-1.14.78 1.14-.781 1.138-.78-1.138z" fill="url(#K)" stroke="#768F2E" stroke-width=".503"/>
        <g filter="url(#L)">
            <path d="M115.224 30.755c.679-.879 1.779-.879 2.458 0l10.998 14.248c.679.88.679 2.306 0 3.185l-10.998 14.248c-.679.88-1.779.88-2.458 0l-10.998-14.248c-.679-.88-.679-2.305 0-3.185l10.998-14.248z" fill="#D2FF56"/>
        </g>
        <path d="M117.529 30.954l10.997 14.248c.594.77.594 2.017 0 2.787l-10.997 14.248c-.594.77-1.557.77-2.151 0L104.38 47.99c-.594-.77-.594-2.017 0-2.786l10.998-14.249c.594-.77 1.557-.77 2.151 0z" stroke="#768F2E" stroke-width=".503"/>
        <g filter="url(#M)">
            <path d="M115.802 33.617c.452-.586 1.186-.586 1.638 0l9 11.66c.452.586.452 1.536 0 2.122l-9 11.66c-.452.586-1.186.586-1.638 0l-9-11.66c-.452-.586-.452-1.536 0-2.123l9-11.659z" fill="#DEFF87"/>
        </g>
        <path d="M115.802 33.617c.452-.586 1.186-.586 1.638 0l9 11.66c.452.586.452 1.536 0 2.122l-9 11.66c-.452.586-1.186.586-1.638 0l-9-11.66c-.452-.586-.452-1.536 0-2.123l9-11.659z" stroke="#768F2E" stroke-width=".503" stroke-linecap="round"/>
        <g filter="url(#N)">
            <path d="M115.563 37.797c.453-.586 1.187-.586 1.639 0l5.85 7.579c.452.586.452 1.536 0 2.123l-5.85 7.578c-.452.586-1.186.586-1.639 0l-5.849-7.578c-.453-.587-.453-1.537 0-2.123l5.849-7.579z" fill="#fff"/>
        </g>
        <path d="M115.563 37.797c.453-.586 1.187-.586 1.639 0l5.85 7.579c.452.586.452 1.536 0 2.123l-5.85 7.578c-.452.586-1.186.586-1.639 0l-5.849-7.578c-.453-.587-.453-1.537 0-2.123l5.849-7.579z" stroke="#768F2E" stroke-width=".503" stroke-linecap="round"/>
        <path d="M120.652 46.184c.108.137.194.254.255.339a10.293 10.293 0 01-1.253 1.44c-.851.808-1.978 1.566-3.187 1.566-1.209 0-2.336-.758-3.188-1.567a10.378 10.378 0 01-1.252-1.44 10.388 10.388 0 011.252-1.44c.852-.807 1.979-1.565 3.188-1.565s2.336.758 3.187 1.567c.421.399.762.799.998 1.1z" fill="#EEFACD" stroke="#73960E" stroke-width=".565"/>
        <circle cx="116.467" cy="46.524" r="1.495" fill="#D5FF5C" stroke="#73960E" stroke-width=".565" stroke-linecap="round"/>
        <circle cx="156.895" cy="19.108" r="9.301" fill="url(#O)" stroke="url(#P)" stroke-width=".172"/>
        <circle cx="156.994" cy="18.887" r="5.735" fill="#9CC622" stroke="#B5DE3D" stroke-width=".37"/>
        <g filter="url(#Q)">
            <circle cx="156.994" cy="18.886" r="4.625" stroke="#fff" stroke-width=".37"/>
        </g>
        <g filter="url(#R)">
            <circle cx="156.995" cy="17.776" r="4.44" fill="#DAF199"/>
        </g>
        <path d="M158.902 14.354l.119.54a1.81 1.81 0 001.376 1.375l.54.12-.54.119a1.81 1.81 0 00-1.376 1.376l-.119.54-.119-.54a1.81 1.81 0 00-1.376-1.376l-.54-.12.54-.119a1.81 1.81 0 001.376-1.376l.119-.54zM155.434 14.843l.069.295a.989.989 0 00.76.745l.296.063-.295.068a.99.99 0 00-.745.76l-.063.297-.068-.295a.991.991 0 00-.761-.746l-.296-.062.295-.069a.992.992 0 00.746-.76l.062-.296zM155.595 18.187l.069.295a.989.989 0 00.762.744l.296.061-.294.07a.99.99 0 00-.744.762l-.062.296-.069-.294a.989.989 0 00-.762-.744l-.297-.062.295-.069a.992.992 0 00.744-.762l.062-.297z" fill="#fff"/>
        <path d="M157.568 25.343l.301.519.029.05h.058l.599.001-.298.52-.029.05.029.05.298.52-.599.002h-.058l-.029.05-.301.52-.302-.52-.029-.05h-.057l-.6-.001.298-.52.029-.05-.029-.05-.298-.52.6-.002h.057l.029-.05.302-.52zM160.919 24.337l.301.519.029.05h.058l.6.001-.299.52-.028.05.028.05.299.521-.6.002h-.058l-.029.05-.301.518-.301-.518-.029-.05h-.058l-.6-.002.299-.52.029-.05-.029-.05-.299-.52.6-.002h.058l.029-.05.301-.519zM163.603 21.655l.301.52.029.05h.658l-.299.521-.029.05.029.05.299.52-.6.002h-.058l-.029.05-.301.519-.302-.519-.029-.05h-.057l-.6-.002.298-.52.029-.05-.029-.05-.298-.52.6-.002h.057l.029-.05.302-.519zM164.607 18.302l.301.519.029.05h.058l.599.001-.298.52-.029.05.029.05.298.52-.599.002h-.058l-.029.05-.301.52-.302-.52-.029-.05h-.057l-.6-.001.298-.52.029-.05-.029-.05-.298-.52.6-.002h.057l.029-.05.302-.52zM163.939 14.95l.301.52.029.049h.058l.599.002-.298.52-.029.05.029.05.298.52-.599.002h-.058l-.029.05-.301.519-.302-.52-.029-.05h-.657l.298-.521.029-.05-.029-.05-.298-.52.6-.002h.057l.029-.05.302-.519zM161.927 11.933l.301.518.029.05h.058l.6.002-.299.52-.029.05.029.05.299.52-.6.002h-.058l-.029.05-.301.52-.301-.52-.029-.05h-.058l-.6-.001.299-.52.028-.05-.028-.05-.299-.52.6-.002h.058l.029-.05.301-.52z" fill="#B0E615" stroke="#fff" stroke-width=".201"/>
    </g>
    <defs>
        <filter id="a" x="163.598" y="23.465" width="72.544" height="65.048" filterUnits="userSpaceOnUse" color-interpolation-filters="sRGB">
            <feFlood flood-opacity="0" result="BackgroundImageFix"/>
            <feColorMatrix in="SourceAlpha" values="0 0 0 0 0 0 0 0 0 0 0 0 0 0 0 0 0 0 127 0" result="hardAlpha"/>
            <feOffset dx="2.141" dy="2.141"/>
            <feComposite in2="hardAlpha" operator="out"/>
            <feColorMatrix values="0 0 0 0 0 0 0 0 0 0 0 0 0 0 0 0 0 0 0.35 0"/>
            <feBlend in2="BackgroundImageFix" result="effect1_dropShadow_5185_2618"/>
            <feBlend in="SourceGraphic" in2="effect1_dropShadow_5185_2618" result="shape"/>
        </filter>
        <filter id="b" x="186.91" y="33.129" width="23.961" height="24.486" filterUnits="userSpaceOnUse" color-interpolation-filters="sRGB">
            <feFlood flood-opacity="0" result="BackgroundImageFix"/>
            <feBlend in="SourceGraphic" in2="BackgroundImageFix" result="shape"/>
            <feColorMatrix in="SourceAlpha" values="0 0 0 0 0 0 0 0 0 0 0 0 0 0 0 0 0 0 127 0" result="hardAlpha"/>
            <feOffset dy="-2.106"/>
            <feComposite in2="hardAlpha" operator="arithmetic" k2="-1" k3="1"/>
            <feColorMatrix values="0 0 0 0 0 0 0 0 0 0 0 0 0 0 0 0 0 0 0.25 0"/>
            <feBlend in2="shape" result="effect1_innerShadow_5185_2618"/>
        </filter>
        <filter id="c" x="189.547" y="35.367" width="18.957" height="18.957" filterUnits="userSpaceOnUse" color-interpolation-filters="sRGB">
            <feFlood flood-opacity="0" result="BackgroundImageFix"/>
            <feBlend in="SourceGraphic" in2="BackgroundImageFix" result="shape"/>
            <feColorMatrix in="SourceAlpha" values="0 0 0 0 0 0 0 0 0 0 0 0 0 0 0 0 0 0 127 0" result="hardAlpha"/>
            <feOffset dy="-1.58"/>
            <feComposite in2="hardAlpha" operator="arithmetic" k2="-1" k3="1"/>
            <feColorMatrix values="0 0 0 0 0 0 0 0 0 0 0 0 0 0 0 0 0 0 0.25 0"/>
            <feBlend in2="shape" result="effect1_innerShadow_5185_2618"/>
        </filter>
        <filter id="d" x="0" y="23.133" width="90.85" height="81.465" filterUnits="userSpaceOnUse" color-interpolation-filters="sRGB">
            <feFlood flood-opacity="0" result="BackgroundImageFix"/>
            <feColorMatrix in="SourceAlpha" values="0 0 0 0 0 0 0 0 0 0 0 0 0 0 0 0 0 0 127 0" result="hardAlpha"/>
            <feOffset dx="2.682" dy="2.682"/>
            <feComposite in2="hardAlpha" operator="out"/>
            <feColorMatrix values="0 0 0 0 0 0 0 0 0 0 0 0 0 0 0 0 0 0 0.35 0"/>
            <feBlend in2="BackgroundImageFix" result="effect1_dropShadow_5185_2618"/>
            <feBlend in="SourceGraphic" in2="effect1_dropShadow_5185_2618" result="shape"/>
        </filter>
        <filter id="e" x="30.234" y="38.797" width="7.422" height="7.424" filterUnits="userSpaceOnUse" color-interpolation-filters="sRGB">
            <feFlood flood-opacity="0" result="BackgroundImageFix"/>
            <feBlend in="SourceGraphic" in2="BackgroundImageFix" result="shape"/>
            <feColorMatrix in="SourceAlpha" values="0 0 0 0 0 0 0 0 0 0 0 0 0 0 0 0 0 0 127 0" result="hardAlpha"/>
            <feOffset dy="-1.396"/>
            <feComposite in2="hardAlpha" operator="arithmetic" k2="-1" k3="1"/>
            <feColorMatrix values="0 0 0 0 0 0 0 0 0 0 0 0 0 0 0 0 0 0 0.25 0"/>
            <feBlend in2="shape" result="effect1_innerShadow_5185_2618"/>
        </filter>
        <filter id="f" x="50.586" y="38.797" width="7.422" height="7.424" filterUnits="userSpaceOnUse" color-interpolation-filters="sRGB">
            <feFlood flood-opacity="0" result="BackgroundImageFix"/>
            <feBlend in="SourceGraphic" in2="BackgroundImageFix" result="shape"/>
            <feColorMatrix in="SourceAlpha" values="0 0 0 0 0 0 0 0 0 0 0 0 0 0 0 0 0 0 127 0" result="hardAlpha"/>
            <feOffset dy="-1.396"/>
            <feComposite in2="hardAlpha" operator="arithmetic" k2="-1" k3="1"/>
            <feColorMatrix values="0 0 0 0 0 0 0 0 0 0 0 0 0 0 0 0 0 0 0.25 0"/>
            <feBlend in2="shape" result="effect1_innerShadow_5185_2618"/>
        </filter>
        <filter id="g" x="30.605" y="41.435" width="13.082" height="22.553" filterUnits="userSpaceOnUse" color-interpolation-filters="sRGB">
            <feFlood flood-opacity="0" result="BackgroundImageFix"/>
            <feBlend in="SourceGraphic" in2="BackgroundImageFix" result="shape"/>
            <feColorMatrix in="SourceAlpha" values="0 0 0 0 0 0 0 0 0 0 0 0 0 0 0 0 0 0 127 0" result="hardAlpha"/>
            <feOffset dx="-3.141" dy="-3.491"/>
            <feComposite in2="hardAlpha" operator="arithmetic" k2="-1" k3="1"/>
            <feColorMatrix values="0 0 0 0 0 0 0 0 0 0 0 0 0 0 0 0 0 0 0.25 0"/>
            <feBlend in2="shape" result="effect1_innerShadow_5185_2618"/>
        </filter>
        <filter id="h" x="44.469" y="41.435" width="13.082" height="22.553" filterUnits="userSpaceOnUse" color-interpolation-filters="sRGB">
            <feFlood flood-opacity="0" result="BackgroundImageFix"/>
            <feBlend in="SourceGraphic" in2="BackgroundImageFix" result="shape"/>
            <feColorMatrix in="SourceAlpha" values="0 0 0 0 0 0 0 0 0 0 0 0 0 0 0 0 0 0 127 0" result="hardAlpha"/>
            <feOffset dx="3.141" dy="-3.491"/>
            <feComposite in2="hardAlpha" operator="arithmetic" k2="-1" k3="1"/>
            <feColorMatrix values="0 0 0 0 0 0 0 0 0 0 0 0 0 0 0 0 0 0 0.25 0"/>
            <feBlend in2="shape" result="effect1_innerShadow_5185_2618"/>
        </filter>
        <filter id="k" x="65.148" y="114.561" width="8.078" height="9.414" filterUnits="userSpaceOnUse" color-interpolation-filters="sRGB">
            <feFlood flood-opacity="0" result="BackgroundImageFix"/>
            <feBlend in="SourceGraphic" in2="BackgroundImageFix" result="shape"/>
            <feColorMatrix in="SourceAlpha" values="0 0 0 0 0 0 0 0 0 0 0 0 0 0 0 0 0 0 127 0" result="hardAlpha"/>
            <feOffset dx="2.409" dy=".201"/>
            <feComposite in2="hardAlpha" operator="arithmetic" k2="-1" k3="1"/>
            <feColorMatrix values="0 0 0 0 0 0 0 0 0 0 0 0 0 0 0 0 0 0 0.15 0"/>
            <feBlend in2="shape" result="effect1_innerShadow_5185_2618"/>
        </filter>
        <filter id="l" x="66.484" y="114.561" width="8.078" height="9.412" filterUnits="userSpaceOnUse" color-interpolation-filters="sRGB">
            <feFlood flood-opacity="0" result="BackgroundImageFix"/>
            <feBlend in="SourceGraphic" in2="BackgroundImageFix" result="shape"/>
            <feColorMatrix in="SourceAlpha" values="0 0 0 0 0 0 0 0 0 0 0 0 0 0 0 0 0 0 127 0" result="hardAlpha"/>
            <feOffset dx=".402" dy="-.602"/>
            <feComposite in2="hardAlpha" operator="arithmetic" k2="-1" k3="1"/>
            <feColorMatrix values="0 0 0 0 0 0 0 0 0 0 0 0 0 0 0 0 0 0 0.15 0"/>
            <feBlend in2="shape" result="effect1_innerShadow_5185_2618"/>
        </filter>
        <filter id="q" x="96.316" y="136.303" width="1.906" height="1.955" filterUnits="userSpaceOnUse" color-interpolation-filters="sRGB">
            <feFlood flood-opacity="0" result="BackgroundImageFix"/>
            <feBlend in="SourceGraphic" in2="BackgroundImageFix" result="shape"/>
            <feColorMatrix in="SourceAlpha" values="0 0 0 0 0 0 0 0 0 0 0 0 0 0 0 0 0 0 127 0" result="hardAlpha"/>
            <feOffset dy="-.295"/>
            <feComposite in2="hardAlpha" operator="arithmetic" k2="-1" k3="1"/>
            <feColorMatrix values="0 0 0 0 0 0 0 0 0 0 0 0 0 0 0 0 0 0 0.25 0"/>
            <feBlend in2="shape" result="effect1_innerShadow_5185_2618"/>
        </filter>
        <filter id="u" x="141.039" y="118.914" width="8.297" height="9.139" filterUnits="userSpaceOnUse" color-interpolation-filters="sRGB">
            <feFlood flood-opacity="0" result="BackgroundImageFix"/>
            <feBlend in="SourceGraphic" in2="BackgroundImageFix" result="shape"/>
            <feColorMatrix in="SourceAlpha" values="0 0 0 0 0 0 0 0 0 0 0 0 0 0 0 0 0 0 127 0" result="hardAlpha"/>
            <feOffset dy="6.953"/>
            <feComposite in2="hardAlpha" operator="arithmetic" k2="-1" k3="1"/>
            <feColorMatrix values="0 0 0 0 0 0 0 0 0 0 0 0 0 0 0 0 0 0 0.15 0"/>
            <feBlend in2="shape" result="effect1_innerShadow_5185_2618"/>
        </filter>
        <filter id="v" x="141.812" y="119.164" width="7.625" height="8.91" filterUnits="userSpaceOnUse" color-interpolation-filters="sRGB">
            <feFlood flood-opacity="0" result="BackgroundImageFix"/>
            <feBlend in="SourceGraphic" in2="BackgroundImageFix" result="shape"/>
            <feColorMatrix in="SourceAlpha" values="0 0 0 0 0 0 0 0 0 0 0 0 0 0 0 0 0 0 127 0" result="hardAlpha"/>
            <feOffset dx=".386" dy="-.579"/>
            <feComposite in2="hardAlpha" operator="arithmetic" k2="-1" k3="1"/>
            <feColorMatrix values="0 0 0 0 0 0 0 0 0 0 0 0 0 0 0 0 0 0 0.15 0"/>
            <feBlend in2="shape" result="effect1_innerShadow_5185_2618"/>
        </filter>
        <filter id="y" x="114.117" y="65.744" width="4.695" height="66.379" filterUnits="userSpaceOnUse" color-interpolation-filters="sRGB">
            <feFlood flood-opacity="0" result="BackgroundImageFix"/>
            <feBlend in="SourceGraphic" in2="BackgroundImageFix" result="shape"/>
            <feColorMatrix in="SourceAlpha" values="0 0 0 0 0 0 0 0 0 0 0 0 0 0 0 0 0 0 127 0" result="hardAlpha"/>
            <feOffset dx="-6.034" dy="1.006"/>
            <feComposite in2="hardAlpha" operator="arithmetic" k2="-1" k3="1"/>
            <feColorMatrix values="0 0 0 0 0.521569 0 0 0 0 0.584314 0 0 0 0 0.341176 0 0 0 0.54 0"/>
            <feBlend in2="shape" result="effect1_innerShadow_5185_2618"/>
        </filter>
        <filter id="z" x="114.711" y="65.707" width="3.508" height="1.617" filterUnits="userSpaceOnUse" color-interpolation-filters="sRGB">
            <feFlood flood-opacity="0" result="BackgroundImageFix"/>
            <feBlend in="SourceGraphic" in2="BackgroundImageFix" result="shape"/>
            <feColorMatrix in="SourceAlpha" values="0 0 0 0 0 0 0 0 0 0 0 0 0 0 0 0 0 0 127 0" result="hardAlpha"/>
            <feOffset dx="-6.034" dy="1.006"/>
            <feComposite in2="hardAlpha" operator="arithmetic" k2="-1" k3="1"/>
            <feColorMatrix values="0 0 0 0 0.521569 0 0 0 0 0.584314 0 0 0 0 0.341176 0 0 0 0.54 0"/>
            <feBlend in2="shape" result="effect1_innerShadow_5185_2618"/>
        </filter>
        <filter id="D" x="74.324" y="89.262" width="6.238" height="6.238" filterUnits="userSpaceOnUse" color-interpolation-filters="sRGB">
            <feFlood flood-opacity="0" result="BackgroundImageFix"/>
            <feBlend in="SourceGraphic" in2="BackgroundImageFix" result="shape"/>
            <feColorMatrix in="SourceAlpha" values="0 0 0 0 0 0 0 0 0 0 0 0 0 0 0 0 0 0 127 0" result="hardAlpha"/>
            <feOffset dy="-.58"/>
            <feComposite in2="hardAlpha" operator="arithmetic" k2="-1" k3="1"/>
            <feColorMatrix values="0 0 0 0 0 0 0 0 0 0 0 0 0 0 0 0 0 0 0.25 0"/>
            <feBlend in2="shape" result="effect1_innerShadow_5185_2618"/>
        </filter>
        <filter id="E" x="76.019" y="92.529" width="2.848" height="1.985" filterUnits="userSpaceOnUse" color-interpolation-filters="sRGB">
            <feFlood flood-opacity="0" result="BackgroundImageFix"/>
            <feBlend in="SourceGraphic" in2="BackgroundImageFix" result="shape"/>
            <feColorMatrix in="SourceAlpha" values="0 0 0 0 0 0 0 0 0 0 0 0 0 0 0 0 0 0 127 0" result="hardAlpha"/>
            <feOffset dy=".171"/>
            <feGaussianBlur stdDeviation=".145"/>
            <feComposite in2="hardAlpha" operator="arithmetic" k2="-1" k3="1"/>
            <feColorMatrix values="0 0 0 0 0 0 0 0 0 0 0 0 0 0 0 0 0 0 0.25 0"/>
            <feBlend in2="shape" result="effect1_innerShadow_5185_2618"/>
        </filter>
        <filter id="L" x="103.719" y="29.459" width="25.469" height="33.637" filterUnits="userSpaceOnUse" color-interpolation-filters="sRGB">
            <feFlood flood-opacity="0" result="BackgroundImageFix"/>
            <feBlend in="SourceGraphic" in2="BackgroundImageFix" result="shape"/>
            <feColorMatrix in="SourceAlpha" values="0 0 0 0 0 0 0 0 0 0 0 0 0 0 0 0 0 0 127 0" result="hardAlpha"/>
            <feOffset dy="-2.682"/>
            <feGaussianBlur stdDeviation=".318"/>
            <feComposite in2="hardAlpha" operator="arithmetic" k2="-1" k3="1"/>
            <feColorMatrix values="0 0 0 0 0.521569 0 0 0 0 0.584314 0 0 0 0 0.341176 0 0 0 0.54 0"/>
            <feBlend in2="shape" result="effect1_innerShadow_5185_2618"/>
        </filter>
        <filter id="M" x="106.246" y="32.897" width="20.75" height="26.883" filterUnits="userSpaceOnUse" color-interpolation-filters="sRGB">
            <feFlood flood-opacity="0" result="BackgroundImageFix"/>
            <feBlend in="SourceGraphic" in2="BackgroundImageFix" result="shape"/>
            <feColorMatrix in="SourceAlpha" values="0 0 0 0 0 0 0 0 0 0 0 0 0 0 0 0 0 0 127 0" result="hardAlpha"/>
            <feOffset dx=".339" dy="-3.391"/>
            <feComposite in2="hardAlpha" operator="arithmetic" k2="-1" k3="1"/>
            <feColorMatrix values="0 0 0 0 0 0 0 0 0 0 0 0 0 0 0 0 0 0 0.15 0"/>
            <feBlend in2="shape" result="effect1_innerShadow_5185_2618"/>
        </filter>
        <filter id="N" x="109.156" y="37.076" width="14.453" height="18.723" filterUnits="userSpaceOnUse" color-interpolation-filters="sRGB">
            <feFlood flood-opacity="0" result="BackgroundImageFix"/>
            <feBlend in="SourceGraphic" in2="BackgroundImageFix" result="shape"/>
            <feColorMatrix in="SourceAlpha" values="0 0 0 0 0 0 0 0 0 0 0 0 0 0 0 0 0 0 127 0" result="hardAlpha"/>
            <feOffset dx=".339" dy="-3.391"/>
            <feComposite in2="hardAlpha" operator="arithmetic" k2="-1" k3="1"/>
            <feColorMatrix values="0 0 0 0 0 0 0 0 0 0 0 0 0 0 0 0 0 0 0.15 0"/>
            <feBlend in2="shape" result="effect1_innerShadow_5185_2618"/>
        </filter>
        <filter id="Q" x="151.197" y="13.089" width="11.595" height="11.593" filterUnits="userSpaceOnUse" color-interpolation-filters="sRGB">
            <feFlood flood-opacity="0" result="BackgroundImageFix"/>
            <feBlend in="SourceGraphic" in2="BackgroundImageFix" result="shape"/>
            <feGaussianBlur stdDeviation=".493" result="effect1_foregroundBlur_5185_2618"/>
        </filter>
        <filter id="R" x="151.918" y="13.336" width="10.152" height="10.154" filterUnits="userSpaceOnUse" color-interpolation-filters="sRGB">
            <feFlood flood-opacity="0" result="BackgroundImageFix"/>
            <feColorMatrix in="SourceAlpha" values="0 0 0 0 0 0 0 0 0 0 0 0 0 0 0 0 0 0 127 0" result="hardAlpha"/>
            <feOffset dy=".637"/>
            <feGaussianBlur stdDeviation=".318"/>
            <feComposite in2="hardAlpha" operator="out"/>
            <feColorMatrix values="0 0 0 0 1 0 0 0 0 1 0 0 0 0 1 0 0 0 0.25 0"/>
            <feBlend in2="BackgroundImageFix" result="effect1_dropShadow_5185_2618"/>
            <feBlend in="SourceGraphic" in2="effect1_dropShadow_5185_2618" result="shape"/>
        </filter>
        <linearGradient id="o" x1="97.225" y1="139.796" x2="97.225" y2="134.432" gradientUnits="userSpaceOnUse">
            <stop stop-color="#fff"/>
            <stop offset="1" stop-color="#B0CD5B"/>
        </linearGradient>
        <linearGradient id="p" x1="98.981" y1="139.016" x2="94.977" y2="136.221" gradientUnits="userSpaceOnUse">
            <stop stop-color="#5D731E"/>
            <stop offset="1"/>
        </linearGradient>
        <linearGradient id="s" x1="96.37" y1="138.515" x2="98.883" y2="135.611" gradientUnits="userSpaceOnUse">
            <stop stop-color="#D5FF5C"/>
            <stop offset="1" stop-color="#fff"/>
        </linearGradient>
        <linearGradient id="A" x1="116.333" y1="92.667" x2="116.333" y2="103.114" gradientUnits="userSpaceOnUse">
            <stop stop-color="#F8FFE3"/>
            <stop offset="1" stop-color="#9CCF0A"/>
        </linearGradient>
        <linearGradient id="B" x1="116.33" y1="76.434" x2="116.33" y2="109.958" gradientUnits="userSpaceOnUse">
            <stop stop-color="#ABD74E" stop-opacity="0"/>
            <stop offset=".673" stop-color="#A5CF4D"/>
        </linearGradient>
        <linearGradient id="C" x1="89.299" y1="90.515" x2="89.299" y2="94.515" gradientUnits="userSpaceOnUse">
            <stop/>
            <stop offset="1" stop-color="#628400"/>
        </linearGradient>
        <linearGradient id="F" x1="73.464" y1="48.318" x2="73.464" y2="69.083" gradientUnits="userSpaceOnUse">
            <stop stop-color="#F8FFE3"/>
            <stop offset="1" stop-color="#9CCF0A"/>
        </linearGradient>
        <linearGradient id="G" x1="73.245" y1="38.148" x2="74.69" y2="39.593" gradientUnits="userSpaceOnUse">
            <stop stop-color="#F8FFE3"/>
            <stop offset="1" stop-color="#9CCF0A"/>
        </linearGradient>
        <linearGradient id="H" x1="160.838" y1="43.338" x2="160.838" y2="58.719" gradientUnits="userSpaceOnUse">
            <stop stop-color="#F8FFE3"/>
            <stop offset="1" stop-color="#9CCF0A"/>
        </linearGradient>
        <linearGradient id="I" x1="160.677" y1="35.805" x2="161.747" y2="36.876" gradientUnits="userSpaceOnUse">
            <stop stop-color="#F8FFE3"/>
            <stop offset="1" stop-color="#9CCF0A"/>
        </linearGradient>
        <linearGradient id="J" x1="150.723" y1="74.975" x2="150.723" y2="89.972" gradientUnits="userSpaceOnUse">
            <stop stop-color="#F8FFE3"/>
            <stop offset="1" stop-color="#9CCF0A"/>
        </linearGradient>
        <linearGradient id="K" x1="150.563" y1="67.631" x2="151.607" y2="68.675" gradientUnits="userSpaceOnUse">
            <stop stop-color="#F8FFE3"/>
            <stop offset="1" stop-color="#9CCF0A"/>
        </linearGradient>
        <linearGradient id="O" x1="157.917" y1="28.348" x2="151.16" y2="10.634" gradientUnits="userSpaceOnUse">
            <stop stop-color="#99C819"/>
            <stop offset="1" stop-color="#51602A"/>
        </linearGradient>
        <linearGradient id="P" x1="151.45" y1="11.692" x2="164.498" y2="26.148" gradientUnits="userSpaceOnUse">
            <stop stop-color="#fff"/>
            <stop offset="1" stop-color="#8BBC00"/>
        </linearGradient>
        <clipPath id="i">
            <path fill="#fff" d="M67.719 75.096h8.046v8.046h-8.046z"/>
        </clipPath>
        <clipPath id="n">
            <rect x="65.375" y="127.057" width="68.39" height="4.023" rx="2.011" fill="#fff"/>
        </clipPath>
        <clipPath id="t">
            <path fill="#fff" d="M139.797 118.342h10.728v10.728h-10.728z"/>
        </clipPath>
    </defs>
</svg>
