<svg viewBox="0 0 32 32" xmlns="http://www.w3.org/2000/svg">
    <path d="M32 16c0 8.837-7.163 16-16 16S0 24.837 0 16 7.163 0 16 0s16 7.163 16 16z"/>
    <path fill="#fafafa" fill-rule="evenodd" d="M30.5 16c0-8.009-6.491-14.5-14.5-14.5S1.5 7.991 1.5 16 7.991 30.5 16 30.5 30.5 24.009 30.5 16z"/>
    <path fill="#8a92b2" d="M15.998 13.222V5.333L9.45 16.198z"/>
    <path fill="#62688f" d="M15.998 20.069v-6.847L9.45 16.198zm0-6.847l6.548 2.976-6.548-10.865z"/>
    <path fill="#454a75" d="M15.998 13.222v6.847l6.548-3.871z"/>
    <path fill="#8a92b2" d="M15.998 21.309L9.45 17.44l6.547 9.227z"/>
    <path fill="#62688f" d="M22.55 17.44l-6.552 3.869v5.358z"/>
</svg>
