<svg width="32" height="32" viewBox="0 0 32 32" fill="none" xmlns="http://www.w3.org/2000/svg">
<path fill-rule="evenodd" clip-rule="evenodd" d="M25.0578 17.8317C25.3619 18.4938 26.2571 18.7276 26.7722 18.2124L27.7171 17.2676C28.6934 16.2913 30.2763 16.2913 31.2526 17.2676C32.2289 18.2439 32.2289 19.8268 31.2526 20.8031L23.6166 28.4392C21.7822 30.6166 19.0353 32 15.9653 32C12.7629 32 9.91202 30.4946 8.08177 28.1529L0.732253 20.8034C-0.244056 19.8271 -0.244056 18.2442 0.732254 17.2679C1.70856 16.2916 3.29148 16.2916 4.26779 17.2679L5.19815 18.1982C5.70207 18.7021 6.57687 18.4755 6.87452 17.828C6.93333 17.7 6.96531 17.5628 6.96531 17.4219L6.9653 6.00005C6.9653 4.61934 8.08459 3.50005 9.4653 3.50005C10.846 3.50005 11.9653 4.61934 11.9653 6.00005L11.9653 11.7783C11.9653 12.2754 12.4746 12.6129 12.9486 12.4631C13.2486 12.3683 13.4653 12.0951 13.4653 11.7805L13.4653 2.50001C13.4653 1.1193 14.5846 1.21929e-05 15.9653 1.18308e-05C17.346 1.14687e-05 18.4653 1.1193 18.4653 2.50001L18.4653 11.7805C18.4653 12.0951 18.6821 12.3682 18.9821 12.4631C19.4561 12.6129 19.9653 12.2754 19.9653 11.7783L19.9653 6.00005C19.9653 4.61934 21.0846 3.50005 22.4653 3.50005C23.846 3.50005 24.9653 4.61934 24.9653 6.00005L24.9653 17.4176C24.9653 17.5612 24.9979 17.7012 25.0578 17.8317Z" fill="currentColor"/>
<path d="M23.9653 23C23.9653 23 20.3836 28 15.9653 28C11.5471 28 7.96533 23 7.96533 23C7.96533 23 11.5471 18 15.9653 18C20.3836 18 23.9653 23 23.9653 23Z" fill="#121212"/>
<path d="M18.731 23C18.731 24.5275 17.4928 25.7657 15.9653 25.7657C14.4379 25.7657 13.1996 24.5275 13.1996 23C13.1996 21.4725 14.4379 20.2343 15.9653 20.2343C17.4928 20.2343 18.731 21.4725 18.731 23Z" fill="currentColor" stroke="currentColor" stroke-width="0.468589"/>
</svg>
