<svg width="1em" height="1em" viewBox="0 0 64 64" fill="none" xmlns="http://www.w3.org/2000/svg">
<path d="M26.0698 46C26.0698 49.2905 28.7185 51.9623 32.0001 51.9996C35.2817 51.9623 37.9304 49.2905 37.9304 46C37.9304 42.7096 35.2817 40.0377 32.0001 40.0004C28.7185 40.0377 26.0698 42.7096 26.0698 46Z" fill="currentColor"/>
<path fill-rule="evenodd" clip-rule="evenodd" d="M13.8842 35.6623C13.276 36.9868 11.4851 37.4546 10.4545 36.4241L8.56537 34.5349C6.61274 32.5823 3.44689 32.5823 1.49426 34.5349C-0.458374 36.4875 -0.458374 39.6534 1.49426 41.606L16.7689 56.8807C20.4239 61.2176 25.8892 63.9788 32.0001 63.9994C38.1109 63.9788 43.5762 61.2176 47.2312 56.8807L62.5058 41.606C64.4585 39.6534 64.4585 36.4875 62.5058 34.5349C60.5532 32.5823 57.3874 32.5823 55.4347 34.5349L53.5456 36.4241C52.515 37.4546 50.7241 36.9868 50.1159 35.6623C49.996 35.4013 49.9308 35.1213 49.9308 34.8341L49.9308 11.9995C49.9308 9.2381 47.6922 6.99952 44.9308 6.99952C42.1694 6.99952 39.9308 9.23811 39.9308 11.9995L39.9308 23.5568C39.9308 24.5506 38.9127 25.2252 37.9651 24.9257C37.3654 24.7361 36.9321 24.1901 36.9321 23.5611L36.9321 4.99956C36.9321 2.26082 34.7302 0.0363693 32.0001 0C29.2699 0.0363693 27.068 2.26082 27.068 4.99956L27.068 23.5611C27.068 24.1901 26.6347 24.7361 26.035 24.9257C25.0874 25.2252 24.0693 24.5506 24.0693 23.5568L24.0693 11.9995C24.0693 9.23811 21.8308 6.99952 19.0693 6.99952C16.3079 6.99952 14.0693 9.2381 14.0693 11.9995L14.0693 34.8341C14.0693 35.1213 14.0041 35.4013 13.8842 35.6623ZM32.0001 35.9999C23.1957 36.0525 16.0701 45.9997 16.0701 45.9997C16.0701 45.9997 23.1957 55.9469 32.0001 55.9995C40.8044 55.9469 47.93 45.9997 47.93 45.9997C47.93 45.9997 40.8044 36.0525 32.0001 35.9999Z" fill="currentColor"/>
</svg>
