<svg width="148" height="30" viewBox="0 0 148 30" fill="none" xmlns="http://www.w3.org/2000/svg">
<path fill-rule="evenodd" clip-rule="evenodd" d="M6.80557 6.86538L6.66504 12.2591C8.94696 13.4326 11.0976 13.407 13.627 12.8388C14.6299 12.4463 15.3311 12.3621 16.3044 12.8394C18.855 13.6321 21.0795 13.3892 23.3914 12.2091L23.2552 6.80834C23.2552 3.76747 21.2834 2.59767 19.1375 3.22473C18.9179 3.2889 18.5896 3.58298 18.5896 3.84544L18.5393 9.11668C18.5366 9.3899 18.3144 9.61001 18.0412 9.61001C17.7661 9.61001 17.5431 9.38701 17.5431 9.11192V2.63006C17.5431 1.2568 16.4299 0.143555 15.0566 0.143555C13.6833 0.143555 12.5701 1.2568 12.5701 2.63006V9.11192C12.5701 9.38701 12.3471 9.61001 12.072 9.61001C11.7988 9.61001 11.5765 9.3899 11.5739 9.11667L11.5236 3.84255C11.5236 3.58241 11.2109 3.28926 10.9932 3.22473C8.51723 2.49082 6.80557 3.94 6.80557 6.86538ZM7.50146 13.5753C7.00252 13.4049 6.51935 13.1734 6.03631 12.942C4.70515 12.3041 2.63256 12.502 1.23278 14.0981C0.591169 14.8297 1.08762 15.8882 2.01122 16.1946C2.45658 16.3423 2.85992 16.5924 3.23695 16.8718C3.27967 16.9034 3.32312 16.935 3.36713 16.9666C4.53032 17.8013 5.27885 19.0516 5.35332 20.4813L5.42384 21.8352C5.76415 25.0903 7.86413 27.8958 10.8914 29.1396C13.5355 30.2259 16.5013 30.2259 19.1454 29.1396C22.1727 27.8958 24.2727 25.0903 24.613 21.8352C24.6251 21.6034 24.6295 21.3718 24.6271 21.1411L24.6614 20.4813C24.7359 19.0516 25.4844 17.8013 26.6476 16.9666C26.6916 16.935 26.7351 16.9034 26.7778 16.8718C27.1548 16.5924 27.5582 16.3423 28.0035 16.1946C28.9271 15.8882 29.4236 14.8297 28.782 14.0981C27.3822 12.502 25.3096 12.3041 23.9784 12.942C23.4954 13.1734 23.0122 13.4049 22.5133 13.5753L21.493 13.9238L21.491 13.9367C19.6192 14.4538 18.0799 14.4556 16.3129 13.7263C15.4195 13.3576 14.5179 13.2883 13.6447 13.7263C11.9656 14.2491 10.2549 14.4699 8.52174 13.9238L7.50146 13.5753ZM15.0071 26.1644C18.7743 26.1644 21.8281 21.7749 21.8281 21.7749C21.8281 21.7749 18.7743 17.3855 15.0071 17.3855C11.2399 17.3855 8.18604 21.7749 8.18604 21.7749C8.18604 21.7749 11.2399 26.1644 15.0071 26.1644ZM18.0703 21.7755C18.0703 23.4673 16.6989 24.8387 15.0071 24.8387C13.3154 24.8387 11.944 23.4673 11.944 21.7755C11.944 20.0838 13.3154 18.7124 15.0071 18.7124C16.6989 18.7124 18.0703 20.0838 18.0703 21.7755ZM15.0076 23.1648C15.775 23.1648 16.3971 22.5427 16.3971 21.7753C16.3971 21.008 15.775 20.3859 15.0076 20.3859C14.2402 20.3859 13.6182 21.008 13.6182 21.7753C13.6182 22.5427 14.2402 23.1648 15.0076 23.1648Z" fill="white"/>
<path d="M38.6399 25.0899H42.3084V8.53069H49.2786V5.37655H31.7827V8.53069H38.6399V25.0899Z" fill="white"/>
<path d="M47.124 21.4852C47.124 23.9634 48.93 25.5123 51.6391 25.5123C53.9248 25.5123 55.364 24.1606 55.9566 22.1611H57.17C57.2265 24.3577 57.7627 25.0899 60.0766 25.0899H61.544V22.3864H60.2177C59.484 22.3864 59.3711 22.2455 59.3711 21.5415V15.8809C59.3711 12.4734 57.2547 10.6428 53.3887 10.6428C49.5791 10.6428 47.2087 12.6705 46.9265 14.7826L50.0588 15.5993C50.4256 14.1631 51.4698 13.2619 53.3887 13.2619C55.1665 13.2619 55.9566 14.0223 55.9566 15.4585V15.9373C53.2758 16.1907 51.1311 16.7258 49.5226 17.5707C47.9141 18.3874 47.124 19.711 47.124 21.4852ZM55.9566 19.3167C55.9566 21.7105 54.4892 22.9214 52.7396 22.9214C51.3851 22.9214 50.6232 22.2737 50.6232 21.1472C50.6232 19.3449 52.5985 18.5563 55.9566 18.1902V19.3167Z" fill="white"/>
<path d="M63.7888 25.0899H67.2315V5.37655H63.7888V25.0899Z" fill="white"/>
<path d="M71.3088 8.84047H74.9773V5.34839H71.3088V8.84047ZM71.4499 25.0899H74.8644V11.0653H71.4499V25.0899Z" fill="white"/>
<path d="M77.7866 21.4852C78.4074 23.9634 81.0601 25.4842 84.2206 25.4842C88.0866 25.4842 90.4288 23.71 90.4288 20.9783C90.4288 19.6828 89.9491 18.6971 89.0179 18.0213C88.0866 17.3454 86.9579 16.8666 85.6316 16.6132L83.7973 16.2752C82.1042 15.9373 81.6527 15.5148 81.6527 14.6981C81.6527 13.7688 82.471 13.1211 83.9666 13.1211C85.5751 13.1211 86.591 14.0504 87.0425 15.2614L89.9491 14.0223C89.3001 12.3044 87.4376 10.6428 84.0795 10.6428C80.7214 10.6428 78.3792 12.417 78.3792 15.0079C78.3792 17.6551 80.0724 18.6408 82.9225 19.2322L84.785 19.5702C86.3653 19.8799 86.8732 20.4432 86.8732 21.3162C86.8732 22.3019 85.9702 22.9214 84.3617 22.9214C82.1324 22.9214 81.2294 21.6823 80.9754 20.4432L77.7866 21.4852Z" fill="white"/>
<path d="M93.4961 25.0899H96.9389V18.1621C96.9389 16.585 97.0518 15.2895 97.9266 14.2757C98.3499 13.7688 98.9989 13.5153 99.8737 13.5153C101.567 13.5153 102.413 14.5292 102.413 16.5287V25.0899H105.8V18.1621C105.8 16.5568 105.884 15.2895 106.759 14.2757C107.182 13.7688 107.86 13.5153 108.735 13.5153C110.343 13.5153 111.274 14.4729 111.274 16.5287V25.0899H114.689V15.9373C114.689 12.5297 112.713 10.6428 110.004 10.6428C108.085 10.6428 106.533 11.9946 105.941 13.9378H104.727C104.248 11.8256 102.752 10.6428 100.861 10.6428C98.8014 10.6428 97.5879 12.0228 97.0518 13.9378H95.4433C96.0359 13.1211 96.5438 11.882 96.5438 11.0653H93.4961V25.0899Z" fill="white"/>
<path d="M117.865 21.4852C117.865 23.9634 119.671 25.5123 122.38 25.5123C124.666 25.5123 126.105 24.1606 126.698 22.1611H127.911C127.967 24.3577 128.504 25.0899 130.818 25.0899H132.285V22.3864H130.959C130.225 22.3864 130.112 22.2455 130.112 21.5415V15.8809C130.112 12.4734 127.996 10.6428 124.13 10.6428C120.32 10.6428 117.95 12.6705 117.667 14.7826L120.8 15.5993C121.167 14.1631 122.211 13.2619 124.13 13.2619C125.907 13.2619 126.698 14.0223 126.698 15.4585V15.9373C124.017 16.1907 121.872 16.7258 120.264 17.5707C118.655 18.3874 117.865 19.711 117.865 21.4852ZM126.698 19.3167C126.698 21.7105 125.23 22.9214 123.481 22.9214C122.126 22.9214 121.364 22.2737 121.364 21.1472C121.364 19.3449 123.34 18.5563 126.698 18.1902V19.3167Z" fill="white"/>
<path d="M134.53 25.0899H137.973V18.669C137.973 16.9793 138.085 15.5148 139.017 14.3884C139.496 13.797 140.23 13.5153 141.19 13.5153C142.798 13.5153 143.729 14.501 143.729 16.5287V25.0899H147.172V15.8528C147.172 12.6142 145.507 10.6428 142.347 10.6428C140.033 10.6428 138.565 12.417 137.944 14.3039H136.336C137.126 13.1492 137.69 11.882 137.719 11.0653H134.53V25.0899Z" fill="white"/>
</svg>
