<svg width="21" height="21" viewBox="0 0 21 21" xmlns="http://www.w3.org/2000/svg">
    <clipPath id="a">
        <path d="M.636.099h19.407v20.538H.636z"/>
    </clipPath>
    <g clip-path="url(#a)">
        <path fill-rule="evenodd" d="m4.689 4.73-.097 3.716c1.572.808 3.054.79 4.797.4.69-.271 1.174-.33 1.844 0 1.758.546 3.29.378 4.883-.435l-.094-3.72c0-2.095-1.358-2.901-2.837-2.47-.151.045-.377.247-.377.428l-.035 3.632a.343.343 0 0 1-.686-.003V1.812a1.713 1.713 0 0 0-3.427 0v4.466a.343.343 0 0 1-.686.003L7.94 2.647c0-.179-.215-.38-.365-.425-1.706-.506-2.885.492-2.885 2.508Zm.48 4.623a9.39 9.39 0 0 1-1.01-.437c-.917-.44-2.345-.303-3.31.797-.441.504-.1 1.233.537 1.444.307.102.585.274.844.467l.09.065c.801.575 1.317 1.436 1.368 2.421l.049.933a6.13 6.13 0 0 0 3.767 5.033 7.482 7.482 0 0 0 5.686 0 6.13 6.13 0 0 0 3.767-5.033c.009-.16.012-.32.01-.478l.024-.455c.051-.985.567-1.846 1.368-2.421l.09-.065c.26-.193.537-.365.844-.467.637-.211.979-.94.537-1.444-.965-1.1-2.393-1.236-3.31-.797-.333.16-.666.32-1.01.437l-.702.24-.002.008c-1.29.357-2.35.358-3.567-.144-.616-.254-1.237-.302-1.838 0-1.157.36-2.336.512-3.53.136l-.703-.24Zm5.17 8.673c2.596 0 4.7-3.024 4.7-3.024s-2.104-3.024-4.7-3.024c-2.595 0-4.699 3.024-4.699 3.024s2.104 3.024 4.7 3.024Zm2.11-3.024a2.11 2.11 0 1 1-4.22 0 2.11 2.11 0 0 1 4.22 0Zm-2.11.957a.957.957 0 1 0 0-1.914.957.957 0 0 0 0 1.914Z" fill="currentColor"/>
    </g>
</svg>
