<svg width="161" height="160" viewBox="0 0 161 160" fill="none" xmlns="http://www.w3.org/2000/svg">
<path fill-rule="evenodd" clip-rule="evenodd" d="M125.943 89.5776C127.35 92.7181 131.572 93.8155 134.005 91.3821L139.841 85.5468C144.286 81.1017 151.493 81.1017 155.938 85.5468L157.518 87.1273C161.963 91.5724 161.963 98.7793 157.518 103.224L118.546 142.197C109.374 153.083 95.6401 160 80.2906 160C64.2814 160 50.0295 152.476 40.8781 140.771L3.33382 103.227C-1.1113 98.782 -1.1113 91.5751 3.33381 87.13L4.91432 85.5495C9.35943 81.1044 16.5664 81.1044 21.0115 85.5495L26.6611 91.1991C29.0883 93.6263 33.2968 92.5416 34.7115 89.4141C34.7576 89.3122 34.804 89.2106 34.8507 89.1091C35.1345 88.493 35.2915 87.8249 35.2915 87.1466L35.2915 28.8822C35.2915 22.5958 40.3876 17.4998 46.6739 17.4998L48.9091 17.4998C55.1954 17.4998 60.2915 22.5958 60.2915 28.8822L60.2915 58.8905C60.2915 61.3765 62.8381 63.0639 65.2085 62.3149C66.7089 61.8408 67.7928 60.4748 67.7928 58.9014L67.7928 11.3826C67.7928 5.09625 72.8889 0.000160399 79.1752 0.00015875L81.4103 0.000158164C87.6967 0.000156515 92.7928 5.09622 92.7928 11.3826L92.7928 58.9038C92.7928 60.4766 93.8761 61.8419 95.3757 62.3159C97.7452 63.0648 100.291 61.378 100.291 58.893L100.291 28.8822C100.291 22.5958 105.387 17.4998 111.673 17.4998L113.908 17.4998C120.195 17.4998 125.291 22.5958 125.291 28.8822L125.291 87.1494C125.291 87.8276 125.448 88.4956 125.732 89.1116C125.803 89.2665 125.873 89.4218 125.943 89.5776Z" fill="#003A4D"/>
<path d="M120.294 115.001C120.294 115.001 102.385 140.001 80.2938 140.001C58.2024 140.001 40.2938 115.001 40.2938 115.001C40.2938 115.001 58.2024 90.001 80.2938 90.001C102.385 90.001 120.294 115.001 120.294 115.001Z" fill="#FD8FFF"/>
<path d="M99.5821 115C99.5821 125.653 90.9463 134.289 80.2935 134.289C69.6407 134.289 61.0049 125.653 61.0049 115C61.0049 104.347 69.6407 95.7114 80.2935 95.7114C90.9462 95.7114 99.582 104.347 99.5821 115Z" stroke="#003A4C" stroke-width="1.4228"/>
<path d="M92.0822 115C92.0822 121.511 86.8042 126.789 80.2936 126.789C73.7829 126.789 68.505 121.511 68.505 115C68.505 108.489 73.7829 103.211 80.2936 103.211C86.8042 103.211 92.0822 108.489 92.0822 115Z" stroke="#003A4C" stroke-width="1.4228"/>
<path d="M107.081 115C107.081 129.795 95.0874 141.789 80.2925 141.789C65.4976 141.789 53.5039 129.795 53.5039 115C53.5039 100.205 65.4975 88.2114 80.2925 88.2114C95.0874 88.2114 107.081 100.205 107.081 115Z" stroke="#003A4C" stroke-width="1.4228"/>
<path d="M114.581 115.001C114.581 133.938 99.2297 149.29 80.2926 149.29C61.3555 149.29 46.004 133.938 46.004 115.001C46.004 96.0639 61.3555 80.7124 80.2926 80.7124C99.2297 80.7124 114.581 96.0639 114.581 115.001Z" stroke="#003A4C" stroke-width="1.4228"/>
<path d="M84.5811 114.999C84.5811 117.368 82.661 119.288 80.2925 119.288C77.924 119.288 76.0039 117.368 76.0039 114.999C76.0039 112.63 77.924 110.71 80.2925 110.71C82.661 110.71 84.5811 112.63 84.5811 114.999Z" fill="#09FFC4" stroke="#003A4C" stroke-width="1.4228"/>
<path d="M84.5811 114.999C84.5811 117.368 82.661 119.288 80.2925 119.288C77.924 119.288 76.0039 117.368 76.0039 114.999C76.0039 112.63 77.924 110.71 80.2925 110.71C82.661 110.71 84.5811 112.63 84.5811 114.999Z" fill="#09FFC4" stroke="#003A4C" stroke-width="1.4228"/>
<path d="M41.6676 115.638C41.4679 115.382 41.3046 115.168 41.179 115.001C41.3046 114.834 41.4679 114.62 41.6676 114.364C42.1939 113.689 42.9722 112.722 43.9756 111.56C45.9833 109.235 48.8878 106.136 52.4745 103.039C59.6699 96.8267 69.5058 90.7124 80.2938 90.7124C91.0819 90.7124 100.918 96.8267 108.113 103.039C111.7 106.136 114.604 109.235 116.612 111.56C117.615 112.722 118.394 113.689 118.92 114.364C119.12 114.62 119.283 114.834 119.409 115.001C119.283 115.168 119.12 115.382 118.92 115.638C118.394 116.313 117.615 117.28 116.612 118.442C114.604 120.767 111.7 123.866 108.113 126.963C100.918 133.175 91.0819 139.29 80.2938 139.29C69.5058 139.29 59.6699 133.175 52.4745 126.963C48.8878 123.866 45.9833 120.767 43.9756 118.442C42.9722 117.28 42.1939 116.313 41.6676 115.638Z" stroke="#FD8FFF" stroke-width="1.4228"/>
</svg>
