<svg viewBox="0 0 32 32" xmlns="http://www.w3.org/2000/svg">
    <path d="M32 16c0 8.837-7.163 16-16 16S0 24.837 0 16 7.163 0 16 0s16 7.163 16 16z"/>
    <path fill="#e6007a" fill-rule="evenodd" d="M30.5 16c0-8.008-6.492-14.5-14.5-14.5S1.5 7.992 1.5 16 7.992 30.5 16 30.5 30.5 24.008 30.5 16z"/>
    <path fill="#fff" d="M20.068 7.068c0 1.308-1.821 2.368-4.068 2.368s-4.068-1.06-4.068-2.368c0-1.307 1.821-2.367 4.068-2.367s4.068 1.06 4.068 2.367z"/>
    <path fill="#fff" d="M20.068 24.9c0 1.307-1.821 2.366-4.068 2.366s-4.068-1.06-4.068-2.367 1.821-2.367 4.068-2.367 4.068 1.06 4.068 2.367z"/>
    <path fill="#fff" d="M10.314 8.003c1.132.653 1.14 2.76.016 4.707-1.124 1.946-2.952 2.993-4.085 2.34-1.132-.654-1.139-2.762-.015-4.708 1.123-1.945 2.952-2.993 4.084-2.34z"/>
    <path fill="#fff" d="M25.755 16.919c1.132.653 1.14 2.76.016 4.706-1.124 1.946-2.952 2.994-4.084 2.34-1.133-.654-1.14-2.76-.016-4.707 1.123-1.946 2.952-2.993 4.084-2.34z"/>
    <path fill="#fff" d="M10.33 19.258c1.123 1.946 1.116 4.053-.016 4.707-1.132.653-2.96-.394-4.084-2.34-1.124-1.946-1.116-4.053.016-4.707 1.132-.654 2.96.394 4.084 2.34z"/>
    <path fill="#fff" d="M25.77 10.343c1.124 1.946 1.116 4.053-.016 4.707-1.132.653-2.96-.394-4.084-2.34-1.123-1.946-1.116-4.053.016-4.707 1.132-.654 2.96.394 4.084 2.34z"/>
</svg>
