<svg width="125" height="26" viewBox="0 0 125 26" fill="none" xmlns="http://www.w3.org/2000/svg">
<path fill-rule="evenodd" clip-rule="evenodd" d="M20.1147 14.314C20.3587 14.8454 21.0772 15.0331 21.4907 14.6196L22.2494 13.8609C23.0331 13.0772 24.3038 13.0772 25.0875 13.8609C25.8712 14.6446 25.8712 15.9153 25.0875 16.699L18.9603 22.8262C17.4878 24.5758 15.2817 25.6875 12.8159 25.6875C10.2461 25.6875 7.95821 24.4799 6.48897 22.6011L0.587642 16.6998C-0.19607 15.9161 -0.196071 14.6454 0.58764 13.8617C1.37135 13.078 2.642 13.078 3.42571 13.8617L4.17268 14.6087C4.57721 15.0132 5.27949 14.8312 5.51842 14.3114C5.56562 14.2087 5.59129 14.0985 5.59129 13.9855L5.59128 4.81604C5.59128 3.7077 6.48976 2.80922 7.5981 2.80922C8.70643 2.80922 9.60492 3.7077 9.60492 4.81603L9.60492 9.45486C9.60492 9.854 10.0138 10.1249 10.3944 10.0047C10.6353 9.92853 10.8093 9.70923 10.8093 9.45661L10.8093 2.00639C10.8093 0.898052 11.7078 -0.00043312 12.8161 -0.00043341C13.9244 -0.000433701 14.8229 0.898047 14.8229 2.00638L14.8229 9.45687C14.8229 9.70938 14.9969 9.9286 15.2376 10.0047C15.6181 10.1249 16.0268 9.85411 16.0268 9.45513L16.0268 4.81603C16.0268 3.7077 16.9253 2.80922 18.0336 2.80922C19.1419 2.80922 20.0404 3.7077 20.0404 4.81603L20.0404 13.9817C20.0404 14.0969 20.0666 14.2093 20.1147 14.314Z" fill="#FD4848"/>
<path d="M19.2379 18.4629C19.2379 18.4629 16.3628 22.4765 12.8161 22.4765C9.26944 22.4765 6.39429 18.4629 6.39429 18.4629C6.39429 18.4629 9.26943 14.4492 12.8161 14.4492C16.3628 14.4492 19.2379 18.4629 19.2379 18.4629Z" fill="#D5FF5C"/>
<path d="M15.8261 18.4629C15.8261 20.1251 14.4786 21.4726 12.8164 21.4726C11.1542 21.4726 9.80667 20.1251 9.80667 18.4629C9.80667 16.8006 11.1542 15.4532 12.8164 15.4532C14.4786 15.4532 15.8261 16.8006 15.8261 18.4629Z" stroke="#FD4848" stroke-width="0.402401"/>
<path d="M14.6218 18.4629C14.6218 19.4601 13.8134 20.2685 12.8161 20.2685C11.8189 20.2685 11.0105 19.4601 11.0105 18.4629C11.0105 17.4657 11.8189 16.6573 12.8161 16.6573C13.8134 16.6573 14.6218 17.4657 14.6218 18.4629Z" stroke="#FD4848" stroke-width="0.402401"/>
<path d="M17.0299 18.4629C17.0299 20.7901 15.1433 22.6767 12.8161 22.6767C10.4889 22.6767 8.60232 20.7901 8.60232 18.4629C8.60232 16.1356 10.4889 14.2491 12.8161 14.2491C15.1433 14.2491 17.0299 16.1356 17.0299 18.4629Z" stroke="#FD4848" stroke-width="0.402401"/>
<path d="M18.234 18.4628C18.234 21.4551 15.8083 23.8807 12.8161 23.8807C9.8239 23.8807 7.39822 21.4551 7.39822 18.4628C7.39822 15.4706 9.8239 13.0449 12.8161 13.0449C15.8083 13.0449 18.234 15.4706 18.234 18.4628Z" stroke="#FD4848" stroke-width="0.402401"/>
<path d="M13.4177 18.4629C13.4177 18.7951 13.1484 19.0644 12.8162 19.0644C12.4839 19.0644 12.2146 18.7951 12.2146 18.4629C12.2146 18.1307 12.4839 17.8614 12.8162 17.8614C13.1484 17.8614 13.4177 18.1307 13.4177 18.4629Z" fill="#162BEB" stroke="#FD4848" stroke-width="0.402401"/>
<ellipse cx="12.8162" cy="18.4629" rx="0.802728" ry="0.802728" fill="#FD4848"/>
<path d="M6.68344 18.5116C6.66978 18.4941 6.6572 18.4778 6.64571 18.4629C6.6572 18.4479 6.66978 18.4316 6.68344 18.4141C6.76716 18.3067 6.89118 18.1525 7.05122 17.9672C7.37153 17.5963 7.83485 17.1021 8.40669 16.6083C9.55661 15.6154 11.1156 14.6504 12.8161 14.6504C14.5166 14.6504 16.0756 15.6154 17.2255 16.6083C17.7974 17.1021 18.2607 17.5963 18.581 17.9672C18.741 18.1525 18.8651 18.3067 18.9488 18.4141C18.9624 18.4316 18.975 18.4479 18.9865 18.4629C18.975 18.4778 18.9624 18.4941 18.9488 18.5116C18.8651 18.619 18.741 18.7732 18.581 18.9585C18.2607 19.3294 17.7974 19.8236 17.2255 20.3174C16.0756 21.3103 14.5166 22.2753 12.8161 22.2753C11.1156 22.2753 9.55661 21.3103 8.40669 20.3174C7.83485 19.8236 7.37153 19.3294 7.05122 18.9585C6.89118 18.7732 6.76716 18.619 6.68344 18.5116Z" stroke="#D5FF5C" stroke-width="0.402401"/>
<path d="M34.2751 21.7011H37.3417V7.83062H43.1683V5.18863H28.543V7.83062H34.2751V21.7011Z" fill="white"/>
<path d="M41.3672 18.6817C41.3672 20.7575 42.8769 22.0549 45.1415 22.0549C47.0522 22.0549 48.2553 20.9226 48.7506 19.2478H49.765C49.8121 21.0878 50.2603 21.7011 52.1947 21.7011H53.4213V19.4365H52.3126C51.6993 19.4365 51.6049 19.3186 51.6049 18.7288V13.9874C51.6049 11.1331 49.8357 9.59981 46.604 9.59981C43.4195 9.59981 41.438 11.2982 41.2021 13.0674L43.8205 13.7515C44.1271 12.5485 44.9999 11.7936 46.604 11.7936C48.0901 11.7936 48.7506 12.4305 48.7506 13.6336V14.0346C46.5097 14.2469 44.7169 14.6951 43.3723 15.4028C42.0277 16.0868 41.3672 17.1955 41.3672 18.6817ZM48.7506 16.8653C48.7506 18.8704 47.524 19.8847 46.0615 19.8847C44.9292 19.8847 44.2923 19.3422 44.2923 18.3986C44.2923 16.8889 45.9435 16.2284 48.7506 15.9217V16.8653Z" fill="white"/>
<path d="M55.2977 21.7011H58.1756V5.18863H55.2977V21.7011Z" fill="white"/>
<path d="M61.5839 8.0901H64.6505V5.16504H61.5839V8.0901ZM61.7019 21.7011H64.5561V9.95365H61.7019V21.7011Z" fill="white"/>
<path d="M66.9989 18.6817C67.5179 20.7575 69.7353 22.0313 72.3773 22.0313C75.609 22.0313 77.5669 20.5452 77.5669 18.2571C77.5669 17.1719 77.1659 16.3463 76.3874 15.7802C75.609 15.214 74.6654 14.813 73.5567 14.6007L72.0234 14.3177C70.6081 14.0346 70.2306 13.6807 70.2306 12.9967C70.2306 12.2182 70.9147 11.6757 72.165 11.6757C73.5095 11.6757 74.3588 12.4541 74.7362 13.4684L77.1659 12.4305C76.6233 10.9916 75.0664 9.59981 72.2593 9.59981C69.4522 9.59981 67.4943 11.0859 67.4943 13.2561C67.4943 15.4735 68.9096 16.2991 71.2922 16.7945L72.849 17.0776C74.17 17.3371 74.5946 17.8089 74.5946 18.5401C74.5946 19.3657 73.8398 19.8847 72.4952 19.8847C70.6317 19.8847 69.8768 18.8468 69.6645 17.8089L66.9989 18.6817Z" fill="white"/>
<path d="M80.1309 21.7011H83.0088V15.8981C83.0088 14.5771 83.1032 13.492 83.8344 12.6428C84.1883 12.2182 84.7308 12.0059 85.4621 12.0059C86.8774 12.0059 87.5851 12.8551 87.5851 14.53V21.7011H90.4158V15.8981C90.4158 14.5535 90.4866 13.492 91.2179 12.6428C91.5717 12.2182 92.1378 12.0059 92.8691 12.0059C94.2137 12.0059 94.9921 12.8079 94.9921 14.53V21.7011H97.8464V14.0346C97.8464 11.1803 96.1952 9.59981 93.9306 9.59981C92.3265 9.59981 91.0291 10.7321 90.5338 12.3597H89.5194C89.1184 10.5906 87.8682 9.59981 86.2877 9.59981C84.5657 9.59981 83.5514 10.7557 83.1032 12.3597H81.7586C82.254 11.6757 82.6786 10.6377 82.6786 9.95365H80.1309V21.7011Z" fill="white"/>
<path d="M100.502 18.6817C100.502 20.7575 102.011 22.0549 104.276 22.0549C106.187 22.0549 107.39 20.9226 107.885 19.2478H108.899C108.946 21.0878 109.395 21.7011 111.329 21.7011H112.556V19.4365H111.447C110.834 19.4365 110.739 19.3186 110.739 18.7288V13.9874C110.739 11.1331 108.97 9.59981 105.738 9.59981C102.554 9.59981 100.572 11.2982 100.336 13.0674L102.955 13.7515C103.261 12.5485 104.134 11.7936 105.738 11.7936C107.224 11.7936 107.885 12.4305 107.885 13.6336V14.0346C105.644 14.2469 103.851 14.6951 102.507 15.4028C101.162 16.0868 100.502 17.1955 100.502 18.6817ZM107.885 16.8653C107.885 18.8704 106.658 19.8847 105.196 19.8847C104.063 19.8847 103.427 19.3422 103.427 18.3986C103.427 16.8889 105.078 16.2284 107.885 15.9217V16.8653Z" fill="white"/>
<path d="M114.432 21.7011H117.31V16.3227C117.31 14.9074 117.404 13.6807 118.183 12.7372C118.584 12.2418 119.197 12.0059 119.999 12.0059C121.344 12.0059 122.122 12.8315 122.122 14.53V21.7011H125V13.9638C125 11.2511 123.608 9.59981 120.966 9.59981C119.032 9.59981 117.805 11.0859 117.286 12.6664H115.942C116.602 11.6992 117.074 10.6377 117.098 9.95365H114.432V21.7011Z" fill="white"/>
</svg>