<svg width="72" height="77" viewBox="0 0 72 77" xmlns="http://www.w3.org/2000/svg">
    <path fill="#fff" d="M4.244 76.244h2.27v-10.27h4.315v-1.956H0v1.956h4.244v10.27Z"/>
    <path fill="#fff" d="M9.495 74.008c0 1.537 1.118 2.498 2.795 2.498 1.415 0 2.306-.839 2.672-2.079h.751c.035 1.363.367 1.817 1.8 1.817h.907v-1.677h-.82c-.455 0-.524-.087-.524-.524v-3.51c0-2.114-1.31-3.25-3.703-3.25-2.358 0-3.825 1.258-4 2.568l1.939.507c.227-.891.873-1.45 2.06-1.45 1.101 0 1.59.472 1.59 1.362v.297c-1.659.157-2.986.49-3.982 1.013-.996.507-1.485 1.328-1.485 2.428Zm5.467-1.345c0 1.485-.908 2.236-1.99 2.236-.84 0-1.31-.402-1.31-1.1 0-1.118 1.222-1.607 3.3-1.835v.7Z"/>
    <path fill="#fff" d="M19.81 76.244h2.13V64.018h-2.13v12.226Z"/>
    <path fill="#fff" d="M24.464 66.166h2.27V64h-2.27v2.166Zm.088 10.078h2.113v-8.698h-2.113v8.698Z"/>
    <path fill="#fff" d="M28.474 74.008c.384 1.537 2.026 2.48 3.982 2.48 2.393 0 3.842-1.1 3.842-2.794 0-.804-.296-1.415-.873-1.834-.576-.42-1.275-.716-2.096-.874l-1.135-.21c-1.048-.209-1.327-.47-1.327-.977 0-.577.506-.978 1.432-.978.995 0 1.624.576 1.904 1.327l1.799-.768c-.402-1.066-1.555-2.096-3.633-2.096-2.079 0-3.529 1.1-3.529 2.707 0 1.642 1.049 2.253 2.813 2.62l1.152.21c.978.191 1.293.54 1.293 1.082 0 .612-.56.996-1.555.996-1.38 0-1.938-.769-2.096-1.537l-1.973.646Z"/>
    <path fill="#fff" d="M38.197 76.244h2.13v-4.297c0-.978.07-1.782.612-2.41.262-.315.664-.472 1.205-.472 1.048 0 1.572.629 1.572 1.869v5.31h2.096v-4.297c0-.996.053-1.782.594-2.41.262-.315.681-.472 1.223-.472.995 0 1.572.594 1.572 1.869v5.31h2.113v-5.677c0-2.113-1.223-3.283-2.9-3.283-1.187 0-2.148.838-2.514 2.043h-.752c-.296-1.31-1.222-2.043-2.392-2.043-1.275 0-2.026.856-2.358 2.043h-.996c.367-.506.681-1.275.681-1.781h-1.886v8.698Z"/>
    <path fill="#fff" d="M53.28 74.008c0 1.537 1.118 2.498 2.794 2.498 1.415 0 2.306-.839 2.673-2.079h.75c.036 1.363.368 1.817 1.8 1.817h.908v-1.677h-.82c-.455 0-.525-.087-.525-.524v-3.51c0-2.114-1.31-3.25-3.703-3.25-2.358 0-3.825 1.258-4 2.568l1.94.507c.226-.891.873-1.45 2.06-1.45 1.1 0 1.59.472 1.59 1.362v.297c-1.66.157-2.987.49-3.983 1.013-.995.507-1.484 1.328-1.484 2.428Zm5.467-1.345c0 1.485-.908 2.236-1.991 2.236-.839 0-1.31-.402-1.31-1.1 0-1.118 1.222-1.607 3.3-1.835v.7Z"/>
    <path fill="#fff" d="M63.594 76.244h2.131V72.26c0-1.047.07-1.956.646-2.654.297-.367.751-.542 1.345-.542.996 0 1.572.611 1.572 1.869v5.31h2.131v-5.73c0-2.008-1.03-3.23-2.986-3.23-1.433 0-2.341 1.1-2.725 2.27h-.996c.49-.716.839-1.502.856-2.008h-1.974v8.698Z"/>
    <path fill="#fff" fill-rule="evenodd" d="m21.599 11.67-.23 8.818c3.73 1.919 7.247 1.877 11.382.948 1.64-.642 2.786-.78 4.377 0 4.17 1.297 7.806.9 11.586-1.03l-.223-8.829c0-4.971-3.224-6.884-6.732-5.858-.359.104-.895.585-.895 1.014l-.083 8.618a.814.814 0 0 1-1.628-.008V4.746a4.065 4.065 0 1 0-8.13 0v10.597a.814.814 0 0 1-1.629.008l-.082-8.622c0-.426-.511-.905-.867-1.01-4.048-1.2-6.846 1.169-6.846 5.951Zm1.138 10.97c-.816-.279-1.606-.657-2.396-1.036-2.176-1.042-5.564-.719-7.852 1.89-1.05 1.197-.238 2.927 1.272 3.428.728.241 1.388.65 2.004 1.107l.213.155c1.901 1.365 3.125 3.409 3.247 5.746l.115 2.213a14.545 14.545 0 0 0 8.939 11.942 17.754 17.754 0 0 0 13.493 0 14.545 14.545 0 0 0 8.939-11.942c.02-.379.027-.757.023-1.135l.056-1.078c.122-2.337 1.345-4.381 3.247-5.746l.213-.155c.616-.457 1.276-.866 2.004-1.107 1.51-.501 2.321-2.231 1.272-3.428-2.288-2.609-5.676-2.932-7.853-1.89-.79.379-1.58.757-2.395 1.036l-1.668.57-.003.02c-3.06.846-5.577.849-8.465-.343-1.46-.603-2.935-.716-4.362 0-2.745.854-5.542 1.215-8.375.323l-1.668-.57Zm12.27 20.58c6.159 0 11.151-7.175 11.151-7.175s-4.992-7.176-11.151-7.176-11.151 7.176-11.151 7.176 4.992 7.176 11.15 7.176Zm5.008-7.174a5.008 5.008 0 1 1-10.016 0 5.008 5.008 0 0 1 10.016 0Zm-5.007 2.27a2.272 2.272 0 1 0 0-4.542 2.272 2.272 0 0 0 0 4.543Z"/>
</svg>
