<svg width="72" height="77" viewBox="0 0 72 77" fill="none" xmlns="http://www.w3.org/2000/svg">
<path fill-rule="evenodd" clip-rule="evenodd" d="M49.3067 26.7464C49.7631 27.7399 51.1065 28.0909 51.8796 27.3177L53.2961 25.9013C54.7606 24.4368 57.1349 24.4368 58.5994 25.9013C60.0639 27.3657 60.0639 29.7401 58.5994 31.2046L47.1465 42.6575C44.3949 45.9243 40.2741 48 35.6686 48C30.8655 48 26.5897 45.7426 23.8443 42.2308L12.8188 31.2052C11.3543 29.7408 11.3543 27.3664 12.8188 25.9019C14.2832 24.4375 16.6576 24.4375 18.1221 25.9019L19.5175 27.2974C20.2735 28.0534 21.5859 27.7134 22.0324 26.742C22.1206 26.5501 22.1686 26.3441 22.1686 26.1328L22.1686 8.99993C22.1686 6.92887 23.8475 5.24994 25.9186 5.24994C27.9896 5.24994 29.6686 6.92887 29.6686 8.99993L29.6686 17.6675C29.6686 18.4132 30.4324 18.9194 31.1435 18.6947C31.5935 18.5525 31.9186 18.1427 31.9186 17.6708L31.9186 3.75C31.9186 1.67894 33.5975 1.44747e-05 35.6686 1.39315e-05C37.7396 1.33883e-05 39.4186 1.67894 39.4186 3.75L39.4186 17.671C39.4186 18.1429 39.7436 18.5524 40.1935 18.6946C40.9043 18.9192 41.6679 18.4132 41.6679 17.6678L41.6679 8.99994C41.6679 6.92888 43.3468 5.24995 45.4178 5.24995C47.4889 5.24995 49.1678 6.92887 49.1678 8.99993L49.1678 26.1249C49.1678 26.3404 49.2168 26.5505 49.3067 26.7464Z" fill="#FF3D23"/>
<path d="M47.6684 34.5C47.6684 34.5 42.2958 42 35.6684 42C29.041 42 23.6685 34.5 23.6685 34.5C23.6685 34.5 29.041 27 35.6684 27C42.2958 27 47.6684 34.5 47.6684 34.5Z" fill="#D5FF5C"/>
<path d="M41.3031 34.5C41.3031 37.6114 38.7808 40.1337 35.6694 40.1337C32.558 40.1337 30.0357 37.6114 30.0357 34.5C30.0357 31.3886 32.558 28.8663 35.6694 28.8663C38.7808 28.8663 41.3031 31.3886 41.3031 34.5Z" stroke="#FF3D23" stroke-width="0.732536"/>
<path d="M39.0522 34.5001C39.0522 36.3689 37.5372 37.8838 35.6685 37.8838C33.7997 37.8838 32.2847 36.3689 32.2847 34.5001C32.2847 32.6313 33.7997 31.1164 35.6684 31.1164C37.5372 31.1164 39.0522 32.6313 39.0522 34.5001Z" stroke="#FF3D23" stroke-width="0.732536"/>
<path d="M43.5531 34.5C43.5531 38.854 40.0235 42.3837 35.6694 42.3837C31.3154 42.3837 27.7857 38.854 27.7857 34.5C27.7857 30.1459 31.3154 26.6163 35.6694 26.6163C40.0235 26.6163 43.5531 30.1459 43.5531 34.5Z" stroke="#FF3D23" stroke-width="0.732536"/>
<path d="M45.8021 34.5C45.8021 40.0967 41.2651 44.6337 35.6684 44.6337C30.0717 44.6337 25.5347 40.0967 25.5347 34.5C25.5347 28.9033 30.0717 24.3663 35.6684 24.3663C41.2651 24.3663 45.8021 28.9033 45.8021 34.5Z" stroke="#FF3D23" stroke-width="0.732536"/>
<path d="M36.8032 34.4999C36.8032 35.126 36.2956 35.6336 35.6694 35.6336C35.0433 35.6336 34.5357 35.126 34.5357 34.4999C34.5357 33.8737 35.0433 33.3661 35.6694 33.3661C36.2956 33.3661 36.8032 33.8737 36.8032 34.4999Z" fill="#162BEB" stroke="#FF3D23" stroke-width="0.732536"/>
<ellipse cx="35.6694" cy="34.4999" rx="1.5" ry="1.5" fill="#FF3D23"/>
<path d="M24.2011 34.5971C24.1738 34.562 24.1487 34.5296 24.126 34.5C24.1487 34.4704 24.1738 34.438 24.2011 34.4029C24.3576 34.2021 24.5895 33.9139 24.8887 33.5675C25.4874 32.8742 26.3535 31.9502 27.4225 31.0272C29.5719 29.1714 32.4874 27.3663 35.6684 27.3663C38.8495 27.3663 41.765 29.1714 43.9143 31.0272C44.9833 31.9502 45.8494 32.8742 46.4482 33.5675C46.7474 33.9139 46.9792 34.2021 47.1357 34.4029C47.1631 34.438 47.1881 34.4704 47.2108 34.5C47.1881 34.5296 47.1631 34.562 47.1357 34.5971C46.9792 34.7979 46.7474 35.086 46.4482 35.4325C45.8494 36.1258 44.9833 37.0497 43.9143 37.9727C41.765 39.8286 38.8495 41.6337 35.6684 41.6337C32.4874 41.6337 29.5719 39.8286 27.4225 37.9728C26.3535 37.0497 25.4874 36.1258 24.8887 35.4325C24.5895 35.0861 24.3576 34.7979 24.2011 34.5971Z" stroke="#D5FF5C" stroke-width="0.732536"/>
<path d="M4.24425 76.2437H6.51483V65.9737H10.8289V64.0175H0V65.9737H4.24425V76.2437Z" fill="white"/>
<path d="M9.49538 74.008C9.49538 75.5451 10.6132 76.5057 12.2899 76.5057C13.7047 76.5057 14.5955 75.6673 14.9623 74.4272H15.7133C15.7482 75.7896 16.0801 76.2437 17.5123 76.2437H18.4205V74.567H17.5996C17.1455 74.567 17.0756 74.4796 17.0756 74.043V70.5323C17.0756 68.4189 15.7657 67.2836 13.3728 67.2836C11.0149 67.2836 9.54778 68.5412 9.37312 69.8511L11.3119 70.3576C11.5389 69.4669 12.1852 68.908 13.3728 68.908C14.4732 68.908 14.9623 69.3795 14.9623 70.2703V70.5672C13.303 70.7244 11.9756 71.0563 10.98 71.5803C9.98443 72.0868 9.49538 72.9077 9.49538 74.008ZM14.9623 72.6632C14.9623 74.1478 14.054 74.8988 12.9711 74.8988C12.1328 74.8988 11.6612 74.4971 11.6612 73.7984C11.6612 72.6806 12.8838 72.1916 14.9623 71.9645V72.6632Z" fill="white"/>
<path d="M19.8099 76.2437H21.9408V64.0175H19.8099V76.2437Z" fill="white"/>
<path d="M24.4643 66.1658H26.7349V64H24.4643V66.1658ZM24.5517 76.2437H26.665V67.5456H24.5517V76.2437Z" fill="white"/>
<path d="M28.4737 74.008C28.858 75.5451 30.4998 76.4882 32.456 76.4882C34.8488 76.4882 36.2985 75.3879 36.2985 73.6937C36.2985 72.8902 36.0016 72.2789 35.4252 71.8597C34.8488 71.4405 34.1502 71.1436 33.3293 70.9864L32.194 70.7768C31.146 70.5672 30.8666 70.3052 30.8666 69.7987C30.8666 69.2223 31.3731 68.8206 32.2988 68.8206C33.2944 68.8206 33.9231 69.397 34.2026 70.148L36.0016 69.3795C35.5999 68.3141 34.4471 67.2836 32.3687 67.2836C30.2902 67.2836 28.8405 68.384 28.8405 69.9909C28.8405 71.6327 29.8885 72.244 31.6526 72.6108L32.8053 72.8203C33.7834 73.0125 34.0978 73.3618 34.0978 73.9032C34.0978 74.5146 33.5389 74.8988 32.5433 74.8988C31.1635 74.8988 30.6046 74.1303 30.4474 73.3618L28.4737 74.008Z" fill="white"/>
<path d="M38.197 76.2437H40.3279V71.947C40.3279 70.9689 40.3977 70.1655 40.9392 69.5367C41.2012 69.2223 41.6029 69.0652 42.1443 69.0652C43.1923 69.0652 43.7163 69.6939 43.7163 70.934V76.2437H45.8122V71.947C45.8122 70.9515 45.8646 70.1655 46.406 69.5367C46.668 69.2223 47.0872 69.0652 47.6287 69.0652C48.6242 69.0652 49.2006 69.659 49.2006 70.934V76.2437H51.314V70.5672C51.314 68.4538 50.0914 67.2836 48.4146 67.2836C47.2269 67.2836 46.2663 68.122 45.8995 69.3271H45.1485C44.8516 68.0172 43.9259 67.2836 42.7556 67.2836C41.4806 67.2836 40.7296 68.1395 40.3977 69.3271H39.4022C39.7689 68.8206 40.0833 68.0521 40.0833 67.5456H38.197V76.2437Z" fill="white"/>
<path d="M53.2799 74.008C53.2799 75.5451 54.3977 76.5057 56.0744 76.5057C57.4892 76.5057 58.38 75.6673 58.7467 74.4272H59.4978C59.5327 75.7896 59.8646 76.2437 61.2968 76.2437H62.205V74.567H61.3841C60.93 74.567 60.8601 74.4796 60.8601 74.043V70.5323C60.8601 68.4189 59.5502 67.2836 57.1573 67.2836C54.7994 67.2836 53.3323 68.5412 53.1576 69.8511L55.0963 70.3576C55.3234 69.4669 55.9696 68.908 57.1573 68.908C58.2577 68.908 58.7467 69.3795 58.7467 70.2703V70.5672C57.0875 70.7244 55.76 71.0563 54.7645 71.5803C53.7689 72.0868 53.2799 72.9077 53.2799 74.008ZM58.7467 72.6632C58.7467 74.1478 57.8385 74.8988 56.7556 74.8988C55.9172 74.8988 55.4457 74.4971 55.4457 73.7984C55.4457 72.6806 56.6683 72.1916 58.7467 71.9645V72.6632Z" fill="white"/>
<path d="M63.5944 76.2437H65.7252V72.2614C65.7252 71.2135 65.7951 70.3052 66.3715 69.6066C66.6684 69.2398 67.1225 69.0652 67.7164 69.0652C68.7119 69.0652 69.2883 69.6765 69.2883 70.934V76.2437H71.4192V70.5148C71.4192 68.5062 70.3887 67.2836 68.4325 67.2836C67.0003 67.2836 66.092 68.384 65.7078 69.5542H64.7122C65.2013 68.8381 65.5506 68.0521 65.5681 67.5456H63.5944V76.2437Z" fill="white"/>
</svg>
