<svg width="196" height="41" viewBox="0 0 196 41" fill="none" xmlns="http://www.w3.org/2000/svg">
<path d="M54.0429 32.5357H58.8222V10.9187H67.9027V6.80123H45.1094V10.9187H54.0429V32.5357Z" fill="white"/>
<path d="M65.0958 27.8299C65.0958 31.0651 67.4486 33.0871 70.9779 33.0871C73.9558 33.0871 75.8307 31.3225 76.6027 28.7123H78.1836C78.2571 31.5798 78.9556 32.5357 81.9702 32.5357H83.8819V29.0064H82.154C81.1982 29.0064 81.0511 28.8225 81.0511 27.9035V20.514C81.0511 16.0656 78.2939 13.676 73.2573 13.676C68.2942 13.676 65.2061 16.323 64.8384 19.0802L68.9192 20.1464C69.3971 18.2714 70.7574 17.095 73.2573 17.095C75.5734 17.095 76.6027 18.0876 76.6027 19.9626V20.5875C73.1102 20.9184 70.3162 21.6169 68.2207 22.7198C66.1252 23.786 65.0958 25.5138 65.0958 27.8299ZM76.6027 24.9991C76.6027 28.124 74.691 29.7049 72.4117 29.7049C70.6471 29.7049 69.6545 28.8593 69.6545 27.3888C69.6545 25.0359 72.2279 24.0065 76.6027 23.5286V24.9991Z" fill="white"/>
<path d="M86.8063 32.5357H91.2915V6.80123H86.8063V32.5357Z" fill="white"/>
<path d="M96.6032 11.3231H101.382V6.76447H96.6032V11.3231ZM96.787 32.5357H101.235V14.2275H96.787V32.5357Z" fill="white"/>
<path d="M105.042 27.8299C105.851 31.0651 109.307 33.0504 113.425 33.0504C118.461 33.0504 121.512 30.7343 121.512 27.1682C121.512 25.4771 120.888 24.1904 119.674 23.308C118.461 22.4257 116.991 21.8007 115.263 21.4699L112.873 21.0287C110.667 20.5875 110.079 20.0361 110.079 18.9699C110.079 17.7567 111.145 16.9112 113.094 16.9112C115.189 16.9112 116.513 18.1244 117.101 19.7052L120.888 18.0876C120.042 15.845 117.616 13.676 113.241 13.676C108.866 13.676 105.814 15.9921 105.814 19.3743C105.814 22.8301 108.02 24.1168 111.733 24.8889L114.16 25.33C116.219 25.7344 116.88 26.4697 116.88 27.6094C116.88 28.8961 115.704 29.7049 113.608 29.7049C110.704 29.7049 109.528 28.0873 109.197 26.4697L105.042 27.8299Z" fill="white"/>
<path d="M125.509 32.5357H129.994V23.4918C129.994 21.4331 130.141 19.742 131.28 18.4185C131.832 17.7567 132.677 17.4259 133.817 17.4259C136.023 17.4259 137.126 18.7494 137.126 21.3596V32.5357H141.537V23.4918C141.537 21.3963 141.648 19.742 142.787 18.4185C143.339 17.7567 144.221 17.4259 145.361 17.4259C147.456 17.4259 148.669 18.6758 148.669 21.3596V32.5357H153.118V20.5875C153.118 16.1392 150.544 13.676 147.015 13.676C144.515 13.676 142.493 15.4406 141.721 17.9773H140.14C139.515 15.2201 137.567 13.676 135.104 13.676C132.42 13.676 130.839 15.4774 130.141 17.9773H128.045C128.817 16.9112 129.479 15.2936 129.479 14.2275H125.509V32.5357Z" fill="white"/>
<path d="M157.256 27.8299C157.256 31.0651 159.609 33.0871 163.138 33.0871C166.116 33.0871 167.991 31.3225 168.763 28.7123H170.344C170.417 31.5798 171.116 32.5357 174.13 32.5357H176.042V29.0064H174.314C173.358 29.0064 173.211 28.8225 173.211 27.9035V20.514C173.211 16.0656 170.454 13.676 165.417 13.676C160.454 13.676 157.366 16.323 156.998 19.0802L161.079 20.1464C161.557 18.2714 162.917 17.095 165.417 17.095C167.733 17.095 168.763 18.0876 168.763 19.9626V20.5875C165.27 20.9184 162.476 21.6169 160.381 22.7198C158.285 23.786 157.256 25.5138 157.256 27.8299ZM168.763 24.9991C168.763 28.124 166.851 29.7049 164.572 29.7049C162.807 29.7049 161.814 28.8593 161.814 27.3888C161.814 25.0359 164.388 24.0065 168.763 23.5286V24.9991Z" fill="white"/>
<path d="M178.966 32.5357H183.451V24.1536C183.451 21.9478 183.599 20.0361 184.812 18.5655C185.437 17.7935 186.393 17.4259 187.643 17.4259C189.738 17.4259 190.951 18.7126 190.951 21.3596V32.5357H195.436V20.4772C195.436 16.2494 193.267 13.676 189.15 13.676C186.135 13.676 184.224 15.9921 183.415 18.4553H181.319C182.349 16.9479 183.084 15.2936 183.121 14.2275H178.966V32.5357Z" fill="white"/>
<path d="M16.9303 28.8019C16.9303 30.8621 18.5888 32.535 20.6435 32.5584C22.6982 32.535 24.3566 30.8621 24.3566 28.8019C24.3566 26.7416 22.6982 25.0687 20.6435 25.0453C18.5888 25.0687 16.9303 26.7416 16.9303 28.8019Z" fill="white"/>
<path fill-rule="evenodd" clip-rule="evenodd" d="M9.3006 22.3292C8.91979 23.1585 7.79847 23.4514 7.15321 22.8061L5.97035 21.6233C4.74775 20.4007 2.76552 20.4007 1.54293 21.6233C0.320326 22.8459 0.320326 24.8281 1.54293 26.0507L11.1068 35.6146C13.3953 38.33 16.8173 40.0589 20.6435 40.0718C24.4696 40.0589 27.8916 38.33 30.1801 35.6146L39.744 26.0507C40.9666 24.8281 40.9666 22.8459 39.744 21.6233C38.5214 20.4007 36.5392 20.4007 35.3166 21.6233L34.1337 22.8061C33.4884 23.4514 32.3671 23.1585 31.9863 22.3292C31.9112 22.1657 31.8704 21.9904 31.8704 21.8106L31.8704 7.51325C31.8704 5.78423 30.4688 4.3826 28.7397 4.3826C27.0107 4.3826 25.6091 5.78424 25.6091 7.51325L25.6091 14.7495C25.6091 15.3718 24.9717 15.7942 24.3783 15.6066C24.0028 15.488 23.7316 15.1461 23.7316 14.7523L23.7316 3.13037C23.7316 1.41556 22.3529 0.0227718 20.6435 0C18.9341 0.0227718 17.5554 1.41556 17.5554 3.13037L17.5554 14.7523C17.5554 15.1461 17.2841 15.488 16.9086 15.6066C16.3152 15.7942 15.6778 15.3718 15.6778 14.7495L15.6778 7.51325C15.6778 5.78424 14.2762 4.3826 12.5472 4.3826C10.8181 4.3826 9.4165 5.78423 9.4165 7.51325L9.4165 21.8106C9.4165 21.9904 9.37566 22.1657 9.3006 22.3292ZM20.6435 22.5405C15.1308 22.5735 10.6693 28.8017 10.6693 28.8017C10.6693 28.8017 15.1308 35.0299 20.6435 35.0629C26.1561 35.0299 30.6176 28.8017 30.6176 28.8017C30.6176 28.8017 26.1561 22.5735 20.6435 22.5405Z" fill="white"/>
</svg>
