<svg viewBox="0 0 21 24" fill="none" xmlns="http://www.w3.org/2000/svg">
    <path fill-rule="evenodd" clip-rule="evenodd" d="M19.727 5.757l.562-1.381s-.716-.768-1.585-1.638c-.868-.87-2.708-.358-2.708-.358L13.9 0H6.54L4.446 2.38s-1.84-.512-2.708.358C.868 3.608.153 4.376.153 4.376l.562 1.381L0 7.804s2.104 7.98 2.35 8.955c.486 1.918.819 2.66 2.198 3.633 1.38.972 3.884 2.66 4.293 2.916.41.256.92.692 1.38.692.46 0 .971-.436 1.38-.692.409-.256 2.913-1.944 4.293-2.916 1.38-.973 1.712-1.715 2.197-3.633.247-.975 2.351-8.955 2.351-8.955l-.715-2.047z" fill="url(#paint0_linear_5884_19596)"/>
    <path fill-rule="evenodd" clip-rule="evenodd" d="M15.408 3.888s2.695 3.262 2.695 3.96c0 .696-.34.88-.68 1.243l-2.02 2.148c-.192.204-.59.512-.356 1.067.234.554.58 1.26.196 1.976-.385.716-1.043 1.194-1.464 1.115-.422-.08-1.412-.597-1.776-.834-.364-.237-1.518-1.19-1.518-1.554 0-.365 1.193-1.02 1.413-1.168.22-.149 1.226-.724 1.246-.95.02-.226.013-.293-.284-.851-.296-.558-.83-1.304-.742-1.8.09-.495.951-.753 1.566-.985.615-.233 1.799-.672 1.946-.74.148-.069.11-.134-.338-.176-.448-.043-1.72-.212-2.292-.052-.573.16-1.553.404-1.632.533-.08.129-.15.133-.068.578.082.445.501 2.582.542 2.961.04.38.12.63-.289.724-.408.093-1.096.256-1.332.256-.237 0-.925-.163-1.333-.256-.409-.094-.33-.345-.288-.724.04-.38.46-2.516.541-2.96.081-.446.011-.45-.068-.58-.08-.128-1.058-.372-1.631-.532-.574-.16-1.845.01-2.293.052-.448.042-.486.107-.338.176.148.068 1.332.507 1.946.74.615.232 1.477.49 1.566.986.089.495-.446 1.24-.742 1.799-.297.558-.305.625-.284.85.02.226 1.026.802 1.246.95.22.15 1.413.804 1.413 1.169 0 .364-1.154 1.317-1.518 1.554-.364.237-1.354.755-1.776.834-.421.079-1.08-.399-1.463-1.115-.384-.716-.039-1.422.195-1.976.234-.555-.164-.863-.355-1.067l-2.02-2.148c-.342-.363-.68-.547-.68-1.244s2.694-3.959 2.694-3.959 2.275.435 2.581.435c.307 0 .971-.256 1.585-.46.613-.205 1.022-.207 1.022-.207s.409.002 1.022.206c.613.205 1.277.46 1.584.46.307 0 2.58-.434 2.58-.434zm-2.02 12.478c.166.105.065.302-.088.41a124.03 124.03 0 00-2.392 1.865c-.198.175-.49.464-.687.464-.198 0-.49-.289-.688-.464-.198-.175-2.24-1.758-2.392-1.866-.152-.107-.254-.304-.087-.41.167-.104.689-.367 1.409-.74.72-.374 1.618-.691 1.758-.691.14 0 1.037.317 1.758.69.72.373 1.242.637 1.408.742z" fill="#FAFAFA"/>
    <mask id="a" style="mask-type:alpha" maskUnits="userSpaceOnUse" x="1" y="0" width="18" height="5">
        <path d="M15.996 2.38L13.901 0H6.54L4.447 2.38s-1.84-.512-2.708.358c0 0 2.453-.221 3.296 1.152 0 0 2.274.435 2.58.435.308 0 .972-.256 1.585-.461.613-.205 1.022-.206 1.022-.206s.41.001 1.022.206c.614.205 1.278.46 1.585.46.306 0 2.58-.434 2.58-.434.844-1.373 3.297-1.152 3.297-1.152-.87-.87-2.709-.358-2.709-.358z" fill="#fff"/>
    </mask>
    <g mask="url(#a)">
        <path d="M15.996 2.38L13.9 0H6.541L4.446 2.38s-1.84-.512-2.709.358c0 0 2.453-.221 3.297 1.152 0 0 2.274.435 2.58.435.307 0 .971-.256 1.585-.461.613-.205 1.022-.206 1.022-.206s.409.001 1.022.206 1.277.46 1.584.46c.307 0 2.581-.434 2.581-.434.843-1.373 3.296-1.152 3.296-1.152-.869-.87-2.708-.358-2.708-.358z" fill="url(#paint1_linear_5884_19596)"/>
    </g>
    <defs>
        <linearGradient id="paint0_linear_5884_19596" x1="0" y1="12.169" x2="20.442" y2="12.169" gradientUnits="userSpaceOnUse">
            <stop stop-color="#F50"/>
            <stop offset=".41" stop-color="#F50"/>
            <stop offset=".582" stop-color="#FF2000"/>
            <stop offset="1" stop-color="#FF2000"/>
        </linearGradient>
        <linearGradient id="paint1_linear_5884_19596" x1="2.102" y1="2.193" x2="18.704" y2="2.193" gradientUnits="userSpaceOnUse">
            <stop stop-color="#FF452A"/>
            <stop offset="1" stop-color="#FF2000"/>
        </linearGradient>
    </defs>
</svg>
