<svg fill="none" xmlns="http://www.w3.org/2000/svg" viewBox="0 0 32 32">
    <g clip-path="url(#clip0_663_11318)">
        <g filter="url(#filter0_d_663_11318)">
            <circle cx="15.593" cy="16.163" r="16" fill="#262626"/>
        </g>
        <circle cx="16" cy="16" r="16" fill="#5A5A5A"/>
        <path fill-rule="evenodd" clip-rule="evenodd" d="M22.733 17.383c-.322.322-.882.175-1.072-.238a.618.618 0 01-.058-.26V9.75a1.563 1.563 0 00-3.125 0v3.612c0 .31-.318.521-.614.427a.454.454 0 01-.323-.426v-5.8a1.563 1.563 0 00-3.125 0v5.8a.454.454 0 01-.323.426c-.296.094-.614-.117-.614-.428V9.75a1.563 1.563 0 00-3.125 0v7.138c0 .088-.02.174-.057.254-.186.405-.733.547-1.048.232l-.582-.582a1.563 1.563 0 00-2.21 2.21l4.594 4.594A6.24 6.24 0 0015.978 26a6.237 6.237 0 004.782-2.225l4.773-4.773a1.562 1.562 0 10-2.21-2.21l-.59.59z" fill="#888"/>
        <path d="M15.096 21.935h1.273c0-.175.01-.318.041-.472.062-.37.226-.637.688-.966.801-.564 1.9-1.108 1.9-2.31 0-1.314-1.191-2.187-2.937-2.187-2.002 0-3.193 1.17-3.05 2.865h1.325c-.102-.996.565-1.653 1.694-1.653.935 0 1.592.43 1.592 1.057 0 .657-.8.996-1.479 1.54-.75.606-1.047 1.12-1.047 1.982v.144zm-.164 2.033h1.591V22.52h-1.591v1.448z" fill="#5A5A5A"/>
    </g>
    <defs>
        <clipPath id="clip0_663_11318">
            <path d="M0 16C0 7.163 7.163 0 16 0s16 7.163 16 16-7.163 16-16 16S0 24.837 0 16z" fill="#fff"/>
        </clipPath>
        <filter id="filter0_d_663_11318" x="-6.566" y="-5.995" width="44.317" height="44.317" filterUnits="userSpaceOnUse" color-interpolation-filters="sRGB">
            <feFlood flood-opacity="0" result="BackgroundImageFix"/>
            <feColorMatrix in="SourceAlpha" values="0 0 0 0 0 0 0 0 0 0 0 0 0 0 0 0 0 0 127 0" result="hardAlpha"/>
            <feOffset/>
            <feGaussianBlur stdDeviation="3.079"/>
            <feColorMatrix values="0 0 0 0 0 0 0 0 0 0 0 0 0 0 0 0 0 0 0.1 0"/>
            <feBlend in2="BackgroundImageFix" result="effect1_dropShadow_663_11318"/>
            <feBlend in="SourceGraphic" in2="effect1_dropShadow_663_11318" result="shape"/>
        </filter>
    </defs>
</svg>
