<svg viewBox="0 0 62 70" fill="currentColor" xmlns="http://www.w3.org/2000/svg">
    <path d="m31.872 13.22 5.28-3.012V3.012L31.872 0v13.22Z"/>
    <path d="M12.424 44.534v-20.23l17.694-10.07V0L.897 16.666c-.272.156-.498.38-.656.65-.157.269-.24.574-.241.885v33.47l12.424-7.137Z"/>
    <path d="m48.63 45.961-17.665 10.07-17.555-10.01L.936 53.136l29.182 16.627a1.82 1.82 0 0 0 1.794 0l29.231-16.676-12.514-7.127Z"/>
    <path d="M61.093 16.666 49.506 10.06v7.196l-12.414 7.098 12.454 7.097v12.965L62 51.572v-33.37a1.766 1.766 0 0 0-.246-.888 1.793 1.793 0 0 0-.66-.648Z"/>
    <path d="m24.788 31.363.01 14.096 12.115-6.91V24.442l-12.125 6.92Z"/>
</svg>
