<svg xmlns="http://www.w3.org/2000/svg" width="1em" height="1em" viewBox="0 0 17 16" fill="none">
  <path d="M9.83341 7.33398H5.83341M7.16675 10.0007H5.83341M11.1667 4.66732H5.83341M13.8334 7.00065V4.53398C13.8334 3.41388 13.8334 2.85383 13.6154 2.426C13.4237 2.04968 13.1177 1.74372 12.7414 1.55197C12.3136 1.33398 11.7535 1.33398 10.6334 1.33398H6.36675C5.24664 1.33398 4.68659 1.33398 4.25877 1.55197C3.88244 1.74372 3.57648 2.04968 3.38474 2.426C3.16675 2.85383 3.16675 3.41388 3.16675 4.53398V11.4673C3.16675 12.5874 3.16675 13.1475 3.38474 13.5753C3.57648 13.9516 3.88244 14.2576 4.25877 14.4493C4.68659 14.6673 5.24664 14.6673 6.36675 14.6673H8.16675M15.1667 14.6673L14.1667 13.6673M14.8334 12.0007C14.8334 13.2893 13.7887 14.334 12.5001 14.334C11.2114 14.334 10.1667 13.2893 10.1667 12.0007C10.1667 10.712 11.2114 9.66732 12.5001 9.66732C13.7887 9.66732 14.8334 10.712 14.8334 12.0007Z" stroke="currentColor" stroke-linecap="round" stroke-linejoin="round"/>
</svg>