<svg width="24" height="24" viewBox="0 0 24 24" fill="none" xmlns="http://www.w3.org/2000/svg">
<path fill-rule="evenodd" clip-rule="evenodd" d="M12 2C8.70325 2 6.23451 3.37787 4.60982 4.73178C4.39192 4.91336 4.18867 5.0949 4 5.27321V4C4 3.44772 3.55228 3 3 3C2.44772 3 2 3.44772 2 4V8C2 8.55228 2.44772 9 3 9H6.5C7.05228 9 7.5 8.55228 7.5 8C7.5 7.44772 7.05228 7 6.5 7H5.09456C5.32756 6.76388 5.59283 6.51601 5.89018 6.26822C7.26549 5.12213 9.29675 4 12 4C16.4456 4 20 7.57959 20 12C20 16.4183 16.4183 20 12 20C7.58172 20 4 16.4183 4 12C4 11.4477 3.55228 11 3 11C2.44772 11 2 11.4477 2 12C2 17.5228 6.47715 22 12 22C17.5228 22 22 17.5228 22 12C22 6.47929 17.5544 2 12 2ZM13 8C13 7.44772 12.5523 7 12 7C11.4477 7 11 7.44772 11 8V12C11 12.3344 11.1671 12.6466 11.4453 12.8321L14.4453 14.8321C14.9048 15.1384 15.5257 15.0142 15.8321 14.5547C16.1384 14.0952 16.0142 13.4743 15.5547 13.1679L13 11.4648V8Z" fill="#A5A5A5"/>
</svg>
