<svg viewBox="0 0 24 24" fill="currentColor" xmlns="http://www.w3.org/2000/svg">
    <path fill-rule="evenodd" clip-rule="evenodd" d="M12 2C8.703 2 6.235 3.378 4.61 4.732c-.218.181-.421.363-.61.541V4a1 1 0 0 0-2 0v4a1 1 0 0 0 1 1h3.5a1 1 0 0 0 0-2H5.095c.233-.236.498-.484.795-.732C7.265 5.122 9.297 4 12 4c4.446 0 8 3.58 8 8a8 8 0 1 1-16 0 1 1 0 1 0-2 0c0 5.523 4.477 10 10 10s10-4.477 10-10c0-5.52-4.446-10-10-10Zm1 6a1 1 0 1 0-2 0v4a1 1 0 0 0 .445.832l3 2a1 1 0 0 0 1.11-1.664L13 11.465V8Z" />
</svg>
