<svg viewBox="0 0 80 80" xmlns="http://www.w3.org/2000/svg">
    <path fill="none" stroke="currentColor" stroke-width="6.171" d="M40 76c19.882 0 36-16.118 36-36S59.882 4 40 4 4 20.118 4 40s16.118 36 36 36z"/>
    <path fill="currentColor" fill-rule="evenodd" d="M49.298 38.748c-1.895 2.375-3.792 5.024-3.792 8.062v9.813a5.4 5.4 0 11-10.8 0V46.81c0-3.038-1.898-5.687-3.792-8.062a11.703 11.703 0 01-2.561-7.324c0-6.491 5.262-11.753 11.753-11.753 6.49 0 11.753 5.262 11.753 11.753 0 2.77-.958 5.315-2.561 7.324z"/>
</svg>
