<svg width="1em" height="1em" viewBox="0 0 16 16" fill="none" xmlns="http://www.w3.org/2000/svg">
<g clip-path="url(#clip0_29_1504)">
<path d="M4.5 1.33317H3.33329C2.22872 1.33317 1.33329 2.2286 1.33329 3.33317V12.6665C1.33329 13.7711 2.22872 14.6665 3.33329 14.6665H12.6666C13.7712 14.6665 14.6666 13.7711 14.6666 12.6665V12" stroke="currentColor" stroke-width="1.33333" stroke-linecap="round"/>
<path d="M13.0153 9.66683H8.31004C7.39719 9.66683 6.66671 8.93428 6.66671 8.04442V3.28924C6.66671 2.39938 7.39719 1.66683 8.31004 1.66683H13.0234C13.9362 1.66683 14.6667 2.39938 14.6667 3.28924V8.04442C14.6667 8.93428 13.9362 9.66683 13.0234 9.66683H13.0153Z" stroke="currentColor" stroke-width="1.33333"/>
</g>
<defs>
<clipPath id="clip0_29_1504">
<rect width="16" height="16" fill="white" transform="matrix(-1 0 0 -1 16 16)"/>
</clipPath>
</defs>
</svg>
