<svg viewBox="0 0 22 18" stroke="currentColor" fill="none" xmlns="http://www.w3.org/2000/svg">
    <path d="M21 7V4.2c0-1.12 0-1.68-.218-2.108a2 2 0 0 0-.874-.874C19.48 1 18.92 1 17.8 1H4.2c-1.12 0-1.68 0-2.108.218a2 2 0 0 0-.874.874C1 2.52 1 3.08 1 4.2v3.6c0 1.12 0 1.68.218 2.108a2 2 0 0 0 .874.874C2.52 11 3.08 11 4.2 11H10m1-5h.005M16 6h.005M6 6h.005m12.245 7v-1.75a1.75 1.75 0 1 0-3.5 0V13m-3.5-7a.25.25 0 1 1-.5 0 .25.25 0 0 1 .5 0Zm5 0a.25.25 0 1 1-.5 0 .25.25 0 0 1 .5 0Zm-10 0a.25.25 0 1 1-.5 0 .25.25 0 0 1 .5 0Zm8.35 11h3.8c.56 0 .84 0 1.054-.109a1 1 0 0 0 .437-.437C20 16.24 20 15.96 20 15.4v-.8c0-.56 0-.84-.109-1.054a1 1 0 0 0-.437-.437C19.24 13 18.96 13 18.4 13h-3.8c-.56 0-.84 0-1.054.109a1 1 0 0 0-.437.437C13 13.76 13 14.04 13 14.6v.8c0 .56 0 .84.109 1.054a1 1 0 0 0 .437.437C13.76 17 14.04 17 14.6 17Z" stroke-width="2" stroke-linecap="round" stroke-linejoin="round"/>
</svg>
