<svg width="1em" height="1em" viewBox="0 0 16 16" fill="none" xmlns="http://www.w3.org/2000/svg">
<path d="M6.00008 7.66691L7.33341 9.00024L10.3334 6.00024M13.3334 8.00024C13.3334 11.2725 9.76411 13.6525 8.46541 14.4102C8.31781 14.4963 8.24402 14.5393 8.13987 14.5617C8.05904 14.579 7.94112 14.579 7.86029 14.5617C7.75615 14.5393 7.68235 14.4963 7.53475 14.4102C6.23606 13.6525 2.66675 11.2725 2.66675 8.00024V4.81197C2.66675 4.27897 2.66675 4.01246 2.75392 3.78338C2.83093 3.581 2.95607 3.40042 3.11852 3.25726C3.30241 3.0952 3.55195 3.00162 4.05102 2.81447L7.62555 1.47402C7.76415 1.42205 7.83344 1.39606 7.90474 1.38576C7.96797 1.37662 8.03219 1.37662 8.09542 1.38576C8.16672 1.39606 8.23602 1.42205 8.37461 1.47402L11.9491 2.81447C12.4482 3.00162 12.6978 3.0952 12.8816 3.25726C13.0441 3.40042 13.1692 3.581 13.2462 3.78338C13.3334 4.01246 13.3334 4.27897 13.3334 4.81197V8.00024Z" stroke="currentColor" stroke-width="1.4" stroke-linecap="round" stroke-linejoin="round"/>
</svg>
