<svg width="1em" height="1em" viewBox="0 0 31 31" fill="none" xmlns="http://www.w3.org/2000/svg">
<path d="M11.4139 4.18113L14.8024 2.91042C15.0703 2.80996 15.2043 2.75972 15.3421 2.73981C15.4643 2.72215 15.5885 2.72215 15.7107 2.73981C15.8485 2.75972 15.9825 2.80996 16.2504 2.91042L23.1599 5.50149C24.1246 5.86325 24.6069 6.04414 24.9624 6.3574C25.2764 6.63413 25.5183 6.98318 25.6672 7.37437C25.8357 7.81719 25.8357 8.33234 25.8357 9.36264V15.5255C25.8357 16.4537 25.6871 17.3448 25.4256 18.1943M22.7711 22.7751C20.5988 25.3013 17.8304 27.0963 16.428 27.9146C16.1414 28.0818 15.998 28.1655 15.7967 28.2087C15.6405 28.2422 15.4125 28.2422 15.2563 28.2087C15.0549 28.1655 14.9123 28.0823 14.6269 27.9158C12.1166 26.4513 5.21713 21.8508 5.21713 15.5255V7.50531C5.21713 6.90356 5.5904 6.36493 6.15383 6.15365M3.92847 3.92759L27.1243 27.1235" stroke="currentColor" stroke-width="2.4375" stroke-linecap="round" stroke-linejoin="round"/>
</svg>
