<svg width="1em" height="1em" viewBox="0 0 77 77" fill="none" xmlns="http://www.w3.org/2000/svg">
<path d="M35.8496 68.5617C36.5519 68.9714 36.903 69.1762 37.3985 69.2825C37.7831 69.365 38.3441 69.365 38.7287 69.2825C39.2242 69.1762 39.5753 68.9714 40.2776 68.5617C46.4566 64.9569 63.439 53.6333 63.439 38.0641V22.8947C63.439 20.3587 63.439 19.0907 63.0242 18.0007C62.6578 17.0379 62.0624 16.1787 61.2895 15.4975C60.4146 14.7265 59.2273 14.2812 56.8528 13.3908L39.8456 7.0131C39.1862 6.76581 38.8564 6.64217 38.5172 6.59315C38.2164 6.54968 37.9108 6.54968 37.61 6.59315C37.2708 6.64217 36.9411 6.76581 36.2816 7.0131L19.2744 13.3908C16.8999 14.2812 15.7126 14.7265 14.8377 15.4975C14.0648 16.1787 13.4694 17.0379 13.103 18.0007C12.6882 19.0907 12.6882 20.3587 12.6882 22.8947V38.0641C12.6882 53.6333 29.6706 64.9569 35.8496 68.5617Z" stroke="currentColor" stroke-width="6.34384" stroke-linecap="round" stroke-linejoin="round"/>
<path d="M44.4072 28.5469L31.7195 41.2346M31.7195 28.5469L44.4072 41.2346" stroke="currentColor" stroke-width="4.44069" stroke-linecap="round" stroke-linejoin="round"/>
</svg>
