<svg width="1em" height="1em" viewBox="0 0 30 30" fill="none" xmlns="http://www.w3.org/2000/svg">
<path d="M14.1274 27.0195C14.4041 27.181 14.5425 27.2617 14.7378 27.3036C14.8893 27.3361 15.1104 27.3361 15.262 27.3036C15.4573 27.2617 15.5956 27.181 15.8724 27.0195C18.3074 25.5989 24.9999 21.1365 24.9999 15.0009V9.02294C24.9999 8.02355 24.9999 7.52385 24.8364 7.09432C24.692 6.71486 24.4574 6.37628 24.1528 6.10785C23.808 5.80399 23.3401 5.62853 22.4044 5.27762L15.7021 2.76428C15.4423 2.66683 15.3123 2.6181 15.1786 2.59879C15.0601 2.58165 14.9397 2.58165 14.8211 2.59879C14.6874 2.6181 14.5575 2.66683 14.2976 2.76428L7.59538 5.27762C6.65963 5.62853 6.19175 5.80399 5.84695 6.10785C5.54236 6.37628 5.30772 6.71486 5.16333 7.09432C4.99988 7.52385 4.99988 8.02355 4.99988 9.02294V15.0009C4.99988 21.1365 11.6923 25.5989 14.1274 27.0195Z" stroke="currentColor" stroke-width="2.625" stroke-linecap="round" stroke-linejoin="round"/>
<path d="M11.25 11.6284C11.5143 10.877 12.036 10.2435 12.7226 9.83996C13.4092 9.43642 14.2165 9.28891 15.0015 9.42355C15.7865 9.5582 16.4985 9.96631 17.0114 10.5756C17.5243 11.1849 17.805 11.9561 17.8039 12.7525C17.8039 15.0008 14.4314 16.125 14.4314 16.125M14.4749 20.625H14.4899" stroke="currentColor" stroke-width="2.25" stroke-linecap="round" stroke-linejoin="round"/>
</svg>
