<svg width="70" height="67" viewBox="0 0 70 67" fill="none" xmlns="http://www.w3.org/2000/svg">
<path fill-rule="evenodd" clip-rule="evenodd" d="M66.3231 18.553L70 29.9419L55.455 35.1151C50.5317 36.8662 48.6021 42.843 51.5624 47.172L60.3081 59.9613L50.6818 67L41.2984 54.677C38.1222 50.5058 31.8778 50.5058 28.7016 54.6769L19.3182 67L9.69189 59.9613L18.4376 47.172C21.3979 42.843 19.4683 36.8662 14.545 35.1151L0 29.9419L3.67692 18.553L18.4655 22.9719C23.4712 24.4676 28.5231 20.7737 28.6565 15.5203L29.0506 0H40.9494L41.3435 15.5203C41.4769 20.7737 46.5288 24.4676 51.5345 22.9719L66.3231 18.553Z" fill="#FD4848"/>
</svg>
