<svg width="15" height="10" viewBox="0 0 15 10" fill="none" xmlns="http://www.w3.org/2000/svg">
<g id="Frame 1410118221" clip-path="url(#clip0_2295_8490)">
<path id="Union" fill-rule="evenodd" clip-rule="evenodd" d="M1.77999 4.5336C2.29488 3.90847 3.11333 3.02297 4.12207 2.29723C5.13457 1.56878 6.29824 1.03026 7.51374 1.03026C8.72924 1.03026 9.89291 1.56878 10.9054 2.29723C11.9142 3.02297 12.7326 3.90847 13.2475 4.5336C13.4008 4.71978 13.4819 4.82011 13.5315 4.9033C13.5689 4.96602 13.5727 4.99338 13.5727 5.02497C13.5727 5.05656 13.5689 5.08392 13.5315 5.14664C13.4819 5.22984 13.4008 5.33016 13.2475 5.51634C12.7326 6.14148 11.9142 7.02697 10.9054 7.75272C9.89291 8.48117 8.72924 9.01968 7.51374 9.01968C6.29824 9.01968 5.13457 8.48117 4.12207 7.75272C3.11333 7.02697 2.29488 6.14148 1.77999 5.51634C1.62664 5.33016 1.54562 5.22984 1.49599 5.14664C1.45857 5.08392 1.45476 5.05656 1.45476 5.02497C1.45476 4.99338 1.45857 4.96602 1.49599 4.9033C1.54562 4.82011 1.62664 4.71979 1.77999 4.5336ZM7.51374 0.0778809C6.02008 0.0778809 4.66218 0.735383 3.56586 1.52414C2.46578 2.3156 1.58816 3.2685 1.04486 3.92811L0.996381 3.9867C0.754973 4.27777 0.50238 4.58233 0.50238 5.02497C0.50238 5.46761 0.754974 5.77217 0.996382 6.06324L1.04487 6.12183C1.58816 6.78145 2.46578 7.73434 3.56586 8.5258C4.66218 9.31456 6.02008 9.97206 7.51374 9.97206C9.0074 9.97206 10.3653 9.31456 11.4616 8.5258C12.5617 7.73434 13.4393 6.78145 13.9826 6.12183L14.0311 6.06324C14.2725 5.77217 14.5251 5.46761 14.5251 5.02497C14.5251 4.58233 14.2725 4.27777 14.0311 3.9867L13.9826 3.92811C13.4393 3.2685 12.5617 2.3156 11.4616 1.52414C10.3653 0.735383 9.0074 0.0778809 7.51374 0.0778809ZM7.47315 2.45971C6.12624 2.45971 5.01283 3.58471 5.01283 4.99939C5.01283 6.41407 6.12624 7.53907 7.47315 7.53907C8.82005 7.53907 9.93346 6.41407 9.93346 4.99939C9.93346 3.58471 8.82005 2.45971 7.47315 2.45971ZM4.06045 4.99939C4.06045 3.08283 5.57647 1.50732 7.47315 1.50732C9.36982 1.50732 10.8858 3.08283 10.8858 4.99939C10.8858 6.91595 9.36982 8.49145 7.47315 8.49145C5.57647 8.49145 4.06045 6.91595 4.06045 4.99939ZM7.51364 4.12597C7.05341 4.12597 6.68031 4.49906 6.68031 4.9593C6.68031 5.41954 7.05341 5.79263 7.51364 5.79263C7.97388 5.79263 8.34698 5.41954 8.34698 4.9593C8.34698 4.49906 7.97388 4.12597 7.51364 4.12597ZM5.72793 4.9593C5.72793 3.97308 6.52742 3.17358 7.51364 3.17358C8.49987 3.17358 9.29936 3.97308 9.29936 4.9593C9.29936 5.94552 8.49987 6.74501 7.51364 6.74501C6.52742 6.74501 5.72793 5.94552 5.72793 4.9593ZM2.23679 4.99902C2.23679 4.73602 2.44999 4.52283 2.71298 4.52283H3.03044C3.29343 4.52283 3.50663 4.73602 3.50663 4.99902C3.50663 5.26201 3.29343 5.47521 3.03044 5.47521H2.71298C2.44999 5.47521 2.23679 5.26201 2.23679 4.99902ZM11.9195 4.52283C11.6565 4.52283 11.4433 4.73602 11.4433 4.99902C11.4433 5.26201 11.6565 5.47521 11.9195 5.47521H12.237C12.5 5.47521 12.7132 5.26201 12.7132 4.99902C12.7132 4.73602 12.5 4.52283 12.237 4.52283H11.9195Z" fill="#86EC6D"/>
</g>
<defs>
<clipPath id="clip0_2295_8490">
<rect width="14.0476" height="10" fill="white" transform="translate(0.490723)"/>
</clipPath>
</defs>
</svg>
