<svg viewBox="0 0 16 17" stroke="currentColor" fill="none" xmlns="http://www.w3.org/2000/svg">
    <path d="M1.7 8.5h12.6" stroke-width="1.4" stroke-linecap="round"/>
    <path d="M6.6 5.002h2.1" stroke-width="1.4" stroke-linecap="round"/>
    <path d="M7.3 12h2.1" stroke-width="1.4" stroke-linecap="round"/>
    <path d="M13.6 9.902l1.4-1.4-1.4-1.4v2.8z" stroke-width="1.4" stroke-linecap="round" stroke-linejoin="round"/>
    <path d="M6.6 5.002c-1.75 0-1.75 3.5-3.5 3.5" stroke-width="1.4"/>
    <path d="M7.3 12c-1.75 0-1.75-3.5-3.5-3.5" stroke-width="1.4"/>
    <path d="M1.7 9.2a.7.7 0 100-1.4.7.7 0 000 1.4z" stroke-width="1.4"/>
    <path d="M9.4 5.7a.7.7 0 100-1.4.7.7 0 000 1.4z" stroke-width="1.4"/>
    <path d="M10.8 11.3H9.4v1.4h1.4v-1.4z" stroke-width="1.4" stroke-linejoin="round"/>
</svg>
